<svg id="svg" version="1.1" xmlns="http://www.w3.org/2000/svg" xmlns:xlink="http://www.w3.org/1999/xlink" width="400" height="400" viewBox="0, 0, 400,400"><g id="svgg"><path id="path0" d="M177.500 0.276 C 175.575 0.361,174.000 0.604,174.000 0.816 C 174.000 1.027,172.740 1.200,171.200 1.200 C 169.600 1.200,168.400 1.371,168.400 1.600 C 168.400 1.822,167.333 2.000,166.000 2.000 C 164.667 2.000,163.600 2.178,163.600 2.400 C 163.600 2.620,162.700 2.800,161.600 2.800 C 160.500 2.800,159.600 2.980,159.600 3.200 C 159.600 3.420,158.790 3.600,157.800 3.600 C 156.810 3.600,156.000 3.780,156.000 4.000 C 156.000 4.220,155.280 4.400,154.400 4.400 C 153.520 4.400,152.800 4.580,152.800 4.800 C 152.800 5.020,152.080 5.200,151.200 5.200 C 150.320 5.200,149.600 5.380,149.600 5.600 C 149.600 5.820,148.880 6.000,148.000 6.000 C 147.120 6.000,146.400 6.180,146.400 6.400 C 146.400 6.620,145.860 6.800,145.200 6.800 C 144.540 6.800,144.000 6.980,144.000 7.200 C 144.000 7.420,143.370 7.600,142.600 7.600 C 141.830 7.600,141.200 7.780,141.200 8.000 C 141.200 8.220,140.660 8.400,140.000 8.400 C 139.340 8.400,138.800 8.603,138.800 8.850 C 138.800 9.137,138.364 9.213,137.600 9.060 C 136.923 8.925,136.400 8.990,136.400 9.210 C 136.400 9.425,135.860 9.600,135.200 9.600 C 134.540 9.600,134.000 9.747,134.000 9.928 C 134.000 10.267,130.032 11.477,129.500 11.300 C 129.335 11.245,129.200 11.380,129.200 11.600 C 129.200 11.820,128.840 12.000,128.400 12.000 C 127.960 12.000,127.600 12.180,127.600 12.400 C 127.600 12.620,127.172 12.800,126.649 12.800 C 126.126 12.800,125.476 13.068,125.204 13.396 C 124.932 13.723,124.550 13.893,124.355 13.772 C 124.160 13.651,124.000 13.743,124.000 13.976 C 124.000 14.209,123.645 14.400,123.212 14.400 C 122.779 14.400,121.783 14.760,121.000 15.200 C 120.217 15.640,119.311 16.000,118.988 16.000 C 118.665 16.000,118.400 16.180,118.400 16.400 C 118.400 16.620,118.040 16.800,117.600 16.800 C 117.160 16.800,116.800 16.980,116.800 17.200 C 116.800 17.420,116.260 17.600,115.600 17.600 C 114.940 17.600,114.400 17.780,114.400 18.000 C 114.400 18.220,114.040 18.400,113.600 18.400 C 113.160 18.400,112.800 18.580,112.800 18.800 C 112.800 19.020,112.440 19.200,112.000 19.200 C 111.560 19.200,111.200 19.380,111.200 19.600 C 111.200 19.820,110.840 20.000,110.400 20.000 C 109.960 20.000,109.600 20.180,109.600 20.400 C 109.600 20.620,109.330 20.800,109.000 20.800 C 108.670 20.800,108.400 20.980,108.400 21.200 C 108.400 21.420,108.040 21.600,107.600 21.600 C 107.160 21.600,106.800 21.780,106.800 22.000 C 106.800 22.220,106.440 22.400,106.000 22.400 C 105.560 22.400,105.200 22.580,105.200 22.800 C 105.200 23.020,104.958 23.200,104.662 23.200 C 104.366 23.200,103.798 23.560,103.400 24.000 C 103.002 24.440,102.506 24.800,102.298 24.800 C 101.716 24.800,99.064 26.107,98.468 26.689 C 98.175 26.974,97.770 27.105,97.568 26.980 C 97.365 26.855,97.200 27.046,97.200 27.403 C 97.200 27.885,96.979 27.984,96.350 27.784 C 95.778 27.603,95.589 27.659,95.774 27.957 C 95.925 28.202,95.791 28.400,95.473 28.400 C 95.157 28.400,94.676 28.668,94.404 28.996 C 94.132 29.323,93.750 29.493,93.555 29.372 C 93.360 29.251,93.200 29.343,93.200 29.576 C 93.200 29.809,92.970 30.000,92.688 30.000 C 92.407 30.000,91.917 30.360,91.600 30.800 C 91.283 31.240,90.746 31.600,90.408 31.600 C 90.069 31.600,89.568 31.960,89.293 32.400 C 89.018 32.840,88.474 33.200,88.085 33.200 C 87.695 33.200,87.117 33.560,86.800 34.000 C 86.483 34.440,85.985 34.800,85.694 34.800 C 85.402 34.800,84.727 35.237,84.193 35.771 C 83.659 36.305,82.677 37.064,82.011 37.457 C 81.345 37.851,80.800 38.314,80.800 38.486 C 80.800 38.659,80.470 38.800,80.068 38.800 C 79.665 38.800,79.092 39.255,78.794 39.811 C 78.497 40.367,77.836 40.926,77.327 41.054 C 76.817 41.182,76.400 41.447,76.400 41.643 C 76.400 41.840,76.175 41.955,75.900 41.900 C 75.625 41.845,75.432 41.986,75.471 42.212 C 75.510 42.439,74.880 43.059,74.071 43.590 C 72.457 44.648,71.423 45.530,69.485 47.500 C 68.781 48.215,67.993 48.800,67.732 48.800 C 67.472 48.800,65.717 50.375,63.833 52.300 C 59.636 56.588,57.075 59.149,52.401 63.730 C 50.421 65.672,48.800 67.473,48.800 67.733 C 48.800 67.993,48.215 68.781,47.500 69.485 C 45.530 71.423,44.648 72.457,43.590 74.071 C 43.059 74.880,42.439 75.510,42.212 75.471 C 41.986 75.432,41.845 75.625,41.900 75.900 C 41.955 76.175,41.840 76.400,41.643 76.400 C 41.447 76.400,41.182 76.817,41.054 77.327 C 40.926 77.836,40.367 78.497,39.811 78.794 C 39.255 79.092,38.800 79.665,38.800 80.068 C 38.800 80.470,38.659 80.800,38.486 80.800 C 38.314 80.800,37.851 81.345,37.457 82.011 C 37.064 82.677,36.305 83.659,35.771 84.193 C 35.237 84.727,34.800 85.402,34.800 85.694 C 34.800 85.985,34.440 86.483,34.000 86.800 C 33.560 87.117,33.200 87.695,33.200 88.085 C 33.200 88.474,32.840 89.018,32.400 89.293 C 31.960 89.568,31.600 90.069,31.600 90.408 C 31.600 90.746,31.240 91.283,30.800 91.600 C 30.360 91.917,30.000 92.407,30.000 92.688 C 30.000 92.970,29.809 93.200,29.576 93.200 C 29.343 93.200,29.251 93.360,29.372 93.555 C 29.493 93.750,29.323 94.132,28.996 94.404 C 28.668 94.676,28.400 95.157,28.400 95.473 C 28.400 95.791,28.202 95.925,27.957 95.774 C 27.659 95.589,27.603 95.778,27.784 96.350 C 27.984 96.979,27.885 97.200,27.403 97.200 C 27.046 97.200,26.855 97.365,26.980 97.568 C 27.105 97.770,26.974 98.175,26.689 98.468 C 26.107 99.064,24.800 101.716,24.800 102.298 C 24.800 102.506,24.440 103.002,24.000 103.400 C 23.560 103.798,23.200 104.366,23.200 104.662 C 23.200 104.958,23.020 105.200,22.800 105.200 C 22.580 105.200,22.400 105.560,22.400 106.000 C 22.400 106.440,22.220 106.800,22.000 106.800 C 21.780 106.800,21.600 107.160,21.600 107.600 C 21.600 108.040,21.420 108.400,21.200 108.400 C 20.980 108.400,20.800 108.670,20.800 109.000 C 20.800 109.330,20.620 109.600,20.400 109.600 C 20.180 109.600,20.000 109.960,20.000 110.400 C 20.000 110.840,19.820 111.200,19.600 111.200 C 19.380 111.200,19.200 111.560,19.200 112.000 C 19.200 112.440,19.020 112.800,18.800 112.800 C 18.580 112.800,18.400 113.160,18.400 113.600 C 18.400 114.040,18.220 114.400,18.000 114.400 C 17.780 114.400,17.600 114.940,17.600 115.600 C 17.600 116.260,17.420 116.800,17.200 116.800 C 16.980 116.800,16.800 117.160,16.800 117.600 C 16.800 118.040,16.620 118.400,16.400 118.400 C 16.180 118.400,16.000 118.665,16.000 118.988 C 16.000 119.311,15.640 120.217,15.200 121.000 C 14.760 121.783,14.400 122.779,14.400 123.212 C 14.400 123.645,14.209 124.000,13.976 124.000 C 13.743 124.000,13.651 124.160,13.772 124.355 C 13.893 124.550,13.723 124.932,13.396 125.204 C 13.068 125.476,12.800 126.126,12.800 126.649 C 12.800 127.172,12.620 127.600,12.400 127.600 C 12.180 127.600,12.000 127.960,12.000 128.400 C 12.000 128.840,11.820 129.200,11.600 129.200 C 11.380 129.200,11.245 129.335,11.300 129.500 C 11.477 130.032,10.267 134.000,9.928 134.000 C 9.747 134.000,9.600 134.540,9.600 135.200 C 9.600 135.860,9.425 136.400,9.210 136.400 C 8.990 136.400,8.925 136.923,9.060 137.600 C 9.213 138.364,9.137 138.800,8.850 138.800 C 8.603 138.800,8.400 139.340,8.400 140.000 C 8.400 140.660,8.220 141.200,8.000 141.200 C 7.780 141.200,7.600 141.830,7.600 142.600 C 7.600 143.370,7.420 144.000,7.200 144.000 C 6.980 144.000,6.800 144.540,6.800 145.200 C 6.800 145.860,6.620 146.400,6.400 146.400 C 6.180 146.400,6.000 147.120,6.000 148.000 C 6.000 148.880,5.820 149.600,5.600 149.600 C 5.380 149.600,5.200 150.320,5.200 151.200 C 5.200 152.080,5.020 152.800,4.800 152.800 C 4.580 152.800,4.400 153.520,4.400 154.400 C 4.400 155.280,4.220 156.000,4.000 156.000 C 3.780 156.000,3.600 156.810,3.600 157.800 C 3.600 158.790,3.420 159.600,3.200 159.600 C 2.980 159.600,2.800 160.500,2.800 161.600 C 2.800 162.700,2.620 163.600,2.400 163.600 C 2.178 163.600,2.000 164.667,2.000 166.000 C 2.000 167.333,1.822 168.400,1.600 168.400 C 1.372 168.400,1.200 169.589,1.200 171.167 C 1.200 173.024,1.036 173.988,0.700 174.100 C -0.032 174.344,-0.032 225.656,0.700 225.900 C 1.036 226.012,1.200 226.976,1.200 228.833 C 1.200 230.411,1.372 231.600,1.600 231.600 C 1.822 231.600,2.000 232.667,2.000 234.000 C 2.000 235.333,2.178 236.400,2.400 236.400 C 2.620 236.400,2.800 237.300,2.800 238.400 C 2.800 239.500,2.980 240.400,3.200 240.400 C 3.420 240.400,3.600 241.210,3.600 242.200 C 3.600 243.190,3.780 244.000,4.000 244.000 C 4.220 244.000,4.400 244.720,4.400 245.600 C 4.400 246.480,4.580 247.200,4.800 247.200 C 5.020 247.200,5.200 247.920,5.200 248.800 C 5.200 249.680,5.380 250.400,5.600 250.400 C 5.820 250.400,6.000 251.120,6.000 252.000 C 6.000 252.880,6.180 253.600,6.400 253.600 C 6.620 253.600,6.800 254.140,6.800 254.800 C 6.800 255.460,6.980 256.000,7.200 256.000 C 7.420 256.000,7.600 256.630,7.600 257.400 C 7.600 258.170,7.780 258.800,8.000 258.800 C 8.220 258.800,8.400 259.340,8.400 260.000 C 8.400 260.660,8.603 261.200,8.850 261.200 C 9.137 261.200,9.213 261.636,9.060 262.400 C 8.925 263.077,8.990 263.600,9.210 263.600 C 9.425 263.600,9.600 264.140,9.600 264.800 C 9.600 265.460,9.747 266.000,9.928 266.000 C 10.260 266.000,11.511 270.070,11.265 270.355 C 11.192 270.441,11.282 270.621,11.466 270.755 C 12.045 271.179,12.800 272.758,12.800 273.546 C 12.800 273.962,13.068 274.524,13.396 274.796 C 13.723 275.068,13.893 275.450,13.772 275.645 C 13.651 275.840,13.743 276.000,13.976 276.000 C 14.209 276.000,14.400 276.355,14.400 276.788 C 14.400 277.221,14.760 278.217,15.200 279.000 C 15.640 279.783,16.000 280.689,16.000 281.012 C 16.000 281.335,16.180 281.600,16.400 281.600 C 16.620 281.600,16.800 281.960,16.800 282.400 C 16.800 282.840,16.980 283.200,17.200 283.200 C 17.420 283.200,17.600 283.740,17.600 284.400 C 17.600 285.060,17.780 285.600,18.000 285.600 C 18.220 285.600,18.400 285.960,18.400 286.400 C 18.400 286.840,18.580 287.200,18.800 287.200 C 19.020 287.200,19.200 287.560,19.200 288.000 C 19.200 288.440,19.380 288.800,19.600 288.800 C 19.820 288.800,20.000 289.160,20.000 289.600 C 20.000 290.040,20.180 290.400,20.400 290.400 C 20.620 290.400,20.800 290.670,20.800 291.000 C 20.800 291.330,20.980 291.600,21.200 291.600 C 21.420 291.600,21.600 291.960,21.600 292.400 C 21.600 292.840,21.780 293.200,22.000 293.200 C 22.220 293.200,22.400 293.560,22.400 294.000 C 22.400 294.440,22.580 294.800,22.800 294.800 C 23.020 294.800,23.200 295.042,23.200 295.338 C 23.200 295.634,23.560 296.202,24.000 296.600 C 24.440 296.998,24.800 297.494,24.800 297.702 C 24.800 298.284,26.107 300.936,26.689 301.532 C 26.974 301.825,27.105 302.230,26.980 302.432 C 26.855 302.635,27.046 302.800,27.403 302.800 C 27.885 302.800,27.984 303.021,27.784 303.650 C 27.603 304.222,27.659 304.411,27.957 304.226 C 28.202 304.075,28.400 304.209,28.400 304.527 C 28.400 304.843,28.668 305.324,28.996 305.596 C 29.323 305.868,29.493 306.250,29.372 306.445 C 29.251 306.640,29.343 306.800,29.576 306.800 C 29.809 306.800,30.000 307.030,30.000 307.312 C 30.000 307.593,30.360 308.083,30.800 308.400 C 31.240 308.717,31.600 309.254,31.600 309.592 C 31.600 309.931,31.960 310.432,32.400 310.707 C 32.840 310.982,33.200 311.526,33.200 311.915 C 33.200 312.305,33.560 312.883,34.000 313.200 C 34.440 313.517,34.800 314.057,34.800 314.400 C 34.800 314.743,35.160 315.283,35.600 315.600 C 36.040 315.917,36.400 316.315,36.400 316.484 C 36.400 316.778,37.245 317.904,38.300 319.016 C 38.575 319.306,38.800 319.795,38.800 320.104 C 38.800 320.412,39.244 320.902,39.786 321.193 C 40.329 321.483,40.678 321.873,40.563 322.060 C 40.447 322.247,40.543 322.400,40.776 322.400 C 41.009 322.400,41.200 322.670,41.200 323.000 C 41.200 323.330,41.380 323.600,41.600 323.600 C 41.820 323.600,41.955 323.825,41.900 324.100 C 41.845 324.375,41.986 324.568,42.212 324.529 C 42.439 324.490,43.059 325.120,43.590 325.929 C 44.648 327.543,45.530 328.577,47.500 330.515 C 48.215 331.219,48.800 332.007,48.800 332.267 C 48.800 332.527,50.421 334.328,52.401 336.270 C 57.075 340.851,59.636 343.412,63.833 347.700 C 65.717 349.625,67.472 351.200,67.732 351.200 C 67.993 351.200,68.781 351.785,69.485 352.500 C 71.423 354.470,72.457 355.352,74.071 356.410 C 74.880 356.941,75.510 357.561,75.471 357.788 C 75.432 358.014,75.625 358.155,75.900 358.100 C 76.175 358.045,76.400 358.160,76.400 358.357 C 76.400 358.553,76.817 358.818,77.327 358.946 C 77.836 359.074,78.497 359.633,78.794 360.189 C 79.092 360.745,79.665 361.200,80.068 361.200 C 80.470 361.200,80.800 361.341,80.800 361.514 C 80.800 361.686,81.345 362.149,82.011 362.543 C 82.677 362.936,83.659 363.695,84.193 364.229 C 84.727 364.763,85.402 365.200,85.694 365.200 C 85.985 365.200,86.483 365.560,86.800 366.000 C 87.117 366.440,87.695 366.800,88.085 366.800 C 88.474 366.800,89.018 367.160,89.293 367.600 C 89.568 368.040,90.069 368.400,90.408 368.400 C 90.746 368.400,91.283 368.760,91.600 369.200 C 91.917 369.640,92.407 370.000,92.688 370.000 C 92.970 370.000,93.200 370.191,93.200 370.424 C 93.200 370.657,93.360 370.749,93.555 370.628 C 93.750 370.507,94.132 370.677,94.404 371.004 C 94.676 371.332,95.157 371.600,95.473 371.600 C 95.791 371.600,95.925 371.798,95.774 372.043 C 95.589 372.341,95.778 372.397,96.350 372.216 C 96.979 372.016,97.200 372.115,97.200 372.597 C 97.200 372.954,97.365 373.145,97.568 373.020 C 97.770 372.895,98.175 373.026,98.468 373.311 C 99.064 373.893,101.716 375.200,102.298 375.200 C 102.506 375.200,103.002 375.560,103.400 376.000 C 103.798 376.440,104.366 376.800,104.662 376.800 C 104.958 376.800,105.200 376.980,105.200 377.200 C 105.200 377.420,105.560 377.600,106.000 377.600 C 106.440 377.600,106.800 377.780,106.800 378.000 C 106.800 378.220,107.160 378.400,107.600 378.400 C 108.040 378.400,108.400 378.580,108.400 378.800 C 108.400 379.020,108.670 379.200,109.000 379.200 C 109.330 379.200,109.600 379.380,109.600 379.600 C 109.600 379.820,109.960 380.000,110.400 380.000 C 110.840 380.000,111.200 380.180,111.200 380.400 C 111.200 380.620,111.560 380.800,112.000 380.800 C 112.440 380.800,112.800 380.980,112.800 381.200 C 112.800 381.420,113.160 381.600,113.600 381.600 C 114.040 381.600,114.400 381.780,114.400 382.000 C 114.400 382.220,114.940 382.400,115.600 382.400 C 116.260 382.400,116.800 382.580,116.800 382.800 C 116.800 383.020,117.160 383.200,117.600 383.200 C 118.040 383.200,118.400 383.380,118.400 383.600 C 118.400 383.820,118.665 384.000,118.988 384.000 C 119.311 384.000,120.217 384.360,121.000 384.800 C 121.783 385.240,122.779 385.600,123.212 385.600 C 123.645 385.600,124.000 385.791,124.000 386.024 C 124.000 386.257,124.160 386.349,124.355 386.228 C 124.550 386.107,124.932 386.277,125.204 386.604 C 125.476 386.932,126.126 387.200,126.649 387.200 C 127.172 387.200,127.600 387.380,127.600 387.600 C 127.600 387.820,127.960 388.000,128.400 388.000 C 128.840 388.000,129.200 388.180,129.200 388.400 C 129.200 388.620,129.335 388.755,129.500 388.700 C 130.032 388.523,134.000 389.733,134.000 390.072 C 134.000 390.253,134.540 390.400,135.200 390.400 C 135.860 390.400,136.400 390.576,136.400 390.790 C 136.400 391.010,136.923 391.075,137.600 390.940 C 138.364 390.787,138.800 390.863,138.800 391.150 C 138.800 391.398,139.340 391.600,140.000 391.600 C 140.660 391.600,141.200 391.780,141.200 392.000 C 141.200 392.220,141.830 392.400,142.600 392.400 C 143.370 392.400,144.000 392.580,144.000 392.800 C 144.000 393.020,144.540 393.200,145.200 393.200 C 145.860 393.200,146.400 393.380,146.400 393.600 C 146.400 393.820,147.120 394.000,148.000 394.000 C 148.880 394.000,149.600 394.180,149.600 394.400 C 149.600 394.620,150.320 394.800,151.200 394.800 C 152.080 394.800,152.800 394.980,152.800 395.200 C 152.800 395.420,153.520 395.600,154.400 395.600 C 155.280 395.600,156.000 395.780,156.000 396.000 C 156.000 396.220,156.810 396.400,157.800 396.400 C 158.790 396.400,159.600 396.580,159.600 396.800 C 159.600 397.020,160.500 397.200,161.600 397.200 C 162.700 397.200,163.600 397.380,163.600 397.600 C 163.600 397.822,164.667 398.000,166.000 398.000 C 167.333 398.000,168.400 398.178,168.400 398.400 C 168.400 398.628,169.589 398.800,171.167 398.800 C 173.024 398.800,173.988 398.964,174.100 399.300 C 174.344 400.032,225.656 400.032,225.900 399.300 C 226.012 398.964,226.976 398.800,228.833 398.800 C 230.411 398.800,231.600 398.628,231.600 398.400 C 231.600 398.178,232.667 398.000,234.000 398.000 C 235.333 398.000,236.400 397.822,236.400 397.600 C 236.400 397.380,237.300 397.200,238.400 397.200 C 239.500 397.200,240.400 397.020,240.400 396.800 C 240.400 396.580,241.210 396.400,242.200 396.400 C 243.190 396.400,244.000 396.220,244.000 396.000 C 244.000 395.780,244.720 395.600,245.600 395.600 C 246.480 395.600,247.200 395.420,247.200 395.200 C 247.200 394.980,247.920 394.800,248.800 394.800 C 249.680 394.800,250.400 394.620,250.400 394.400 C 250.400 394.180,251.120 394.000,252.000 394.000 C 252.880 394.000,253.600 393.820,253.600 393.600 C 253.600 393.380,254.140 393.200,254.800 393.200 C 255.460 393.200,256.000 393.020,256.000 392.800 C 256.000 392.580,256.630 392.400,257.400 392.400 C 258.170 392.400,258.800 392.220,258.800 392.000 C 258.800 391.780,259.340 391.600,260.000 391.600 C 260.660 391.600,261.200 391.398,261.200 391.150 C 261.200 390.863,261.636 390.787,262.400 390.940 C 263.077 391.075,263.600 391.010,263.600 390.790 C 263.600 390.575,264.140 390.400,264.800 390.400 C 265.460 390.400,266.000 390.253,266.000 390.072 C 266.000 389.733,269.968 388.523,270.500 388.700 C 270.665 388.755,270.800 388.620,270.800 388.400 C 270.800 388.180,271.160 388.000,271.600 388.000 C 272.040 388.000,272.400 387.820,272.400 387.600 C 272.400 387.380,272.828 387.200,273.351 387.200 C 273.874 387.200,274.524 386.932,274.796 386.604 C 275.068 386.277,275.450 386.107,275.645 386.228 C 275.840 386.349,276.000 386.257,276.000 386.024 C 276.000 385.791,276.355 385.600,276.788 385.600 C 277.221 385.600,278.217 385.240,279.000 384.800 C 279.783 384.360,280.689 384.000,281.012 384.000 C 281.335 384.000,281.600 383.820,281.600 383.600 C 281.600 383.380,281.960 383.200,282.400 383.200 C 282.840 383.200,283.200 383.020,283.200 382.800 C 283.200 382.580,283.740 382.400,284.400 382.400 C 285.060 382.400,285.600 382.220,285.600 382.000 C 285.600 381.780,285.960 381.600,286.400 381.600 C 286.840 381.600,287.200 381.420,287.200 381.200 C 287.200 380.980,287.560 380.800,288.000 380.800 C 288.440 380.800,288.800 380.620,288.800 380.400 C 288.800 380.180,289.160 380.000,289.600 380.000 C 290.040 380.000,290.400 379.820,290.400 379.600 C 290.400 379.380,290.670 379.200,291.000 379.200 C 291.330 379.200,291.600 379.020,291.600 378.800 C 291.600 378.580,291.960 378.400,292.400 378.400 C 292.840 378.400,293.200 378.220,293.200 378.000 C 293.200 377.780,293.560 377.600,294.000 377.600 C 294.440 377.600,294.800 377.420,294.800 377.200 C 294.800 376.980,295.042 376.800,295.338 376.800 C 295.634 376.800,296.202 376.440,296.600 376.000 C 296.998 375.560,297.494 375.200,297.702 375.200 C 298.284 375.200,300.936 373.893,301.532 373.311 C 301.825 373.026,302.230 372.895,302.432 373.020 C 302.635 373.145,302.800 372.954,302.800 372.597 C 302.800 372.115,303.021 372.016,303.650 372.216 C 304.222 372.397,304.411 372.341,304.226 372.043 C 304.075 371.798,304.209 371.600,304.527 371.600 C 304.843 371.600,305.324 371.332,305.596 371.004 C 305.868 370.677,306.250 370.507,306.445 370.628 C 306.640 370.749,306.800 370.657,306.800 370.424 C 306.800 370.191,307.030 370.000,307.312 370.000 C 307.593 370.000,308.083 369.640,308.400 369.200 C 308.717 368.760,309.254 368.400,309.592 368.400 C 309.931 368.400,310.432 368.040,310.707 367.600 C 310.982 367.160,311.526 366.800,311.915 366.800 C 312.305 366.800,312.883 366.440,313.200 366.000 C 313.517 365.560,314.015 365.200,314.306 365.200 C 314.598 365.200,315.273 364.763,315.807 364.229 C 316.341 363.695,317.323 362.936,317.989 362.543 C 318.655 362.149,319.200 361.686,319.200 361.514 C 319.200 361.341,319.530 361.200,319.932 361.200 C 320.335 361.200,320.908 360.745,321.206 360.189 C 321.503 359.633,322.164 359.074,322.673 358.946 C 323.183 358.818,323.600 358.553,323.600 358.357 C 323.600 358.160,323.825 358.045,324.100 358.100 C 324.375 358.155,324.568 358.014,324.529 357.788 C 324.490 357.561,325.120 356.941,325.929 356.410 C 327.543 355.352,328.577 354.470,330.515 352.500 C 331.219 351.785,332.007 351.200,332.267 351.200 C 332.527 351.200,334.328 349.579,336.270 347.599 C 340.851 342.925,343.412 340.364,347.700 336.167 C 349.625 334.283,351.200 332.528,351.200 332.268 C 351.200 332.007,351.785 331.219,352.500 330.515 C 354.470 328.577,355.352 327.543,356.410 325.929 C 356.941 325.120,357.561 324.490,357.788 324.529 C 358.014 324.568,358.155 324.375,358.100 324.100 C 358.045 323.825,358.160 323.600,358.357 323.600 C 358.553 323.600,358.818 323.183,358.946 322.673 C 359.074 322.164,359.633 321.503,360.189 321.206 C 360.745 320.908,361.200 320.427,361.200 320.137 C 361.200 319.649,361.867 318.683,363.100 317.384 C 363.375 317.094,363.600 316.704,363.600 316.517 C 363.600 316.330,363.960 315.917,364.400 315.600 C 364.840 315.283,365.200 314.743,365.200 314.400 C 365.200 314.057,365.560 313.517,366.000 313.200 C 366.440 312.883,366.800 312.305,366.800 311.915 C 366.800 311.526,367.160 310.982,367.600 310.707 C 368.040 310.432,368.400 309.931,368.400 309.592 C 368.400 309.254,368.760 308.717,369.200 308.400 C 369.640 308.083,370.000 307.593,370.000 307.312 C 370.000 307.030,370.191 306.800,370.424 306.800 C 370.657 306.800,370.749 306.640,370.628 306.445 C 370.507 306.250,370.677 305.868,371.004 305.596 C 371.332 305.324,371.600 304.843,371.600 304.527 C 371.600 304.209,371.798 304.075,372.043 304.226 C 372.341 304.411,372.397 304.222,372.216 303.650 C 372.016 303.021,372.115 302.800,372.597 302.800 C 372.954 302.800,373.145 302.635,373.020 302.432 C 372.895 302.230,373.026 301.825,373.311 301.532 C 373.893 300.936,375.200 298.284,375.200 297.702 C 375.200 297.494,375.560 296.998,376.000 296.600 C 376.440 296.202,376.800 295.634,376.800 295.338 C 376.800 295.042,376.980 294.800,377.200 294.800 C 377.420 294.800,377.600 294.440,377.600 294.000 C 377.600 293.560,377.780 293.200,378.000 293.200 C 378.220 293.200,378.400 292.840,378.400 292.400 C 378.400 291.960,378.580 291.600,378.800 291.600 C 379.020 291.600,379.200 291.330,379.200 291.000 C 379.200 290.670,379.380 290.400,379.600 290.400 C 379.820 290.400,380.000 290.040,380.000 289.600 C 380.000 289.160,380.180 288.800,380.400 288.800 C 380.620 288.800,380.800 288.440,380.800 288.000 C 380.800 287.560,380.980 287.200,381.200 287.200 C 381.420 287.200,381.600 286.840,381.600 286.400 C 381.600 285.960,381.780 285.600,382.000 285.600 C 382.220 285.600,382.400 285.060,382.400 284.400 C 382.400 283.740,382.580 283.200,382.800 283.200 C 383.020 283.200,383.200 282.840,383.200 282.400 C 383.200 281.960,383.380 281.600,383.600 281.600 C 383.820 281.600,384.000 281.335,384.000 281.012 C 384.000 280.689,384.360 279.783,384.800 279.000 C 385.240 278.217,385.600 277.221,385.600 276.788 C 385.600 276.355,385.791 276.000,386.024 276.000 C 386.257 276.000,386.349 275.840,386.228 275.645 C 386.107 275.450,386.277 275.068,386.604 274.796 C 386.932 274.524,387.200 273.874,387.200 273.351 C 387.200 272.828,387.380 272.400,387.600 272.400 C 387.820 272.400,388.000 272.040,388.000 271.600 C 388.000 271.160,388.180 270.800,388.400 270.800 C 388.620 270.800,388.755 270.665,388.700 270.500 C 388.523 269.968,389.733 266.000,390.072 266.000 C 390.253 266.000,390.400 265.460,390.400 264.800 C 390.400 264.140,390.576 263.600,390.790 263.600 C 391.010 263.600,391.075 263.077,390.940 262.400 C 390.787 261.636,390.863 261.200,391.150 261.200 C 391.398 261.200,391.600 260.660,391.600 260.000 C 391.600 259.340,391.780 258.800,392.000 258.800 C 392.220 258.800,392.400 258.170,392.400 257.400 C 392.400 256.630,392.580 256.000,392.800 256.000 C 393.020 256.000,393.200 255.460,393.200 254.800 C 393.200 254.140,393.380 253.600,393.600 253.600 C 393.820 253.600,394.000 252.880,394.000 252.000 C 394.000 251.120,394.180 250.400,394.400 250.400 C 394.620 250.400,394.800 249.680,394.800 248.800 C 394.800 247.920,394.980 247.200,395.200 247.200 C 395.420 247.200,395.600 246.480,395.600 245.600 C 395.600 244.720,395.780 244.000,396.000 244.000 C 396.220 244.000,396.400 243.190,396.400 242.200 C 396.400 241.210,396.580 240.400,396.800 240.400 C 397.020 240.400,397.200 239.500,397.200 238.400 C 397.200 237.300,397.380 236.400,397.600 236.400 C 397.822 236.400,398.000 235.333,398.000 234.000 C 398.000 232.667,398.178 231.600,398.400 231.600 C 398.628 231.600,398.800 230.411,398.800 228.833 C 398.800 226.976,398.964 226.012,399.300 225.900 C 399.693 225.769,399.800 220.231,399.800 200.000 C 399.800 179.769,399.693 174.231,399.300 174.100 C 398.964 173.988,398.800 173.024,398.800 171.167 C 398.800 169.589,398.628 168.400,398.400 168.400 C 398.178 168.400,398.000 167.333,398.000 166.000 C 398.000 164.667,397.822 163.600,397.600 163.600 C 397.380 163.600,397.200 162.700,397.200 161.600 C 397.200 160.500,397.020 159.600,396.800 159.600 C 396.580 159.600,396.400 158.790,396.400 157.800 C 396.400 156.810,396.220 156.000,396.000 156.000 C 395.780 156.000,395.600 155.280,395.600 154.400 C 395.600 153.520,395.420 152.800,395.200 152.800 C 394.980 152.800,394.800 152.080,394.800 151.200 C 394.800 150.320,394.620 149.600,394.400 149.600 C 394.180 149.600,394.000 148.880,394.000 148.000 C 394.000 147.120,393.820 146.400,393.600 146.400 C 393.380 146.400,393.200 145.860,393.200 145.200 C 393.200 144.540,393.020 144.000,392.800 144.000 C 392.580 144.000,392.400 143.370,392.400 142.600 C 392.400 141.830,392.220 141.200,392.000 141.200 C 391.780 141.200,391.600 140.660,391.600 140.000 C 391.600 139.340,391.398 138.800,391.150 138.800 C 390.863 138.800,390.787 138.364,390.940 137.600 C 391.075 136.923,391.010 136.400,390.790 136.400 C 390.576 136.400,390.400 135.860,390.400 135.200 C 390.400 134.540,390.253 134.000,390.072 134.000 C 389.733 134.000,388.523 130.032,388.700 129.500 C 388.755 129.335,388.620 129.200,388.400 129.200 C 388.180 129.200,388.000 128.840,388.000 128.400 C 388.000 127.960,387.820 127.600,387.600 127.600 C 387.380 127.600,387.200 127.172,387.200 126.649 C 387.200 126.126,386.932 125.476,386.604 125.204 C 386.277 124.932,386.107 124.550,386.228 124.355 C 386.349 124.160,386.257 124.000,386.024 124.000 C 385.791 124.000,385.600 123.645,385.600 123.212 C 385.600 122.779,385.240 121.783,384.800 121.000 C 384.360 120.217,384.000 119.311,384.000 118.988 C 384.000 118.665,383.820 118.400,383.600 118.400 C 383.380 118.400,383.200 118.040,383.200 117.600 C 383.200 117.160,383.020 116.800,382.800 116.800 C 382.580 116.800,382.400 116.260,382.400 115.600 C 382.400 114.940,382.220 114.400,382.000 114.400 C 381.780 114.400,381.600 114.040,381.600 113.600 C 381.600 113.160,381.420 112.800,381.200 112.800 C 380.980 112.800,380.800 112.440,380.800 112.000 C 380.800 111.560,380.620 111.200,380.400 111.200 C 380.180 111.200,380.000 110.840,380.000 110.400 C 380.000 109.960,379.820 109.600,379.600 109.600 C 379.380 109.600,379.200 109.330,379.200 109.000 C 379.200 108.670,379.020 108.400,378.800 108.400 C 378.580 108.400,378.400 108.040,378.400 107.600 C 378.400 107.160,378.220 106.800,378.000 106.800 C 377.780 106.800,377.600 106.440,377.600 106.000 C 377.600 105.560,377.420 105.200,377.200 105.200 C 376.980 105.200,376.800 104.958,376.800 104.662 C 376.800 104.366,376.440 103.798,376.000 103.400 C 375.560 103.002,375.200 102.506,375.200 102.298 C 375.200 101.716,373.893 99.064,373.311 98.468 C 373.026 98.175,372.895 97.770,373.020 97.568 C 373.145 97.365,372.954 97.200,372.597 97.200 C 372.115 97.200,372.016 96.979,372.216 96.350 C 372.397 95.778,372.341 95.589,372.043 95.774 C 371.798 95.925,371.600 95.791,371.600 95.473 C 371.600 95.157,371.332 94.676,371.004 94.404 C 370.677 94.132,370.507 93.750,370.628 93.555 C 370.749 93.360,370.657 93.200,370.424 93.200 C 370.191 93.200,370.000 92.970,370.000 92.688 C 370.000 92.407,369.640 91.917,369.200 91.600 C 368.760 91.283,368.400 90.746,368.400 90.408 C 368.400 90.069,368.040 89.568,367.600 89.293 C 367.160 89.018,366.800 88.474,366.800 88.085 C 366.800 87.695,366.440 87.117,366.000 86.800 C 365.560 86.483,365.200 85.943,365.200 85.600 C 365.200 85.257,364.840 84.717,364.400 84.400 C 363.960 84.083,363.600 83.685,363.600 83.516 C 363.600 83.222,362.755 82.096,361.700 80.984 C 361.425 80.694,361.200 80.205,361.200 79.896 C 361.200 79.588,360.745 79.092,360.189 78.794 C 359.633 78.497,359.074 77.836,358.946 77.327 C 358.818 76.817,358.553 76.400,358.357 76.400 C 358.160 76.400,358.045 76.175,358.100 75.900 C 358.155 75.625,358.014 75.432,357.788 75.471 C 357.561 75.510,356.941 74.880,356.410 74.071 C 355.352 72.457,354.470 71.423,352.500 69.485 C 351.785 68.781,351.200 67.993,351.200 67.732 C 351.200 67.472,349.625 65.717,347.700 63.833 C 343.412 59.636,340.851 57.075,336.270 52.401 C 334.328 50.421,332.527 48.800,332.267 48.800 C 332.007 48.800,331.219 48.215,330.515 47.500 C 328.577 45.530,327.543 44.648,325.929 43.590 C 325.120 43.059,324.490 42.439,324.529 42.212 C 324.568 41.986,324.375 41.845,324.100 41.900 C 323.825 41.955,323.600 41.820,323.600 41.600 C 323.600 41.380,323.330 41.200,323.000 41.200 C 322.670 41.200,322.400 41.009,322.400 40.776 C 322.400 40.543,322.247 40.447,322.060 40.563 C 321.873 40.678,321.483 40.329,321.193 39.786 C 320.902 39.244,320.335 38.800,319.932 38.800 C 319.530 38.800,319.200 38.659,319.200 38.486 C 319.200 38.314,318.655 37.851,317.989 37.457 C 317.323 37.064,316.341 36.305,315.807 35.771 C 315.273 35.237,314.598 34.800,314.306 34.800 C 314.015 34.800,313.517 34.440,313.200 34.000 C 312.883 33.560,312.305 33.200,311.915 33.200 C 311.526 33.200,310.982 32.840,310.707 32.400 C 310.432 31.960,309.931 31.600,309.592 31.600 C 309.254 31.600,308.717 31.240,308.400 30.800 C 308.083 30.360,307.593 30.000,307.312 30.000 C 307.030 30.000,306.800 29.809,306.800 29.576 C 306.800 29.343,306.640 29.251,306.445 29.372 C 306.250 29.493,305.868 29.323,305.596 28.996 C 305.324 28.668,304.843 28.400,304.527 28.400 C 304.209 28.400,304.075 28.202,304.226 27.957 C 304.411 27.659,304.222 27.603,303.650 27.784 C 303.021 27.984,302.800 27.885,302.800 27.403 C 302.800 27.046,302.635 26.855,302.432 26.980 C 302.230 27.105,301.825 26.974,301.532 26.689 C 300.936 26.107,298.284 24.800,297.702 24.800 C 297.494 24.800,296.998 24.440,296.600 24.000 C 296.202 23.560,295.634 23.200,295.338 23.200 C 295.042 23.200,294.800 23.020,294.800 22.800 C 294.800 22.580,294.440 22.400,294.000 22.400 C 293.560 22.400,293.200 22.220,293.200 22.000 C 293.200 21.780,292.840 21.600,292.400 21.600 C 291.960 21.600,291.600 21.420,291.600 21.200 C 291.600 20.980,291.330 20.800,291.000 20.800 C 290.670 20.800,290.400 20.620,290.400 20.400 C 290.400 20.180,290.040 20.000,289.600 20.000 C 289.160 20.000,288.800 19.820,288.800 19.600 C 288.800 19.380,288.440 19.200,288.000 19.200 C 287.560 19.200,287.200 19.020,287.200 18.800 C 287.200 18.580,286.840 18.400,286.400 18.400 C 285.960 18.400,285.600 18.220,285.600 18.000 C 285.600 17.780,285.060 17.600,284.400 17.600 C 283.740 17.600,283.200 17.420,283.200 17.200 C 283.200 16.980,282.840 16.800,282.400 16.800 C 281.960 16.800,281.600 16.620,281.600 16.400 C 281.600 16.180,281.335 16.000,281.012 16.000 C 280.689 16.000,279.783 15.640,279.000 15.200 C 278.217 14.760,277.221 14.400,276.788 14.400 C 276.355 14.400,276.000 14.209,276.000 13.976 C 276.000 13.743,275.840 13.651,275.645 13.772 C 275.450 13.893,275.068 13.723,274.796 13.396 C 274.524 13.068,273.962 12.800,273.546 12.800 C 272.758 12.800,271.179 12.045,270.755 11.466 C 270.621 11.282,270.441 11.192,270.355 11.265 C 270.070 11.511,266.000 10.260,266.000 9.928 C 266.000 9.747,265.460 9.600,264.800 9.600 C 264.140 9.600,263.600 9.425,263.600 9.210 C 263.600 8.990,263.077 8.925,262.400 9.060 C 261.636 9.213,261.200 9.137,261.200 8.850 C 261.200 8.603,260.660 8.400,260.000 8.400 C 259.340 8.400,258.800 8.220,258.800 8.000 C 258.800 7.780,258.170 7.600,257.400 7.600 C 256.630 7.600,256.000 7.420,256.000 7.200 C 256.000 6.980,255.460 6.800,254.800 6.800 C 254.140 6.800,253.600 6.620,253.600 6.400 C 253.600 6.180,252.880 6.000,252.000 6.000 C 251.120 6.000,250.400 5.820,250.400 5.600 C 250.400 5.380,249.680 5.200,248.800 5.200 C 247.920 5.200,247.200 5.020,247.200 4.800 C 247.200 4.580,246.480 4.400,245.600 4.400 C 244.720 4.400,244.000 4.220,244.000 4.000 C 244.000 3.780,243.190 3.600,242.200 3.600 C 241.210 3.600,240.400 3.420,240.400 3.200 C 240.400 2.980,239.500 2.800,238.400 2.800 C 237.300 2.800,236.400 2.620,236.400 2.400 C 236.400 2.178,235.333 2.000,234.000 2.000 C 232.667 2.000,231.600 1.822,231.600 1.600 C 231.600 1.372,230.411 1.200,228.833 1.200 C 226.988 1.200,226.012 1.035,225.901 0.704 C 225.739 0.217,186.619 -0.130,177.500 0.276 M204.400 60.800 C 204.400 61.034,205.741 61.200,207.624 61.200 C 209.671 61.200,210.757 61.346,210.600 61.600 C 210.448 61.847,211.129 62.000,212.376 62.000 C 213.489 62.000,214.400 62.180,214.400 62.400 C 214.400 62.620,215.120 62.800,216.000 62.800 C 216.880 62.800,217.600 62.980,217.600 63.200 C 217.600 63.420,218.140 63.600,218.800 63.600 C 219.460 63.600,220.000 63.780,220.000 64.000 C 220.000 64.220,220.540 64.400,221.200 64.400 C 221.860 64.400,222.400 64.580,222.400 64.800 C 222.400 65.020,222.925 65.200,223.567 65.200 C 224.208 65.200,224.793 65.335,224.867 65.500 C 224.940 65.665,225.900 66.225,227.000 66.744 C 228.100 67.263,229.450 67.949,230.000 68.269 C 230.550 68.588,231.315 68.949,231.700 69.071 C 232.085 69.193,232.400 69.452,232.400 69.647 C 232.400 69.841,232.720 70.000,233.112 70.000 C 233.503 70.000,234.083 70.360,234.400 70.800 C 234.717 71.240,235.205 71.600,235.484 71.600 C 235.763 71.600,236.359 71.915,236.808 72.300 C 237.258 72.685,237.759 73.000,237.923 73.000 C 238.086 73.000,238.753 73.495,239.406 74.100 C 240.058 74.705,240.897 75.200,241.269 75.200 C 241.641 75.200,242.060 75.560,242.200 76.000 C 242.340 76.440,242.742 76.800,243.094 76.800 C 243.445 76.800,243.637 76.896,243.520 77.013 C 243.229 77.304,249.723 83.919,250.100 83.715 C 250.265 83.626,250.400 83.890,250.400 84.302 C 250.400 84.713,250.940 85.568,251.600 86.200 C 252.260 86.832,252.800 87.586,252.800 87.875 C 252.800 88.164,252.938 88.400,253.106 88.400 C 253.274 88.400,253.856 89.120,254.400 90.000 C 254.944 90.880,255.526 91.600,255.694 91.600 C 255.862 91.600,256.000 91.920,256.000 92.312 C 256.000 92.703,256.360 93.283,256.800 93.600 C 257.240 93.917,257.600 94.497,257.600 94.888 C 257.600 95.280,257.780 95.600,258.000 95.600 C 258.220 95.600,258.400 95.960,258.400 96.400 C 258.400 96.840,258.599 97.200,258.843 97.200 C 259.086 97.200,259.184 97.464,259.060 97.787 C 258.936 98.110,259.007 98.481,259.217 98.611 C 259.428 98.741,259.606 99.242,259.613 99.724 C 259.620 100.206,259.884 100.942,260.200 101.359 C 260.516 101.776,260.680 102.271,260.564 102.459 C 260.448 102.647,260.543 102.800,260.776 102.800 C 261.009 102.800,261.200 103.239,261.200 103.776 C 261.200 104.313,261.380 104.864,261.600 105.000 C 261.820 105.136,262.000 105.676,262.000 106.200 C 262.000 106.724,262.180 107.264,262.400 107.400 C 262.620 107.536,262.800 108.267,262.800 109.024 C 262.800 109.781,262.980 110.400,263.200 110.400 C 263.420 110.400,263.600 111.120,263.600 112.000 C 263.600 112.880,263.780 113.600,264.000 113.600 C 264.229 113.600,264.400 114.800,264.400 116.400 C 264.400 118.000,264.571 119.200,264.800 119.200 C 265.052 119.200,265.200 121.867,265.200 126.400 C 265.200 130.933,265.052 133.600,264.800 133.600 C 264.580 133.600,264.400 134.590,264.400 135.800 C 264.400 137.010,264.220 138.000,264.000 138.000 C 263.780 138.000,263.600 138.720,263.600 139.600 C 263.600 140.480,263.420 141.200,263.200 141.200 C 262.980 141.200,262.800 141.920,262.800 142.800 C 262.800 143.680,262.620 144.400,262.400 144.400 C 262.180 144.400,262.000 144.850,262.000 145.400 C 262.000 145.950,261.820 146.400,261.600 146.400 C 261.380 146.400,261.200 147.019,261.200 147.776 C 261.200 148.533,261.020 149.264,260.800 149.400 C 260.580 149.536,260.400 150.097,260.400 150.647 C 260.400 151.212,260.226 151.540,260.000 151.400 C 259.780 151.264,259.600 151.523,259.600 151.976 C 259.600 152.429,259.408 152.800,259.173 152.800 C 258.928 152.800,258.854 153.141,259.000 153.600 C 259.146 154.059,259.072 154.400,258.827 154.400 C 258.592 154.400,258.400 154.760,258.400 155.200 C 258.400 155.640,258.220 156.000,258.000 156.000 C 257.780 156.000,257.600 156.360,257.600 156.800 C 257.600 157.240,257.420 157.600,257.200 157.600 C 256.980 157.600,256.800 157.883,256.800 158.229 C 256.800 158.974,255.803 160.069,255.448 159.714 C 255.311 159.578,255.200 159.857,255.200 160.333 C 255.200 160.810,255.020 161.200,254.800 161.200 C 254.580 161.200,254.400 161.436,254.400 161.725 C 254.400 162.013,254.080 162.598,253.689 163.025 C 253.298 163.451,252.536 164.430,251.995 165.200 C 251.453 165.970,250.248 167.365,249.315 168.301 C 248.383 169.236,247.341 170.541,247.000 171.201 C 246.659 171.860,246.249 172.400,246.090 172.400 C 245.814 172.401,245.370 172.751,241.900 175.705 C 241.075 176.407,240.400 177.224,240.400 177.520 C 240.400 177.821,240.092 177.995,239.700 177.914 C 239.313 177.834,238.526 178.268,237.940 178.885 C 237.356 179.498,236.591 180.000,236.240 180.000 C 235.888 180.000,235.600 180.158,235.600 180.351 C 235.600 180.545,235.060 180.927,234.400 181.200 C 233.740 181.473,233.200 181.823,233.200 181.977 C 233.200 182.310,229.563 184.000,228.848 184.000 C 228.576 184.000,228.464 184.180,228.600 184.400 C 228.741 184.628,228.396 184.800,227.800 184.800 C 227.204 184.800,226.859 184.972,227.000 185.200 C 227.136 185.420,226.877 185.600,226.424 185.600 C 225.971 185.600,225.600 185.780,225.600 186.000 C 225.600 186.220,225.240 186.400,224.800 186.400 C 224.360 186.400,224.000 186.580,224.000 186.800 C 224.000 187.020,223.460 187.200,222.800 187.200 C 222.140 187.200,221.600 187.380,221.600 187.600 C 221.600 187.820,221.161 188.000,220.624 188.000 C 220.087 188.000,219.536 188.180,219.400 188.400 C 219.264 188.620,218.443 188.800,217.576 188.800 C 216.709 188.800,216.000 188.980,216.000 189.200 C 216.000 189.420,215.280 189.600,214.400 189.600 C 213.520 189.600,212.800 189.780,212.800 190.000 C 212.800 190.220,211.810 190.400,210.600 190.400 C 209.390 190.400,208.400 190.580,208.400 190.800 C 208.400 191.054,205.333 191.200,200.000 191.200 C 194.667 191.200,191.600 191.054,191.600 190.800 C 191.600 190.580,190.610 190.400,189.400 190.400 C 188.190 190.400,187.200 190.220,187.200 190.000 C 187.200 189.780,186.480 189.600,185.600 189.600 C 184.720 189.600,184.000 189.420,184.000 189.200 C 184.000 188.980,183.291 188.800,182.424 188.800 C 181.557 188.800,180.736 188.620,180.600 188.400 C 180.464 188.180,179.913 188.000,179.376 188.000 C 178.839 188.000,178.400 187.820,178.400 187.600 C 178.400 187.380,177.860 187.200,177.200 187.200 C 176.540 187.200,176.000 187.020,176.000 186.800 C 176.000 186.580,175.640 186.400,175.200 186.400 C 174.760 186.400,174.400 186.220,174.400 186.000 C 174.400 185.780,174.029 185.600,173.576 185.600 C 173.123 185.600,172.864 185.420,173.000 185.200 C 173.141 184.972,172.796 184.800,172.200 184.800 C 171.604 184.800,171.259 184.628,171.400 184.400 C 171.536 184.180,171.400 184.000,171.099 184.000 C 170.295 184.000,167.218 182.448,166.269 181.564 C 165.818 181.144,165.213 180.800,164.925 180.800 C 164.636 180.800,164.400 180.620,164.400 180.400 C 164.400 180.180,164.112 180.000,163.760 180.000 C 163.409 180.000,162.644 179.498,162.060 178.885 C 161.474 178.268,160.687 177.834,160.300 177.914 C 159.915 177.994,159.600 177.858,159.600 177.612 C 159.600 177.366,159.150 176.680,158.600 176.087 C 158.050 175.493,157.600 175.120,157.600 175.258 C 157.600 175.395,156.858 174.808,155.951 173.953 C 155.043 173.099,154.148 172.400,153.961 172.400 C 153.774 172.400,153.349 171.875,153.018 171.234 C 152.686 170.593,151.519 169.149,150.425 168.026 C 149.330 166.902,148.118 165.446,147.731 164.791 C 147.344 164.136,146.886 163.600,146.714 163.600 C 146.541 163.600,146.400 163.330,146.400 163.000 C 146.400 162.670,146.220 162.400,146.000 162.400 C 145.780 162.400,145.600 162.130,145.600 161.800 C 145.600 161.470,145.420 161.200,145.200 161.200 C 144.980 161.200,144.800 160.810,144.800 160.333 C 144.800 159.857,144.689 159.578,144.552 159.714 C 144.197 160.069,143.200 158.974,143.200 158.229 C 143.200 157.883,143.020 157.600,142.800 157.600 C 142.580 157.600,142.400 157.240,142.400 156.800 C 142.400 156.360,142.220 156.000,142.000 156.000 C 141.780 156.000,141.600 155.640,141.600 155.200 C 141.600 154.760,141.408 154.400,141.173 154.400 C 140.928 154.400,140.854 154.059,141.000 153.600 C 141.146 153.141,141.072 152.800,140.827 152.800 C 140.592 152.800,140.400 152.429,140.400 151.976 C 140.400 151.523,140.220 151.264,140.000 151.400 C 139.774 151.540,139.600 151.212,139.600 150.647 C 139.600 150.097,139.420 149.536,139.200 149.400 C 138.980 149.264,138.800 148.533,138.800 147.776 C 138.800 147.019,138.620 146.400,138.400 146.400 C 138.180 146.400,138.000 145.950,138.000 145.400 C 138.000 144.850,137.820 144.400,137.600 144.400 C 137.380 144.400,137.200 143.680,137.200 142.800 C 137.200 141.920,137.020 141.200,136.800 141.200 C 136.580 141.200,136.400 140.480,136.400 139.600 C 136.400 138.720,136.220 138.000,136.000 138.000 C 135.771 138.000,135.600 136.800,135.600 135.200 C 135.600 133.600,135.429 132.400,135.200 132.400 C 134.949 132.400,134.800 129.933,134.800 125.800 C 134.800 121.667,134.949 119.200,135.200 119.200 C 135.422 119.200,135.600 118.133,135.600 116.800 C 135.600 115.467,135.778 114.400,136.000 114.400 C 136.220 114.400,136.400 113.500,136.400 112.400 C 136.400 111.300,136.580 110.400,136.800 110.400 C 137.020 110.400,137.200 109.781,137.200 109.024 C 137.200 108.267,137.380 107.536,137.600 107.400 C 137.820 107.264,138.000 106.724,138.000 106.200 C 138.000 105.676,138.180 105.136,138.400 105.000 C 138.620 104.864,138.800 104.313,138.800 103.776 C 138.800 103.239,139.010 102.800,139.267 102.800 C 139.523 102.800,139.613 102.679,139.465 102.532 C 139.318 102.384,139.439 101.889,139.735 101.432 C 140.359 100.468,140.968 98.426,140.848 97.700 C 140.802 97.425,140.953 97.200,141.182 97.200 C 141.412 97.200,141.600 96.840,141.600 96.400 C 141.600 95.960,141.780 95.600,142.000 95.600 C 142.220 95.600,142.400 95.364,142.400 95.075 C 142.400 94.787,142.760 94.164,143.200 93.692 C 143.640 93.220,144.000 92.596,144.000 92.305 C 144.000 92.014,144.360 91.517,144.800 91.200 C 145.240 90.883,145.600 90.421,145.600 90.174 C 145.600 89.926,145.960 89.398,146.400 89.000 C 146.840 88.602,147.200 88.068,147.200 87.813 C 147.200 87.558,147.740 86.832,148.400 86.200 C 149.060 85.568,149.600 84.713,149.600 84.302 C 149.600 83.890,149.735 83.626,149.900 83.715 C 150.277 83.919,156.771 77.304,156.480 77.013 C 156.363 76.896,156.555 76.800,156.906 76.800 C 157.258 76.800,157.660 76.440,157.800 76.000 C 157.940 75.560,158.359 75.200,158.731 75.200 C 159.103 75.200,159.893 74.750,160.487 74.200 C 161.080 73.650,161.803 73.200,162.094 73.200 C 162.385 73.200,162.883 72.840,163.200 72.400 C 163.517 71.960,164.057 71.600,164.400 71.600 C 164.743 71.600,165.283 71.240,165.600 70.800 C 165.917 70.360,166.497 70.000,166.888 70.000 C 167.280 70.000,167.600 69.820,167.600 69.600 C 167.600 69.380,167.878 69.200,168.217 69.200 C 168.556 69.200,169.220 68.840,169.692 68.400 C 170.164 67.960,170.877 67.600,171.275 67.600 C 171.674 67.600,172.000 67.420,172.000 67.200 C 172.000 66.980,172.234 66.800,172.520 66.800 C 173.256 66.800,175.193 65.859,175.197 65.500 C 175.199 65.335,175.740 65.200,176.400 65.200 C 177.060 65.200,177.600 65.020,177.600 64.800 C 177.600 64.580,178.140 64.400,178.800 64.400 C 179.460 64.400,180.000 64.220,180.000 64.000 C 180.000 63.780,180.540 63.600,181.200 63.600 C 181.860 63.600,182.400 63.420,182.400 63.200 C 182.400 62.980,183.120 62.800,184.000 62.800 C 184.880 62.800,185.600 62.620,185.600 62.400 C 185.600 62.180,186.511 62.000,187.624 62.000 C 188.871 62.000,189.552 61.847,189.400 61.600 C 189.243 61.346,190.329 61.200,192.376 61.200 C 194.259 61.200,195.600 61.034,195.600 60.800 C 195.600 60.558,197.333 60.400,200.000 60.400 C 202.667 60.400,204.400 60.558,204.400 60.800 M246.600 225.600 C 246.446 225.850,247.263 226.000,248.776 226.000 C 250.125 226.000,251.200 226.177,251.200 226.400 C 251.200 226.620,251.920 226.800,252.800 226.800 C 253.680 226.800,254.400 226.980,254.400 227.200 C 254.400 227.420,255.120 227.600,256.000 227.600 C 256.880 227.600,257.600 227.780,257.600 228.000 C 257.600 228.220,258.050 228.400,258.600 228.400 C 259.150 228.400,259.600 228.580,259.600 228.800 C 259.600 229.020,260.140 229.200,260.800 229.200 C 261.460 229.200,262.000 229.380,262.000 229.600 C 262.000 229.820,262.540 230.000,263.200 230.000 C 263.860 230.000,264.400 230.180,264.400 230.400 C 264.400 230.620,264.760 230.800,265.200 230.800 C 265.640 230.800,266.000 230.980,266.000 231.200 C 266.000 231.420,266.360 231.600,266.800 231.600 C 267.240 231.600,267.600 231.780,267.600 232.000 C 267.600 232.220,267.872 232.400,268.205 232.400 C 268.790 232.400,270.390 233.158,270.800 233.630 C 270.910 233.756,271.810 234.296,272.800 234.830 C 273.790 235.363,274.891 236.115,275.247 236.500 C 275.603 236.885,276.015 237.200,276.164 237.200 C 276.312 237.200,276.789 237.531,277.223 237.936 C 277.658 238.341,278.505 238.923,279.107 239.230 C 280.306 239.841,290.400 249.763,290.400 250.330 C 290.400 250.523,290.895 251.206,291.500 251.847 C 292.105 252.488,293.008 253.845,293.506 254.863 C 294.005 255.880,294.680 256.934,295.006 257.205 C 295.333 257.476,295.600 257.946,295.600 258.249 C 295.600 258.552,295.780 258.800,296.000 258.800 C 296.220 258.800,296.400 259.160,296.400 259.600 C 296.400 260.040,296.580 260.400,296.800 260.400 C 297.020 260.400,297.200 260.760,297.200 261.200 C 297.200 261.640,297.380 262.000,297.600 262.000 C 297.820 262.000,298.000 262.283,298.000 262.629 C 298.000 262.974,298.272 263.529,298.604 263.861 C 298.936 264.193,299.105 264.630,298.980 264.832 C 298.855 265.035,298.943 265.200,299.176 265.200 C 299.409 265.200,299.600 265.740,299.600 266.400 C 299.600 267.060,299.735 267.601,299.900 267.603 C 300.352 267.608,301.200 269.631,301.200 270.703 C 301.200 271.231,301.376 271.538,301.600 271.400 C 301.842 271.251,302.000 271.796,302.000 272.776 C 302.000 273.669,302.180 274.400,302.400 274.400 C 302.620 274.400,302.800 275.120,302.800 276.000 C 302.800 276.880,302.980 277.600,303.200 277.600 C 303.422 277.600,303.600 278.667,303.600 280.000 C 303.600 281.333,303.778 282.400,304.000 282.400 C 304.251 282.400,304.400 285.000,304.400 289.400 C 304.400 293.800,304.251 296.400,304.000 296.400 C 303.780 296.400,303.600 296.940,303.600 297.600 C 303.600 298.260,303.420 298.800,303.200 298.800 C 302.980 298.800,302.800 299.340,302.800 300.000 C 302.800 300.660,302.620 301.200,302.400 301.200 C 302.180 301.200,302.000 301.560,302.000 302.000 C 302.000 302.440,301.820 302.800,301.600 302.800 C 301.380 302.800,301.200 303.160,301.200 303.600 C 301.200 304.040,301.020 304.400,300.800 304.400 C 300.580 304.400,300.400 304.758,300.400 305.197 C 300.400 305.635,300.040 306.218,299.600 306.493 C 299.160 306.768,298.800 307.227,298.800 307.514 C 298.800 307.801,298.350 308.486,297.800 309.036 C 297.250 309.586,296.800 309.919,296.800 309.775 C 296.800 309.631,296.215 310.244,295.500 311.136 C 294.785 312.029,293.957 312.768,293.660 312.779 C 293.364 312.791,292.617 313.340,292.000 314.000 C 291.383 314.660,290.695 315.200,290.470 315.200 C 290.246 315.200,289.356 315.920,288.493 316.800 C 287.631 317.680,286.717 318.400,286.463 318.400 C 286.210 318.400,285.326 319.038,284.501 319.817 C 283.675 320.596,282.595 321.336,282.100 321.460 C 281.605 321.585,281.200 321.847,281.200 322.043 C 281.200 322.240,280.930 322.400,280.600 322.400 C 280.270 322.400,280.000 322.580,280.000 322.800 C 280.000 323.020,279.732 323.200,279.403 323.200 C 279.075 323.200,278.582 323.560,278.307 324.000 C 278.032 324.440,277.423 324.800,276.953 324.800 C 276.065 324.800,275.031 325.697,275.443 326.110 C 275.573 326.240,275.301 326.247,274.840 326.126 C 274.357 326.000,274.000 326.097,274.000 326.353 C 274.000 326.599,273.803 326.800,273.562 326.800 C 273.321 326.800,272.615 327.162,271.993 327.605 C 270.333 328.787,266.406 330.800,265.759 330.800 C 265.452 330.800,265.200 330.980,265.200 331.200 C 265.200 331.420,264.840 331.600,264.400 331.600 C 263.960 331.600,263.600 331.780,263.600 332.000 C 263.600 332.220,263.229 332.400,262.776 332.400 C 262.323 332.400,262.064 332.580,262.200 332.800 C 262.415 333.148,261.604 333.390,260.700 333.247 C 260.535 333.221,260.400 333.380,260.400 333.600 C 260.400 333.820,259.950 334.000,259.400 334.000 C 258.850 334.000,258.400 334.180,258.400 334.400 C 258.400 334.620,258.040 334.800,257.600 334.800 C 257.160 334.800,256.800 334.980,256.800 335.200 C 256.800 335.420,256.440 335.600,256.000 335.600 C 255.560 335.600,255.200 335.780,255.200 336.000 C 255.200 336.220,254.660 336.400,254.000 336.400 C 253.340 336.400,252.800 336.580,252.800 336.800 C 252.800 337.020,252.440 337.200,252.000 337.200 C 251.560 337.200,251.200 337.380,251.200 337.600 C 251.200 337.820,250.761 338.000,250.224 338.000 C 249.687 338.000,249.136 338.180,249.000 338.400 C 248.864 338.620,248.223 338.800,247.576 338.800 C 246.929 338.800,246.400 338.980,246.400 339.200 C 246.400 339.420,245.860 339.600,245.200 339.600 C 244.540 339.600,244.000 339.780,244.000 340.000 C 244.000 340.220,243.550 340.400,243.000 340.400 C 242.450 340.400,242.000 340.580,242.000 340.800 C 242.000 341.020,241.460 341.200,240.800 341.200 C 240.140 341.200,239.600 341.354,239.600 341.541 C 239.600 341.813,236.284 342.288,232.900 342.502 C 232.625 342.519,232.400 342.683,232.400 342.867 C 232.400 343.050,231.669 343.200,230.776 343.200 C 229.796 343.200,229.251 343.358,229.400 343.600 C 229.550 343.842,228.995 344.000,227.997 344.000 C 227.090 344.000,226.031 344.170,225.643 344.377 C 225.256 344.584,223.648 344.791,222.070 344.837 C 220.491 344.884,219.200 345.074,219.200 345.261 C 219.200 345.447,218.041 345.600,216.624 345.600 C 215.207 345.600,213.936 345.780,213.800 346.000 C 213.643 346.254,208.604 346.400,200.000 346.400 C 191.396 346.400,186.357 346.254,186.200 346.000 C 186.064 345.780,184.613 345.600,182.976 345.600 C 181.339 345.600,180.000 345.450,180.000 345.266 C 180.000 345.082,178.888 344.891,177.530 344.842 C 176.171 344.793,174.743 344.584,174.356 344.376 C 173.969 344.169,172.910 344.000,172.003 344.000 C 171.005 344.000,170.450 343.842,170.600 343.600 C 170.749 343.358,170.204 343.200,169.224 343.200 C 168.331 343.200,167.600 343.050,167.600 342.867 C 167.600 342.683,167.375 342.519,167.100 342.502 C 163.716 342.288,160.400 341.813,160.400 341.541 C 160.400 341.354,159.860 341.200,159.200 341.200 C 158.540 341.200,158.000 341.020,158.000 340.800 C 158.000 340.580,157.550 340.400,157.000 340.400 C 156.450 340.400,156.000 340.220,156.000 340.000 C 156.000 339.780,155.460 339.600,154.800 339.600 C 154.140 339.600,153.600 339.420,153.600 339.200 C 153.600 338.980,153.071 338.800,152.424 338.800 C 151.777 338.800,151.136 338.620,151.000 338.400 C 150.864 338.180,150.313 338.000,149.776 338.000 C 149.239 338.000,148.800 337.820,148.800 337.600 C 148.800 337.380,148.498 337.200,148.128 337.200 C 147.154 337.200,144.800 336.294,144.800 335.920 C 144.800 335.744,144.440 335.600,144.000 335.600 C 143.560 335.600,143.200 335.420,143.200 335.200 C 143.200 334.980,142.838 334.800,142.395 334.800 C 141.567 334.800,139.990 334.059,139.555 333.466 C 139.421 333.282,139.196 333.147,139.055 333.166 C 138.106 333.293,137.589 333.142,137.800 332.800 C 137.936 332.580,137.677 332.400,137.224 332.400 C 136.771 332.400,136.400 332.220,136.400 332.000 C 136.400 331.780,136.040 331.600,135.600 331.600 C 135.160 331.600,134.800 331.420,134.800 331.200 C 134.800 330.980,134.555 330.800,134.256 330.800 C 133.612 330.800,128.821 328.409,128.098 327.726 C 127.821 327.466,127.236 327.138,126.798 326.999 C 126.359 326.860,126.000 326.557,126.000 326.326 C 126.000 326.096,125.646 325.999,125.214 326.112 C 124.770 326.228,124.465 326.130,124.514 325.888 C 124.561 325.651,124.060 325.266,123.400 325.031 C 122.740 324.797,121.995 324.424,121.745 324.202 C 120.226 322.861,119.524 322.400,118.995 322.400 C 118.668 322.400,118.400 322.232,118.400 322.027 C 118.400 321.822,118.054 321.544,117.632 321.410 C 117.209 321.276,116.184 320.544,115.354 319.783 C 114.523 319.022,113.629 318.400,113.367 318.400 C 113.105 318.400,112.465 317.862,111.945 317.204 C 111.425 316.546,110.775 316.006,110.500 316.004 C 110.226 316.002,109.259 315.280,108.352 314.400 C 107.445 313.520,106.500 312.791,106.252 312.779 C 106.003 312.768,105.215 312.029,104.500 311.136 C 103.785 310.244,103.200 309.625,103.200 309.760 C 103.200 309.896,102.660 309.491,102.000 308.860 C 101.340 308.229,100.800 307.530,100.800 307.306 C 100.800 307.081,100.530 306.674,100.200 306.400 C 99.870 306.126,99.600 305.654,99.600 305.351 C 99.600 305.048,99.240 304.440,98.800 304.000 C 98.360 303.560,98.000 302.750,98.000 302.200 C 98.000 301.650,97.820 301.200,97.600 301.200 C 97.380 301.200,97.200 300.660,97.200 300.000 C 97.200 299.340,97.020 298.800,96.800 298.800 C 96.580 298.800,96.400 298.260,96.400 297.600 C 96.400 296.940,96.220 296.400,96.000 296.400 C 95.749 296.400,95.600 293.800,95.600 289.400 C 95.600 285.000,95.749 282.400,96.000 282.400 C 96.222 282.400,96.400 281.333,96.400 280.000 C 96.400 278.667,96.578 277.600,96.800 277.600 C 97.020 277.600,97.200 276.880,97.200 276.000 C 97.200 275.120,97.380 274.400,97.600 274.400 C 97.820 274.400,98.000 273.669,98.000 272.776 C 98.000 271.796,98.158 271.251,98.400 271.400 C 98.633 271.544,98.800 271.145,98.800 270.447 C 98.800 269.787,98.980 269.136,99.200 269.000 C 99.420 268.864,99.600 268.313,99.600 267.776 C 99.600 267.239,99.780 266.800,100.000 266.800 C 100.220 266.800,100.400 266.440,100.400 266.000 C 100.400 265.560,100.591 265.200,100.824 265.200 C 101.057 265.200,101.145 265.035,101.020 264.832 C 100.895 264.630,101.064 264.193,101.396 263.861 C 101.728 263.529,102.000 262.974,102.000 262.629 C 102.000 262.283,102.180 262.000,102.400 262.000 C 102.620 262.000,102.800 261.640,102.800 261.200 C 102.800 260.760,102.980 260.400,103.200 260.400 C 103.420 260.400,103.600 260.040,103.600 259.600 C 103.600 259.160,103.780 258.800,104.000 258.800 C 104.220 258.800,104.400 258.603,104.400 258.362 C 104.400 258.121,104.772 257.401,105.227 256.762 C 105.682 256.123,105.907 255.595,105.727 255.588 C 105.547 255.581,105.715 255.392,106.100 255.168 C 106.485 254.944,106.800 254.507,106.800 254.198 C 106.800 253.889,107.250 253.186,107.800 252.636 C 108.350 252.086,108.800 251.464,108.800 251.252 C 108.800 250.654,119.667 239.846,120.893 239.225 C 121.495 238.921,122.342 238.341,122.777 237.936 C 123.211 237.531,123.688 237.200,123.836 237.200 C 123.985 237.200,124.397 236.885,124.753 236.500 C 125.109 236.115,126.210 235.363,127.200 234.830 C 128.190 234.296,129.090 233.756,129.200 233.630 C 129.610 233.158,131.210 232.400,131.795 232.400 C 132.128 232.400,132.400 232.220,132.400 232.000 C 132.400 231.780,132.760 231.600,133.200 231.600 C 133.640 231.600,134.000 231.420,134.000 231.200 C 134.000 230.980,134.360 230.800,134.800 230.800 C 135.240 230.800,135.600 230.620,135.600 230.400 C 135.600 230.180,136.140 230.000,136.800 230.000 C 137.460 230.000,138.000 229.820,138.000 229.600 C 138.000 229.380,138.540 229.200,139.200 229.200 C 139.860 229.200,140.400 229.020,140.400 228.800 C 140.400 228.580,140.850 228.400,141.400 228.400 C 141.950 228.400,142.400 228.220,142.400 228.000 C 142.400 227.780,143.120 227.600,144.000 227.600 C 144.880 227.600,145.600 227.420,145.600 227.200 C 145.600 226.980,146.320 226.800,147.200 226.800 C 148.080 226.800,148.800 226.620,148.800 226.400 C 148.800 226.177,149.875 226.000,151.224 226.000 C 152.737 226.000,153.554 225.850,153.400 225.600 C 153.236 225.334,168.870 225.200,200.000 225.200 C 231.130 225.200,246.764 225.334,246.600 225.600 " stroke="none" fill="#c4c4c4" fill-rule="evenodd"></path><path id="path1" d="M161.305 341.887 C 161.914 341.979,162.814 341.977,163.305 341.882 C 163.797 341.787,163.300 341.711,162.200 341.714 C 161.100 341.717,160.697 341.795,161.305 341.887 M236.905 341.887 C 237.514 341.979,238.414 341.977,238.905 341.882 C 239.397 341.787,238.900 341.711,237.800 341.714 C 236.700 341.717,236.297 341.795,236.905 341.887 " stroke="none" fill="#c8c4c4" fill-rule="evenodd"></path><path id="path2" d="M161.305 341.887 C 161.914 341.979,162.814 341.977,163.305 341.882 C 163.797 341.787,163.300 341.711,162.200 341.714 C 161.100 341.717,160.697 341.795,161.305 341.887 M236.905 341.887 C 237.514 341.979,238.414 341.977,238.905 341.882 C 239.397 341.787,238.900 341.711,237.800 341.714 C 236.700 341.717,236.297 341.795,236.905 341.887 " stroke="none" fill="#c8c4c4" fill-rule="evenodd"></path><path id="path3" d="M161.305 341.887 C 161.914 341.979,162.814 341.977,163.305 341.882 C 163.797 341.787,163.300 341.711,162.200 341.714 C 161.100 341.717,160.697 341.795,161.305 341.887 M236.905 341.887 C 237.514 341.979,238.414 341.977,238.905 341.882 C 239.397 341.787,238.900 341.711,237.800 341.714 C 236.700 341.717,236.297 341.795,236.905 341.887 " stroke="none" fill="#c8c4c4" fill-rule="evenodd"></path><path id="path4" d="M161.305 341.887 C 161.914 341.979,162.814 341.977,163.305 341.882 C 163.797 341.787,163.300 341.711,162.200 341.714 C 161.100 341.717,160.697 341.795,161.305 341.887 M236.905 341.887 C 237.514 341.979,238.414 341.977,238.905 341.882 C 239.397 341.787,238.900 341.711,237.800 341.714 C 236.700 341.717,236.297 341.795,236.905 341.887 " stroke="none" fill="#c8c4c4" fill-rule="evenodd"></path></g></svg>