<svg id="svg" version="1.1" xmlns="http://www.w3.org/2000/svg" xmlns:xlink="http://www.w3.org/1999/xlink" width="400" height="400" viewBox="0, 0, 400,400"><g id="svgg"><path id="path0" d="M177.500 0.276 C 175.575 0.361,174.000 0.604,174.000 0.816 C 174.000 1.027,172.729 1.200,171.176 1.200 C 169.396 1.200,168.444 1.348,168.600 1.600 C 168.755 1.851,167.871 2.000,166.224 2.000 C 164.741 2.000,163.600 2.174,163.600 2.400 C 163.600 2.620,162.689 2.800,161.576 2.800 C 160.329 2.800,159.648 2.953,159.800 3.200 C 159.952 3.447,159.271 3.600,158.024 3.600 C 156.911 3.600,156.000 3.780,156.000 4.000 C 156.000 4.220,155.280 4.400,154.400 4.400 C 153.520 4.400,152.800 4.580,152.800 4.800 C 152.800 5.020,152.080 5.200,151.200 5.200 C 150.320 5.200,149.600 5.380,149.600 5.600 C 149.600 5.820,148.880 6.000,148.000 6.000 C 147.120 6.000,146.400 6.180,146.400 6.400 C 146.400 6.620,145.849 6.800,145.176 6.800 C 144.463 6.800,144.056 6.967,144.200 7.200 C 144.349 7.442,143.804 7.600,142.824 7.600 C 141.931 7.600,141.200 7.780,141.200 8.000 C 141.200 8.220,140.660 8.400,140.000 8.400 C 139.340 8.400,138.800 8.567,138.800 8.771 C 138.800 8.975,137.807 9.266,136.594 9.418 C 135.260 9.585,134.252 9.936,134.044 10.307 C 133.829 10.691,133.384 10.837,132.851 10.697 C 132.383 10.575,132.000 10.638,132.000 10.837 C 132.000 11.037,131.469 11.200,130.820 11.200 C 130.138 11.200,129.483 11.479,129.269 11.862 C 129.047 12.260,128.640 12.424,128.250 12.274 C 127.892 12.137,127.600 12.199,127.600 12.413 C 127.600 12.626,127.150 12.800,126.600 12.800 C 126.007 12.800,125.600 13.029,125.600 13.363 C 125.600 13.728,125.320 13.852,124.800 13.716 C 124.353 13.599,124.000 13.704,124.000 13.953 C 124.000 14.199,123.665 14.400,123.255 14.400 C 122.846 14.400,121.111 15.120,119.400 16.000 C 117.689 16.880,115.864 17.600,115.345 17.600 C 114.825 17.600,114.400 17.780,114.400 18.000 C 114.400 18.220,114.040 18.400,113.600 18.400 C 113.160 18.400,112.800 18.580,112.800 18.800 C 112.800 19.020,112.429 19.200,111.976 19.200 C 111.523 19.200,111.244 19.347,111.355 19.527 C 111.466 19.707,110.892 20.093,110.079 20.384 C 109.265 20.675,108.510 21.031,108.400 21.175 C 108.290 21.320,107.164 21.938,105.898 22.549 C 104.632 23.160,103.365 23.872,103.083 24.130 C 102.278 24.866,100.865 25.600,100.254 25.600 C 99.948 25.600,99.474 25.870,99.200 26.200 C 98.926 26.530,98.364 26.800,97.951 26.800 C 97.538 26.800,97.200 26.980,97.200 27.200 C 97.200 27.420,96.949 27.600,96.643 27.600 C 96.336 27.600,95.982 27.870,95.855 28.200 C 95.729 28.530,95.371 28.800,95.062 28.800 C 94.752 28.800,94.274 29.070,94.000 29.400 C 93.726 29.730,93.204 30.000,92.839 30.000 C 92.475 30.000,91.917 30.360,91.600 30.800 C 91.283 31.240,90.746 31.600,90.408 31.600 C 90.069 31.600,89.568 31.960,89.293 32.400 C 89.018 32.840,88.474 33.200,88.085 33.200 C 87.695 33.200,87.117 33.560,86.800 34.000 C 86.483 34.440,85.969 34.800,85.659 34.800 C 85.348 34.800,84.803 35.115,84.447 35.500 C 83.362 36.673,80.477 38.800,79.970 38.800 C 79.450 38.800,78.000 40.317,78.000 40.861 C 78.000 41.048,77.640 41.200,77.200 41.200 C 76.760 41.200,76.400 41.380,76.400 41.600 C 76.400 41.820,76.232 41.955,76.028 41.900 C 75.823 41.845,75.185 42.430,74.611 43.200 C 74.037 43.970,73.485 44.555,73.384 44.500 C 72.872 44.221,72.340 44.578,70.253 46.600 C 69.004 47.810,67.841 48.800,67.669 48.800 C 67.128 48.800,64.409 51.476,64.677 51.744 C 64.818 51.885,64.715 52.000,64.448 52.000 C 64.182 52.000,63.514 52.450,62.964 53.000 C 62.414 53.550,62.075 54.000,62.210 54.000 C 62.346 54.000,62.187 54.270,61.857 54.600 C 61.527 54.930,61.054 55.200,60.805 55.200 C 60.556 55.200,60.464 55.380,60.600 55.600 C 60.736 55.820,60.567 56.000,60.224 56.000 C 59.881 56.000,59.643 56.135,59.695 56.300 C 59.820 56.691,56.691 59.820,56.300 59.695 C 56.135 59.643,56.000 59.881,56.000 60.224 C 56.000 60.567,55.820 60.736,55.600 60.600 C 55.380 60.464,55.200 60.556,55.200 60.805 C 55.200 61.054,54.930 61.527,54.600 61.857 C 54.270 62.187,54.000 62.346,54.000 62.210 C 54.000 62.075,53.550 62.414,53.000 62.964 C 52.450 63.514,52.000 64.182,52.000 64.448 C 52.000 64.715,51.885 64.818,51.744 64.677 C 51.476 64.409,48.800 67.128,48.800 67.669 C 48.800 67.841,47.810 69.004,46.600 70.253 C 45.390 71.502,44.400 72.676,44.400 72.862 C 44.400 73.610,44.235 73.837,43.042 74.728 C 42.359 75.238,41.845 75.823,41.900 76.028 C 41.955 76.232,41.820 76.400,41.600 76.400 C 41.380 76.400,41.200 76.760,41.200 77.200 C 41.200 77.640,41.048 78.000,40.861 78.000 C 40.317 78.000,38.800 79.450,38.800 79.970 C 38.800 80.477,36.673 83.362,35.500 84.447 C 35.115 84.803,34.800 85.348,34.800 85.659 C 34.800 85.969,34.440 86.483,34.000 86.800 C 33.560 87.117,33.200 87.695,33.200 88.085 C 33.200 88.474,32.840 89.018,32.400 89.293 C 31.960 89.568,31.600 90.069,31.600 90.408 C 31.600 90.746,31.240 91.283,30.800 91.600 C 30.360 91.917,30.000 92.475,30.000 92.839 C 30.000 93.204,29.730 93.726,29.400 94.000 C 29.070 94.274,28.800 94.752,28.800 95.062 C 28.800 95.371,28.530 95.729,28.200 95.855 C 27.870 95.982,27.600 96.336,27.600 96.643 C 27.600 96.949,27.420 97.200,27.200 97.200 C 26.980 97.200,26.800 97.538,26.800 97.951 C 26.800 98.364,26.530 98.926,26.200 99.200 C 25.870 99.474,25.600 99.948,25.600 100.254 C 25.600 100.865,24.866 102.278,24.130 103.083 C 23.872 103.365,23.160 104.632,22.549 105.898 C 21.938 107.164,21.320 108.290,21.175 108.400 C 21.031 108.510,20.675 109.265,20.384 110.079 C 20.093 110.892,19.707 111.466,19.527 111.355 C 19.347 111.244,19.200 111.523,19.200 111.976 C 19.200 112.429,19.020 112.800,18.800 112.800 C 18.580 112.800,18.400 113.160,18.400 113.600 C 18.400 114.040,18.220 114.400,18.000 114.400 C 17.780 114.400,17.600 114.825,17.600 115.345 C 17.600 115.864,16.880 117.689,16.000 119.400 C 15.120 121.111,14.400 122.846,14.400 123.255 C 14.400 123.665,14.199 124.000,13.953 124.000 C 13.704 124.000,13.599 124.353,13.716 124.800 C 13.852 125.320,13.728 125.600,13.363 125.600 C 13.029 125.600,12.800 126.007,12.800 126.600 C 12.800 127.150,12.626 127.600,12.413 127.600 C 12.199 127.600,12.137 127.892,12.274 128.250 C 12.424 128.640,12.260 129.047,11.862 129.269 C 11.479 129.483,11.200 130.138,11.200 130.820 C 11.200 131.469,11.037 132.000,10.837 132.000 C 10.638 132.000,10.575 132.383,10.697 132.851 C 10.837 133.384,10.691 133.829,10.307 134.044 C 9.936 134.252,9.585 135.260,9.418 136.594 C 9.266 137.807,8.975 138.800,8.771 138.800 C 8.567 138.800,8.400 139.340,8.400 140.000 C 8.400 140.660,8.220 141.200,8.000 141.200 C 7.780 141.200,7.600 141.931,7.600 142.824 C 7.600 143.804,7.442 144.349,7.200 144.200 C 6.967 144.056,6.800 144.463,6.800 145.176 C 6.800 145.849,6.620 146.400,6.400 146.400 C 6.180 146.400,6.000 147.120,6.000 148.000 C 6.000 148.880,5.820 149.600,5.600 149.600 C 5.380 149.600,5.200 150.320,5.200 151.200 C 5.200 152.080,5.020 152.800,4.800 152.800 C 4.580 152.800,4.400 153.520,4.400 154.400 C 4.400 155.280,4.220 156.000,4.000 156.000 C 3.780 156.000,3.600 156.911,3.600 158.024 C 3.600 159.271,3.447 159.952,3.200 159.800 C 2.953 159.648,2.800 160.329,2.800 161.576 C 2.800 162.689,2.620 163.600,2.400 163.600 C 2.174 163.600,2.000 164.741,2.000 166.224 C 2.000 167.871,1.851 168.755,1.600 168.600 C 1.348 168.444,1.200 169.385,1.200 171.143 C 1.200 173.020,1.036 173.988,0.700 174.100 C -0.032 174.344,-0.032 225.656,0.700 225.900 C 1.036 226.012,1.200 226.980,1.200 228.857 C 1.200 230.615,1.348 231.556,1.600 231.400 C 1.851 231.245,2.000 232.143,2.000 233.819 C 2.000 235.788,2.131 236.435,2.500 236.293 C 2.872 236.149,2.964 236.661,2.860 238.298 C 2.763 239.824,2.855 240.413,3.160 240.225 C 3.458 240.041,3.600 240.607,3.600 241.976 C 3.600 243.089,3.780 244.000,4.000 244.000 C 4.220 244.000,4.400 244.720,4.400 245.600 C 4.400 246.480,4.580 247.200,4.800 247.200 C 5.020 247.200,5.200 247.920,5.200 248.800 C 5.200 249.680,5.380 250.400,5.600 250.400 C 5.820 250.400,6.000 251.120,6.000 252.000 C 6.000 252.880,6.180 253.600,6.400 253.600 C 6.620 253.600,6.800 254.151,6.800 254.824 C 6.800 255.537,6.967 255.944,7.200 255.800 C 7.442 255.651,7.600 256.196,7.600 257.176 C 7.600 258.069,7.780 258.800,8.000 258.800 C 8.220 258.800,8.400 259.340,8.400 260.000 C 8.400 260.660,8.567 261.200,8.771 261.200 C 8.975 261.200,9.266 262.193,9.418 263.406 C 9.585 264.740,9.936 265.748,10.307 265.956 C 10.691 266.171,10.837 266.616,10.697 267.149 C 10.575 267.617,10.638 268.000,10.837 268.000 C 11.037 268.000,11.200 268.546,11.200 269.213 C 11.200 269.904,11.450 270.521,11.781 270.648 C 12.101 270.771,12.480 271.663,12.626 272.635 C 12.782 273.675,13.103 274.400,13.408 274.400 C 13.728 274.400,13.845 274.705,13.716 275.200 C 13.599 275.647,13.704 276.000,13.953 276.000 C 14.199 276.000,14.400 276.335,14.400 276.745 C 14.400 277.154,15.120 278.889,16.000 280.600 C 16.880 282.311,17.600 284.136,17.600 284.655 C 17.600 285.175,17.780 285.600,18.000 285.600 C 18.220 285.600,18.400 285.960,18.400 286.400 C 18.400 286.840,18.580 287.200,18.800 287.200 C 19.020 287.200,19.200 287.571,19.200 288.024 C 19.200 288.477,19.347 288.756,19.527 288.645 C 19.707 288.534,20.093 289.108,20.384 289.921 C 20.675 290.735,21.031 291.490,21.175 291.600 C 21.320 291.710,21.938 292.836,22.549 294.102 C 23.160 295.368,23.872 296.635,24.130 296.917 C 24.866 297.722,25.600 299.135,25.600 299.746 C 25.600 300.052,25.870 300.526,26.200 300.800 C 26.530 301.074,26.800 301.636,26.800 302.049 C 26.800 302.462,26.980 302.800,27.200 302.800 C 27.420 302.800,27.600 303.051,27.600 303.357 C 27.600 303.664,27.870 304.018,28.200 304.145 C 28.530 304.271,28.800 304.629,28.800 304.938 C 28.800 305.248,29.070 305.726,29.400 306.000 C 29.730 306.274,30.000 306.796,30.000 307.161 C 30.000 307.525,30.360 308.083,30.800 308.400 C 31.240 308.717,31.600 309.254,31.600 309.592 C 31.600 309.931,31.960 310.432,32.400 310.707 C 32.840 310.982,33.200 311.526,33.200 311.915 C 33.200 312.305,33.560 312.883,34.000 313.200 C 34.440 313.517,34.800 314.057,34.800 314.400 C 34.800 314.743,35.160 315.283,35.600 315.600 C 36.040 315.917,36.400 316.327,36.400 316.510 C 36.400 316.693,36.939 317.419,37.598 318.122 C 38.257 318.825,38.797 319.643,38.798 319.940 C 38.799 320.236,39.340 320.983,40.000 321.600 C 40.660 322.217,41.200 322.919,41.200 323.160 C 41.200 323.402,41.380 323.600,41.600 323.600 C 41.820 323.600,41.955 323.768,41.900 323.972 C 41.845 324.177,42.359 324.762,43.042 325.272 C 44.235 326.163,44.400 326.390,44.400 327.138 C 44.400 327.324,45.390 328.498,46.600 329.747 C 47.810 330.996,48.800 332.159,48.800 332.331 C 48.800 332.872,51.476 335.591,51.744 335.323 C 51.885 335.182,52.000 335.285,52.000 335.552 C 52.000 335.818,52.450 336.486,53.000 337.036 C 53.550 337.586,54.000 337.925,54.000 337.790 C 54.000 337.654,54.270 337.813,54.600 338.143 C 54.930 338.473,55.200 338.946,55.200 339.195 C 55.200 339.444,55.380 339.536,55.600 339.400 C 55.820 339.264,56.000 339.433,56.000 339.776 C 56.000 340.119,56.135 340.357,56.300 340.305 C 56.691 340.180,59.820 343.309,59.695 343.700 C 59.643 343.865,59.881 344.000,60.224 344.000 C 60.567 344.000,60.736 344.180,60.600 344.400 C 60.464 344.620,60.556 344.800,60.805 344.800 C 61.054 344.800,61.527 345.070,61.857 345.400 C 62.187 345.730,62.346 346.000,62.210 346.000 C 62.075 346.000,62.414 346.450,62.964 347.000 C 63.514 347.550,64.182 348.000,64.448 348.000 C 64.715 348.000,64.818 348.115,64.677 348.256 C 64.409 348.524,67.128 351.200,67.669 351.200 C 67.841 351.200,69.004 352.190,70.253 353.400 C 72.340 355.422,72.872 355.779,73.384 355.500 C 73.485 355.445,74.037 356.030,74.611 356.800 C 75.185 357.570,75.823 358.155,76.028 358.100 C 76.232 358.045,76.400 358.180,76.400 358.400 C 76.400 358.620,76.760 358.800,77.200 358.800 C 77.640 358.800,78.000 358.952,78.000 359.139 C 78.000 359.683,79.450 361.200,79.970 361.200 C 80.477 361.200,83.362 363.327,84.447 364.500 C 84.803 364.885,85.348 365.200,85.659 365.200 C 85.969 365.200,86.483 365.560,86.800 366.000 C 87.117 366.440,87.695 366.800,88.085 366.800 C 88.474 366.800,89.018 367.160,89.293 367.600 C 89.568 368.040,90.069 368.400,90.408 368.400 C 90.746 368.400,91.283 368.760,91.600 369.200 C 91.917 369.640,92.475 370.000,92.839 370.000 C 93.204 370.000,93.726 370.270,94.000 370.600 C 94.274 370.930,94.752 371.200,95.062 371.200 C 95.371 371.200,95.729 371.470,95.855 371.800 C 95.982 372.130,96.336 372.400,96.643 372.400 C 96.949 372.400,97.200 372.580,97.200 372.800 C 97.200 373.020,97.538 373.200,97.951 373.200 C 98.364 373.200,98.926 373.470,99.200 373.800 C 99.474 374.130,99.948 374.400,100.254 374.400 C 100.865 374.400,102.278 375.134,103.083 375.870 C 103.365 376.128,104.632 376.840,105.898 377.451 C 107.164 378.062,108.290 378.680,108.400 378.825 C 108.510 378.969,109.265 379.325,110.079 379.616 C 110.892 379.907,111.466 380.293,111.355 380.473 C 111.244 380.653,111.523 380.800,111.976 380.800 C 112.429 380.800,112.800 380.980,112.800 381.200 C 112.800 381.420,113.160 381.600,113.600 381.600 C 114.040 381.600,114.400 381.780,114.400 382.000 C 114.400 382.220,114.825 382.400,115.345 382.400 C 115.864 382.400,117.689 383.120,119.400 384.000 C 121.111 384.880,122.846 385.600,123.255 385.600 C 123.665 385.600,124.000 385.801,124.000 386.047 C 124.000 386.296,124.353 386.401,124.800 386.284 C 125.320 386.148,125.600 386.272,125.600 386.637 C 125.600 386.971,126.007 387.200,126.600 387.200 C 127.150 387.200,127.600 387.363,127.600 387.563 C 127.600 387.762,127.935 387.837,128.345 387.730 C 128.792 387.613,129.187 387.788,129.332 388.168 C 129.480 388.552,130.051 388.800,130.787 388.800 C 131.454 388.800,132.000 388.963,132.000 389.163 C 132.000 389.362,132.383 389.425,132.851 389.303 C 133.384 389.163,133.829 389.309,134.044 389.693 C 134.252 390.064,135.260 390.415,136.594 390.582 C 137.807 390.734,138.800 391.025,138.800 391.229 C 138.800 391.433,139.340 391.600,140.000 391.600 C 140.660 391.600,141.200 391.780,141.200 392.000 C 141.200 392.220,141.931 392.400,142.824 392.400 C 143.804 392.400,144.349 392.558,144.200 392.800 C 144.056 393.033,144.463 393.200,145.176 393.200 C 145.849 393.200,146.400 393.380,146.400 393.600 C 146.400 393.820,147.120 394.000,148.000 394.000 C 148.880 394.000,149.600 394.180,149.600 394.400 C 149.600 394.620,150.320 394.800,151.200 394.800 C 152.080 394.800,152.800 394.980,152.800 395.200 C 152.800 395.420,153.520 395.600,154.400 395.600 C 155.280 395.600,156.000 395.780,156.000 396.000 C 156.000 396.220,156.911 396.400,158.024 396.400 C 159.271 396.400,159.952 396.553,159.800 396.800 C 159.648 397.047,160.329 397.200,161.576 397.200 C 162.689 397.200,163.600 397.380,163.600 397.600 C 163.600 397.826,164.741 398.000,166.224 398.000 C 167.871 398.000,168.755 398.149,168.600 398.400 C 168.444 398.652,169.385 398.800,171.143 398.800 C 173.020 398.800,173.988 398.964,174.100 399.300 C 174.344 400.032,225.656 400.032,225.900 399.300 C 226.012 398.964,226.980 398.800,228.857 398.800 C 230.615 398.800,231.556 398.652,231.400 398.400 C 231.245 398.149,232.129 398.000,233.776 398.000 C 235.259 398.000,236.400 397.826,236.400 397.600 C 236.400 397.380,237.311 397.200,238.424 397.200 C 239.671 397.200,240.352 397.047,240.200 396.800 C 240.048 396.553,240.729 396.400,241.976 396.400 C 243.089 396.400,244.000 396.220,244.000 396.000 C 244.000 395.780,244.720 395.600,245.600 395.600 C 246.480 395.600,247.200 395.420,247.200 395.200 C 247.200 394.980,247.920 394.800,248.800 394.800 C 249.680 394.800,250.400 394.620,250.400 394.400 C 250.400 394.180,251.120 394.000,252.000 394.000 C 252.880 394.000,253.600 393.820,253.600 393.600 C 253.600 393.380,254.151 393.200,254.824 393.200 C 255.537 393.200,255.944 393.033,255.800 392.800 C 255.651 392.558,256.196 392.400,257.176 392.400 C 258.069 392.400,258.800 392.220,258.800 392.000 C 258.800 391.780,259.340 391.600,260.000 391.600 C 260.660 391.600,261.200 391.433,261.200 391.229 C 261.200 391.025,262.193 390.734,263.406 390.582 C 264.740 390.415,265.748 390.064,265.956 389.693 C 266.171 389.309,266.616 389.163,267.149 389.303 C 267.617 389.425,268.000 389.362,268.000 389.163 C 268.000 388.963,268.531 388.800,269.180 388.800 C 269.862 388.800,270.517 388.521,270.731 388.138 C 270.953 387.740,271.360 387.576,271.750 387.726 C 272.108 387.863,272.400 387.801,272.400 387.587 C 272.400 387.374,272.850 387.200,273.400 387.200 C 273.993 387.200,274.400 386.971,274.400 386.637 C 274.400 386.272,274.680 386.148,275.200 386.284 C 275.647 386.401,276.000 386.296,276.000 386.047 C 276.000 385.801,276.335 385.600,276.745 385.600 C 277.154 385.600,278.889 384.880,280.600 384.000 C 282.311 383.120,284.136 382.400,284.655 382.400 C 285.175 382.400,285.600 382.220,285.600 382.000 C 285.600 381.780,285.960 381.600,286.400 381.600 C 286.840 381.600,287.200 381.420,287.200 381.200 C 287.200 380.980,287.571 380.800,288.024 380.800 C 288.477 380.800,288.756 380.653,288.645 380.473 C 288.534 380.293,289.108 379.907,289.921 379.616 C 290.735 379.325,291.490 378.969,291.600 378.825 C 291.710 378.680,292.836 378.062,294.102 377.451 C 295.368 376.840,296.635 376.128,296.917 375.870 C 297.722 375.134,299.135 374.400,299.746 374.400 C 300.052 374.400,300.526 374.130,300.800 373.800 C 301.074 373.470,301.636 373.200,302.049 373.200 C 302.462 373.200,302.800 373.020,302.800 372.800 C 302.800 372.580,303.051 372.400,303.357 372.400 C 303.664 372.400,304.018 372.130,304.145 371.800 C 304.271 371.470,304.629 371.200,304.938 371.200 C 305.248 371.200,305.726 370.930,306.000 370.600 C 306.274 370.270,306.796 370.000,307.161 370.000 C 307.525 370.000,308.083 369.640,308.400 369.200 C 308.717 368.760,309.254 368.400,309.592 368.400 C 309.931 368.400,310.432 368.040,310.707 367.600 C 310.982 367.160,311.526 366.800,311.915 366.800 C 312.305 366.800,312.883 366.440,313.200 366.000 C 313.517 365.560,314.031 365.200,314.341 365.200 C 314.652 365.200,315.197 364.885,315.553 364.500 C 316.638 363.327,319.523 361.200,320.030 361.200 C 320.550 361.200,322.000 359.683,322.000 359.139 C 322.000 358.952,322.360 358.800,322.800 358.800 C 323.240 358.800,323.600 358.620,323.600 358.400 C 323.600 358.180,323.768 358.045,323.972 358.100 C 324.177 358.155,324.815 357.570,325.389 356.800 C 325.963 356.030,326.515 355.445,326.616 355.500 C 327.128 355.779,327.660 355.422,329.747 353.400 C 330.996 352.190,332.159 351.200,332.331 351.200 C 332.872 351.200,335.591 348.524,335.323 348.256 C 335.182 348.115,335.285 348.000,335.552 348.000 C 335.818 348.000,336.486 347.550,337.036 347.000 C 337.586 346.450,337.925 346.000,337.790 346.000 C 337.654 346.000,337.813 345.730,338.143 345.400 C 338.473 345.070,338.946 344.800,339.195 344.800 C 339.444 344.800,339.536 344.620,339.400 344.400 C 339.264 344.180,339.433 344.000,339.776 344.000 C 340.119 344.000,340.357 343.865,340.305 343.700 C 340.180 343.309,343.309 340.180,343.700 340.305 C 343.865 340.357,344.000 340.119,344.000 339.776 C 344.000 339.433,344.180 339.264,344.400 339.400 C 344.620 339.536,344.800 339.444,344.800 339.195 C 344.800 338.946,345.070 338.473,345.400 338.143 C 345.730 337.813,346.000 337.654,346.000 337.790 C 346.000 337.925,346.450 337.586,347.000 337.036 C 347.550 336.486,348.000 335.818,348.000 335.552 C 348.000 335.285,348.115 335.182,348.256 335.323 C 348.524 335.591,351.200 332.872,351.200 332.331 C 351.200 332.159,352.190 330.996,353.400 329.747 C 354.610 328.498,355.600 327.324,355.600 327.138 C 355.600 326.390,355.765 326.163,356.958 325.272 C 357.641 324.762,358.155 324.177,358.100 323.972 C 358.045 323.768,358.180 323.600,358.400 323.600 C 358.620 323.600,358.800 323.240,358.800 322.800 C 358.800 322.360,358.952 322.000,359.139 322.000 C 359.721 322.000,361.200 320.533,361.202 319.953 C 361.203 319.649,361.743 318.825,362.402 318.122 C 363.061 317.419,363.600 316.693,363.600 316.510 C 363.600 316.327,363.960 315.917,364.400 315.600 C 364.840 315.283,365.200 314.743,365.200 314.400 C 365.200 314.057,365.560 313.517,366.000 313.200 C 366.440 312.883,366.800 312.305,366.800 311.915 C 366.800 311.526,367.160 310.982,367.600 310.707 C 368.040 310.432,368.400 309.931,368.400 309.592 C 368.400 309.254,368.760 308.717,369.200 308.400 C 369.640 308.083,370.000 307.525,370.000 307.161 C 370.000 306.796,370.270 306.274,370.600 306.000 C 370.930 305.726,371.200 305.248,371.200 304.938 C 371.200 304.629,371.470 304.271,371.800 304.145 C 372.130 304.018,372.400 303.664,372.400 303.357 C 372.400 303.051,372.580 302.800,372.800 302.800 C 373.020 302.800,373.200 302.462,373.200 302.049 C 373.200 301.636,373.470 301.074,373.800 300.800 C 374.130 300.526,374.400 300.052,374.400 299.746 C 374.400 299.135,375.134 297.722,375.870 296.917 C 376.128 296.635,376.840 295.368,377.451 294.102 C 378.062 292.836,378.680 291.710,378.825 291.600 C 378.969 291.490,379.325 290.735,379.616 289.921 C 379.907 289.108,380.293 288.534,380.473 288.645 C 380.653 288.756,380.800 288.477,380.800 288.024 C 380.800 287.571,380.980 287.200,381.200 287.200 C 381.420 287.200,381.600 286.840,381.600 286.400 C 381.600 285.960,381.780 285.600,382.000 285.600 C 382.220 285.600,382.400 285.175,382.400 284.655 C 382.400 284.136,383.120 282.311,384.000 280.600 C 384.880 278.889,385.600 277.154,385.600 276.745 C 385.600 276.335,385.801 276.000,386.047 276.000 C 386.296 276.000,386.401 275.647,386.284 275.200 C 386.148 274.680,386.272 274.400,386.637 274.400 C 386.971 274.400,387.200 273.993,387.200 273.400 C 387.200 272.850,387.363 272.400,387.563 272.400 C 387.762 272.400,387.837 272.065,387.730 271.655 C 387.613 271.208,387.788 270.813,388.168 270.668 C 388.552 270.520,388.800 269.949,388.800 269.213 C 388.800 268.546,388.963 268.000,389.163 268.000 C 389.362 268.000,389.425 267.617,389.303 267.149 C 389.163 266.616,389.309 266.171,389.693 265.956 C 390.064 265.748,390.415 264.740,390.582 263.406 C 390.734 262.193,391.025 261.200,391.229 261.200 C 391.433 261.200,391.600 260.660,391.600 260.000 C 391.600 259.340,391.780 258.800,392.000 258.800 C 392.220 258.800,392.400 258.069,392.400 257.176 C 392.400 256.196,392.558 255.651,392.800 255.800 C 393.033 255.944,393.200 255.537,393.200 254.824 C 393.200 254.151,393.380 253.600,393.600 253.600 C 393.820 253.600,394.000 252.880,394.000 252.000 C 394.000 251.120,394.180 250.400,394.400 250.400 C 394.620 250.400,394.800 249.680,394.800 248.800 C 394.800 247.920,394.980 247.200,395.200 247.200 C 395.420 247.200,395.600 246.480,395.600 245.600 C 395.600 244.720,395.780 244.000,396.000 244.000 C 396.220 244.000,396.400 243.089,396.400 241.976 C 396.400 240.729,396.553 240.048,396.800 240.200 C 397.047 240.352,397.200 239.671,397.200 238.424 C 397.200 237.311,397.380 236.400,397.600 236.400 C 397.826 236.400,398.000 235.259,398.000 233.776 C 398.000 232.129,398.149 231.245,398.400 231.400 C 398.652 231.556,398.800 230.615,398.800 228.857 C 398.800 226.980,398.964 226.012,399.300 225.900 C 399.693 225.769,399.800 220.231,399.800 200.000 C 399.800 179.769,399.693 174.231,399.300 174.100 C 398.964 173.988,398.800 173.020,398.800 171.143 C 398.800 169.385,398.652 168.444,398.400 168.600 C 398.149 168.755,398.000 167.871,398.000 166.224 C 398.000 164.741,397.826 163.600,397.600 163.600 C 397.380 163.600,397.200 162.689,397.200 161.576 C 397.200 160.329,397.047 159.648,396.800 159.800 C 396.553 159.952,396.400 159.271,396.400 158.024 C 396.400 156.911,396.220 156.000,396.000 156.000 C 395.780 156.000,395.600 155.280,395.600 154.400 C 395.600 153.520,395.420 152.800,395.200 152.800 C 394.980 152.800,394.800 152.080,394.800 151.200 C 394.800 150.320,394.620 149.600,394.400 149.600 C 394.180 149.600,394.000 148.880,394.000 148.000 C 394.000 147.120,393.820 146.400,393.600 146.400 C 393.380 146.400,393.200 145.849,393.200 145.176 C 393.200 144.463,393.033 144.056,392.800 144.200 C 392.558 144.349,392.400 143.804,392.400 142.824 C 392.400 141.931,392.220 141.200,392.000 141.200 C 391.780 141.200,391.600 140.660,391.600 140.000 C 391.600 139.340,391.433 138.800,391.229 138.800 C 391.025 138.800,390.734 137.807,390.582 136.594 C 390.415 135.260,390.064 134.252,389.693 134.044 C 389.309 133.829,389.163 133.384,389.303 132.851 C 389.425 132.383,389.362 132.000,389.163 132.000 C 388.963 132.000,388.800 131.469,388.800 130.820 C 388.800 130.138,388.521 129.483,388.138 129.269 C 387.740 129.047,387.576 128.640,387.726 128.250 C 387.863 127.892,387.801 127.600,387.587 127.600 C 387.374 127.600,387.200 127.150,387.200 126.600 C 387.200 126.007,386.971 125.600,386.637 125.600 C 386.272 125.600,386.148 125.320,386.284 124.800 C 386.401 124.353,386.296 124.000,386.047 124.000 C 385.801 124.000,385.600 123.665,385.600 123.255 C 385.600 122.846,384.880 121.111,384.000 119.400 C 383.120 117.689,382.400 115.864,382.400 115.345 C 382.400 114.825,382.220 114.400,382.000 114.400 C 381.780 114.400,381.600 114.040,381.600 113.600 C 381.600 113.160,381.420 112.800,381.200 112.800 C 380.980 112.800,380.800 112.429,380.800 111.976 C 380.800 111.523,380.653 111.244,380.473 111.355 C 380.293 111.466,379.907 110.892,379.616 110.079 C 379.325 109.265,378.969 108.510,378.825 108.400 C 378.680 108.290,378.062 107.164,377.451 105.898 C 376.840 104.632,376.128 103.365,375.870 103.083 C 375.134 102.278,374.400 100.865,374.400 100.254 C 374.400 99.948,374.130 99.474,373.800 99.200 C 373.470 98.926,373.200 98.364,373.200 97.951 C 373.200 97.538,373.020 97.200,372.800 97.200 C 372.580 97.200,372.400 96.949,372.400 96.643 C 372.400 96.336,372.130 95.982,371.800 95.855 C 371.470 95.729,371.200 95.371,371.200 95.062 C 371.200 94.752,370.930 94.274,370.600 94.000 C 370.270 93.726,370.000 93.204,370.000 92.839 C 370.000 92.475,369.640 91.917,369.200 91.600 C 368.760 91.283,368.400 90.746,368.400 90.408 C 368.400 90.069,368.040 89.568,367.600 89.293 C 367.160 89.018,366.800 88.474,366.800 88.085 C 366.800 87.695,366.440 87.117,366.000 86.800 C 365.560 86.483,365.200 85.943,365.200 85.600 C 365.200 85.257,364.840 84.717,364.400 84.400 C 363.960 84.083,363.600 83.673,363.600 83.490 C 363.600 83.307,363.061 82.581,362.402 81.878 C 361.743 81.175,361.203 80.351,361.202 80.047 C 361.200 79.467,359.721 78.000,359.139 78.000 C 358.952 78.000,358.800 77.640,358.800 77.200 C 358.800 76.760,358.620 76.400,358.400 76.400 C 358.180 76.400,358.045 76.232,358.100 76.028 C 358.155 75.823,357.570 75.185,356.800 74.611 C 356.030 74.037,355.445 73.485,355.500 73.384 C 355.779 72.872,355.422 72.340,353.400 70.253 C 352.190 69.004,351.200 67.841,351.200 67.669 C 351.200 67.128,348.524 64.409,348.256 64.677 C 348.115 64.818,348.000 64.715,348.000 64.448 C 348.000 64.182,347.550 63.514,347.000 62.964 C 346.450 62.414,346.000 62.075,346.000 62.210 C 346.000 62.346,345.730 62.187,345.400 61.857 C 345.070 61.527,344.800 61.054,344.800 60.805 C 344.800 60.556,344.620 60.464,344.400 60.600 C 344.180 60.736,344.000 60.567,344.000 60.224 C 344.000 59.881,343.865 59.643,343.700 59.695 C 343.309 59.820,340.180 56.691,340.305 56.300 C 340.357 56.135,340.119 56.000,339.776 56.000 C 339.433 56.000,339.264 55.820,339.400 55.600 C 339.536 55.380,339.444 55.200,339.195 55.200 C 338.946 55.200,338.473 54.930,338.143 54.600 C 337.813 54.270,337.654 54.000,337.790 54.000 C 337.925 54.000,337.586 53.550,337.036 53.000 C 336.486 52.450,335.818 52.000,335.552 52.000 C 335.285 52.000,335.182 51.885,335.323 51.744 C 335.591 51.476,332.872 48.800,332.331 48.800 C 332.159 48.800,330.996 47.810,329.747 46.600 C 328.498 45.390,327.324 44.400,327.138 44.400 C 326.390 44.400,326.163 44.235,325.272 43.042 C 324.762 42.359,324.177 41.845,323.972 41.900 C 323.768 41.955,323.600 41.820,323.600 41.600 C 323.600 41.380,323.402 41.200,323.160 41.200 C 322.919 41.200,322.217 40.660,321.600 40.000 C 320.983 39.340,320.271 38.800,320.016 38.800 C 319.521 38.800,316.625 36.658,315.553 35.500 C 315.197 35.115,314.652 34.800,314.341 34.800 C 314.031 34.800,313.517 34.440,313.200 34.000 C 312.883 33.560,312.305 33.200,311.915 33.200 C 311.526 33.200,310.982 32.840,310.707 32.400 C 310.432 31.960,309.931 31.600,309.592 31.600 C 309.254 31.600,308.717 31.240,308.400 30.800 C 308.083 30.360,307.525 30.000,307.161 30.000 C 306.796 30.000,306.274 29.730,306.000 29.400 C 305.726 29.070,305.248 28.800,304.938 28.800 C 304.629 28.800,304.271 28.530,304.145 28.200 C 304.018 27.870,303.664 27.600,303.357 27.600 C 303.051 27.600,302.800 27.420,302.800 27.200 C 302.800 26.980,302.462 26.800,302.049 26.800 C 301.636 26.800,301.074 26.530,300.800 26.200 C 300.526 25.870,300.052 25.600,299.746 25.600 C 299.135 25.600,297.722 24.866,296.917 24.130 C 296.635 23.872,295.368 23.160,294.102 22.549 C 292.836 21.938,291.710 21.320,291.600 21.175 C 291.490 21.031,290.735 20.675,289.921 20.384 C 289.108 20.093,288.534 19.707,288.645 19.527 C 288.756 19.347,288.477 19.200,288.024 19.200 C 287.571 19.200,287.200 19.020,287.200 18.800 C 287.200 18.580,286.840 18.400,286.400 18.400 C 285.960 18.400,285.600 18.220,285.600 18.000 C 285.600 17.780,285.175 17.600,284.655 17.600 C 284.136 17.600,282.311 16.880,280.600 16.000 C 278.889 15.120,277.154 14.400,276.745 14.400 C 276.335 14.400,276.000 14.199,276.000 13.953 C 276.000 13.704,275.647 13.599,275.200 13.716 C 274.705 13.845,274.400 13.728,274.400 13.408 C 274.400 13.103,273.675 12.782,272.635 12.626 C 271.663 12.480,270.771 12.101,270.648 11.781 C 270.521 11.450,269.904 11.200,269.213 11.200 C 268.546 11.200,268.000 11.037,268.000 10.837 C 268.000 10.638,267.617 10.575,267.149 10.697 C 266.616 10.837,266.171 10.691,265.956 10.307 C 265.748 9.936,264.740 9.585,263.406 9.418 C 262.193 9.266,261.200 8.975,261.200 8.771 C 261.200 8.567,260.660 8.400,260.000 8.400 C 259.340 8.400,258.800 8.220,258.800 8.000 C 258.800 7.780,258.069 7.600,257.176 7.600 C 256.196 7.600,255.651 7.442,255.800 7.200 C 255.944 6.967,255.537 6.800,254.824 6.800 C 254.151 6.800,253.600 6.620,253.600 6.400 C 253.600 6.180,252.880 6.000,252.000 6.000 C 251.120 6.000,250.400 5.820,250.400 5.600 C 250.400 5.380,249.680 5.200,248.800 5.200 C 247.920 5.200,247.200 5.020,247.200 4.800 C 247.200 4.580,246.480 4.400,245.600 4.400 C 244.720 4.400,244.000 4.220,244.000 4.000 C 244.000 3.780,243.089 3.600,241.976 3.600 C 240.729 3.600,240.048 3.447,240.200 3.200 C 240.352 2.953,239.671 2.800,238.424 2.800 C 237.311 2.800,236.400 2.620,236.400 2.400 C 236.400 2.174,235.259 2.000,233.776 2.000 C 232.129 2.000,231.245 1.851,231.400 1.600 C 231.556 1.348,230.615 1.200,228.857 1.200 C 226.993 1.200,226.012 1.035,225.901 0.704 C 225.739 0.217,186.619 -0.130,177.500 0.276 M204.400 60.800 C 204.400 61.031,205.667 61.200,207.400 61.200 C 209.133 61.200,210.400 61.369,210.400 61.600 C 210.400 61.820,211.300 62.000,212.400 62.000 C 213.500 62.000,214.400 62.180,214.400 62.400 C 214.400 62.620,215.221 62.800,216.224 62.800 C 217.337 62.800,217.951 62.956,217.800 63.200 C 217.656 63.433,218.063 63.600,218.776 63.600 C 219.449 63.600,220.000 63.780,220.000 64.000 C 220.000 64.220,220.529 64.400,221.176 64.400 C 221.823 64.400,222.464 64.580,222.600 64.800 C 222.736 65.020,223.152 65.200,223.524 65.199 C 224.285 65.198,227.728 66.838,227.933 67.300 C 228.007 67.465,228.322 67.600,228.633 67.600 C 228.945 67.600,229.200 67.780,229.200 68.000 C 229.200 68.220,229.335 68.360,229.500 68.311 C 229.949 68.177,232.400 69.349,232.400 69.698 C 232.400 69.864,232.732 70.000,233.138 70.000 C 233.544 70.000,234.202 70.360,234.600 70.800 C 234.998 71.240,235.484 71.600,235.679 71.600 C 235.874 71.600,236.420 71.960,236.892 72.400 C 237.364 72.840,237.987 73.200,238.275 73.200 C 238.564 73.200,238.800 73.391,238.800 73.624 C 238.800 73.857,238.947 73.956,239.127 73.845 C 239.307 73.734,239.707 73.993,240.015 74.421 C 240.324 74.850,240.807 75.200,241.088 75.200 C 241.694 75.200,243.200 76.626,243.200 77.200 C 243.200 77.420,243.500 77.600,243.867 77.600 C 244.233 77.600,244.427 77.706,244.297 77.836 C 243.991 78.142,249.704 83.931,250.100 83.716 C 250.265 83.626,250.400 83.929,250.400 84.389 C 250.400 84.849,250.669 85.328,250.998 85.454 C 251.326 85.581,251.516 85.812,251.419 85.969 C 251.322 86.126,251.593 86.507,252.021 86.815 C 252.450 87.124,252.800 87.607,252.800 87.888 C 252.800 88.170,252.938 88.400,253.106 88.400 C 253.274 88.400,253.856 89.120,254.400 90.000 C 254.944 90.880,255.526 91.600,255.694 91.600 C 255.862 91.600,256.000 91.920,256.000 92.312 C 256.000 92.703,256.360 93.283,256.800 93.600 C 257.240 93.917,257.600 94.497,257.600 94.888 C 257.600 95.280,257.736 95.600,257.902 95.600 C 258.314 95.600,259.125 97.500,259.440 99.203 C 259.582 99.971,259.965 100.813,260.289 101.073 C 260.614 101.334,260.769 101.726,260.634 101.946 C 260.498 102.165,260.570 102.458,260.793 102.596 C 261.017 102.734,261.200 103.267,261.200 103.781 C 261.200 104.294,261.443 104.807,261.739 104.921 C 262.234 105.111,262.909 107.791,263.472 111.800 C 263.596 112.680,263.845 113.494,264.025 113.609 C 264.205 113.724,264.391 115.029,264.439 116.509 C 264.487 117.989,264.678 119.200,264.863 119.200 C 265.048 119.200,265.200 122.451,265.200 126.424 C 265.200 131.137,265.061 133.561,264.800 133.400 C 264.550 133.246,264.400 134.063,264.400 135.576 C 264.400 136.925,264.223 138.000,264.000 138.000 C 263.780 138.000,263.600 138.720,263.600 139.600 C 263.600 140.480,263.420 141.200,263.200 141.200 C 262.980 141.200,262.800 141.819,262.800 142.576 C 262.800 143.333,262.650 144.045,262.467 144.159 C 262.283 144.272,262.214 144.915,262.313 145.588 C 262.449 146.516,262.358 146.759,261.934 146.596 C 261.550 146.449,261.347 146.728,261.285 147.491 C 261.234 148.101,261.022 148.658,260.812 148.728 C 260.603 148.799,260.532 149.358,260.654 149.971 C 260.811 150.755,260.695 151.155,260.261 151.321 C 259.922 151.452,259.524 152.197,259.378 152.979 C 259.231 153.761,258.951 154.400,258.755 154.400 C 258.560 154.400,258.400 154.760,258.400 155.200 C 258.400 155.640,258.220 156.000,258.000 156.000 C 257.780 156.000,257.600 156.360,257.600 156.800 C 257.600 157.240,257.420 157.600,257.200 157.600 C 256.980 157.600,256.800 157.842,256.800 158.138 C 256.800 158.434,256.440 159.002,256.000 159.400 C 255.560 159.798,255.200 160.364,255.200 160.657 C 255.200 161.205,254.485 162.191,252.900 163.832 C 252.405 164.344,252.000 164.946,252.000 165.169 C 252.000 165.392,251.084 166.520,249.965 167.675 C 248.845 168.831,247.549 170.321,247.084 170.988 C 246.619 171.655,246.106 172.294,245.944 172.408 C 244.772 173.238,242.368 175.273,240.877 176.700 C 239.899 177.635,238.852 178.400,238.550 178.400 C 238.247 178.400,238.045 178.535,238.100 178.700 C 238.155 178.865,238.097 179.000,237.971 179.000 C 237.846 179.000,237.426 179.317,237.039 179.704 C 236.652 180.091,236.170 180.305,235.968 180.180 C 235.765 180.055,235.600 180.122,235.600 180.328 C 235.600 180.534,235.060 180.927,234.400 181.200 C 233.740 181.473,233.200 181.855,233.200 182.049 C 233.200 182.242,232.840 182.400,232.400 182.400 C 231.960 182.400,231.600 182.580,231.600 182.800 C 231.600 183.020,231.317 183.200,230.971 183.200 C 230.626 183.200,230.071 183.472,229.739 183.804 C 229.407 184.136,228.970 184.305,228.768 184.180 C 228.565 184.055,228.400 184.110,228.400 184.302 C 228.400 184.494,227.770 184.898,227.000 185.200 C 226.230 185.502,225.600 185.896,225.600 186.075 C 225.600 186.254,225.240 186.400,224.800 186.400 C 224.360 186.400,224.000 186.580,224.000 186.800 C 224.000 187.020,223.460 187.200,222.800 187.200 C 222.140 187.200,221.600 187.380,221.600 187.600 C 221.600 187.820,221.161 188.000,220.624 188.000 C 220.087 188.000,219.536 188.180,219.400 188.400 C 219.264 188.620,218.443 188.800,217.576 188.800 C 216.709 188.800,216.000 188.980,216.000 189.200 C 216.000 189.420,215.370 189.600,214.600 189.600 C 213.830 189.600,213.200 189.780,213.200 190.000 C 213.200 190.222,212.133 190.400,210.800 190.400 C 209.467 190.400,208.400 190.578,208.400 190.800 C 208.400 191.054,205.333 191.200,200.000 191.200 C 194.667 191.200,191.600 191.054,191.600 190.800 C 191.600 190.578,190.533 190.400,189.200 190.400 C 187.867 190.400,186.800 190.222,186.800 190.000 C 186.800 189.780,186.170 189.600,185.400 189.600 C 184.630 189.600,184.000 189.420,184.000 189.200 C 184.000 188.980,183.291 188.800,182.424 188.800 C 181.557 188.800,180.736 188.620,180.600 188.400 C 180.464 188.180,179.913 188.000,179.376 188.000 C 178.839 188.000,178.400 187.820,178.400 187.600 C 178.400 187.380,177.860 187.200,177.200 187.200 C 176.540 187.200,176.000 187.020,176.000 186.800 C 176.000 186.580,175.640 186.400,175.200 186.400 C 174.760 186.400,174.400 186.254,174.400 186.075 C 174.400 185.896,173.770 185.502,173.000 185.200 C 172.230 184.898,171.600 184.494,171.600 184.302 C 171.600 184.110,171.435 184.055,171.232 184.180 C 171.030 184.305,170.593 184.136,170.261 183.804 C 169.929 183.472,169.374 183.200,169.029 183.200 C 168.683 183.200,168.400 183.020,168.400 182.800 C 168.400 182.580,168.122 182.400,167.783 182.400 C 167.444 182.400,166.780 182.040,166.308 181.600 C 165.836 181.160,165.213 180.800,164.925 180.800 C 164.636 180.800,164.400 180.609,164.400 180.376 C 164.400 180.143,164.235 180.055,164.032 180.180 C 163.830 180.305,163.348 180.091,162.961 179.704 C 162.574 179.317,162.154 179.000,162.029 179.000 C 161.903 179.000,161.845 178.865,161.900 178.700 C 161.955 178.535,161.753 178.400,161.450 178.400 C 161.148 178.400,160.101 177.635,159.123 176.700 C 157.632 175.273,155.228 173.238,154.056 172.408 C 153.894 172.294,153.381 171.655,152.916 170.988 C 152.451 170.321,151.155 168.831,150.035 167.675 C 148.916 166.520,148.000 165.350,148.000 165.076 C 148.000 164.801,147.640 164.317,147.200 164.000 C 146.760 163.683,146.400 163.233,146.400 163.000 C 146.400 162.767,146.040 162.317,145.600 162.000 C 145.160 161.683,144.800 161.131,144.800 160.774 C 144.800 160.416,144.440 159.798,144.000 159.400 C 143.560 159.002,143.200 158.434,143.200 158.138 C 143.200 157.842,143.020 157.600,142.800 157.600 C 142.580 157.600,142.400 157.240,142.400 156.800 C 142.400 156.360,142.220 156.000,142.000 156.000 C 141.780 156.000,141.600 155.640,141.600 155.200 C 141.600 154.760,141.440 154.400,141.245 154.400 C 141.049 154.400,140.769 153.761,140.622 152.979 C 140.476 152.197,140.078 151.452,139.739 151.321 C 139.305 151.155,139.189 150.755,139.346 149.971 C 139.468 149.358,139.397 148.799,139.188 148.728 C 138.978 148.658,138.766 148.101,138.715 147.491 C 138.653 146.728,138.450 146.449,138.066 146.596 C 137.642 146.759,137.551 146.516,137.687 145.588 C 137.786 144.915,137.717 144.272,137.533 144.159 C 137.350 144.045,137.200 143.333,137.200 142.576 C 137.200 141.819,137.020 141.200,136.800 141.200 C 136.580 141.200,136.400 140.495,136.400 139.633 C 136.400 138.772,136.230 138.007,136.022 137.933 C 135.814 137.860,135.606 136.585,135.559 135.100 C 135.512 133.615,135.322 132.400,135.137 132.400 C 134.952 132.400,134.800 129.430,134.800 125.800 C 134.800 122.170,134.949 119.200,135.132 119.200 C 135.314 119.200,135.505 118.169,135.556 116.909 C 135.607 115.648,135.798 114.523,135.980 114.409 C 136.163 114.294,136.409 113.300,136.526 112.200 C 136.927 108.460,137.720 105.129,138.261 104.921 C 138.557 104.807,138.800 104.294,138.800 103.781 C 138.800 103.267,138.972 102.741,139.183 102.611 C 139.393 102.481,139.473 102.133,139.360 101.839 C 139.247 101.544,139.412 101.204,139.727 101.084 C 140.041 100.963,140.423 100.174,140.574 99.332 C 140.904 97.497,141.678 95.600,142.098 95.600 C 142.264 95.600,142.400 95.364,142.400 95.075 C 142.400 94.787,142.760 94.164,143.200 93.692 C 143.640 93.220,144.000 92.596,144.000 92.305 C 144.000 92.014,144.360 91.517,144.800 91.200 C 145.240 90.883,145.600 90.421,145.600 90.174 C 145.600 89.926,145.960 89.398,146.400 89.000 C 146.840 88.602,147.200 88.074,147.200 87.826 C 147.200 87.579,147.550 87.124,147.979 86.815 C 148.407 86.507,148.678 86.126,148.581 85.969 C 148.484 85.812,148.674 85.581,149.002 85.454 C 149.331 85.328,149.600 84.849,149.600 84.389 C 149.600 83.929,149.735 83.626,149.900 83.716 C 150.296 83.931,156.009 78.142,155.703 77.836 C 155.573 77.706,155.767 77.600,156.133 77.600 C 156.500 77.600,156.800 77.420,156.800 77.200 C 156.800 76.626,158.306 75.200,158.912 75.200 C 159.193 75.200,159.676 74.850,159.985 74.421 C 160.293 73.993,160.693 73.734,160.873 73.845 C 161.053 73.956,161.200 73.857,161.200 73.624 C 161.200 73.391,161.520 73.200,161.912 73.200 C 162.303 73.200,162.883 72.840,163.200 72.400 C 163.517 71.960,163.979 71.600,164.226 71.600 C 164.474 71.600,165.002 71.240,165.400 70.800 C 165.798 70.360,166.456 70.000,166.862 70.000 C 167.268 70.000,167.600 69.864,167.600 69.698 C 167.600 69.349,170.051 68.177,170.500 68.311 C 170.665 68.360,170.800 68.220,170.800 68.000 C 170.800 67.780,171.145 67.600,171.567 67.600 C 171.988 67.600,172.393 67.459,172.467 67.287 C 172.697 66.746,175.610 65.200,176.399 65.200 C 176.814 65.200,177.264 65.020,177.400 64.800 C 177.536 64.580,178.177 64.400,178.824 64.400 C 179.471 64.400,180.000 64.220,180.000 64.000 C 180.000 63.780,180.551 63.600,181.224 63.600 C 181.937 63.600,182.344 63.433,182.200 63.200 C 182.049 62.956,182.663 62.800,183.776 62.800 C 184.779 62.800,185.600 62.620,185.600 62.400 C 185.600 62.180,186.500 62.000,187.600 62.000 C 188.700 62.000,189.600 61.820,189.600 61.600 C 189.600 61.369,190.867 61.200,192.600 61.200 C 194.333 61.200,195.600 61.031,195.600 60.800 C 195.600 60.558,197.333 60.400,200.000 60.400 C 202.667 60.400,204.400 60.558,204.400 60.800 M246.800 225.600 C 246.800 225.820,247.790 226.000,249.000 226.000 C 250.210 226.000,251.200 226.180,251.200 226.400 C 251.200 226.620,251.920 226.800,252.800 226.800 C 253.680 226.800,254.400 226.980,254.400 227.200 C 254.400 227.420,255.120 227.600,256.000 227.600 C 256.880 227.600,257.600 227.780,257.600 228.000 C 257.600 228.220,258.039 228.400,258.576 228.400 C 259.113 228.400,259.664 228.580,259.800 228.800 C 259.936 229.020,260.587 229.200,261.247 229.200 C 261.945 229.200,262.344 229.367,262.200 229.600 C 262.061 229.825,262.383 230.000,262.939 230.000 C 263.925 230.000,267.282 231.534,267.533 232.100 C 267.607 232.265,268.102 232.400,268.633 232.400 C 269.165 232.400,269.600 232.580,269.600 232.800 C 269.600 233.020,269.870 233.200,270.200 233.200 C 270.530 233.200,270.800 233.358,270.800 233.551 C 270.800 233.745,271.340 234.127,272.000 234.400 C 272.660 234.673,273.200 235.055,273.200 235.249 C 273.200 235.442,273.520 235.600,273.912 235.600 C 274.303 235.600,274.883 235.960,275.200 236.400 C 275.517 236.840,276.103 237.200,276.501 237.200 C 276.899 237.200,277.327 237.466,277.452 237.792 C 277.577 238.117,278.337 238.777,279.140 239.257 C 279.943 239.737,282.335 241.890,284.456 244.042 C 286.577 246.194,288.422 247.845,288.556 247.711 C 288.690 247.577,288.800 247.727,288.800 248.045 C 288.800 248.363,289.160 248.883,289.600 249.200 C 290.040 249.517,290.400 249.962,290.400 250.188 C 290.401 250.415,290.868 251.140,291.438 251.800 C 292.009 252.460,292.733 253.495,293.048 254.100 C 293.363 254.705,293.815 255.200,294.053 255.200 C 294.291 255.200,294.384 255.465,294.260 255.789 C 294.135 256.113,294.342 256.608,294.719 256.889 C 295.096 257.170,295.759 258.075,296.193 258.900 C 296.627 259.725,297.136 260.400,297.324 260.400 C 297.513 260.400,297.592 260.624,297.501 260.898 C 297.409 261.172,297.844 262.325,298.467 263.460 C 299.090 264.595,299.600 266.002,299.600 266.586 C 299.600 267.191,299.772 267.541,300.000 267.400 C 300.227 267.260,300.400 267.596,300.400 268.176 C 300.400 268.739,300.580 269.200,300.800 269.200 C 301.020 269.200,301.200 269.650,301.200 270.200 C 301.200 270.750,301.380 271.200,301.600 271.200 C 301.820 271.200,302.000 271.920,302.000 272.800 C 302.000 273.680,302.180 274.400,302.400 274.400 C 302.620 274.400,302.800 275.120,302.800 276.000 C 302.800 276.880,302.980 277.600,303.200 277.600 C 303.420 277.600,303.600 278.579,303.600 279.776 C 303.600 280.973,303.780 282.064,304.000 282.200 C 304.243 282.350,304.400 285.279,304.400 289.647 C 304.400 294.345,304.261 296.761,304.000 296.600 C 303.780 296.464,303.600 296.726,303.600 297.183 C 303.600 298.328,302.672 301.200,302.303 301.200 C 302.136 301.200,302.000 301.560,302.000 302.000 C 302.000 302.440,301.820 302.800,301.600 302.800 C 301.380 302.800,301.200 303.160,301.200 303.600 C 301.200 304.040,301.020 304.400,300.800 304.400 C 300.580 304.400,300.400 304.760,300.400 305.200 C 300.400 305.640,300.250 306.000,300.068 306.000 C 299.885 306.000,299.483 306.495,299.176 307.100 C 298.555 308.321,294.095 312.800,293.499 312.800 C 293.291 312.800,292.617 313.340,292.000 314.000 C 291.383 314.660,290.710 315.200,290.503 315.200 C 290.296 315.200,289.393 315.920,288.495 316.800 C 287.597 317.680,286.688 318.400,286.474 318.400 C 286.260 318.400,285.507 318.940,284.800 319.600 C 284.093 320.260,283.264 320.800,282.958 320.800 C 282.651 320.800,282.400 320.980,282.400 321.200 C 282.400 321.420,282.130 321.600,281.800 321.600 C 281.470 321.600,281.200 321.789,281.200 322.020 C 281.200 322.252,280.582 322.699,279.827 323.014 C 279.072 323.330,278.351 323.755,278.225 323.959 C 278.099 324.164,277.187 324.722,276.198 325.201 C 275.209 325.680,274.400 326.235,274.400 326.436 C 274.400 326.636,274.059 326.800,273.643 326.800 C 273.226 326.800,272.781 327.072,272.654 327.404 C 272.527 327.736,272.282 327.977,272.111 327.940 C 271.745 327.861,270.288 328.438,270.000 328.776 C 269.635 329.205,265.843 331.002,265.519 330.900 C 265.343 330.845,265.200 330.980,265.200 331.200 C 265.200 331.420,264.945 331.600,264.633 331.600 C 264.322 331.600,264.004 331.788,263.927 332.018 C 263.851 332.248,263.386 332.466,262.894 332.503 C 262.402 332.540,262.000 332.683,262.000 332.821 C 262.000 333.195,260.076 334.000,259.181 334.000 C 258.752 334.000,258.399 334.135,258.397 334.300 C 258.393 334.659,256.456 335.600,255.720 335.600 C 255.434 335.600,255.200 335.780,255.200 336.000 C 255.200 336.220,254.761 336.400,254.224 336.400 C 253.687 336.400,253.136 336.580,253.000 336.800 C 252.864 337.020,252.418 337.200,252.010 337.200 C 251.601 337.200,251.207 337.378,251.133 337.597 C 251.060 337.815,250.505 338.034,249.900 338.084 C 249.295 338.134,248.800 338.315,248.800 338.487 C 248.800 338.659,248.350 338.800,247.800 338.800 C 247.250 338.800,246.800 338.980,246.800 339.200 C 246.800 339.420,246.260 339.600,245.600 339.600 C 244.940 339.600,244.400 339.780,244.400 340.000 C 244.400 340.220,243.860 340.400,243.200 340.400 C 242.540 340.400,242.000 340.580,242.000 340.800 C 242.000 341.020,241.460 341.200,240.800 341.200 C 240.140 341.200,239.600 341.354,239.600 341.541 C 239.600 341.813,236.284 342.288,232.900 342.502 C 232.625 342.519,232.400 342.683,232.400 342.867 C 232.400 343.050,231.869 343.200,231.220 343.200 C 230.550 343.200,229.884 343.479,229.679 343.845 C 229.407 344.331,228.862 344.454,227.464 344.343 C 226.160 344.239,225.549 344.357,225.401 344.741 C 225.243 345.155,224.465 345.250,222.196 345.136 C 220.548 345.053,219.200 345.115,219.200 345.274 C 219.200 345.433,217.985 345.617,216.500 345.682 C 214.986 345.748,213.829 345.976,213.867 346.200 C 213.910 346.460,209.067 346.600,200.000 346.600 C 190.982 346.600,186.090 346.460,186.133 346.202 C 186.172 345.969,183.816 345.638,180.431 345.402 C 177.258 345.181,174.603 344.819,174.530 344.597 C 174.457 344.374,173.569 344.260,172.540 344.342 C 171.138 344.454,170.594 344.332,170.321 343.845 C 170.116 343.479,169.450 343.200,168.780 343.200 C 168.131 343.200,167.600 343.050,167.600 342.867 C 167.600 342.683,167.375 342.519,167.100 342.502 C 163.716 342.288,160.400 341.813,160.400 341.541 C 160.400 341.354,159.860 341.200,159.200 341.200 C 158.540 341.200,158.000 341.020,158.000 340.800 C 158.000 340.580,157.460 340.400,156.800 340.400 C 156.140 340.400,155.600 340.220,155.600 340.000 C 155.600 339.780,155.060 339.600,154.400 339.600 C 153.740 339.600,153.200 339.420,153.200 339.200 C 153.200 338.980,152.750 338.800,152.200 338.800 C 151.650 338.800,151.200 338.659,151.200 338.487 C 151.200 338.315,150.705 338.134,150.100 338.084 C 149.495 338.034,148.940 337.815,148.867 337.597 C 148.793 337.378,148.309 337.200,147.790 337.200 C 147.272 337.200,146.736 337.020,146.600 336.800 C 146.464 336.580,146.003 336.400,145.576 336.400 C 145.149 336.400,144.800 336.220,144.800 336.000 C 144.800 335.780,144.451 335.600,144.024 335.600 C 143.597 335.600,143.136 335.420,143.000 335.200 C 142.864 334.980,142.313 334.800,141.776 334.800 C 141.239 334.800,140.800 334.656,140.800 334.480 C 140.800 334.305,140.170 333.933,139.400 333.654 C 138.630 333.376,138.000 333.018,138.000 332.859 C 138.000 332.700,137.598 332.540,137.106 332.503 C 136.614 332.466,136.149 332.248,136.073 332.018 C 135.996 331.788,135.678 331.600,135.367 331.600 C 135.055 331.600,134.800 331.420,134.800 331.200 C 134.800 330.980,134.657 330.845,134.481 330.900 C 134.086 331.024,130.250 329.112,130.067 328.700 C 129.993 328.535,129.588 328.400,129.167 328.400 C 128.745 328.400,128.400 328.209,128.400 327.976 C 128.400 327.743,128.220 327.664,128.000 327.800 C 127.780 327.936,127.600 327.869,127.600 327.651 C 127.600 327.432,127.221 327.134,126.757 326.986 C 126.294 326.839,125.568 326.422,125.144 326.059 C 124.721 325.697,124.265 325.460,124.132 325.534 C 123.998 325.608,123.779 325.518,123.645 325.334 C 123.311 324.879,121.353 323.718,119.300 322.757 C 118.365 322.320,117.600 321.701,117.600 321.381 C 117.600 321.062,117.320 320.800,116.978 320.800 C 116.636 320.800,115.781 320.261,115.078 319.602 C 114.375 318.943,113.639 318.403,113.443 318.402 C 113.247 318.401,112.571 317.860,111.940 317.200 C 111.309 316.540,110.609 316.000,110.383 316.000 C 110.158 316.000,109.343 315.370,108.573 314.600 C 107.803 313.830,107.003 313.200,106.795 313.200 C 106.184 313.200,100.912 307.783,100.616 306.851 C 100.468 306.383,100.178 306.000,99.973 306.000 C 99.768 306.000,99.600 305.722,99.600 305.383 C 99.600 305.044,99.240 304.380,98.800 303.908 C 98.360 303.436,98.000 302.633,98.000 302.125 C 98.000 301.616,97.864 301.200,97.697 301.200 C 97.328 301.200,96.400 298.328,96.400 297.183 C 96.400 296.726,96.220 296.464,96.000 296.600 C 95.739 296.761,95.600 294.345,95.600 289.647 C 95.600 285.279,95.757 282.350,96.000 282.200 C 96.220 282.064,96.400 280.973,96.400 279.776 C 96.400 278.579,96.580 277.600,96.800 277.600 C 97.020 277.600,97.200 276.880,97.200 276.000 C 97.200 275.120,97.380 274.400,97.600 274.400 C 97.820 274.400,98.000 273.680,98.000 272.800 C 98.000 271.920,98.180 271.200,98.400 271.200 C 98.620 271.200,98.800 270.750,98.800 270.200 C 98.800 269.650,98.980 269.200,99.200 269.200 C 99.420 269.200,99.600 268.741,99.600 268.179 C 99.600 267.618,100.272 265.863,101.094 264.279 C 101.916 262.696,102.538 261.175,102.476 260.900 C 102.415 260.625,102.512 260.400,102.692 260.400 C 102.871 260.400,103.372 259.725,103.805 258.900 C 104.238 258.075,104.774 257.268,104.996 257.106 C 105.218 256.944,105.274 256.809,105.119 256.806 C 104.965 256.803,105.280 256.324,105.819 255.742 C 106.359 255.159,106.800 254.483,106.800 254.238 C 106.800 253.992,107.250 253.307,107.800 252.713 C 108.350 252.120,108.800 251.474,108.800 251.277 C 108.800 251.080,109.340 250.354,110.000 249.663 C 110.660 248.972,111.200 248.196,111.200 247.937 C 111.200 247.678,111.310 247.577,111.444 247.711 C 111.578 247.845,113.423 246.194,115.544 244.042 C 117.665 241.890,120.057 239.737,120.860 239.257 C 121.663 238.777,122.423 238.117,122.548 237.792 C 122.673 237.466,123.101 237.200,123.499 237.200 C 123.897 237.200,124.483 236.840,124.800 236.400 C 125.117 235.960,125.697 235.600,126.088 235.600 C 126.480 235.600,126.800 235.442,126.800 235.249 C 126.800 235.055,127.340 234.673,128.000 234.400 C 128.660 234.127,129.200 233.745,129.200 233.551 C 129.200 233.358,129.470 233.200,129.800 233.200 C 130.130 233.200,130.400 233.020,130.400 232.800 C 130.400 232.580,130.835 232.400,131.367 232.400 C 131.898 232.400,132.393 232.265,132.467 232.100 C 132.718 231.534,136.075 230.000,137.061 230.000 C 137.617 230.000,137.939 229.825,137.800 229.600 C 137.656 229.367,138.055 229.200,138.753 229.200 C 139.413 229.200,140.064 229.020,140.200 228.800 C 140.336 228.580,140.887 228.400,141.424 228.400 C 141.961 228.400,142.400 228.220,142.400 228.000 C 142.400 227.780,143.120 227.600,144.000 227.600 C 144.880 227.600,145.600 227.420,145.600 227.200 C 145.600 226.980,146.320 226.800,147.200 226.800 C 148.080 226.800,148.800 226.620,148.800 226.400 C 148.800 226.180,149.790 226.000,151.000 226.000 C 152.210 226.000,153.200 225.820,153.200 225.600 C 153.200 225.336,169.067 225.200,200.000 225.200 C 230.933 225.200,246.800 225.336,246.800 225.600 " stroke="none" fill="#ec545c" fill-rule="evenodd"></path><path id="path1" d="M136.400 9.131 C 136.400 9.313,136.940 9.382,137.600 9.285 C 138.260 9.188,138.800 9.040,138.800 8.955 C 138.800 8.870,138.260 8.800,137.600 8.800 C 136.940 8.800,136.400 8.949,136.400 9.131 M261.200 8.955 C 261.200 9.040,261.740 9.188,262.400 9.285 C 263.060 9.382,263.600 9.313,263.600 9.131 C 263.600 8.949,263.060 8.800,262.400 8.800 C 261.740 8.800,261.200 8.870,261.200 8.955 M137.823 105.300 C 137.382 106.751,137.314 107.600,137.637 107.600 C 137.837 107.600,138.000 107.075,138.000 106.433 C 138.000 105.792,138.225 105.176,138.500 105.065 C 138.892 104.907,138.889 104.856,138.487 104.832 C 138.206 104.814,137.907 105.025,137.823 105.300 M261.590 105.063 C 261.816 105.175,262.000 105.792,262.000 106.433 C 262.000 107.075,262.157 107.600,262.349 107.600 C 262.888 107.600,262.247 105.073,261.680 104.960 C 261.405 104.905,261.365 104.951,261.590 105.063 M8.800 137.600 C 8.800 138.260,8.870 138.800,8.955 138.800 C 9.040 138.800,9.188 138.260,9.285 137.600 C 9.382 136.940,9.313 136.400,9.131 136.400 C 8.949 136.400,8.800 136.940,8.800 137.600 M390.715 137.600 C 390.812 138.260,390.960 138.800,391.045 138.800 C 391.130 138.800,391.200 138.260,391.200 137.600 C 391.200 136.940,391.051 136.400,390.869 136.400 C 390.687 136.400,390.618 136.940,390.715 137.600 M118.600 240.800 C 118.202 241.240,117.966 241.600,118.077 241.600 C 118.187 241.600,118.693 241.240,119.200 240.800 C 119.707 240.360,119.943 240.000,119.723 240.000 C 119.504 240.000,118.998 240.360,118.600 240.800 M280.800 240.800 C 281.307 241.240,281.813 241.600,281.923 241.600 C 282.034 241.600,281.798 241.240,281.400 240.800 C 281.002 240.360,280.496 240.000,280.277 240.000 C 280.057 240.000,280.293 240.360,280.800 240.800 M8.800 262.400 C 8.800 263.060,8.949 263.600,9.131 263.600 C 9.313 263.600,9.382 263.060,9.285 262.400 C 9.188 261.740,9.040 261.200,8.955 261.200 C 8.870 261.200,8.800 261.740,8.800 262.400 M390.715 262.400 C 390.618 263.060,390.687 263.600,390.869 263.600 C 391.051 263.600,391.200 263.060,391.200 262.400 C 391.200 261.740,391.130 261.200,391.045 261.200 C 390.960 261.200,390.812 261.740,390.715 262.400 M161.305 341.887 C 161.914 341.979,162.814 341.977,163.305 341.882 C 163.797 341.787,163.300 341.711,162.200 341.714 C 161.100 341.717,160.697 341.795,161.305 341.887 M236.905 341.887 C 237.514 341.979,238.414 341.977,238.905 341.882 C 239.397 341.787,238.900 341.711,237.800 341.714 C 236.700 341.717,236.297 341.795,236.905 341.887 M170.255 343.800 C 170.420 344.230,171.013 344.380,172.343 344.330 L 174.200 344.260 172.500 344.107 C 171.565 344.023,170.800 343.784,170.800 343.577 C 170.800 343.370,170.626 343.200,170.413 343.200 C 170.199 343.200,170.129 343.470,170.255 343.800 M229.200 343.577 C 229.200 343.784,228.435 344.023,227.500 344.107 L 225.800 344.260 227.657 344.330 C 228.987 344.380,229.580 344.230,229.745 343.800 C 229.871 343.470,229.801 343.200,229.587 343.200 C 229.374 343.200,229.200 343.370,229.200 343.577 M174.759 344.921 C 174.936 345.097,176.233 345.185,177.641 345.116 L 180.200 344.991 177.318 344.795 C 175.733 344.688,174.581 344.744,174.759 344.921 M222.600 344.800 L 219.800 345.059 222.476 345.129 C 223.948 345.168,225.264 345.020,225.400 344.800 C 225.536 344.580,225.592 344.432,225.524 344.471 C 225.456 344.509,224.140 344.658,222.600 344.800 M136.400 390.869 C 136.400 391.051,136.940 391.200,137.600 391.200 C 138.260 391.200,138.800 391.130,138.800 391.045 C 138.800 390.960,138.260 390.812,137.600 390.715 C 136.940 390.618,136.400 390.687,136.400 390.869 M262.200 390.800 L 261.000 391.105 262.300 391.153 C 263.015 391.179,263.600 391.020,263.600 390.800 C 263.600 390.580,263.555 390.421,263.500 390.447 C 263.445 390.473,262.860 390.632,262.200 390.800 " stroke="none" fill="#f0545c" fill-rule="evenodd"></path><path id="path2" d="M136.400 9.131 C 136.400 9.313,136.940 9.382,137.600 9.285 C 138.260 9.188,138.800 9.040,138.800 8.955 C 138.800 8.870,138.260 8.800,137.600 8.800 C 136.940 8.800,136.400 8.949,136.400 9.131 M261.200 8.955 C 261.200 9.040,261.740 9.188,262.400 9.285 C 263.060 9.382,263.600 9.313,263.600 9.131 C 263.600 8.949,263.060 8.800,262.400 8.800 C 261.740 8.800,261.200 8.870,261.200 8.955 M137.823 105.300 C 137.382 106.751,137.314 107.600,137.637 107.600 C 137.837 107.600,138.000 107.075,138.000 106.433 C 138.000 105.792,138.225 105.176,138.500 105.065 C 138.892 104.907,138.889 104.856,138.487 104.832 C 138.206 104.814,137.907 105.025,137.823 105.300 M261.590 105.063 C 261.816 105.175,262.000 105.792,262.000 106.433 C 262.000 107.075,262.157 107.600,262.349 107.600 C 262.888 107.600,262.247 105.073,261.680 104.960 C 261.405 104.905,261.365 104.951,261.590 105.063 M8.800 137.600 C 8.800 138.260,8.870 138.800,8.955 138.800 C 9.040 138.800,9.188 138.260,9.285 137.600 C 9.382 136.940,9.313 136.400,9.131 136.400 C 8.949 136.400,8.800 136.940,8.800 137.600 M390.715 137.600 C 390.812 138.260,390.960 138.800,391.045 138.800 C 391.130 138.800,391.200 138.260,391.200 137.600 C 391.200 136.940,391.051 136.400,390.869 136.400 C 390.687 136.400,390.618 136.940,390.715 137.600 M118.600 240.800 C 118.202 241.240,117.966 241.600,118.077 241.600 C 118.187 241.600,118.693 241.240,119.200 240.800 C 119.707 240.360,119.943 240.000,119.723 240.000 C 119.504 240.000,118.998 240.360,118.600 240.800 M280.800 240.800 C 281.307 241.240,281.813 241.600,281.923 241.600 C 282.034 241.600,281.798 241.240,281.400 240.800 C 281.002 240.360,280.496 240.000,280.277 240.000 C 280.057 240.000,280.293 240.360,280.800 240.800 M8.800 262.400 C 8.800 263.060,8.949 263.600,9.131 263.600 C 9.313 263.600,9.382 263.060,9.285 262.400 C 9.188 261.740,9.040 261.200,8.955 261.200 C 8.870 261.200,8.800 261.740,8.800 262.400 M390.715 262.400 C 390.618 263.060,390.687 263.600,390.869 263.600 C 391.051 263.600,391.200 263.060,391.200 262.400 C 391.200 261.740,391.130 261.200,391.045 261.200 C 390.960 261.200,390.812 261.740,390.715 262.400 M161.305 341.887 C 161.914 341.979,162.814 341.977,163.305 341.882 C 163.797 341.787,163.300 341.711,162.200 341.714 C 161.100 341.717,160.697 341.795,161.305 341.887 M236.905 341.887 C 237.514 341.979,238.414 341.977,238.905 341.882 C 239.397 341.787,238.900 341.711,237.800 341.714 C 236.700 341.717,236.297 341.795,236.905 341.887 M170.255 343.800 C 170.420 344.230,171.013 344.380,172.343 344.330 L 174.200 344.260 172.500 344.107 C 171.565 344.023,170.800 343.784,170.800 343.577 C 170.800 343.370,170.626 343.200,170.413 343.200 C 170.199 343.200,170.129 343.470,170.255 343.800 M229.200 343.577 C 229.200 343.784,228.435 344.023,227.500 344.107 L 225.800 344.260 227.657 344.330 C 228.987 344.380,229.580 344.230,229.745 343.800 C 229.871 343.470,229.801 343.200,229.587 343.200 C 229.374 343.200,229.200 343.370,229.200 343.577 M174.759 344.921 C 174.936 345.097,176.233 345.185,177.641 345.116 L 180.200 344.991 177.318 344.795 C 175.733 344.688,174.581 344.744,174.759 344.921 M222.600 344.800 L 219.800 345.059 222.476 345.129 C 223.948 345.168,225.264 345.020,225.400 344.800 C 225.536 344.580,225.592 344.432,225.524 344.471 C 225.456 344.509,224.140 344.658,222.600 344.800 M136.400 390.869 C 136.400 391.051,136.940 391.200,137.600 391.200 C 138.260 391.200,138.800 391.130,138.800 391.045 C 138.800 390.960,138.260 390.812,137.600 390.715 C 136.940 390.618,136.400 390.687,136.400 390.869 M262.200 390.800 L 261.000 391.105 262.300 391.153 C 263.015 391.179,263.600 391.020,263.600 390.800 C 263.600 390.580,263.555 390.421,263.500 390.447 C 263.445 390.473,262.860 390.632,262.200 390.800 " stroke="none" fill="#f0545c" fill-rule="evenodd"></path><path id="path3" d="M136.400 9.131 C 136.400 9.313,136.940 9.382,137.600 9.285 C 138.260 9.188,138.800 9.040,138.800 8.955 C 138.800 8.870,138.260 8.800,137.600 8.800 C 136.940 8.800,136.400 8.949,136.400 9.131 M261.200 8.955 C 261.200 9.040,261.740 9.188,262.400 9.285 C 263.060 9.382,263.600 9.313,263.600 9.131 C 263.600 8.949,263.060 8.800,262.400 8.800 C 261.740 8.800,261.200 8.870,261.200 8.955 M137.823 105.300 C 137.382 106.751,137.314 107.600,137.637 107.600 C 137.837 107.600,138.000 107.075,138.000 106.433 C 138.000 105.792,138.225 105.176,138.500 105.065 C 138.892 104.907,138.889 104.856,138.487 104.832 C 138.206 104.814,137.907 105.025,137.823 105.300 M261.590 105.063 C 261.816 105.175,262.000 105.792,262.000 106.433 C 262.000 107.075,262.157 107.600,262.349 107.600 C 262.888 107.600,262.247 105.073,261.680 104.960 C 261.405 104.905,261.365 104.951,261.590 105.063 M8.800 137.600 C 8.800 138.260,8.870 138.800,8.955 138.800 C 9.040 138.800,9.188 138.260,9.285 137.600 C 9.382 136.940,9.313 136.400,9.131 136.400 C 8.949 136.400,8.800 136.940,8.800 137.600 M390.715 137.600 C 390.812 138.260,390.960 138.800,391.045 138.800 C 391.130 138.800,391.200 138.260,391.200 137.600 C 391.200 136.940,391.051 136.400,390.869 136.400 C 390.687 136.400,390.618 136.940,390.715 137.600 M118.600 240.800 C 118.202 241.240,117.966 241.600,118.077 241.600 C 118.187 241.600,118.693 241.240,119.200 240.800 C 119.707 240.360,119.943 240.000,119.723 240.000 C 119.504 240.000,118.998 240.360,118.600 240.800 M280.800 240.800 C 281.307 241.240,281.813 241.600,281.923 241.600 C 282.034 241.600,281.798 241.240,281.400 240.800 C 281.002 240.360,280.496 240.000,280.277 240.000 C 280.057 240.000,280.293 240.360,280.800 240.800 M8.800 262.400 C 8.800 263.060,8.949 263.600,9.131 263.600 C 9.313 263.600,9.382 263.060,9.285 262.400 C 9.188 261.740,9.040 261.200,8.955 261.200 C 8.870 261.200,8.800 261.740,8.800 262.400 M390.715 262.400 C 390.618 263.060,390.687 263.600,390.869 263.600 C 391.051 263.600,391.200 263.060,391.200 262.400 C 391.200 261.740,391.130 261.200,391.045 261.200 C 390.960 261.200,390.812 261.740,390.715 262.400 M161.305 341.887 C 161.914 341.979,162.814 341.977,163.305 341.882 C 163.797 341.787,163.300 341.711,162.200 341.714 C 161.100 341.717,160.697 341.795,161.305 341.887 M236.905 341.887 C 237.514 341.979,238.414 341.977,238.905 341.882 C 239.397 341.787,238.900 341.711,237.800 341.714 C 236.700 341.717,236.297 341.795,236.905 341.887 M170.255 343.800 C 170.420 344.230,171.013 344.380,172.343 344.330 L 174.200 344.260 172.500 344.107 C 171.565 344.023,170.800 343.784,170.800 343.577 C 170.800 343.370,170.626 343.200,170.413 343.200 C 170.199 343.200,170.129 343.470,170.255 343.800 M229.200 343.577 C 229.200 343.784,228.435 344.023,227.500 344.107 L 225.800 344.260 227.657 344.330 C 228.987 344.380,229.580 344.230,229.745 343.800 C 229.871 343.470,229.801 343.200,229.587 343.200 C 229.374 343.200,229.200 343.370,229.200 343.577 M174.759 344.921 C 174.936 345.097,176.233 345.185,177.641 345.116 L 180.200 344.991 177.318 344.795 C 175.733 344.688,174.581 344.744,174.759 344.921 M222.600 344.800 L 219.800 345.059 222.476 345.129 C 223.948 345.168,225.264 345.020,225.400 344.800 C 225.536 344.580,225.592 344.432,225.524 344.471 C 225.456 344.509,224.140 344.658,222.600 344.800 M136.400 390.869 C 136.400 391.051,136.940 391.200,137.600 391.200 C 138.260 391.200,138.800 391.130,138.800 391.045 C 138.800 390.960,138.260 390.812,137.600 390.715 C 136.940 390.618,136.400 390.687,136.400 390.869 M262.200 390.800 L 261.000 391.105 262.300 391.153 C 263.015 391.179,263.600 391.020,263.600 390.800 C 263.600 390.580,263.555 390.421,263.500 390.447 C 263.445 390.473,262.860 390.632,262.200 390.800 " stroke="none" fill="#f0545c" fill-rule="evenodd"></path><path id="path4" d="M136.400 9.131 C 136.400 9.313,136.940 9.382,137.600 9.285 C 138.260 9.188,138.800 9.040,138.800 8.955 C 138.800 8.870,138.260 8.800,137.600 8.800 C 136.940 8.800,136.400 8.949,136.400 9.131 M261.200 8.955 C 261.200 9.040,261.740 9.188,262.400 9.285 C 263.060 9.382,263.600 9.313,263.600 9.131 C 263.600 8.949,263.060 8.800,262.400 8.800 C 261.740 8.800,261.200 8.870,261.200 8.955 M137.823 105.300 C 137.382 106.751,137.314 107.600,137.637 107.600 C 137.837 107.600,138.000 107.075,138.000 106.433 C 138.000 105.792,138.225 105.176,138.500 105.065 C 138.892 104.907,138.889 104.856,138.487 104.832 C 138.206 104.814,137.907 105.025,137.823 105.300 M261.590 105.063 C 261.816 105.175,262.000 105.792,262.000 106.433 C 262.000 107.075,262.157 107.600,262.349 107.600 C 262.888 107.600,262.247 105.073,261.680 104.960 C 261.405 104.905,261.365 104.951,261.590 105.063 M8.800 137.600 C 8.800 138.260,8.870 138.800,8.955 138.800 C 9.040 138.800,9.188 138.260,9.285 137.600 C 9.382 136.940,9.313 136.400,9.131 136.400 C 8.949 136.400,8.800 136.940,8.800 137.600 M390.715 137.600 C 390.812 138.260,390.960 138.800,391.045 138.800 C 391.130 138.800,391.200 138.260,391.200 137.600 C 391.200 136.940,391.051 136.400,390.869 136.400 C 390.687 136.400,390.618 136.940,390.715 137.600 M118.600 240.800 C 118.202 241.240,117.966 241.600,118.077 241.600 C 118.187 241.600,118.693 241.240,119.200 240.800 C 119.707 240.360,119.943 240.000,119.723 240.000 C 119.504 240.000,118.998 240.360,118.600 240.800 M280.800 240.800 C 281.307 241.240,281.813 241.600,281.923 241.600 C 282.034 241.600,281.798 241.240,281.400 240.800 C 281.002 240.360,280.496 240.000,280.277 240.000 C 280.057 240.000,280.293 240.360,280.800 240.800 M8.800 262.400 C 8.800 263.060,8.949 263.600,9.131 263.600 C 9.313 263.600,9.382 263.060,9.285 262.400 C 9.188 261.740,9.040 261.200,8.955 261.200 C 8.870 261.200,8.800 261.740,8.800 262.400 M390.715 262.400 C 390.618 263.060,390.687 263.600,390.869 263.600 C 391.051 263.600,391.200 263.060,391.200 262.400 C 391.200 261.740,391.130 261.200,391.045 261.200 C 390.960 261.200,390.812 261.740,390.715 262.400 M161.305 341.887 C 161.914 341.979,162.814 341.977,163.305 341.882 C 163.797 341.787,163.300 341.711,162.200 341.714 C 161.100 341.717,160.697 341.795,161.305 341.887 M236.905 341.887 C 237.514 341.979,238.414 341.977,238.905 341.882 C 239.397 341.787,238.900 341.711,237.800 341.714 C 236.700 341.717,236.297 341.795,236.905 341.887 M170.255 343.800 C 170.420 344.230,171.013 344.380,172.343 344.330 L 174.200 344.260 172.500 344.107 C 171.565 344.023,170.800 343.784,170.800 343.577 C 170.800 343.370,170.626 343.200,170.413 343.200 C 170.199 343.200,170.129 343.470,170.255 343.800 M229.200 343.577 C 229.200 343.784,228.435 344.023,227.500 344.107 L 225.800 344.260 227.657 344.330 C 228.987 344.380,229.580 344.230,229.745 343.800 C 229.871 343.470,229.801 343.200,229.587 343.200 C 229.374 343.200,229.200 343.370,229.200 343.577 M174.759 344.921 C 174.936 345.097,176.233 345.185,177.641 345.116 L 180.200 344.991 177.318 344.795 C 175.733 344.688,174.581 344.744,174.759 344.921 M222.600 344.800 L 219.800 345.059 222.476 345.129 C 223.948 345.168,225.264 345.020,225.400 344.800 C 225.536 344.580,225.592 344.432,225.524 344.471 C 225.456 344.509,224.140 344.658,222.600 344.800 M136.400 390.869 C 136.400 391.051,136.940 391.200,137.600 391.200 C 138.260 391.200,138.800 391.130,138.800 391.045 C 138.800 390.960,138.260 390.812,137.600 390.715 C 136.940 390.618,136.400 390.687,136.400 390.869 M262.200 390.800 L 261.000 391.105 262.300 391.153 C 263.015 391.179,263.600 391.020,263.600 390.800 C 263.600 390.580,263.555 390.421,263.500 390.447 C 263.445 390.473,262.860 390.632,262.200 390.800 " stroke="none" fill="#f0545c" fill-rule="evenodd"></path></g></svg>