<svg id="svg" version="1.1" xmlns="http://www.w3.org/2000/svg" xmlns:xlink="http://www.w3.org/1999/xlink" width="400" height="400" viewBox="0, 0, 400,400"><g id="svgg"><path id="path0" d="M171.300 0.281 C 169.705 0.366,168.400 0.607,168.400 0.818 C 168.400 1.028,167.421 1.200,166.224 1.200 C 165.027 1.200,163.936 1.380,163.800 1.600 C 163.664 1.820,162.753 2.000,161.776 2.000 C 160.799 2.000,160.000 2.180,160.000 2.400 C 160.000 2.620,159.100 2.800,158.000 2.800 C 156.900 2.800,156.000 2.980,156.000 3.200 C 156.000 3.420,155.280 3.600,154.400 3.600 C 153.520 3.600,152.800 3.780,152.800 4.000 C 152.800 4.220,152.080 4.400,151.200 4.400 C 150.320 4.400,149.600 4.580,149.600 4.800 C 149.600 5.020,148.981 5.200,148.224 5.200 C 147.467 5.200,146.736 5.380,146.600 5.600 C 146.464 5.820,145.924 6.000,145.400 6.000 C 144.876 6.000,144.336 6.180,144.200 6.400 C 144.064 6.620,143.333 6.800,142.576 6.800 C 141.819 6.800,141.200 6.980,141.200 7.200 C 141.200 7.420,140.660 7.600,140.000 7.600 C 139.340 7.600,138.800 7.780,138.800 8.000 C 138.800 8.220,138.260 8.400,137.600 8.400 C 136.940 8.400,136.400 8.567,136.400 8.771 C 136.400 8.975,135.408 9.266,134.195 9.418 C 132.982 9.570,131.891 9.852,131.771 10.047 C 131.651 10.241,131.113 10.400,130.576 10.400 C 130.039 10.400,129.599 10.535,129.597 10.700 C 129.592 11.147,127.574 12.000,126.520 12.000 C 126.014 12.000,125.600 12.180,125.600 12.400 C 125.600 12.620,125.240 12.800,124.800 12.800 C 124.360 12.800,124.000 12.980,124.000 13.200 C 124.000 13.420,123.460 13.600,122.800 13.600 C 122.140 13.600,121.600 13.780,121.600 14.000 C 121.600 14.220,121.240 14.400,120.800 14.400 C 120.360 14.400,120.000 14.580,120.000 14.800 C 120.000 15.020,119.640 15.200,119.200 15.200 C 118.760 15.200,118.400 15.380,118.400 15.600 C 118.400 15.820,118.040 16.000,117.600 16.000 C 117.160 16.000,116.800 16.180,116.800 16.400 C 116.800 16.620,116.457 16.800,116.038 16.800 C 115.222 16.800,111.888 18.401,111.667 18.900 C 111.593 19.065,111.088 19.200,110.543 19.200 C 109.985 19.200,109.661 19.374,109.800 19.600 C 109.936 19.820,109.677 20.000,109.224 20.000 C 108.771 20.000,108.400 20.180,108.400 20.400 C 108.400 20.620,108.040 20.800,107.600 20.800 C 107.160 20.800,106.800 20.980,106.800 21.200 C 106.800 21.420,106.480 21.600,106.088 21.600 C 105.697 21.600,105.117 21.960,104.800 22.400 C 104.483 22.840,103.903 23.200,103.512 23.200 C 103.120 23.200,102.799 23.335,102.797 23.500 C 102.793 23.859,100.856 24.800,100.120 24.800 C 99.834 24.800,99.600 24.968,99.600 25.173 C 99.600 25.507,98.938 25.838,97.800 26.073 C 97.328 26.170,96.597 26.732,95.683 27.700 C 95.320 28.085,94.702 28.400,94.311 28.400 C 93.920 28.400,93.600 28.580,93.600 28.800 C 93.600 29.020,93.352 29.200,93.049 29.200 C 92.746 29.200,92.271 29.473,91.994 29.807 C 91.717 30.141,90.885 30.702,90.145 31.053 C 89.405 31.404,88.800 31.851,88.800 32.046 C 88.800 32.241,88.440 32.400,88.000 32.400 C 87.542 32.400,87.200 32.667,87.200 33.024 C 87.200 33.367,87.053 33.556,86.873 33.445 C 86.693 33.334,86.293 33.593,85.985 34.021 C 85.676 34.450,85.143 34.800,84.800 34.800 C 84.457 34.800,83.917 35.160,83.600 35.600 C 83.283 36.040,82.775 36.400,82.472 36.400 C 82.169 36.400,81.417 36.940,80.800 37.600 C 80.183 38.260,79.436 38.802,79.140 38.804 C 78.843 38.806,78.175 39.346,77.655 40.004 C 77.135 40.662,76.544 41.200,76.342 41.200 C 76.139 41.200,75.343 41.830,74.573 42.600 C 73.803 43.370,72.885 44.000,72.534 44.000 C 71.887 44.000,70.400 45.436,70.400 46.061 C 70.400 46.248,70.227 46.400,70.015 46.400 C 69.804 46.400,68.918 47.120,68.047 48.000 C 67.176 48.880,66.221 49.600,65.926 49.600 C 65.631 49.600,65.032 50.085,64.595 50.678 C 64.158 51.270,63.368 52.125,62.840 52.578 C 62.311 53.030,61.501 53.803,61.040 54.295 C 59.954 55.452,55.452 59.954,54.295 61.040 C 53.803 61.501,53.030 62.311,52.578 62.840 C 52.125 63.368,51.270 64.158,50.678 64.595 C 50.085 65.032,49.600 65.631,49.600 65.926 C 49.600 66.221,48.880 67.176,48.000 68.047 C 47.120 68.918,46.400 69.804,46.400 70.015 C 46.400 70.227,46.248 70.400,46.061 70.400 C 45.436 70.400,44.000 71.887,44.000 72.534 C 44.000 72.885,43.370 73.803,42.600 74.573 C 41.830 75.343,41.200 76.139,41.200 76.342 C 41.200 76.544,40.662 77.135,40.004 77.655 C 39.346 78.175,38.806 78.843,38.804 79.140 C 38.802 79.436,38.260 80.183,37.600 80.800 C 36.940 81.417,36.400 82.169,36.400 82.472 C 36.400 82.775,36.040 83.283,35.600 83.600 C 35.160 83.917,34.800 84.457,34.800 84.800 C 34.800 85.143,34.450 85.676,34.021 85.985 C 33.593 86.293,33.334 86.693,33.445 86.873 C 33.556 87.053,33.367 87.200,33.024 87.200 C 32.667 87.200,32.400 87.542,32.400 88.000 C 32.400 88.440,32.241 88.800,32.046 88.800 C 31.851 88.800,31.404 89.405,31.053 90.145 C 30.702 90.885,30.141 91.717,29.807 91.994 C 29.473 92.271,29.200 92.746,29.200 93.049 C 29.200 93.352,29.020 93.600,28.800 93.600 C 28.580 93.600,28.400 93.920,28.400 94.311 C 28.400 94.702,28.085 95.320,27.700 95.683 C 26.761 96.570,25.762 97.778,25.959 97.790 C 26.300 97.811,25.524 99.600,25.173 99.600 C 24.968 99.600,24.800 99.834,24.800 100.120 C 24.800 100.856,23.859 102.793,23.500 102.797 C 23.335 102.799,23.200 103.120,23.200 103.512 C 23.200 103.903,22.840 104.483,22.400 104.800 C 21.960 105.117,21.600 105.697,21.600 106.088 C 21.600 106.480,21.420 106.800,21.200 106.800 C 20.980 106.800,20.800 107.160,20.800 107.600 C 20.800 108.040,20.620 108.400,20.400 108.400 C 20.180 108.400,20.000 108.771,20.000 109.224 C 20.000 109.677,19.820 109.936,19.600 109.800 C 19.374 109.661,19.200 109.985,19.200 110.543 C 19.200 111.088,19.065 111.593,18.900 111.667 C 18.401 111.888,16.800 115.222,16.800 116.038 C 16.800 116.457,16.620 116.800,16.400 116.800 C 16.180 116.800,16.000 117.160,16.000 117.600 C 16.000 118.040,15.820 118.400,15.600 118.400 C 15.380 118.400,15.200 118.760,15.200 119.200 C 15.200 119.640,15.020 120.000,14.800 120.000 C 14.580 120.000,14.400 120.360,14.400 120.800 C 14.400 121.240,14.220 121.600,14.000 121.600 C 13.780 121.600,13.600 122.140,13.600 122.800 C 13.600 123.460,13.420 124.000,13.200 124.000 C 12.980 124.000,12.800 124.360,12.800 124.800 C 12.800 125.240,12.620 125.600,12.400 125.600 C 12.180 125.600,12.000 126.014,12.000 126.520 C 12.000 127.574,11.147 129.592,10.700 129.597 C 10.535 129.599,10.400 130.039,10.400 130.576 C 10.400 131.113,10.241 131.651,10.047 131.771 C 9.852 131.891,9.570 132.982,9.418 134.195 C 9.266 135.408,8.975 136.400,8.771 136.400 C 8.567 136.400,8.400 136.940,8.400 137.600 C 8.400 138.260,8.220 138.800,8.000 138.800 C 7.780 138.800,7.600 139.340,7.600 140.000 C 7.600 140.660,7.420 141.200,7.200 141.200 C 6.980 141.200,6.800 141.819,6.800 142.576 C 6.800 143.333,6.620 144.064,6.400 144.200 C 6.180 144.336,6.000 144.876,6.000 145.400 C 6.000 145.924,5.820 146.464,5.600 146.600 C 5.380 146.736,5.200 147.467,5.200 148.224 C 5.200 148.981,5.020 149.600,4.800 149.600 C 4.580 149.600,4.400 150.320,4.400 151.200 C 4.400 152.080,4.220 152.800,4.000 152.800 C 3.780 152.800,3.600 153.520,3.600 154.400 C 3.600 155.280,3.420 156.000,3.200 156.000 C 2.980 156.000,2.800 156.900,2.800 158.000 C 2.800 159.100,2.620 160.000,2.400 160.000 C 2.180 160.000,2.000 160.799,2.000 161.776 C 2.000 162.753,1.820 163.664,1.600 163.800 C 1.380 163.936,1.200 165.012,1.200 166.190 C 1.200 167.549,1.017 168.394,0.700 168.500 C -0.033 168.744,-0.033 231.256,0.700 231.500 C 1.017 231.606,1.200 232.451,1.200 233.810 C 1.200 234.988,1.380 236.064,1.600 236.200 C 1.820 236.336,2.000 237.247,2.000 238.224 C 2.000 239.201,2.180 240.000,2.400 240.000 C 2.620 240.000,2.800 240.900,2.800 242.000 C 2.800 243.100,2.980 244.000,3.200 244.000 C 3.420 244.000,3.600 244.720,3.600 245.600 C 3.600 246.480,3.780 247.200,4.000 247.200 C 4.220 247.200,4.400 247.920,4.400 248.800 C 4.400 249.680,4.580 250.400,4.800 250.400 C 5.020 250.400,5.200 251.019,5.200 251.776 C 5.200 252.533,5.380 253.264,5.600 253.400 C 5.820 253.536,6.000 254.076,6.000 254.600 C 6.000 255.124,6.180 255.664,6.400 255.800 C 6.620 255.936,6.800 256.667,6.800 257.424 C 6.800 258.181,6.980 258.800,7.200 258.800 C 7.420 258.800,7.600 259.340,7.600 260.000 C 7.600 260.660,7.780 261.200,8.000 261.200 C 8.220 261.200,8.400 261.740,8.400 262.400 C 8.400 263.060,8.567 263.600,8.771 263.600 C 8.975 263.600,9.266 264.592,9.418 265.805 C 9.570 267.018,9.852 268.109,10.047 268.229 C 10.241 268.349,10.400 268.887,10.400 269.424 C 10.400 269.961,10.544 270.400,10.720 270.400 C 11.094 270.400,12.000 272.754,12.000 273.728 C 12.000 274.098,12.180 274.400,12.400 274.400 C 12.620 274.400,12.800 274.760,12.800 275.200 C 12.800 275.640,12.980 276.000,13.200 276.000 C 13.420 276.000,13.600 276.540,13.600 277.200 C 13.600 277.860,13.780 278.400,14.000 278.400 C 14.220 278.400,14.400 278.760,14.400 279.200 C 14.400 279.640,14.580 280.000,14.800 280.000 C 15.020 280.000,15.200 280.360,15.200 280.800 C 15.200 281.240,15.380 281.600,15.600 281.600 C 15.820 281.600,16.000 281.960,16.000 282.400 C 16.000 282.840,16.180 283.200,16.400 283.200 C 16.620 283.200,16.800 283.543,16.800 283.962 C 16.800 284.778,18.401 288.112,18.900 288.333 C 19.065 288.407,19.200 288.912,19.200 289.457 C 19.200 290.015,19.374 290.339,19.600 290.200 C 19.820 290.064,20.000 290.323,20.000 290.776 C 20.000 291.229,20.180 291.600,20.400 291.600 C 20.620 291.600,20.800 291.960,20.800 292.400 C 20.800 292.840,20.980 293.200,21.200 293.200 C 21.420 293.200,21.600 293.520,21.600 293.912 C 21.600 294.303,21.960 294.883,22.400 295.200 C 22.840 295.517,23.200 296.097,23.200 296.488 C 23.200 296.880,23.335 297.201,23.500 297.203 C 23.859 297.207,24.800 299.144,24.800 299.880 C 24.800 300.166,24.968 300.400,25.173 300.400 C 25.541 300.400,26.080 301.602,25.895 302.010 C 25.791 302.240,26.610 303.288,27.700 304.317 C 28.085 304.680,28.400 305.298,28.400 305.689 C 28.400 306.080,28.580 306.400,28.800 306.400 C 29.020 306.400,29.200 306.648,29.200 306.951 C 29.200 307.254,29.473 307.729,29.807 308.006 C 30.141 308.283,30.702 309.115,31.053 309.855 C 31.404 310.595,31.851 311.200,32.046 311.200 C 32.241 311.200,32.400 311.560,32.400 312.000 C 32.400 312.458,32.667 312.800,33.024 312.800 C 33.367 312.800,33.556 312.947,33.445 313.127 C 33.334 313.307,33.593 313.707,34.021 314.015 C 34.450 314.324,34.800 314.857,34.800 315.200 C 34.800 315.543,35.160 316.083,35.600 316.400 C 36.040 316.717,36.400 317.225,36.400 317.528 C 36.400 317.831,36.940 318.583,37.600 319.200 C 38.260 319.817,38.800 320.597,38.800 320.934 C 38.800 321.270,39.131 321.651,39.536 321.780 C 39.941 321.908,40.526 322.504,40.836 323.104 C 41.146 323.703,41.985 324.786,42.700 325.510 C 43.415 326.234,44.000 327.115,44.000 327.466 C 44.000 328.113,45.436 329.600,46.061 329.600 C 46.248 329.600,46.400 329.773,46.400 329.985 C 46.400 330.196,47.120 331.082,48.000 331.953 C 48.880 332.824,49.600 333.779,49.600 334.074 C 49.600 334.369,50.085 334.968,50.678 335.405 C 51.270 335.842,52.125 336.632,52.578 337.160 C 53.030 337.689,53.803 338.499,54.295 338.960 C 55.452 340.046,59.954 344.548,61.040 345.705 C 61.501 346.197,62.311 346.970,62.840 347.422 C 63.368 347.875,64.158 348.730,64.595 349.322 C 65.032 349.915,65.631 350.400,65.926 350.400 C 66.221 350.400,67.176 351.120,68.047 352.000 C 68.918 352.880,69.804 353.600,70.015 353.600 C 70.227 353.600,70.400 353.752,70.400 353.939 C 70.400 354.564,71.887 356.000,72.534 356.000 C 72.885 356.000,73.803 356.630,74.573 357.400 C 75.343 358.170,76.139 358.800,76.342 358.800 C 76.544 358.800,77.135 359.338,77.655 359.996 C 78.175 360.654,78.843 361.194,79.140 361.196 C 79.436 361.198,80.183 361.740,80.800 362.400 C 81.417 363.060,82.169 363.600,82.472 363.600 C 82.775 363.600,83.283 363.960,83.600 364.400 C 83.917 364.840,84.457 365.200,84.800 365.200 C 85.143 365.200,85.676 365.550,85.985 365.979 C 86.293 366.407,86.693 366.666,86.873 366.555 C 87.053 366.444,87.200 366.633,87.200 366.976 C 87.200 367.333,87.542 367.600,88.000 367.600 C 88.440 367.600,88.800 367.759,88.800 367.954 C 88.800 368.149,89.405 368.596,90.145 368.947 C 90.885 369.298,91.717 369.859,91.994 370.193 C 92.271 370.527,92.746 370.800,93.049 370.800 C 93.352 370.800,93.600 370.980,93.600 371.200 C 93.600 371.420,93.920 371.600,94.311 371.600 C 94.702 371.600,95.320 371.915,95.683 372.300 C 96.527 373.194,97.553 374.036,97.692 373.950 C 97.991 373.764,99.600 374.504,99.600 374.827 C 99.600 375.032,99.834 375.200,100.120 375.200 C 100.856 375.200,102.793 376.141,102.797 376.500 C 102.799 376.665,103.120 376.800,103.512 376.800 C 103.903 376.800,104.483 377.160,104.800 377.600 C 105.117 378.040,105.697 378.400,106.088 378.400 C 106.480 378.400,106.800 378.580,106.800 378.800 C 106.800 379.020,107.160 379.200,107.600 379.200 C 108.040 379.200,108.400 379.380,108.400 379.600 C 108.400 379.820,108.771 380.000,109.224 380.000 C 109.677 380.000,109.936 380.180,109.800 380.400 C 109.661 380.626,109.985 380.800,110.543 380.800 C 111.088 380.800,111.593 380.935,111.667 381.100 C 111.888 381.599,115.222 383.200,116.038 383.200 C 116.457 383.200,116.800 383.380,116.800 383.600 C 116.800 383.820,117.160 384.000,117.600 384.000 C 118.040 384.000,118.400 384.180,118.400 384.400 C 118.400 384.620,118.760 384.800,119.200 384.800 C 119.640 384.800,120.000 384.980,120.000 385.200 C 120.000 385.420,120.360 385.600,120.800 385.600 C 121.240 385.600,121.600 385.780,121.600 386.000 C 121.600 386.220,122.140 386.400,122.800 386.400 C 123.460 386.400,124.000 386.580,124.000 386.800 C 124.000 387.020,124.360 387.200,124.800 387.200 C 125.240 387.200,125.600 387.380,125.600 387.600 C 125.600 387.820,126.014 388.000,126.520 388.000 C 127.574 388.000,129.592 388.853,129.597 389.300 C 129.599 389.465,130.039 389.600,130.576 389.600 C 131.113 389.600,131.651 389.759,131.771 389.953 C 131.891 390.148,132.982 390.430,134.195 390.582 C 135.408 390.734,136.400 391.025,136.400 391.229 C 136.400 391.433,136.940 391.600,137.600 391.600 C 138.260 391.600,138.800 391.780,138.800 392.000 C 138.800 392.220,139.340 392.400,140.000 392.400 C 140.660 392.400,141.200 392.580,141.200 392.800 C 141.200 393.020,141.819 393.200,142.576 393.200 C 143.333 393.200,144.064 393.380,144.200 393.600 C 144.336 393.820,144.876 394.000,145.400 394.000 C 145.924 394.000,146.464 394.180,146.600 394.400 C 146.736 394.620,147.467 394.800,148.224 394.800 C 148.981 394.800,149.600 394.980,149.600 395.200 C 149.600 395.420,150.320 395.600,151.200 395.600 C 152.080 395.600,152.800 395.780,152.800 396.000 C 152.800 396.220,153.520 396.400,154.400 396.400 C 155.280 396.400,156.000 396.580,156.000 396.800 C 156.000 397.020,156.900 397.200,158.000 397.200 C 159.100 397.200,160.000 397.380,160.000 397.600 C 160.000 397.820,160.799 398.000,161.776 398.000 C 162.753 398.000,163.664 398.180,163.800 398.400 C 163.936 398.620,165.012 398.800,166.190 398.800 C 167.549 398.800,168.394 398.983,168.500 399.300 C 168.744 400.033,231.256 400.033,231.500 399.300 C 231.606 398.983,232.451 398.800,233.810 398.800 C 234.988 398.800,236.064 398.620,236.200 398.400 C 236.336 398.180,237.247 398.000,238.224 398.000 C 239.201 398.000,240.000 397.820,240.000 397.600 C 240.000 397.380,240.900 397.200,242.000 397.200 C 243.100 397.200,244.000 397.020,244.000 396.800 C 244.000 396.580,244.720 396.400,245.600 396.400 C 246.480 396.400,247.200 396.220,247.200 396.000 C 247.200 395.780,247.920 395.600,248.800 395.600 C 249.680 395.600,250.400 395.420,250.400 395.200 C 250.400 394.980,251.019 394.800,251.776 394.800 C 252.533 394.800,253.264 394.620,253.400 394.400 C 253.536 394.180,254.076 394.000,254.600 394.000 C 255.124 394.000,255.664 393.820,255.800 393.600 C 255.936 393.380,256.667 393.200,257.424 393.200 C 258.181 393.200,258.800 393.020,258.800 392.800 C 258.800 392.580,259.340 392.400,260.000 392.400 C 260.660 392.400,261.200 392.220,261.200 392.000 C 261.200 391.780,261.740 391.600,262.400 391.600 C 263.060 391.600,263.600 391.433,263.600 391.229 C 263.600 391.025,264.592 390.734,265.805 390.582 C 267.018 390.430,268.109 390.148,268.229 389.953 C 268.349 389.759,268.887 389.600,269.424 389.600 C 269.961 389.600,270.401 389.465,270.403 389.300 C 270.408 388.853,272.426 388.000,273.480 388.000 C 273.986 388.000,274.400 387.820,274.400 387.600 C 274.400 387.380,274.760 387.200,275.200 387.200 C 275.640 387.200,276.000 387.020,276.000 386.800 C 276.000 386.580,276.540 386.400,277.200 386.400 C 277.860 386.400,278.400 386.220,278.400 386.000 C 278.400 385.780,278.760 385.600,279.200 385.600 C 279.640 385.600,280.000 385.420,280.000 385.200 C 280.000 384.980,280.360 384.800,280.800 384.800 C 281.240 384.800,281.600 384.620,281.600 384.400 C 281.600 384.180,281.960 384.000,282.400 384.000 C 282.840 384.000,283.200 383.820,283.200 383.600 C 283.200 383.380,283.543 383.200,283.962 383.200 C 284.778 383.200,288.112 381.599,288.333 381.100 C 288.407 380.935,288.912 380.800,289.457 380.800 C 290.015 380.800,290.339 380.626,290.200 380.400 C 290.064 380.180,290.323 380.000,290.776 380.000 C 291.229 380.000,291.600 379.820,291.600 379.600 C 291.600 379.380,291.960 379.200,292.400 379.200 C 292.840 379.200,293.200 379.020,293.200 378.800 C 293.200 378.580,293.520 378.400,293.912 378.400 C 294.303 378.400,294.883 378.040,295.200 377.600 C 295.517 377.160,296.097 376.800,296.488 376.800 C 296.880 376.800,297.201 376.665,297.203 376.500 C 297.207 376.141,299.144 375.200,299.880 375.200 C 300.166 375.200,300.400 375.032,300.400 374.827 C 300.400 374.459,301.602 373.920,302.010 374.105 C 302.240 374.209,303.288 373.390,304.317 372.300 C 304.680 371.915,305.298 371.600,305.689 371.600 C 306.080 371.600,306.400 371.420,306.400 371.200 C 306.400 370.980,306.648 370.800,306.951 370.800 C 307.254 370.800,307.729 370.527,308.006 370.193 C 308.283 369.859,309.115 369.298,309.855 368.947 C 310.595 368.596,311.200 368.149,311.200 367.954 C 311.200 367.759,311.560 367.600,312.000 367.600 C 312.458 367.600,312.800 367.333,312.800 366.976 C 312.800 366.633,312.947 366.444,313.127 366.555 C 313.307 366.666,313.707 366.407,314.015 365.979 C 314.324 365.550,314.857 365.200,315.200 365.200 C 315.543 365.200,316.083 364.840,316.400 364.400 C 316.717 363.960,317.225 363.600,317.528 363.600 C 317.831 363.600,318.583 363.060,319.200 362.400 C 319.817 361.740,320.564 361.198,320.860 361.196 C 321.157 361.194,321.825 360.654,322.345 359.996 C 322.865 359.338,323.456 358.800,323.658 358.800 C 323.861 358.800,324.657 358.170,325.427 357.400 C 326.197 356.630,327.115 356.000,327.466 356.000 C 328.113 356.000,329.600 354.564,329.600 353.939 C 329.600 353.752,329.773 353.600,329.985 353.600 C 330.196 353.600,331.082 352.880,331.953 352.000 C 332.824 351.120,333.779 350.400,334.074 350.400 C 334.369 350.400,334.968 349.915,335.405 349.322 C 335.842 348.730,336.632 347.875,337.160 347.422 C 337.689 346.970,338.499 346.197,338.960 345.705 C 340.046 344.548,344.548 340.046,345.705 338.960 C 346.197 338.499,346.970 337.689,347.422 337.160 C 347.875 336.632,348.730 335.842,349.322 335.405 C 349.915 334.968,350.400 334.369,350.400 334.074 C 350.400 333.779,351.120 332.824,352.000 331.953 C 352.880 331.082,353.600 330.196,353.600 329.985 C 353.600 329.773,353.752 329.600,353.939 329.600 C 354.564 329.600,356.000 328.113,356.000 327.466 C 356.000 327.115,356.630 326.197,357.400 325.427 C 358.170 324.657,358.800 323.861,358.800 323.658 C 358.800 323.456,359.338 322.865,359.996 322.345 C 360.654 321.825,361.194 321.157,361.196 320.860 C 361.198 320.564,361.740 319.817,362.400 319.200 C 363.060 318.583,363.600 317.831,363.600 317.528 C 363.600 317.225,363.960 316.717,364.400 316.400 C 364.840 316.083,365.200 315.543,365.200 315.200 C 365.200 314.857,365.550 314.324,365.979 314.015 C 366.407 313.707,366.666 313.307,366.555 313.127 C 366.444 312.947,366.633 312.800,366.976 312.800 C 367.333 312.800,367.600 312.458,367.600 312.000 C 367.600 311.560,367.759 311.200,367.954 311.200 C 368.149 311.200,368.596 310.595,368.947 309.855 C 369.298 309.115,369.859 308.283,370.193 308.006 C 370.527 307.729,370.800 307.254,370.800 306.951 C 370.800 306.648,370.980 306.400,371.200 306.400 C 371.420 306.400,371.600 306.080,371.600 305.689 C 371.600 305.298,371.915 304.680,372.300 304.317 C 373.194 303.473,374.036 302.447,373.950 302.308 C 373.764 302.009,374.504 300.400,374.827 300.400 C 375.032 300.400,375.200 300.166,375.200 299.880 C 375.200 299.144,376.141 297.207,376.500 297.203 C 376.665 297.201,376.800 296.880,376.800 296.488 C 376.800 296.097,377.160 295.517,377.600 295.200 C 378.040 294.883,378.400 294.303,378.400 293.912 C 378.400 293.520,378.580 293.200,378.800 293.200 C 379.020 293.200,379.200 292.840,379.200 292.400 C 379.200 291.960,379.380 291.600,379.600 291.600 C 379.820 291.600,380.000 291.229,380.000 290.776 C 380.000 290.323,380.180 290.064,380.400 290.200 C 380.626 290.339,380.800 290.015,380.800 289.457 C 380.800 288.912,380.935 288.407,381.100 288.333 C 381.599 288.112,383.200 284.778,383.200 283.962 C 383.200 283.543,383.380 283.200,383.600 283.200 C 383.820 283.200,384.000 282.840,384.000 282.400 C 384.000 281.960,384.180 281.600,384.400 281.600 C 384.620 281.600,384.800 281.240,384.800 280.800 C 384.800 280.360,384.980 280.000,385.200 280.000 C 385.420 280.000,385.600 279.640,385.600 279.200 C 385.600 278.760,385.780 278.400,386.000 278.400 C 386.220 278.400,386.400 277.860,386.400 277.200 C 386.400 276.540,386.580 276.000,386.800 276.000 C 387.020 276.000,387.200 275.640,387.200 275.200 C 387.200 274.760,387.380 274.400,387.600 274.400 C 387.820 274.400,388.000 273.986,388.000 273.480 C 388.000 272.426,388.853 270.408,389.300 270.403 C 389.465 270.401,389.600 269.961,389.600 269.424 C 389.600 268.887,389.759 268.349,389.953 268.229 C 390.148 268.109,390.430 267.018,390.582 265.805 C 390.734 264.592,391.025 263.600,391.229 263.600 C 391.433 263.600,391.600 263.060,391.600 262.400 C 391.600 261.740,391.780 261.200,392.000 261.200 C 392.220 261.200,392.400 260.660,392.400 260.000 C 392.400 259.340,392.580 258.800,392.800 258.800 C 393.020 258.800,393.200 258.181,393.200 257.424 C 393.200 256.667,393.380 255.936,393.600 255.800 C 393.820 255.664,394.000 255.124,394.000 254.600 C 394.000 254.076,394.180 253.536,394.400 253.400 C 394.620 253.264,394.800 252.533,394.800 251.776 C 394.800 251.019,394.980 250.400,395.200 250.400 C 395.420 250.400,395.600 249.680,395.600 248.800 C 395.600 247.920,395.780 247.200,396.000 247.200 C 396.220 247.200,396.400 246.480,396.400 245.600 C 396.400 244.720,396.580 244.000,396.800 244.000 C 397.020 244.000,397.200 243.100,397.200 242.000 C 397.200 240.900,397.380 240.000,397.600 240.000 C 397.820 240.000,398.000 239.201,398.000 238.224 C 398.000 237.247,398.180 236.336,398.400 236.200 C 398.620 236.064,398.800 234.988,398.800 233.810 C 398.800 232.451,398.983 231.606,399.300 231.500 C 399.694 231.369,399.800 224.711,399.800 200.000 C 399.800 175.289,399.694 168.631,399.300 168.500 C 398.983 168.394,398.800 167.549,398.800 166.190 C 398.800 165.012,398.620 163.936,398.400 163.800 C 398.180 163.664,398.000 162.753,398.000 161.776 C 398.000 160.799,397.820 160.000,397.600 160.000 C 397.380 160.000,397.200 159.100,397.200 158.000 C 397.200 156.900,397.020 156.000,396.800 156.000 C 396.580 156.000,396.400 155.280,396.400 154.400 C 396.400 153.520,396.220 152.800,396.000 152.800 C 395.780 152.800,395.600 152.080,395.600 151.200 C 395.600 150.320,395.420 149.600,395.200 149.600 C 394.980 149.600,394.800 148.981,394.800 148.224 C 394.800 147.467,394.620 146.736,394.400 146.600 C 394.180 146.464,394.000 145.924,394.000 145.400 C 394.000 144.876,393.820 144.336,393.600 144.200 C 393.380 144.064,393.200 143.333,393.200 142.576 C 393.200 141.819,393.020 141.200,392.800 141.200 C 392.580 141.200,392.400 140.660,392.400 140.000 C 392.400 139.340,392.220 138.800,392.000 138.800 C 391.780 138.800,391.600 138.260,391.600 137.600 C 391.600 136.940,391.433 136.400,391.229 136.400 C 391.025 136.400,390.734 135.408,390.582 134.195 C 390.430 132.982,390.148 131.891,389.953 131.771 C 389.759 131.651,389.600 131.113,389.600 130.576 C 389.600 130.039,389.465 129.599,389.300 129.597 C 388.853 129.592,388.000 127.574,388.000 126.520 C 388.000 126.014,387.820 125.600,387.600 125.600 C 387.380 125.600,387.200 125.240,387.200 124.800 C 387.200 124.360,387.020 124.000,386.800 124.000 C 386.580 124.000,386.400 123.460,386.400 122.800 C 386.400 122.140,386.220 121.600,386.000 121.600 C 385.780 121.600,385.600 121.240,385.600 120.800 C 385.600 120.360,385.420 120.000,385.200 120.000 C 384.980 120.000,384.800 119.640,384.800 119.200 C 384.800 118.760,384.620 118.400,384.400 118.400 C 384.180 118.400,384.000 118.040,384.000 117.600 C 384.000 117.160,383.820 116.800,383.600 116.800 C 383.380 116.800,383.200 116.457,383.200 116.038 C 383.200 115.222,381.599 111.888,381.100 111.667 C 380.935 111.593,380.800 111.088,380.800 110.543 C 380.800 109.985,380.626 109.661,380.400 109.800 C 380.180 109.936,380.000 109.677,380.000 109.224 C 380.000 108.771,379.820 108.400,379.600 108.400 C 379.380 108.400,379.200 108.040,379.200 107.600 C 379.200 107.160,379.020 106.800,378.800 106.800 C 378.580 106.800,378.400 106.480,378.400 106.088 C 378.400 105.697,378.040 105.117,377.600 104.800 C 377.160 104.483,376.800 103.903,376.800 103.512 C 376.800 103.120,376.665 102.799,376.500 102.797 C 376.141 102.793,375.200 100.856,375.200 100.120 C 375.200 99.834,375.032 99.600,374.827 99.600 C 374.520 99.600,373.939 98.394,373.864 97.600 C 373.838 97.329,373.149 96.484,372.300 95.683 C 371.915 95.320,371.600 94.702,371.600 94.311 C 371.600 93.920,371.420 93.600,371.200 93.600 C 370.980 93.600,370.800 93.352,370.800 93.049 C 370.800 92.746,370.527 92.271,370.193 91.994 C 369.859 91.717,369.298 90.885,368.947 90.145 C 368.596 89.405,368.149 88.800,367.954 88.800 C 367.759 88.800,367.600 88.440,367.600 88.000 C 367.600 87.542,367.333 87.200,366.976 87.200 C 366.633 87.200,366.444 87.053,366.555 86.873 C 366.666 86.693,366.407 86.293,365.979 85.985 C 365.550 85.676,365.200 85.143,365.200 84.800 C 365.200 84.457,364.840 83.917,364.400 83.600 C 363.960 83.283,363.600 82.775,363.600 82.472 C 363.600 82.169,363.060 81.417,362.400 80.800 C 361.740 80.183,361.198 79.436,361.196 79.140 C 361.194 78.843,360.654 78.175,359.996 77.655 C 359.338 77.135,358.800 76.544,358.800 76.342 C 358.800 76.139,358.170 75.343,357.400 74.573 C 356.630 73.803,356.000 72.885,356.000 72.534 C 356.000 71.887,354.564 70.400,353.939 70.400 C 353.752 70.400,353.600 70.227,353.600 70.015 C 353.600 69.804,352.880 68.918,352.000 68.047 C 351.120 67.176,350.400 66.221,350.400 65.926 C 350.400 65.631,349.915 65.032,349.322 64.595 C 348.730 64.158,347.875 63.368,347.422 62.840 C 346.970 62.311,346.197 61.501,345.705 61.040 C 344.548 59.954,340.046 55.452,338.960 54.295 C 338.499 53.803,337.689 53.030,337.160 52.578 C 336.632 52.125,335.842 51.270,335.405 50.678 C 334.968 50.085,334.369 49.600,334.074 49.600 C 333.779 49.600,332.824 48.880,331.953 48.000 C 331.082 47.120,330.196 46.400,329.985 46.400 C 329.773 46.400,329.600 46.248,329.600 46.061 C 329.600 45.436,328.113 44.000,327.466 44.000 C 327.115 44.000,326.234 43.415,325.510 42.700 C 324.786 41.985,323.703 41.146,323.104 40.836 C 322.504 40.526,321.908 39.941,321.780 39.536 C 321.651 39.131,321.270 38.800,320.934 38.800 C 320.597 38.800,319.817 38.260,319.200 37.600 C 318.583 36.940,317.831 36.400,317.528 36.400 C 317.225 36.400,316.717 36.040,316.400 35.600 C 316.083 35.160,315.543 34.800,315.200 34.800 C 314.857 34.800,314.324 34.450,314.015 34.021 C 313.707 33.593,313.307 33.334,313.127 33.445 C 312.947 33.556,312.800 33.367,312.800 33.024 C 312.800 32.667,312.458 32.400,312.000 32.400 C 311.560 32.400,311.200 32.241,311.200 32.046 C 311.200 31.851,310.595 31.404,309.855 31.053 C 309.115 30.702,308.283 30.141,308.006 29.807 C 307.729 29.473,307.254 29.200,306.951 29.200 C 306.648 29.200,306.400 29.020,306.400 28.800 C 306.400 28.580,306.080 28.400,305.689 28.400 C 305.298 28.400,304.680 28.085,304.317 27.700 C 303.347 26.672,302.458 25.983,302.108 25.987 C 301.399 25.995,300.400 25.519,300.400 25.173 C 300.400 24.968,300.166 24.800,299.880 24.800 C 299.144 24.800,297.207 23.859,297.203 23.500 C 297.201 23.335,296.880 23.200,296.488 23.200 C 296.097 23.200,295.517 22.840,295.200 22.400 C 294.883 21.960,294.303 21.600,293.912 21.600 C 293.520 21.600,293.200 21.420,293.200 21.200 C 293.200 20.980,292.840 20.800,292.400 20.800 C 291.960 20.800,291.600 20.620,291.600 20.400 C 291.600 20.180,291.229 20.000,290.776 20.000 C 290.323 20.000,290.064 19.820,290.200 19.600 C 290.339 19.374,290.015 19.200,289.457 19.200 C 288.912 19.200,288.407 19.065,288.333 18.900 C 288.112 18.401,284.778 16.800,283.962 16.800 C 283.543 16.800,283.200 16.620,283.200 16.400 C 283.200 16.180,282.840 16.000,282.400 16.000 C 281.960 16.000,281.600 15.820,281.600 15.600 C 281.600 15.380,281.240 15.200,280.800 15.200 C 280.360 15.200,280.000 15.020,280.000 14.800 C 280.000 14.580,279.640 14.400,279.200 14.400 C 278.760 14.400,278.400 14.220,278.400 14.000 C 278.400 13.780,277.860 13.600,277.200 13.600 C 276.540 13.600,276.000 13.420,276.000 13.200 C 276.000 12.980,275.640 12.800,275.200 12.800 C 274.760 12.800,274.400 12.620,274.400 12.400 C 274.400 12.180,274.098 12.000,273.728 12.000 C 272.754 12.000,270.400 11.094,270.400 10.720 C 270.400 10.544,269.961 10.400,269.424 10.400 C 268.887 10.400,268.349 10.241,268.229 10.047 C 268.109 9.852,267.018 9.570,265.805 9.418 C 264.592 9.266,263.600 8.975,263.600 8.771 C 263.600 8.567,263.060 8.400,262.400 8.400 C 261.740 8.400,261.200 8.220,261.200 8.000 C 261.200 7.780,260.660 7.600,260.000 7.600 C 259.340 7.600,258.800 7.420,258.800 7.200 C 258.800 6.980,258.181 6.800,257.424 6.800 C 256.667 6.800,255.936 6.620,255.800 6.400 C 255.664 6.180,255.124 6.000,254.600 6.000 C 254.076 6.000,253.536 5.820,253.400 5.600 C 253.264 5.380,252.533 5.200,251.776 5.200 C 251.019 5.200,250.400 5.020,250.400 4.800 C 250.400 4.580,249.680 4.400,248.800 4.400 C 247.920 4.400,247.200 4.220,247.200 4.000 C 247.200 3.780,246.480 3.600,245.600 3.600 C 244.720 3.600,244.000 3.420,244.000 3.200 C 244.000 2.980,243.100 2.800,242.000 2.800 C 240.900 2.800,240.000 2.620,240.000 2.400 C 240.000 2.180,239.201 2.000,238.224 2.000 C 237.247 2.000,236.336 1.820,236.200 1.600 C 236.064 1.380,234.988 1.200,233.810 1.200 C 232.451 1.200,231.606 1.017,231.500 0.700 C 231.339 0.217,179.328 -0.145,171.300 0.281 M204.400 61.600 C 204.400 61.831,205.659 62.000,207.376 62.000 C 209.013 62.000,210.464 62.180,210.600 62.400 C 210.736 62.620,211.647 62.800,212.624 62.800 C 213.601 62.800,214.400 62.980,214.400 63.200 C 214.400 63.420,215.120 63.600,216.000 63.600 C 216.880 63.600,217.600 63.780,217.600 64.000 C 217.600 64.220,218.140 64.400,218.800 64.400 C 219.460 64.400,220.000 64.580,220.000 64.800 C 220.000 65.020,220.529 65.200,221.176 65.200 C 221.823 65.200,222.464 65.380,222.600 65.600 C 222.736 65.820,223.272 66.000,223.790 66.000 C 224.309 66.000,224.793 66.135,224.867 66.300 C 225.112 66.852,230.101 69.200,231.029 69.200 C 231.595 69.200,232.043 69.507,232.200 70.000 C 232.340 70.440,232.762 70.800,233.139 70.800 C 233.515 70.800,234.083 71.160,234.400 71.600 C 234.717 72.040,235.209 72.400,235.494 72.400 C 236.117 72.400,237.686 73.245,238.094 73.800 C 238.256 74.020,238.391 74.037,238.394 73.839 C 238.397 73.640,238.736 73.865,239.147 74.339 C 239.558 74.812,240.090 75.200,240.330 75.200 C 240.717 75.200,245.600 79.872,245.600 80.242 C 245.600 80.324,246.680 81.460,248.000 82.768 C 249.320 84.076,250.400 85.304,250.400 85.498 C 250.400 85.692,250.940 86.368,251.600 87.000 C 252.260 87.632,252.800 88.487,252.800 88.898 C 252.800 89.310,252.964 89.546,253.165 89.421 C 253.366 89.297,253.770 89.736,254.063 90.398 C 254.356 91.059,254.731 91.600,254.898 91.600 C 255.064 91.600,255.200 91.920,255.200 92.312 C 255.200 92.703,255.560 93.283,256.000 93.600 C 256.440 93.917,256.800 94.497,256.800 94.888 C 256.800 95.280,256.980 95.600,257.200 95.600 C 257.420 95.600,257.600 95.960,257.600 96.400 C 257.600 96.840,257.780 97.200,258.000 97.200 C 258.220 97.200,258.400 97.560,258.400 98.000 C 258.400 98.440,258.593 98.800,258.829 98.800 C 259.064 98.800,259.208 99.205,259.149 99.700 C 259.089 100.195,259.247 100.976,259.500 101.437 C 260.174 102.662,261.187 105.691,261.194 106.500 C 261.197 106.885,261.380 107.200,261.600 107.200 C 261.820 107.200,262.000 107.819,262.000 108.576 C 262.000 109.333,262.180 110.064,262.400 110.200 C 262.620 110.336,262.800 111.056,262.800 111.800 C 262.800 112.544,262.980 113.264,263.200 113.400 C 263.420 113.536,263.600 114.796,263.600 116.200 C 263.600 117.604,263.780 118.864,264.000 119.000 C 264.242 119.150,264.400 122.004,264.400 126.224 C 264.400 130.608,264.251 133.200,264.000 133.200 C 263.778 133.200,263.600 134.267,263.600 135.600 C 263.600 136.933,263.422 138.000,263.200 138.000 C 262.980 138.000,262.800 138.720,262.800 139.600 C 262.800 140.480,262.620 141.200,262.400 141.200 C 262.180 141.200,262.000 141.920,262.000 142.800 C 262.000 143.680,261.820 144.400,261.600 144.400 C 261.380 144.400,261.200 144.850,261.200 145.400 C 261.200 145.950,261.058 146.400,260.885 146.400 C 260.712 146.400,260.544 146.745,260.513 147.166 C 260.481 147.587,260.173 148.763,259.827 149.780 C 259.482 150.796,259.200 151.892,259.200 152.214 C 259.200 152.536,259.020 152.800,258.800 152.800 C 258.580 152.800,258.400 153.160,258.400 153.600 C 258.400 154.040,258.220 154.400,258.000 154.400 C 257.780 154.400,257.600 154.760,257.600 155.200 C 257.600 155.640,257.420 156.000,257.200 156.000 C 256.980 156.000,256.800 156.360,256.800 156.800 C 256.800 157.240,256.620 157.600,256.400 157.600 C 256.180 157.600,256.000 157.872,256.000 158.204 C 256.000 158.536,255.640 159.116,255.200 159.493 C 254.760 159.870,254.400 160.408,254.400 160.689 C 254.400 160.970,254.220 161.200,254.000 161.200 C 253.780 161.200,253.599 161.605,253.599 162.100 C 253.598 162.654,253.137 163.308,252.400 163.800 C 251.741 164.240,251.202 164.843,251.201 165.140 C 251.201 165.436,250.660 166.183,250.000 166.800 C 249.340 167.417,248.800 168.119,248.800 168.360 C 248.800 168.602,248.620 168.800,248.400 168.800 C 248.180 168.800,248.000 168.995,248.000 169.233 C 248.000 169.711,243.112 174.800,242.653 174.800 C 242.495 174.800,241.880 175.250,241.287 175.800 C 240.693 176.350,239.990 176.800,239.724 176.800 C 239.458 176.800,239.056 177.115,238.832 177.500 C 238.608 177.885,238.419 178.025,238.412 177.811 C 238.405 177.597,238.120 177.822,237.777 178.311 C 237.435 178.800,236.845 179.200,236.466 179.200 C 236.087 179.200,235.517 179.560,235.200 180.000 C 234.883 180.440,234.318 180.800,233.945 180.800 C 233.572 180.800,233.207 180.937,233.133 181.104 C 233.060 181.271,231.380 182.214,229.400 183.200 C 227.420 184.186,225.740 185.129,225.667 185.296 C 225.593 185.463,225.188 185.600,224.767 185.600 C 224.345 185.600,224.000 185.780,224.000 186.000 C 224.000 186.220,223.460 186.400,222.800 186.400 C 222.140 186.400,221.600 186.580,221.600 186.800 C 221.600 187.020,221.060 187.200,220.400 187.200 C 219.740 187.200,219.200 187.380,219.200 187.600 C 219.200 187.820,218.480 188.000,217.600 188.000 C 216.720 188.000,216.000 188.180,216.000 188.400 C 216.000 188.620,215.269 188.800,214.376 188.800 C 213.396 188.800,212.851 188.958,213.000 189.200 C 213.154 189.450,212.337 189.600,210.824 189.600 C 209.475 189.600,208.400 189.777,208.400 190.000 C 208.400 190.254,205.333 190.400,200.000 190.400 C 194.667 190.400,191.600 190.254,191.600 190.000 C 191.600 189.777,190.525 189.600,189.176 189.600 C 187.663 189.600,186.846 189.450,187.000 189.200 C 187.149 188.958,186.604 188.800,185.624 188.800 C 184.731 188.800,184.000 188.620,184.000 188.400 C 184.000 188.180,183.280 188.000,182.400 188.000 C 181.520 188.000,180.800 187.820,180.800 187.600 C 180.800 187.380,180.260 187.200,179.600 187.200 C 178.940 187.200,178.400 187.020,178.400 186.800 C 178.400 186.580,177.860 186.400,177.200 186.400 C 176.540 186.400,176.000 186.220,176.000 186.000 C 176.000 185.780,175.655 185.600,175.233 185.600 C 174.812 185.600,174.407 185.463,174.333 185.296 C 174.260 185.129,172.580 184.186,170.600 183.200 C 168.620 182.214,166.940 181.271,166.867 181.104 C 166.793 180.937,166.428 180.800,166.055 180.800 C 165.682 180.800,165.117 180.440,164.800 180.000 C 164.483 179.560,163.913 179.200,163.534 179.200 C 163.155 179.200,162.565 178.800,162.223 178.311 C 161.880 177.822,161.595 177.597,161.588 177.811 C 161.581 178.025,161.392 177.885,161.168 177.500 C 160.944 177.115,160.537 176.800,160.263 176.800 C 159.990 176.800,159.099 176.170,158.282 175.400 C 157.466 174.630,156.689 174.000,156.556 174.000 C 156.120 174.000,152.000 169.699,152.000 169.243 C 152.000 169.000,151.820 168.800,151.600 168.800 C 151.380 168.800,151.200 168.602,151.200 168.360 C 151.200 168.119,150.660 167.417,150.000 166.800 C 149.340 166.183,148.799 165.436,148.799 165.140 C 148.798 164.843,148.259 164.240,147.600 163.800 C 146.863 163.308,146.402 162.654,146.401 162.100 C 146.401 161.605,146.220 161.200,146.000 161.200 C 145.780 161.200,145.600 160.970,145.600 160.689 C 145.600 160.408,145.240 159.870,144.800 159.493 C 144.360 159.116,144.000 158.536,144.000 158.204 C 144.000 157.872,143.820 157.600,143.600 157.600 C 143.380 157.600,143.200 157.240,143.200 156.800 C 143.200 156.360,143.020 156.000,142.800 156.000 C 142.580 156.000,142.400 155.640,142.400 155.200 C 142.400 154.760,142.220 154.400,142.000 154.400 C 141.780 154.400,141.600 154.040,141.600 153.600 C 141.600 153.160,141.420 152.800,141.200 152.800 C 140.980 152.800,140.800 152.536,140.800 152.214 C 140.800 151.892,140.518 150.796,140.173 149.780 C 139.827 148.763,139.519 147.587,139.487 147.166 C 139.456 146.745,139.288 146.400,139.115 146.400 C 138.942 146.400,138.800 145.950,138.800 145.400 C 138.800 144.850,138.620 144.400,138.400 144.400 C 138.180 144.400,138.000 143.680,138.000 142.800 C 138.000 141.920,137.820 141.200,137.600 141.200 C 137.380 141.200,137.200 140.480,137.200 139.600 C 137.200 138.720,137.020 138.000,136.800 138.000 C 136.575 138.000,136.400 136.875,136.400 135.424 C 136.400 134.007,136.220 132.736,136.000 132.600 C 135.760 132.451,135.600 129.737,135.600 125.800 C 135.600 121.863,135.760 119.149,136.000 119.000 C 136.220 118.864,136.400 117.773,136.400 116.576 C 136.400 115.379,136.580 114.400,136.800 114.400 C 137.020 114.400,137.200 113.511,137.200 112.424 C 137.200 111.337,137.380 110.336,137.600 110.200 C 137.820 110.064,138.000 109.333,138.000 108.576 C 138.000 107.819,138.180 107.200,138.400 107.200 C 138.620 107.200,138.803 106.885,138.806 106.500 C 138.813 105.691,139.826 102.662,140.500 101.437 C 140.753 100.976,140.911 100.195,140.851 99.700 C 140.792 99.205,140.936 98.800,141.171 98.800 C 141.407 98.800,141.600 98.440,141.600 98.000 C 141.600 97.560,141.780 97.200,142.000 97.200 C 142.220 97.200,142.400 96.840,142.400 96.400 C 142.400 95.960,142.580 95.600,142.800 95.600 C 143.020 95.600,143.200 95.280,143.200 94.888 C 143.200 94.497,143.560 93.917,144.000 93.600 C 144.440 93.283,144.800 92.703,144.800 92.312 C 144.800 91.920,144.936 91.600,145.102 91.600 C 145.269 91.600,145.644 91.059,145.937 90.398 C 146.230 89.736,146.634 89.297,146.835 89.421 C 147.036 89.546,147.200 89.310,147.200 88.898 C 147.200 88.487,147.740 87.632,148.400 87.000 C 149.060 86.368,149.600 85.692,149.600 85.498 C 149.600 85.304,150.680 84.076,152.000 82.768 C 153.320 81.460,154.400 80.317,154.400 80.228 C 154.400 79.889,158.504 76.000,158.862 76.000 C 159.068 76.000,159.686 75.550,160.236 75.000 C 160.786 74.450,161.470 74.000,161.756 74.000 C 162.042 74.000,162.602 73.640,163.000 73.200 C 163.398 72.760,164.016 72.400,164.374 72.400 C 164.731 72.400,165.283 72.040,165.600 71.600 C 165.917 71.160,166.497 70.800,166.888 70.800 C 167.280 70.800,167.600 70.620,167.600 70.400 C 167.600 70.180,167.870 70.000,168.200 70.000 C 168.530 70.000,168.800 69.820,168.800 69.600 C 168.800 69.380,169.045 69.200,169.344 69.200 C 170.001 69.200,174.945 66.724,175.133 66.300 C 175.207 66.135,175.691 66.000,176.210 66.000 C 176.728 66.000,177.264 65.820,177.400 65.600 C 177.536 65.380,178.177 65.200,178.824 65.200 C 179.471 65.200,180.000 65.020,180.000 64.800 C 180.000 64.580,180.540 64.400,181.200 64.400 C 181.860 64.400,182.400 64.220,182.400 64.000 C 182.400 63.780,183.120 63.600,184.000 63.600 C 184.880 63.600,185.600 63.420,185.600 63.200 C 185.600 62.980,186.399 62.800,187.376 62.800 C 188.353 62.800,189.264 62.620,189.400 62.400 C 189.536 62.180,190.987 62.000,192.624 62.000 C 194.341 62.000,195.600 61.831,195.600 61.600 C 195.600 61.358,197.333 61.200,200.000 61.200 C 202.667 61.200,204.400 61.358,204.400 61.600 M246.600 226.400 C 246.446 226.650,247.263 226.800,248.776 226.800 C 250.125 226.800,251.200 226.977,251.200 227.200 C 251.200 227.420,251.920 227.600,252.800 227.600 C 253.680 227.600,254.400 227.780,254.400 228.000 C 254.400 228.220,255.120 228.400,256.000 228.400 C 256.880 228.400,257.600 228.580,257.600 228.800 C 257.600 229.020,258.140 229.200,258.800 229.200 C 259.460 229.200,260.000 229.380,260.000 229.600 C 260.000 229.820,260.450 230.000,261.000 230.000 C 261.550 230.000,262.000 230.180,262.000 230.400 C 262.000 230.620,262.540 230.800,263.200 230.800 C 263.860 230.800,264.400 230.980,264.400 231.200 C 264.400 231.420,264.760 231.600,265.200 231.600 C 265.640 231.600,266.000 231.780,266.000 232.000 C 266.000 232.220,266.360 232.400,266.800 232.400 C 267.240 232.400,267.600 232.580,267.600 232.800 C 267.600 233.020,267.835 233.200,268.121 233.200 C 268.991 233.200,272.850 235.266,273.075 235.852 C 273.191 236.153,273.626 236.400,274.043 236.400 C 274.459 236.400,274.800 236.580,274.800 236.800 C 274.800 237.020,275.030 237.200,275.311 237.200 C 275.592 237.200,276.413 237.740,277.136 238.400 C 277.858 239.060,278.614 239.600,278.814 239.600 C 279.015 239.600,279.989 240.410,280.979 241.400 C 281.969 242.390,282.970 243.200,283.203 243.200 C 283.763 243.200,286.400 245.850,286.400 246.413 C 286.400 246.654,287.300 247.729,288.400 248.800 C 289.500 249.871,290.400 250.958,290.400 251.214 C 290.400 251.470,290.940 252.183,291.600 252.800 C 292.260 253.417,292.800 254.195,292.800 254.530 C 292.800 254.865,293.250 255.673,293.800 256.327 C 294.350 256.981,294.800 257.727,294.800 257.986 C 294.800 258.245,295.072 258.729,295.404 259.061 C 295.736 259.393,295.905 259.830,295.780 260.032 C 295.655 260.235,295.743 260.400,295.976 260.400 C 296.209 260.400,296.400 260.760,296.400 261.200 C 296.400 261.640,296.580 262.000,296.800 262.000 C 297.020 262.000,297.200 262.360,297.200 262.800 C 297.200 263.240,297.380 263.600,297.600 263.600 C 297.820 263.600,298.000 263.960,298.000 264.400 C 298.000 264.840,298.180 265.200,298.400 265.200 C 298.620 265.200,298.800 265.740,298.800 266.400 C 298.800 267.060,298.980 267.600,299.200 267.600 C 299.420 267.600,299.600 267.960,299.600 268.400 C 299.600 268.840,299.780 269.200,300.000 269.200 C 300.220 269.200,300.400 269.639,300.400 270.176 C 300.400 270.713,300.580 271.264,300.800 271.400 C 301.020 271.536,301.200 272.267,301.200 273.024 C 301.200 273.781,301.380 274.400,301.600 274.400 C 301.820 274.400,302.000 275.120,302.000 276.000 C 302.000 276.880,302.180 277.600,302.400 277.600 C 302.622 277.600,302.800 278.667,302.800 280.000 C 302.800 281.333,302.978 282.400,303.200 282.400 C 303.451 282.400,303.600 285.000,303.600 289.400 C 303.600 293.800,303.451 296.400,303.200 296.400 C 302.980 296.400,302.800 296.940,302.800 297.600 C 302.800 298.260,302.620 298.800,302.400 298.800 C 302.180 298.800,302.000 299.340,302.000 300.000 C 302.000 300.660,301.820 301.200,301.600 301.200 C 301.380 301.200,301.200 301.560,301.200 302.000 C 301.200 302.440,301.020 302.800,300.800 302.800 C 300.580 302.800,300.400 303.160,300.400 303.600 C 300.400 304.040,300.220 304.400,300.000 304.400 C 299.780 304.400,299.600 304.720,299.600 305.112 C 299.600 305.503,299.240 306.083,298.800 306.400 C 298.360 306.717,298.000 307.229,298.000 307.538 C 298.000 308.173,294.195 312.000,293.564 312.000 C 293.338 312.000,293.264 312.180,293.400 312.400 C 293.536 312.620,293.349 312.800,292.984 312.800 C 292.619 312.800,291.817 313.340,291.200 314.000 C 290.583 314.660,289.867 315.200,289.608 315.200 C 289.349 315.200,288.446 315.920,287.600 316.800 C 286.754 317.680,285.818 318.400,285.520 318.400 C 285.221 318.400,284.717 318.760,284.400 319.200 C 284.083 319.640,283.621 320.000,283.374 320.000 C 283.126 320.000,282.598 320.360,282.200 320.800 C 281.802 321.240,281.187 321.600,280.834 321.600 C 280.481 321.600,279.968 321.960,279.693 322.400 C 279.418 322.840,278.835 323.200,278.397 323.200 C 277.958 323.200,277.600 323.380,277.600 323.600 C 277.600 323.820,277.332 324.000,277.003 324.000 C 276.675 324.000,276.182 324.360,275.907 324.800 C 275.632 325.240,275.116 325.600,274.760 325.600 C 274.403 325.600,273.449 326.050,272.638 326.600 C 271.828 327.150,270.902 327.600,270.582 327.600 C 270.262 327.600,270.000 327.780,270.000 328.000 C 270.000 328.220,269.640 328.400,269.200 328.400 C 268.760 328.400,268.400 328.580,268.400 328.800 C 268.400 329.020,268.055 329.200,267.633 329.200 C 267.212 329.200,266.807 329.335,266.733 329.500 C 266.660 329.665,265.700 330.242,264.600 330.782 C 263.500 331.322,262.122 332.087,261.538 332.482 C 260.954 332.877,260.009 333.200,259.438 333.200 C 258.867 333.200,258.400 333.380,258.400 333.600 C 258.400 333.820,258.040 334.000,257.600 334.000 C 257.160 334.000,256.800 334.180,256.800 334.400 C 256.800 334.620,256.440 334.800,256.000 334.800 C 255.560 334.800,255.200 334.980,255.200 335.200 C 255.200 335.420,254.660 335.600,254.000 335.600 C 253.340 335.600,252.800 335.780,252.800 336.000 C 252.800 336.220,252.440 336.400,252.000 336.400 C 251.560 336.400,251.200 336.580,251.200 336.800 C 251.200 337.020,250.660 337.200,250.000 337.200 C 249.340 337.200,248.800 337.380,248.800 337.600 C 248.800 337.820,248.260 338.000,247.600 338.000 C 246.940 338.000,246.400 338.180,246.400 338.400 C 246.400 338.620,245.961 338.800,245.424 338.800 C 244.887 338.800,244.336 338.980,244.200 339.200 C 244.064 339.420,243.513 339.600,242.976 339.600 C 242.439 339.600,242.000 339.780,242.000 340.000 C 242.000 340.220,241.460 340.400,240.800 340.400 C 240.140 340.400,239.600 340.580,239.600 340.800 C 239.600 341.020,238.700 341.200,237.600 341.200 C 236.500 341.200,235.600 341.380,235.600 341.600 C 235.600 341.820,234.880 342.000,234.000 342.000 C 233.120 342.000,232.400 342.164,232.400 342.364 C 232.400 342.564,230.870 342.856,229.000 343.011 C 227.130 343.167,225.600 343.453,225.600 343.647 C 225.600 343.841,224.286 344.000,222.680 344.000 C 221.074 344.000,219.589 344.165,219.380 344.366 C 218.090 345.610,180.000 345.673,180.000 344.431 C 180.000 344.263,178.789 344.087,177.309 344.039 C 175.829 343.991,174.524 343.804,174.409 343.624 C 174.294 343.443,172.715 343.165,170.900 343.006 C 169.085 342.847,167.600 342.555,167.600 342.358 C 167.600 342.161,166.880 342.000,166.000 342.000 C 165.120 342.000,164.400 341.820,164.400 341.600 C 164.400 341.380,163.500 341.200,162.400 341.200 C 161.300 341.200,160.400 341.020,160.400 340.800 C 160.400 340.580,159.860 340.400,159.200 340.400 C 158.540 340.400,158.000 340.220,158.000 340.000 C 158.000 339.780,157.561 339.600,157.024 339.600 C 156.487 339.600,155.936 339.420,155.800 339.200 C 155.664 338.980,155.113 338.800,154.576 338.800 C 154.039 338.800,153.600 338.620,153.600 338.400 C 153.600 338.180,153.060 338.000,152.400 338.000 C 151.740 338.000,151.200 337.820,151.200 337.600 C 151.200 337.380,150.660 337.200,150.000 337.200 C 149.340 337.200,148.800 337.020,148.800 336.800 C 148.800 336.580,148.260 336.400,147.600 336.400 C 146.940 336.400,146.400 336.220,146.400 336.000 C 146.400 335.780,146.040 335.600,145.600 335.600 C 145.160 335.600,144.800 335.420,144.800 335.200 C 144.800 334.980,144.440 334.800,144.000 334.800 C 143.560 334.800,143.200 334.620,143.200 334.400 C 143.200 334.180,142.755 334.000,142.211 334.000 C 141.667 334.000,140.452 333.554,139.511 333.009 C 138.570 332.464,136.810 331.525,135.600 330.924 C 134.390 330.322,133.340 329.688,133.267 329.515 C 133.193 329.342,132.788 329.200,132.367 329.200 C 131.945 329.200,131.600 329.020,131.600 328.800 C 131.600 328.580,131.240 328.400,130.800 328.400 C 130.360 328.400,130.000 328.220,130.000 328.000 C 130.000 327.780,129.758 327.600,129.461 327.600 C 128.774 327.600,126.488 326.467,126.184 325.975 C 126.057 325.769,125.603 325.600,125.176 325.600 C 124.749 325.600,124.400 325.420,124.400 325.200 C 124.400 324.980,124.132 324.800,123.803 324.800 C 123.475 324.800,122.982 324.440,122.707 324.000 C 122.432 323.560,121.892 323.200,121.507 323.200 C 121.122 323.200,120.582 322.840,120.307 322.400 C 120.032 321.960,119.519 321.600,119.166 321.600 C 118.813 321.600,118.198 321.240,117.800 320.800 C 117.402 320.360,116.874 320.000,116.626 320.000 C 116.379 320.000,115.917 319.640,115.600 319.200 C 115.283 318.760,114.775 318.400,114.472 318.400 C 114.169 318.400,113.417 317.860,112.800 317.200 C 112.183 316.540,111.467 316.000,111.208 316.000 C 110.949 316.000,110.046 315.280,109.200 314.400 C 108.354 313.520,107.368 312.800,107.008 312.800 C 106.648 312.800,106.464 312.620,106.600 312.400 C 106.736 312.180,106.658 312.000,106.426 312.000 C 105.749 312.000,101.200 307.330,101.200 306.634 C 101.200 306.285,101.020 306.000,100.800 306.000 C 100.580 306.000,100.400 305.680,100.400 305.288 C 100.400 304.897,100.040 304.317,99.600 304.000 C 99.130 303.661,98.800 302.965,98.800 302.312 C 98.800 301.700,98.620 301.200,98.400 301.200 C 98.180 301.200,98.000 300.660,98.000 300.000 C 98.000 299.340,97.820 298.800,97.600 298.800 C 97.380 298.800,97.200 298.260,97.200 297.600 C 97.200 296.940,97.020 296.400,96.800 296.400 C 96.549 296.400,96.400 293.800,96.400 289.400 C 96.400 285.000,96.549 282.400,96.800 282.400 C 97.022 282.400,97.200 281.333,97.200 280.000 C 97.200 278.667,97.378 277.600,97.600 277.600 C 97.820 277.600,98.000 276.880,98.000 276.000 C 98.000 275.120,98.180 274.400,98.400 274.400 C 98.620 274.400,98.800 273.781,98.800 273.024 C 98.800 272.267,98.980 271.536,99.200 271.400 C 99.420 271.264,99.600 270.713,99.600 270.176 C 99.600 269.639,99.780 269.200,100.000 269.200 C 100.220 269.200,100.400 268.660,100.400 268.000 C 100.400 267.340,100.580 266.800,100.800 266.800 C 101.020 266.800,101.200 266.440,101.200 266.000 C 101.200 265.560,101.380 265.200,101.600 265.200 C 101.820 265.200,102.000 264.840,102.000 264.400 C 102.000 263.960,102.180 263.600,102.400 263.600 C 102.620 263.600,102.800 263.240,102.800 262.800 C 102.800 262.360,102.980 262.000,103.200 262.000 C 103.420 262.000,103.600 261.640,103.600 261.200 C 103.600 260.760,103.791 260.400,104.024 260.400 C 104.257 260.400,104.345 260.235,104.220 260.032 C 104.095 259.830,104.264 259.393,104.596 259.061 C 104.928 258.729,105.200 258.236,105.200 257.966 C 105.200 257.696,105.650 256.886,106.200 256.164 C 106.750 255.443,107.200 254.644,107.200 254.387 C 107.200 254.131,107.740 253.417,108.400 252.800 C 109.060 252.183,109.600 251.467,109.600 251.208 C 109.600 250.949,110.320 250.046,111.200 249.200 C 112.080 248.354,112.800 247.464,112.800 247.221 C 112.800 246.657,116.240 243.200,116.800 243.200 C 117.032 243.200,118.031 242.390,119.021 241.400 C 120.011 240.410,120.985 239.600,121.186 239.600 C 121.386 239.600,122.142 239.060,122.864 238.400 C 123.587 237.740,124.408 237.200,124.689 237.200 C 124.970 237.200,125.200 237.020,125.200 236.800 C 125.200 236.580,125.541 236.400,125.957 236.400 C 126.374 236.400,126.809 236.153,126.925 235.852 C 127.150 235.266,131.009 233.200,131.879 233.200 C 132.165 233.200,132.400 233.020,132.400 232.800 C 132.400 232.580,132.760 232.400,133.200 232.400 C 133.640 232.400,134.000 232.220,134.000 232.000 C 134.000 231.780,134.360 231.600,134.800 231.600 C 135.240 231.600,135.600 231.420,135.600 231.200 C 135.600 230.980,136.140 230.800,136.800 230.800 C 137.460 230.800,138.000 230.620,138.000 230.400 C 138.000 230.180,138.450 230.000,139.000 230.000 C 139.550 230.000,140.000 229.820,140.000 229.600 C 140.000 229.380,140.540 229.200,141.200 229.200 C 141.860 229.200,142.400 229.020,142.400 228.800 C 142.400 228.580,143.120 228.400,144.000 228.400 C 144.880 228.400,145.600 228.220,145.600 228.000 C 145.600 227.780,146.320 227.600,147.200 227.600 C 148.080 227.600,148.800 227.420,148.800 227.200 C 148.800 226.977,149.875 226.800,151.224 226.800 C 152.737 226.800,153.554 226.650,153.400 226.400 C 153.236 226.134,168.870 226.000,200.000 226.000 C 231.130 226.000,246.764 226.134,246.600 226.400 " stroke="none" fill="#f4ec7c" fill-rule="evenodd"></path><path id="path1" d="M134.000 9.131 C 134.000 9.313,134.540 9.382,135.200 9.285 C 135.860 9.188,136.400 9.040,136.400 8.955 C 136.400 8.870,135.860 8.800,135.200 8.800 C 134.540 8.800,134.000 8.949,134.000 9.131 M263.600 8.955 C 263.600 9.040,264.140 9.188,264.800 9.285 C 265.460 9.382,266.000 9.313,266.000 9.131 C 266.000 8.949,265.460 8.800,264.800 8.800 C 264.140 8.800,263.600 8.870,263.600 8.955 M8.800 135.200 C 8.800 135.860,8.870 136.400,8.955 136.400 C 9.040 136.400,9.188 135.860,9.285 135.200 C 9.382 134.540,9.313 134.000,9.131 134.000 C 8.949 134.000,8.800 134.540,8.800 135.200 M390.715 135.200 C 390.812 135.860,390.960 136.400,391.045 136.400 C 391.130 136.400,391.200 135.860,391.200 135.200 C 391.200 134.540,391.051 134.000,390.869 134.000 C 390.687 134.000,390.618 134.540,390.715 135.200 M8.800 264.800 C 8.800 265.460,8.949 266.000,9.131 266.000 C 9.313 266.000,9.382 265.460,9.285 264.800 C 9.188 264.140,9.040 263.600,8.955 263.600 C 8.870 263.600,8.800 264.140,8.800 264.800 M390.715 264.800 C 390.618 265.460,390.687 266.000,390.869 266.000 C 391.051 266.000,391.200 265.460,391.200 264.800 C 391.200 264.140,391.130 263.600,391.045 263.600 C 390.960 263.600,390.812 264.140,390.715 264.800 M165.105 341.883 C 165.602 341.979,166.322 341.975,166.705 341.875 C 167.087 341.775,166.680 341.696,165.800 341.701 C 164.920 341.705,164.607 341.787,165.105 341.883 M233.505 341.883 C 234.002 341.979,234.722 341.975,235.105 341.875 C 235.487 341.775,235.080 341.696,234.200 341.701 C 233.320 341.705,233.007 341.787,233.505 341.883 M168.300 342.682 C 168.795 342.778,169.605 342.778,170.100 342.682 C 170.595 342.587,170.190 342.509,169.200 342.509 C 168.210 342.509,167.805 342.587,168.300 342.682 M229.900 342.682 C 230.395 342.778,231.205 342.778,231.700 342.682 C 232.195 342.587,231.790 342.509,230.800 342.509 C 229.810 342.509,229.405 342.587,229.900 342.682 M134.000 390.869 C 134.000 391.051,134.540 391.200,135.200 391.200 C 135.860 391.200,136.400 391.130,136.400 391.045 C 136.400 390.960,135.860 390.812,135.200 390.715 C 134.540 390.618,134.000 390.687,134.000 390.869 M264.600 390.800 L 263.400 391.105 264.700 391.153 C 265.415 391.179,266.000 391.020,266.000 390.800 C 266.000 390.580,265.955 390.421,265.900 390.447 C 265.845 390.473,265.260 390.632,264.600 390.800 " stroke="none" fill="#f8ec7c" fill-rule="evenodd"></path><path id="path2" d="M134.000 9.131 C 134.000 9.313,134.540 9.382,135.200 9.285 C 135.860 9.188,136.400 9.040,136.400 8.955 C 136.400 8.870,135.860 8.800,135.200 8.800 C 134.540 8.800,134.000 8.949,134.000 9.131 M263.600 8.955 C 263.600 9.040,264.140 9.188,264.800 9.285 C 265.460 9.382,266.000 9.313,266.000 9.131 C 266.000 8.949,265.460 8.800,264.800 8.800 C 264.140 8.800,263.600 8.870,263.600 8.955 M8.800 135.200 C 8.800 135.860,8.870 136.400,8.955 136.400 C 9.040 136.400,9.188 135.860,9.285 135.200 C 9.382 134.540,9.313 134.000,9.131 134.000 C 8.949 134.000,8.800 134.540,8.800 135.200 M390.715 135.200 C 390.812 135.860,390.960 136.400,391.045 136.400 C 391.130 136.400,391.200 135.860,391.200 135.200 C 391.200 134.540,391.051 134.000,390.869 134.000 C 390.687 134.000,390.618 134.540,390.715 135.200 M8.800 264.800 C 8.800 265.460,8.949 266.000,9.131 266.000 C 9.313 266.000,9.382 265.460,9.285 264.800 C 9.188 264.140,9.040 263.600,8.955 263.600 C 8.870 263.600,8.800 264.140,8.800 264.800 M390.715 264.800 C 390.618 265.460,390.687 266.000,390.869 266.000 C 391.051 266.000,391.200 265.460,391.200 264.800 C 391.200 264.140,391.130 263.600,391.045 263.600 C 390.960 263.600,390.812 264.140,390.715 264.800 M165.105 341.883 C 165.602 341.979,166.322 341.975,166.705 341.875 C 167.087 341.775,166.680 341.696,165.800 341.701 C 164.920 341.705,164.607 341.787,165.105 341.883 M233.505 341.883 C 234.002 341.979,234.722 341.975,235.105 341.875 C 235.487 341.775,235.080 341.696,234.200 341.701 C 233.320 341.705,233.007 341.787,233.505 341.883 M168.300 342.682 C 168.795 342.778,169.605 342.778,170.100 342.682 C 170.595 342.587,170.190 342.509,169.200 342.509 C 168.210 342.509,167.805 342.587,168.300 342.682 M229.900 342.682 C 230.395 342.778,231.205 342.778,231.700 342.682 C 232.195 342.587,231.790 342.509,230.800 342.509 C 229.810 342.509,229.405 342.587,229.900 342.682 M134.000 390.869 C 134.000 391.051,134.540 391.200,135.200 391.200 C 135.860 391.200,136.400 391.130,136.400 391.045 C 136.400 390.960,135.860 390.812,135.200 390.715 C 134.540 390.618,134.000 390.687,134.000 390.869 M264.600 390.800 L 263.400 391.105 264.700 391.153 C 265.415 391.179,266.000 391.020,266.000 390.800 C 266.000 390.580,265.955 390.421,265.900 390.447 C 265.845 390.473,265.260 390.632,264.600 390.800 " stroke="none" fill="#f8ec7c" fill-rule="evenodd"></path><path id="path3" d="M134.000 9.131 C 134.000 9.313,134.540 9.382,135.200 9.285 C 135.860 9.188,136.400 9.040,136.400 8.955 C 136.400 8.870,135.860 8.800,135.200 8.800 C 134.540 8.800,134.000 8.949,134.000 9.131 M263.600 8.955 C 263.600 9.040,264.140 9.188,264.800 9.285 C 265.460 9.382,266.000 9.313,266.000 9.131 C 266.000 8.949,265.460 8.800,264.800 8.800 C 264.140 8.800,263.600 8.870,263.600 8.955 M8.800 135.200 C 8.800 135.860,8.870 136.400,8.955 136.400 C 9.040 136.400,9.188 135.860,9.285 135.200 C 9.382 134.540,9.313 134.000,9.131 134.000 C 8.949 134.000,8.800 134.540,8.800 135.200 M390.715 135.200 C 390.812 135.860,390.960 136.400,391.045 136.400 C 391.130 136.400,391.200 135.860,391.200 135.200 C 391.200 134.540,391.051 134.000,390.869 134.000 C 390.687 134.000,390.618 134.540,390.715 135.200 M8.800 264.800 C 8.800 265.460,8.949 266.000,9.131 266.000 C 9.313 266.000,9.382 265.460,9.285 264.800 C 9.188 264.140,9.040 263.600,8.955 263.600 C 8.870 263.600,8.800 264.140,8.800 264.800 M390.715 264.800 C 390.618 265.460,390.687 266.000,390.869 266.000 C 391.051 266.000,391.200 265.460,391.200 264.800 C 391.200 264.140,391.130 263.600,391.045 263.600 C 390.960 263.600,390.812 264.140,390.715 264.800 M165.105 341.883 C 165.602 341.979,166.322 341.975,166.705 341.875 C 167.087 341.775,166.680 341.696,165.800 341.701 C 164.920 341.705,164.607 341.787,165.105 341.883 M233.505 341.883 C 234.002 341.979,234.722 341.975,235.105 341.875 C 235.487 341.775,235.080 341.696,234.200 341.701 C 233.320 341.705,233.007 341.787,233.505 341.883 M168.300 342.682 C 168.795 342.778,169.605 342.778,170.100 342.682 C 170.595 342.587,170.190 342.509,169.200 342.509 C 168.210 342.509,167.805 342.587,168.300 342.682 M229.900 342.682 C 230.395 342.778,231.205 342.778,231.700 342.682 C 232.195 342.587,231.790 342.509,230.800 342.509 C 229.810 342.509,229.405 342.587,229.900 342.682 M134.000 390.869 C 134.000 391.051,134.540 391.200,135.200 391.200 C 135.860 391.200,136.400 391.130,136.400 391.045 C 136.400 390.960,135.860 390.812,135.200 390.715 C 134.540 390.618,134.000 390.687,134.000 390.869 M264.600 390.800 L 263.400 391.105 264.700 391.153 C 265.415 391.179,266.000 391.020,266.000 390.800 C 266.000 390.580,265.955 390.421,265.900 390.447 C 265.845 390.473,265.260 390.632,264.600 390.800 " stroke="none" fill="#f8ec7c" fill-rule="evenodd"></path><path id="path4" d="M134.000 9.131 C 134.000 9.313,134.540 9.382,135.200 9.285 C 135.860 9.188,136.400 9.040,136.400 8.955 C 136.400 8.870,135.860 8.800,135.200 8.800 C 134.540 8.800,134.000 8.949,134.000 9.131 M263.600 8.955 C 263.600 9.040,264.140 9.188,264.800 9.285 C 265.460 9.382,266.000 9.313,266.000 9.131 C 266.000 8.949,265.460 8.800,264.800 8.800 C 264.140 8.800,263.600 8.870,263.600 8.955 M8.800 135.200 C 8.800 135.860,8.870 136.400,8.955 136.400 C 9.040 136.400,9.188 135.860,9.285 135.200 C 9.382 134.540,9.313 134.000,9.131 134.000 C 8.949 134.000,8.800 134.540,8.800 135.200 M390.715 135.200 C 390.812 135.860,390.960 136.400,391.045 136.400 C 391.130 136.400,391.200 135.860,391.200 135.200 C 391.200 134.540,391.051 134.000,390.869 134.000 C 390.687 134.000,390.618 134.540,390.715 135.200 M8.800 264.800 C 8.800 265.460,8.949 266.000,9.131 266.000 C 9.313 266.000,9.382 265.460,9.285 264.800 C 9.188 264.140,9.040 263.600,8.955 263.600 C 8.870 263.600,8.800 264.140,8.800 264.800 M390.715 264.800 C 390.618 265.460,390.687 266.000,390.869 266.000 C 391.051 266.000,391.200 265.460,391.200 264.800 C 391.200 264.140,391.130 263.600,391.045 263.600 C 390.960 263.600,390.812 264.140,390.715 264.800 M165.105 341.883 C 165.602 341.979,166.322 341.975,166.705 341.875 C 167.087 341.775,166.680 341.696,165.800 341.701 C 164.920 341.705,164.607 341.787,165.105 341.883 M233.505 341.883 C 234.002 341.979,234.722 341.975,235.105 341.875 C 235.487 341.775,235.080 341.696,234.200 341.701 C 233.320 341.705,233.007 341.787,233.505 341.883 M168.300 342.682 C 168.795 342.778,169.605 342.778,170.100 342.682 C 170.595 342.587,170.190 342.509,169.200 342.509 C 168.210 342.509,167.805 342.587,168.300 342.682 M229.900 342.682 C 230.395 342.778,231.205 342.778,231.700 342.682 C 232.195 342.587,231.790 342.509,230.800 342.509 C 229.810 342.509,229.405 342.587,229.900 342.682 M134.000 390.869 C 134.000 391.051,134.540 391.200,135.200 391.200 C 135.860 391.200,136.400 391.130,136.400 391.045 C 136.400 390.960,135.860 390.812,135.200 390.715 C 134.540 390.618,134.000 390.687,134.000 390.869 M264.600 390.800 L 263.400 391.105 264.700 391.153 C 265.415 391.179,266.000 391.020,266.000 390.800 C 266.000 390.580,265.955 390.421,265.900 390.447 C 265.845 390.473,265.260 390.632,264.600 390.800 " stroke="none" fill="#f8ec7c" fill-rule="evenodd"></path></g></svg>