<svg id="svg" version="1.1" xmlns="http://www.w3.org/2000/svg" xmlns:xlink="http://www.w3.org/1999/xlink" width="400" height="400" viewBox="0, 0, 400,400"><g id="svgg"><path id="path0" d="M93.696 91.598 C 90.840 93.340,90.803 93.541,90.801 107.566 L 90.800 120.132 137.066 119.866 C 162.513 119.720,211.653 119.600,246.266 119.600 L 309.200 119.600 309.199 107.300 C 309.197 93.572,309.153 93.335,306.304 91.598 C 304.247 90.344,95.753 90.344,93.696 91.598 M115.645 97.469 C 117.931 97.926,121.042 101.398,121.382 103.872 C 122.588 112.637,111.448 116.998,106.593 109.661 C 102.509 103.489,108.100 95.960,115.645 97.469 M136.088 97.618 C 139.315 98.514,141.714 101.835,141.714 105.405 C 141.714 113.175,131.592 116.173,127.073 109.742 C 122.802 103.665,128.803 95.594,136.088 97.618 M156.436 97.467 C 159.631 98.106,162.871 103.233,162.180 106.555 C 160.168 116.234,146.000 115.121,146.000 105.284 C 146.000 99.776,150.633 96.307,156.436 97.467 M124.121 129.917 C 123.065 130.588,123.356 140.526,124.449 141.094 C 125.812 141.802,145.796 141.792,147.200 141.083 C 148.370 140.492,148.944 132.364,147.946 130.500 L 147.465 129.600 136.032 129.606 C 129.745 129.609,124.385 129.749,124.121 129.917 M220.036 130.156 C 219.018 131.384,219.655 140.505,220.800 141.083 C 222.154 141.767,241.894 141.813,243.381 141.136 C 244.544 140.606,245.004 131.164,243.920 130.080 C 243.169 129.329,220.663 129.401,220.036 130.156 M252.262 130.331 C 251.377 131.310,251.281 140.038,252.148 140.757 C 252.537 141.080,256.111 141.181,264.448 141.106 L 276.200 141.000 276.312 135.856 C 276.388 132.404,276.273 130.529,275.963 130.156 C 275.162 129.190,253.147 129.353,252.262 130.331 M158.500 225.865 C 157.654 226.206,157.784 263.432,158.633 263.757 C 159.980 264.274,195.905 264.027,196.082 263.500 C 196.174 263.225,196.173 254.585,196.080 244.300 L 195.911 225.600 177.455 225.632 C 167.305 225.649,158.775 225.754,158.500 225.865 M209.469 225.896 C 209.137 226.446,208.999 262.988,209.327 263.500 C 209.576 263.888,213.790 264.000,228.175 264.000 C 242.530 264.000,246.786 263.887,247.076 263.500 C 247.303 263.197,247.361 255.689,247.225 244.400 L 247.000 225.800 228.326 225.696 C 218.055 225.639,209.570 225.729,209.469 225.896 " stroke="none" fill="#528e9d" fill-rule="evenodd"></path><path id="path1" d="M131.529 97.484 C 128.471 97.952,125.305 102.709,125.703 106.240 C 126.797 115.943,141.714 115.165,141.714 105.405 C 141.714 99.957,137.383 96.588,131.529 97.484 M90.800 212.246 L 90.800 304.491 91.647 305.998 C 92.113 306.827,93.173 307.887,94.002 308.353 L 95.509 309.200 200.000 309.200 L 304.491 309.200 305.998 308.353 C 306.827 307.887,307.887 306.827,308.353 305.998 L 309.200 304.491 309.200 212.246 L 309.200 120.000 200.000 120.000 L 90.800 120.000 90.800 212.246 M147.946 130.500 C 148.944 132.364,148.370 140.492,147.200 141.083 C 145.796 141.792,125.812 141.802,124.449 141.094 C 123.356 140.526,123.065 130.588,124.121 129.917 C 124.385 129.749,129.745 129.609,136.032 129.606 L 147.465 129.600 147.946 130.500 M179.920 130.080 C 180.822 130.982,180.565 140.683,179.626 141.186 C 179.147 141.442,174.716 141.600,168.000 141.600 C 161.284 141.600,156.853 141.442,156.374 141.186 C 155.435 140.683,155.178 130.982,156.080 130.080 C 156.765 129.395,179.235 129.395,179.920 130.080 M211.843 130.300 C 212.607 131.306,212.614 140.124,211.852 140.757 C 211.463 141.080,207.889 141.181,199.552 141.106 L 187.800 141.000 187.688 135.856 C 187.612 132.404,187.727 130.529,188.037 130.156 C 188.818 129.214,211.122 129.349,211.843 130.300 M243.920 130.080 C 245.004 131.164,244.544 140.606,243.381 141.136 C 241.894 141.813,222.154 141.767,220.800 141.083 C 219.655 140.505,219.018 131.384,220.036 130.156 C 220.663 129.401,243.169 129.329,243.920 130.080 M275.963 130.156 C 276.273 130.529,276.388 132.404,276.312 135.856 L 276.200 141.000 264.448 141.106 C 256.111 141.181,252.537 141.080,252.148 140.757 C 251.281 140.038,251.377 131.310,252.262 130.331 C 253.147 129.353,275.162 129.190,275.963 130.156 M298.400 183.200 L 298.400 214.000 228.200 214.000 L 158.000 214.000 158.000 183.200 L 158.000 152.400 228.200 152.400 L 298.400 152.400 298.400 183.200 M196.080 244.300 C 196.173 254.585,196.174 263.225,196.082 263.500 C 195.905 264.027,159.980 264.274,158.633 263.757 C 157.784 263.432,157.654 226.206,158.500 225.865 C 158.775 225.754,167.305 225.649,177.455 225.632 L 195.911 225.600 196.080 244.300 M247.225 244.400 C 247.361 255.689,247.303 263.197,247.076 263.500 C 246.786 263.887,242.530 264.000,228.175 264.000 C 213.790 264.000,209.576 263.888,209.327 263.500 C 208.999 262.988,209.137 226.446,209.469 225.896 C 209.570 225.729,218.055 225.639,228.326 225.696 L 247.000 225.800 247.225 244.400 M298.400 244.800 L 298.400 264.000 279.443 264.000 C 262.525 264.000,260.459 263.932,260.243 263.367 C 259.910 262.501,259.933 226.200,260.267 225.867 C 260.413 225.720,269.053 225.600,279.467 225.600 L 298.400 225.600 298.400 244.800 " stroke="none" fill="#e7edef" fill-rule="evenodd"></path><path id="path2" d="M178.814 0.277 C 176.731 0.362,174.927 0.594,174.805 0.792 C 174.683 0.990,173.364 1.191,171.876 1.239 C 170.387 1.288,169.075 1.478,168.961 1.664 C 168.846 1.849,167.874 2.000,166.800 2.000 C 165.726 2.000,164.736 2.180,164.600 2.400 C 164.464 2.620,163.474 2.800,162.400 2.800 C 161.326 2.800,160.336 2.980,160.200 3.200 C 160.064 3.420,159.344 3.600,158.600 3.600 C 157.856 3.600,157.136 3.780,157.000 4.000 C 156.864 4.220,155.853 4.400,154.753 4.400 C 153.521 4.400,152.848 4.554,153.000 4.800 C 153.144 5.033,152.737 5.200,152.024 5.200 C 150.356 5.200,150.260 5.218,149.773 5.622 C 149.539 5.817,148.774 6.020,148.073 6.073 C 147.373 6.127,146.800 6.312,146.800 6.485 C 146.800 6.658,146.185 6.800,145.433 6.800 C 144.682 6.800,144.007 6.974,143.933 7.187 C 143.860 7.400,143.227 7.618,142.528 7.670 C 141.828 7.723,141.344 7.909,141.451 8.083 C 141.559 8.257,141.037 8.400,140.290 8.400 C 139.544 8.400,138.798 8.535,138.633 8.700 C 138.468 8.865,138.213 9.014,138.067 9.031 C 136.720 9.188,134.748 9.760,134.572 10.045 C 134.451 10.240,133.913 10.400,133.376 10.400 C 132.839 10.400,132.400 10.580,132.400 10.800 C 132.400 11.020,131.961 11.200,131.424 11.200 C 130.887 11.200,130.336 11.380,130.200 11.600 C 130.064 11.820,129.637 12.000,129.252 12.000 C 128.866 12.000,127.805 12.360,126.894 12.800 C 125.984 13.240,124.960 13.600,124.619 13.600 C 124.279 13.600,124.000 13.741,124.000 13.913 C 124.000 14.085,123.145 14.474,122.100 14.778 C 121.055 15.082,120.110 15.436,120.000 15.565 C 119.598 16.037,117.995 16.800,117.405 16.800 C 117.072 16.800,116.800 16.980,116.800 17.200 C 116.800 17.420,116.451 17.600,116.024 17.600 C 115.597 17.600,115.136 17.780,115.000 18.000 C 114.864 18.220,114.403 18.400,113.976 18.400 C 113.549 18.400,113.199 18.535,113.197 18.700 C 113.194 19.014,111.294 20.000,110.692 20.000 C 110.500 20.000,110.071 20.272,109.739 20.604 C 109.407 20.936,108.970 21.105,108.768 20.980 C 108.565 20.855,108.400 20.943,108.400 21.176 C 108.400 21.409,108.122 21.600,107.783 21.600 C 107.444 21.600,106.780 21.960,106.308 22.400 C 105.836 22.840,105.213 23.200,104.925 23.200 C 104.636 23.200,104.400 23.380,104.400 23.600 C 104.400 23.820,104.040 24.000,103.600 24.000 C 103.160 24.000,102.800 24.180,102.800 24.400 C 102.800 24.620,102.440 24.800,102.000 24.800 C 101.560 24.800,101.200 24.980,101.200 25.200 C 101.200 25.420,100.885 25.606,100.500 25.613 C 99.575 25.630,98.334 26.592,98.706 27.004 C 98.868 27.182,98.797 27.212,98.549 27.071 C 98.008 26.762,95.600 27.891,95.600 28.453 C 95.600 28.670,95.452 28.756,95.271 28.644 C 95.091 28.532,94.642 28.792,94.275 29.220 C 93.908 29.649,93.376 30.000,93.093 30.000 C 92.810 30.000,92.270 30.360,91.893 30.800 C 91.516 31.240,90.936 31.600,90.604 31.600 C 90.272 31.600,90.000 31.780,90.000 32.000 C 90.000 32.220,89.730 32.400,89.400 32.400 C 89.070 32.400,88.800 32.580,88.800 32.800 C 88.800 33.020,88.480 33.200,88.088 33.200 C 87.697 33.200,87.117 33.560,86.800 34.000 C 86.483 34.440,86.020 34.800,85.771 34.800 C 85.522 34.800,84.754 35.340,84.063 36.000 C 83.372 36.660,82.626 37.200,82.404 37.200 C 82.182 37.200,82.000 37.380,82.000 37.600 C 82.000 37.820,81.730 38.000,81.400 38.000 C 81.070 38.000,80.800 38.180,80.800 38.400 C 80.800 38.620,80.557 38.800,80.259 38.800 C 79.612 38.800,77.200 41.029,77.200 41.627 C 77.200 41.858,77.020 41.936,76.800 41.800 C 76.580 41.664,76.400 41.743,76.400 41.976 C 76.400 42.209,76.161 42.400,75.870 42.400 C 75.578 42.400,74.917 42.850,74.400 43.400 C 73.883 43.950,73.304 44.400,73.113 44.400 C 72.712 44.400,72.225 44.795,69.894 47.010 C 68.962 47.895,67.570 49.059,66.800 49.596 C 64.932 50.901,64.388 51.455,64.686 51.752 C 64.822 51.889,64.678 52.007,64.367 52.016 C 64.055 52.025,62.810 53.122,61.600 54.455 C 59.072 57.240,56.868 59.438,54.034 62.000 C 52.940 62.990,52.034 64.036,52.022 64.324 C 52.010 64.612,51.820 64.736,51.600 64.600 C 51.380 64.464,51.200 64.644,51.200 65.000 C 51.200 65.356,51.049 65.554,50.865 65.440 C 50.680 65.326,50.140 65.925,49.664 66.772 C 49.188 67.618,48.273 68.730,47.629 69.242 C 46.986 69.754,46.547 70.314,46.653 70.487 C 46.760 70.659,46.579 70.800,46.251 70.800 C 45.922 70.800,45.540 71.160,45.400 71.600 C 45.260 72.040,44.948 72.400,44.706 72.400 C 44.465 72.400,44.378 72.511,44.514 72.648 C 44.650 72.784,44.545 73.125,44.281 73.406 C 44.016 73.687,43.350 74.498,42.800 75.208 C 42.250 75.919,41.125 77.227,40.300 78.115 C 39.475 79.003,38.800 79.931,38.800 80.177 C 38.800 80.422,38.440 80.883,38.000 81.200 C 37.560 81.517,37.200 82.052,37.200 82.390 C 37.200 82.727,36.660 83.512,36.000 84.135 C 35.340 84.758,34.800 85.483,34.800 85.746 C 34.800 86.008,34.440 86.483,34.000 86.800 C 33.560 87.117,33.200 87.695,33.200 88.085 C 33.200 88.474,32.840 89.018,32.400 89.293 C 31.960 89.568,31.600 90.027,31.600 90.313 C 31.600 90.599,31.240 91.220,30.800 91.692 C 30.360 92.164,29.776 93.056,29.503 93.675 C 29.229 94.294,28.858 94.800,28.679 94.800 C 28.499 94.800,28.464 94.980,28.600 95.200 C 28.736 95.420,28.661 95.600,28.434 95.600 C 28.206 95.600,27.656 96.399,27.211 97.376 C 26.766 98.352,26.222 99.263,26.001 99.399 C 25.780 99.536,25.600 99.997,25.600 100.424 C 25.600 100.851,25.420 101.200,25.200 101.200 C 24.980 101.200,24.800 101.560,24.800 102.000 C 24.800 102.440,24.620 102.800,24.400 102.800 C 24.180 102.800,24.000 103.078,24.000 103.417 C 24.000 103.756,23.640 104.420,23.200 104.892 C 22.760 105.364,22.400 106.043,22.400 106.400 C 22.400 106.757,22.085 107.405,21.700 107.840 C 21.315 108.275,20.942 108.894,20.870 109.216 C 20.799 109.537,20.574 109.860,20.370 109.933 C 20.167 110.007,20.000 110.401,20.000 110.810 C 20.000 111.218,19.820 111.664,19.600 111.800 C 19.380 111.936,19.200 112.407,19.200 112.847 C 19.200 113.287,19.020 113.536,18.800 113.400 C 18.580 113.264,18.400 113.428,18.400 113.764 C 18.400 114.101,18.040 115.017,17.600 115.800 C 17.160 116.583,16.800 117.489,16.800 117.812 C 16.800 118.135,16.620 118.400,16.400 118.400 C 16.180 118.400,16.000 118.760,16.000 119.200 C 16.000 119.640,15.843 120.000,15.650 120.000 C 15.457 120.000,15.186 120.570,15.047 121.267 C 14.827 122.366,13.520 125.498,12.365 127.695 C 12.164 128.077,12.000 128.842,12.000 129.395 C 12.000 129.948,11.820 130.400,11.600 130.400 C 11.380 130.400,11.200 130.835,11.200 131.367 C 11.200 131.898,11.057 132.393,10.882 132.467 C 10.436 132.654,8.776 138.037,9.035 138.456 C 9.152 138.645,9.057 138.800,8.824 138.800 C 8.591 138.800,8.400 139.329,8.400 139.976 C 8.400 140.623,8.220 141.264,8.000 141.400 C 7.780 141.536,7.600 142.166,7.600 142.800 C 7.600 143.434,7.420 144.064,7.200 144.200 C 6.980 144.336,6.800 144.977,6.800 145.624 C 6.800 146.271,6.620 146.800,6.400 146.800 C 6.180 146.800,6.000 147.430,6.000 148.200 C 6.000 148.970,5.820 149.600,5.600 149.600 C 5.380 149.600,5.200 150.421,5.200 151.424 C 5.200 152.537,5.044 153.151,4.800 153.000 C 4.556 152.849,4.400 153.455,4.400 154.553 C 4.400 155.543,4.220 156.464,4.000 156.600 C 3.780 156.736,3.600 157.636,3.600 158.600 C 3.600 159.564,3.420 160.464,3.200 160.600 C 2.980 160.736,2.800 161.521,2.800 162.344 C 2.800 163.167,2.635 164.011,2.434 164.220 C 2.232 164.429,1.962 165.725,1.834 167.100 C 1.705 168.475,1.492 170.725,1.360 172.100 C 1.228 173.475,0.918 174.725,0.671 174.879 C -0.107 175.362,0.041 225.200,0.820 225.200 C 0.992 225.200,1.234 226.325,1.359 227.700 C 1.970 234.428,2.101 235.430,2.417 235.815 C 2.604 236.044,2.803 237.000,2.859 237.941 C 2.914 238.882,3.104 239.740,3.280 239.849 C 3.456 239.958,3.600 240.746,3.600 241.600 C 3.600 242.454,3.780 243.264,4.000 243.400 C 4.220 243.536,4.400 244.447,4.400 245.424 C 4.400 246.401,4.580 247.200,4.800 247.200 C 5.020 247.200,5.200 247.920,5.200 248.800 C 5.200 249.680,5.380 250.400,5.600 250.400 C 5.820 250.400,6.000 251.030,6.000 251.800 C 6.000 252.570,6.180 253.200,6.400 253.200 C 6.620 253.200,6.800 253.729,6.800 254.376 C 6.800 255.023,6.980 255.664,7.200 255.800 C 7.420 255.936,7.600 256.566,7.600 257.200 C 7.600 257.834,7.780 258.464,8.000 258.600 C 8.220 258.736,8.400 259.247,8.400 259.735 C 8.400 261.064,10.440 267.323,11.647 269.695 C 11.841 270.077,12.006 270.707,12.013 271.095 C 12.020 271.483,12.284 272.142,12.600 272.559 C 12.916 272.976,13.087 273.459,12.981 273.631 C 12.874 273.804,12.970 274.058,13.193 274.196 C 13.417 274.334,13.600 274.797,13.600 275.224 C 13.600 275.651,13.757 276.000,13.948 276.000 C 14.139 276.000,14.531 276.855,14.818 277.900 C 15.106 278.945,15.444 279.890,15.570 280.000 C 16.042 280.411,16.800 282.010,16.800 282.595 C 16.800 282.928,16.980 283.200,17.200 283.200 C 17.420 283.200,17.600 283.549,17.600 283.976 C 17.600 284.403,17.780 284.864,18.000 285.000 C 18.220 285.136,18.400 285.597,18.400 286.024 C 18.400 286.451,18.580 286.800,18.800 286.800 C 19.020 286.800,19.200 287.145,19.200 287.567 C 19.200 287.988,19.366 288.393,19.570 288.467 C 19.773 288.540,19.998 288.866,20.070 289.190 C 20.141 289.515,20.427 290.025,20.704 290.323 C 20.981 290.621,21.105 291.030,20.980 291.232 C 20.855 291.435,20.943 291.600,21.176 291.600 C 21.409 291.600,21.600 291.960,21.600 292.400 C 21.600 292.840,21.752 293.200,21.937 293.200 C 22.123 293.200,22.708 294.055,23.237 295.100 C 23.767 296.145,24.335 297.060,24.500 297.133 C 24.665 297.207,24.800 297.597,24.800 298.000 C 24.800 298.403,24.990 298.797,25.222 298.874 C 25.454 298.951,25.688 299.318,25.742 299.688 C 25.797 300.059,26.133 300.685,26.489 301.081 C 26.846 301.476,27.258 302.282,27.405 302.871 C 27.552 303.460,27.937 304.044,28.261 304.168 C 28.586 304.293,28.739 304.576,28.602 304.797 C 28.465 305.019,28.515 305.200,28.714 305.200 C 28.912 305.200,29.491 306.010,30.000 307.000 C 30.509 307.990,31.077 308.800,31.263 308.800 C 31.448 308.800,31.600 309.042,31.600 309.338 C 31.600 309.634,31.960 310.202,32.400 310.600 C 32.840 310.998,33.200 311.521,33.201 311.762 C 33.201 312.003,33.741 312.830,34.400 313.600 C 35.059 314.370,35.599 315.185,35.599 315.412 C 35.600 315.638,35.960 316.083,36.400 316.400 C 36.840 316.717,37.200 317.257,37.200 317.600 C 37.200 317.943,37.560 318.483,38.000 318.800 C 38.440 319.117,38.800 319.607,38.800 319.888 C 38.800 320.170,38.980 320.400,39.200 320.400 C 39.420 320.400,39.600 320.598,39.600 320.840 C 39.600 321.081,40.140 321.783,40.800 322.400 C 41.460 323.017,42.000 323.639,42.000 323.782 C 42.000 323.926,42.539 324.619,43.198 325.322 C 43.857 326.025,44.403 326.780,44.411 327.000 C 44.435 327.631,45.876 329.200,46.431 329.200 C 46.707 329.200,46.820 329.314,46.681 329.453 C 46.542 329.592,46.928 330.177,47.539 330.753 C 48.150 331.329,49.104 332.474,49.660 333.298 C 50.216 334.122,50.790 334.677,50.935 334.531 C 51.081 334.386,51.200 334.485,51.200 334.752 C 51.200 335.383,53.042 337.225,53.358 336.909 C 53.491 336.776,53.606 336.922,53.613 337.233 C 53.620 337.545,54.541 338.610,55.659 339.600 C 56.777 340.590,58.037 341.760,58.460 342.200 C 58.882 342.640,60.471 344.305,61.989 345.900 C 63.508 347.495,64.952 348.800,65.199 348.800 C 65.445 348.800,65.554 348.951,65.440 349.135 C 65.326 349.320,65.945 349.872,66.816 350.361 C 67.687 350.851,68.400 351.381,68.400 351.539 C 68.400 351.698,68.940 352.146,69.600 352.536 C 70.260 352.926,70.800 353.475,70.800 353.755 C 70.800 354.035,71.295 354.520,71.900 354.832 C 72.505 355.144,73.090 355.499,73.200 355.621 C 73.310 355.742,74.120 356.372,75.000 357.020 C 75.880 357.668,77.077 358.693,77.660 359.299 C 78.244 359.904,78.919 360.400,79.160 360.400 C 79.402 360.400,79.600 360.580,79.600 360.800 C 79.600 361.020,79.830 361.200,80.112 361.200 C 80.393 361.200,80.883 361.560,81.200 362.000 C 81.517 362.440,82.009 362.800,82.292 362.800 C 82.575 362.800,83.372 363.340,84.063 364.000 C 84.754 364.660,85.562 365.200,85.859 365.200 C 86.157 365.200,86.400 365.359,86.400 365.554 C 86.400 365.749,87.041 366.213,87.824 366.585 C 88.607 366.956,89.347 367.517,89.467 367.830 C 89.587 368.144,90.026 368.400,90.443 368.400 C 90.859 368.400,91.200 368.541,91.200 368.714 C 91.200 369.067,93.202 370.327,93.764 370.328 C 93.964 370.328,94.290 370.618,94.489 370.973 C 94.687 371.327,95.018 371.512,95.225 371.385 C 95.431 371.257,95.600 371.312,95.600 371.505 C 95.600 371.699,96.406 372.261,97.391 372.753 C 98.376 373.245,99.287 373.816,99.415 374.024 C 99.543 374.231,99.997 374.400,100.424 374.400 C 100.851 374.400,101.200 374.580,101.200 374.800 C 101.200 375.020,101.545 375.200,101.967 375.200 C 102.388 375.200,102.793 375.335,102.867 375.500 C 102.940 375.665,103.855 376.233,104.900 376.763 C 105.945 377.292,106.800 377.888,106.800 378.086 C 106.800 378.285,106.965 378.345,107.168 378.220 C 107.370 378.095,107.807 378.264,108.139 378.596 C 108.471 378.928,109.026 379.200,109.371 379.200 C 109.717 379.200,110.000 379.380,110.000 379.600 C 110.000 379.820,110.461 380.000,111.024 380.000 C 111.604 380.000,111.940 380.173,111.800 380.400 C 111.660 380.627,111.996 380.800,112.576 380.800 C 113.139 380.800,113.600 380.980,113.600 381.200 C 113.600 381.420,113.960 381.600,114.400 381.600 C 114.840 381.600,115.200 381.780,115.200 382.000 C 115.200 382.220,115.560 382.400,116.000 382.400 C 116.440 382.400,116.800 382.580,116.800 382.800 C 116.800 383.020,117.149 383.200,117.576 383.200 C 118.003 383.200,118.464 383.380,118.600 383.600 C 118.736 383.820,119.197 384.000,119.624 384.000 C 120.051 384.000,120.400 384.160,120.400 384.356 C 120.400 384.552,121.210 384.951,122.200 385.243 C 123.190 385.535,124.000 385.915,124.000 386.087 C 124.000 386.259,124.330 386.400,124.733 386.400 C 125.137 386.400,125.591 386.525,125.744 386.677 C 125.896 386.829,126.421 387.015,126.910 387.089 C 127.400 387.163,127.860 387.398,127.933 387.612 C 128.007 387.825,128.472 388.000,128.967 388.000 C 129.462 388.000,129.992 388.125,130.145 388.278 C 130.298 388.431,130.643 388.595,130.912 388.642 C 131.180 388.688,132.052 389.006,132.849 389.347 C 133.646 389.689,134.411 389.855,134.549 389.717 C 134.687 389.580,134.800 389.657,134.800 389.889 C 134.800 390.227,136.491 390.786,138.067 390.969 C 138.213 390.986,138.468 391.135,138.633 391.300 C 138.798 391.465,139.533 391.600,140.267 391.600 C 141.000 391.600,141.600 391.780,141.600 392.000 C 141.600 392.220,142.129 392.400,142.776 392.400 C 143.423 392.400,144.064 392.580,144.200 392.800 C 144.336 393.020,144.962 393.200,145.590 393.200 C 146.219 393.200,146.793 393.371,146.867 393.580 C 146.940 393.789,147.765 394.004,148.700 394.058 C 149.635 394.112,150.400 394.301,150.400 394.478 C 150.400 394.655,151.030 394.800,151.800 394.800 C 152.570 394.800,153.200 394.962,153.200 395.160 C 153.200 395.358,153.965 395.622,154.900 395.747 C 158.989 396.294,160.018 396.506,160.226 396.842 C 160.348 397.039,161.326 397.200,162.400 397.200 C 163.474 397.200,164.464 397.380,164.600 397.600 C 164.736 397.820,165.927 398.000,167.247 398.000 C 168.745 398.000,169.554 398.150,169.400 398.400 C 169.244 398.652,170.188 398.800,171.953 398.800 C 173.493 398.800,174.849 398.956,174.967 399.147 C 175.489 399.991,224.823 400.131,225.104 399.289 C 225.211 398.967,226.209 398.800,228.033 398.800 C 229.611 398.800,230.800 398.628,230.800 398.400 C 230.800 398.178,231.867 398.000,233.200 398.000 C 234.533 398.000,235.600 397.822,235.600 397.600 C 235.600 397.380,236.590 397.200,237.800 397.200 C 239.010 397.200,240.000 397.020,240.000 396.800 C 240.000 396.580,240.720 396.400,241.600 396.400 C 242.480 396.400,243.200 396.220,243.200 396.000 C 243.200 395.780,243.999 395.600,244.976 395.600 C 245.953 395.600,246.864 395.420,247.000 395.200 C 247.136 394.980,247.957 394.800,248.824 394.800 C 249.691 394.800,250.400 394.620,250.400 394.400 C 250.400 394.180,251.030 394.000,251.800 394.000 C 252.570 394.000,253.200 393.820,253.200 393.600 C 253.200 393.380,253.729 393.200,254.376 393.200 C 255.023 393.200,255.664 393.020,255.800 392.800 C 255.936 392.580,256.566 392.400,257.200 392.400 C 257.834 392.400,258.464 392.220,258.600 392.000 C 258.736 391.780,259.231 391.600,259.700 391.600 C 260.926 391.600,267.283 389.564,268.032 388.932 C 268.380 388.638,268.770 388.503,268.898 388.631 C 269.026 388.759,269.575 388.573,270.119 388.216 C 270.662 387.860,271.263 387.605,271.453 387.648 C 271.876 387.744,272.947 387.358,274.800 386.441 C 275.570 386.059,277.055 385.495,278.100 385.186 C 279.145 384.878,280.000 384.485,280.000 384.313 C 280.000 384.141,280.360 384.000,280.800 384.000 C 281.240 384.000,281.600 383.864,281.600 383.698 C 281.600 383.329,284.636 381.956,287.700 380.939 C 288.085 380.811,288.400 380.548,288.400 380.353 C 288.400 380.159,288.771 380.000,289.224 380.000 C 289.677 380.000,289.936 379.820,289.800 379.600 C 289.591 379.261,290.068 379.116,291.030 379.226 C 291.157 379.241,291.607 378.853,292.030 378.365 C 292.539 377.778,292.802 377.668,292.806 378.039 C 292.810 378.375,292.930 378.439,293.106 378.200 C 293.472 377.702,295.563 376.426,296.500 376.129 C 296.885 376.007,297.200 375.748,297.200 375.553 C 297.200 375.359,297.571 375.200,298.024 375.200 C 298.477 375.200,298.745 375.035,298.620 374.833 C 298.495 374.630,298.922 374.349,299.569 374.207 C 300.216 374.065,300.945 373.708,301.189 373.414 C 301.433 373.119,302.091 372.763,302.652 372.623 C 303.212 372.482,304.137 371.934,304.708 371.405 C 305.279 370.876,305.867 370.518,306.015 370.609 C 306.163 370.700,306.882 370.241,307.614 369.588 C 308.345 368.934,309.190 368.400,309.490 368.400 C 309.791 368.400,310.486 367.950,311.036 367.400 C 311.586 366.850,312.195 366.400,312.390 366.400 C 312.584 366.400,312.981 366.175,313.271 365.900 C 313.562 365.625,314.289 365.148,314.886 364.840 C 315.484 364.532,315.878 364.127,315.763 363.940 C 315.647 363.753,315.833 363.600,316.176 363.600 C 316.519 363.600,316.800 363.420,316.800 363.200 C 316.800 362.980,317.120 362.800,317.512 362.800 C 317.903 362.800,318.483 362.440,318.800 362.000 C 319.117 361.560,319.588 361.200,319.846 361.200 C 320.103 361.200,320.428 360.904,320.567 360.543 C 320.705 360.181,320.928 359.995,321.062 360.129 C 321.196 360.262,321.804 359.838,322.413 359.186 C 323.022 358.534,323.685 358.000,323.886 358.000 C 324.086 358.000,324.768 357.460,325.400 356.800 C 326.032 356.140,326.792 355.600,327.087 355.600 C 327.383 355.600,327.729 355.330,327.855 355.000 C 327.982 354.670,328.336 354.400,328.643 354.400 C 328.949 354.400,329.200 354.100,329.200 353.733 C 329.200 353.367,329.304 353.171,329.431 353.297 C 329.558 353.424,330.143 353.039,330.731 352.440 C 331.319 351.842,332.430 350.919,333.200 350.389 C 335.017 349.139,335.600 348.560,335.600 348.005 C 335.600 347.756,335.735 347.635,335.900 347.734 C 336.291 347.971,337.226 346.960,336.909 346.643 C 336.776 346.509,336.977 346.400,337.357 346.400 C 337.737 346.400,337.936 346.220,337.800 346.000 C 337.664 345.780,337.788 345.595,338.076 345.588 C 338.364 345.581,339.050 345.029,339.600 344.359 C 340.680 343.045,341.830 341.887,345.100 338.821 C 346.255 337.738,347.200 336.630,347.200 336.359 C 347.200 336.088,347.309 335.976,347.442 336.109 C 347.740 336.406,349.087 335.076,350.388 333.200 C 350.923 332.430,352.314 330.819,353.480 329.621 C 354.646 328.422,355.600 327.239,355.600 326.991 C 355.600 326.743,356.050 326.117,356.600 325.600 C 357.150 325.083,357.600 324.509,357.600 324.323 C 357.600 324.138,358.230 323.374,359.000 322.626 C 359.770 321.879,360.400 321.072,360.400 320.833 C 360.400 320.595,360.580 320.400,360.800 320.400 C 361.020 320.400,361.200 320.130,361.200 319.800 C 361.200 319.470,361.380 319.200,361.600 319.200 C 361.820 319.200,362.000 318.930,362.000 318.600 C 362.000 318.270,362.180 318.000,362.400 318.000 C 362.620 318.000,362.800 317.770,362.800 317.488 C 362.800 317.207,363.160 316.717,363.600 316.400 C 364.040 316.083,364.400 315.638,364.400 315.412 C 364.401 315.185,364.846 314.483,365.389 313.851 C 365.933 313.219,366.484 312.364,366.616 311.951 C 366.747 311.538,367.022 311.200,367.227 311.200 C 367.432 311.200,367.600 310.930,367.600 310.600 C 367.600 310.270,367.780 310.000,368.000 310.000 C 368.220 310.000,368.400 309.730,368.400 309.400 C 368.400 309.070,368.564 308.800,368.764 308.800 C 368.965 308.800,369.520 307.991,369.999 307.002 C 370.478 306.013,371.054 305.090,371.279 304.951 C 371.505 304.812,372.164 303.702,372.745 302.485 C 374.268 299.290,374.554 298.800,374.895 298.800 C 375.063 298.800,375.200 298.440,375.200 298.000 C 375.200 297.560,375.380 297.200,375.600 297.200 C 375.820 297.200,376.004 296.975,376.009 296.700 C 376.014 296.425,376.370 295.750,376.800 295.200 C 377.230 294.650,377.586 293.919,377.591 293.575 C 377.596 293.232,377.960 292.564,378.400 292.092 C 378.840 291.620,379.200 290.956,379.200 290.617 C 379.200 290.278,379.380 290.000,379.600 290.000 C 379.820 290.000,379.979 289.865,379.953 289.700 C 379.810 288.796,380.052 287.985,380.400 288.200 C 380.620 288.336,380.800 288.172,380.800 287.836 C 380.800 287.499,381.160 286.583,381.600 285.800 C 382.040 285.017,382.400 284.111,382.400 283.788 C 382.400 283.465,382.580 283.200,382.800 283.200 C 383.020 283.200,383.200 282.840,383.200 282.400 C 383.200 281.960,383.380 281.600,383.600 281.600 C 383.820 281.600,384.000 281.240,384.000 280.800 C 384.000 280.360,384.147 280.000,384.328 280.000 C 384.508 280.000,384.900 279.100,385.200 278.000 C 385.500 276.900,385.892 276.000,386.072 276.000 C 386.253 276.000,386.400 275.651,386.400 275.224 C 386.400 274.797,386.557 274.350,386.748 274.232 C 386.940 274.114,387.197 273.518,387.319 272.908 C 387.442 272.299,387.770 271.260,388.049 270.600 C 388.328 269.940,388.569 269.199,388.584 268.954 C 388.600 268.709,388.834 268.241,389.106 267.914 C 389.377 267.587,389.639 266.842,389.687 266.260 C 389.735 265.677,389.878 265.200,390.004 265.200 C 390.255 265.200,391.160 262.115,391.471 260.200 C 391.578 259.540,391.831 258.829,392.033 258.620 C 392.235 258.411,392.400 257.747,392.400 257.144 C 392.400 256.541,392.580 255.936,392.800 255.800 C 393.020 255.664,393.200 255.023,393.200 254.376 C 393.200 253.729,393.380 253.200,393.600 253.200 C 393.820 253.200,394.000 252.379,394.000 251.376 C 394.000 250.263,394.156 249.649,394.400 249.800 C 394.638 249.947,394.800 249.479,394.800 248.647 C 394.800 247.877,394.980 247.136,395.200 247.000 C 395.420 246.864,395.600 246.054,395.600 245.200 C 395.600 244.346,395.780 243.536,396.000 243.400 C 396.220 243.264,396.400 242.479,396.400 241.656 C 396.400 240.833,396.563 239.989,396.763 239.780 C 397.100 239.428,397.223 238.646,397.846 232.900 C 397.972 231.745,398.237 230.800,398.437 230.800 C 398.637 230.800,398.800 229.540,398.800 228.000 C 398.800 226.460,398.957 225.200,399.149 225.200 C 399.992 225.200,400.134 175.974,399.293 175.133 C 398.999 174.839,398.800 173.543,398.800 171.920 C 398.800 170.424,398.637 169.200,398.437 169.200 C 398.237 169.200,397.975 168.255,397.855 167.100 C 397.450 163.213,397.157 161.404,396.802 160.600 C 396.438 159.773,396.116 157.984,395.740 154.700 C 395.621 153.655,395.360 152.800,395.161 152.800 C 394.963 152.800,394.800 152.159,394.800 151.376 C 394.800 150.529,394.638 150.053,394.400 150.200 C 394.156 150.351,394.000 149.737,394.000 148.624 C 394.000 147.621,393.820 146.800,393.600 146.800 C 393.380 146.800,393.200 146.348,393.200 145.795 C 393.200 145.242,393.038 144.477,392.839 144.095 C 392.463 143.371,391.620 140.640,391.452 139.600 C 391.203 138.064,390.224 134.800,390.012 134.800 C 389.881 134.800,389.737 134.346,389.691 133.792 C 389.645 133.237,389.315 132.337,388.958 131.792 C 388.600 131.246,388.464 130.797,388.654 130.794 C 388.844 130.791,388.787 130.652,388.526 130.486 C 388.265 130.321,387.987 129.738,387.908 129.193 C 387.829 128.647,387.541 127.795,387.268 127.300 C 386.995 126.805,386.904 126.400,387.066 126.400 C 387.228 126.400,387.144 126.184,386.880 125.920 C 386.616 125.656,386.400 125.116,386.400 124.720 C 386.400 124.324,386.253 124.000,386.072 124.000 C 385.892 124.000,385.500 123.100,385.200 122.000 C 384.900 120.900,384.508 120.000,384.328 120.000 C 384.147 120.000,384.000 119.640,384.000 119.200 C 384.000 118.760,383.820 118.400,383.600 118.400 C 383.380 118.400,383.200 118.040,383.200 117.600 C 383.200 117.160,383.020 116.800,382.800 116.800 C 382.580 116.800,382.400 116.440,382.400 116.000 C 382.400 115.560,382.220 115.200,382.000 115.200 C 381.780 115.200,381.600 114.851,381.600 114.424 C 381.600 113.997,381.420 113.536,381.200 113.400 C 380.980 113.264,380.800 112.803,380.800 112.376 C 380.800 111.949,380.620 111.600,380.400 111.600 C 380.180 111.600,380.000 111.229,380.000 110.776 C 380.000 110.323,379.820 110.064,379.600 110.200 C 379.263 110.408,378.997 109.422,379.300 109.091 C 379.355 109.030,378.995 108.547,378.500 108.015 C 378.005 107.484,377.600 106.801,377.600 106.497 C 377.600 106.193,377.060 105.159,376.400 104.200 C 375.740 103.241,375.200 102.173,375.200 101.828 C 375.200 101.483,375.020 101.200,374.800 101.200 C 374.580 101.200,374.394 100.885,374.387 100.500 C 374.370 99.575,373.408 98.334,372.996 98.706 C 372.818 98.868,372.797 98.782,372.949 98.516 C 373.256 97.983,372.537 96.494,371.600 95.721 C 371.270 95.448,371.144 95.220,371.319 95.213 C 371.642 95.200,369.481 91.851,368.515 90.868 C 368.228 90.575,368.112 90.142,368.258 89.906 C 368.415 89.651,368.336 89.593,368.062 89.762 C 367.788 89.931,367.600 89.793,367.600 89.424 C 367.600 89.081,367.420 88.800,367.200 88.800 C 366.980 88.800,366.800 88.564,366.800 88.275 C 366.800 87.987,366.440 87.364,366.000 86.892 C 365.560 86.420,365.200 85.891,365.200 85.717 C 365.199 85.543,364.794 84.920,364.300 84.334 C 363.805 83.747,363.085 82.890,362.700 82.429 C 362.315 81.968,362.000 81.413,362.000 81.195 C 362.000 80.978,361.820 80.800,361.600 80.800 C 361.380 80.800,361.200 80.530,361.200 80.200 C 361.200 79.870,361.020 79.600,360.800 79.600 C 360.580 79.600,360.400 79.396,360.400 79.147 C 360.400 78.633,358.866 77.200,358.315 77.200 C 358.116 77.200,358.064 77.020,358.200 76.800 C 358.336 76.580,358.257 76.400,358.024 76.400 C 357.791 76.400,357.600 76.161,357.600 75.870 C 357.600 75.578,357.150 74.917,356.600 74.400 C 356.050 73.883,355.600 73.257,355.600 73.009 C 355.600 72.761,354.646 71.578,353.480 70.379 C 352.314 69.181,350.923 67.570,350.388 66.800 C 349.087 64.924,347.740 63.594,347.442 63.891 C 347.309 64.024,347.200 63.912,347.200 63.641 C 347.200 63.370,346.255 62.262,345.100 61.179 C 341.830 58.113,340.680 56.955,339.600 55.641 C 339.050 54.971,338.364 54.419,338.076 54.412 C 337.788 54.405,337.664 54.220,337.800 54.000 C 337.936 53.780,337.737 53.600,337.357 53.600 C 336.977 53.600,336.775 53.492,336.907 53.360 C 337.265 53.001,334.526 50.400,333.790 50.400 C 333.439 50.400,333.264 50.220,333.400 50.000 C 333.536 49.780,333.485 49.600,333.287 49.600 C 333.089 49.600,332.105 48.835,331.100 47.900 C 330.096 46.965,328.697 45.750,327.993 45.200 C 324.999 42.862,323.333 41.513,322.293 40.587 C 321.684 40.044,321.009 39.600,320.793 39.600 C 320.577 39.600,320.400 39.420,320.400 39.200 C 320.400 38.980,320.222 38.800,320.005 38.800 C 319.787 38.800,319.292 38.542,318.905 38.226 C 316.954 36.638,314.355 34.800,314.059 34.800 C 313.875 34.800,313.398 34.440,313.000 34.000 C 312.602 33.560,312.074 33.200,311.826 33.200 C 311.579 33.200,311.117 32.840,310.800 32.400 C 310.483 31.960,309.918 31.600,309.545 31.600 C 309.172 31.600,308.807 31.465,308.733 31.300 C 308.531 30.845,306.090 29.200,305.616 29.200 C 305.387 29.200,305.200 29.009,305.200 28.776 C 305.200 28.543,305.031 28.457,304.825 28.585 C 304.618 28.712,304.303 28.588,304.125 28.308 C 303.946 28.029,303.170 27.486,302.400 27.102 C 301.630 26.719,300.730 26.245,300.400 26.049 C 300.070 25.853,299.260 25.447,298.600 25.147 C 297.940 24.847,297.310 24.511,297.200 24.401 C 296.806 24.005,294.587 22.746,293.900 22.529 C 293.515 22.407,293.200 22.148,293.200 21.953 C 293.200 21.759,292.947 21.600,292.638 21.600 C 292.121 21.600,288.862 20.062,288.400 19.600 C 287.952 19.152,286.377 18.400,285.885 18.400 C 285.145 18.400,283.207 17.461,283.203 17.100 C 283.201 16.935,282.840 16.800,282.400 16.800 C 281.960 16.800,281.600 16.620,281.600 16.400 C 281.600 16.180,281.240 16.000,280.800 16.000 C 280.360 16.000,280.000 15.853,280.000 15.672 C 280.000 15.492,279.100 15.100,278.000 14.800 C 276.900 14.500,276.000 14.108,276.000 13.928 C 276.000 13.747,275.670 13.600,275.267 13.600 C 274.863 13.600,274.409 13.475,274.256 13.323 C 274.104 13.171,273.579 12.985,273.090 12.911 C 272.600 12.837,272.140 12.602,272.067 12.388 C 271.993 12.175,271.509 12.000,270.990 12.000 C 270.472 12.000,269.936 11.820,269.800 11.600 C 269.664 11.380,269.158 11.199,268.676 11.198 C 268.194 11.196,267.260 10.910,266.600 10.562 C 264.865 9.646,260.785 8.411,259.476 8.405 C 258.830 8.402,258.458 8.230,258.600 8.000 C 258.747 7.762,258.279 7.600,257.447 7.600 C 256.677 7.600,255.936 7.420,255.800 7.200 C 255.664 6.980,255.023 6.800,254.376 6.800 C 253.729 6.800,253.200 6.620,253.200 6.400 C 253.200 6.180,252.469 6.000,251.576 6.000 C 250.596 6.000,250.051 5.842,250.200 5.600 C 250.349 5.358,249.804 5.200,248.824 5.200 C 247.931 5.200,247.200 5.020,247.200 4.800 C 247.200 4.580,246.401 4.400,245.424 4.400 C 244.447 4.400,243.536 4.220,243.400 4.000 C 243.264 3.780,242.443 3.600,241.576 3.600 C 240.709 3.600,240.000 3.420,240.000 3.200 C 240.000 2.980,239.111 2.800,238.024 2.800 C 236.937 2.800,235.936 2.620,235.800 2.400 C 235.664 2.180,234.494 2.000,233.200 2.000 C 231.906 2.000,230.736 1.820,230.600 1.600 C 230.464 1.380,229.193 1.200,227.776 1.200 C 226.359 1.200,225.200 1.050,225.200 0.867 C 225.200 0.341,188.593 -0.125,178.814 0.277 M304.169 90.783 C 309.140 91.936,309.400 92.750,309.400 107.129 L 309.400 119.400 230.800 119.599 L 152.200 119.798 230.800 119.999 L 309.400 120.200 309.501 212.235 L 309.602 304.271 308.680 306.014 C 308.051 307.203,307.191 308.065,305.979 308.722 L 304.200 309.686 199.754 309.486 C 118.076 309.330,95.101 309.179,94.354 308.793 C 92.814 307.997,91.571 306.697,90.963 305.246 C 90.316 303.701,90.132 99.006,90.775 95.652 C 91.207 93.397,93.323 91.203,95.464 90.789 C 97.724 90.352,302.286 90.346,304.169 90.783 M151.096 97.772 C 145.709 99.694,144.229 106.319,148.200 110.734 C 149.545 112.230,151.200 113.216,152.280 113.167 C 152.713 113.148,152.441 112.895,151.600 112.534 C 144.358 109.428,145.286 98.000,152.780 98.000 L 154.000 98.000 154.000 105.320 C 154.000 110.194,153.850 112.790,153.552 113.088 C 152.728 113.912,156.493 113.168,158.265 112.157 C 166.695 107.348,160.288 94.492,151.096 97.772 M157.441 98.867 C 163.040 101.832,162.251 110.144,156.172 112.234 L 154.800 112.706 154.800 105.353 C 154.800 97.204,154.711 97.421,157.441 98.867 M155.968 130.300 C 155.518 130.896,155.522 130.925,155.999 130.500 C 156.959 129.644,179.435 129.792,179.767 130.657 C 179.905 131.019,180.130 131.203,180.266 131.067 C 180.403 130.931,180.286 130.545,180.008 130.210 C 179.186 129.219,156.722 129.304,155.968 130.300 M188.242 140.700 C 188.620 141.077,191.578 141.200,200.251 141.200 C 207.567 141.200,211.621 141.061,211.378 140.818 C 211.158 140.598,206.055 140.385,199.369 140.318 C 190.067 140.224,187.842 140.300,188.242 140.700 M162.300 141.499 C 165.435 141.567,170.565 141.567,173.700 141.499 C 176.835 141.432,174.270 141.376,168.000 141.376 C 161.730 141.376,159.165 141.432,162.300 141.499 M269.928 225.900 C 275.278 225.963,283.918 225.963,289.128 225.900 C 294.337 225.836,289.960 225.785,279.400 225.785 C 268.840 225.785,264.577 225.837,269.928 225.900 M260.134 260.400 C 260.134 262.050,260.205 262.725,260.291 261.900 C 260.378 261.075,260.378 259.725,260.291 258.900 C 260.205 258.075,260.134 258.750,260.134 260.400 M279.200 263.600 L 260.200 263.812 279.300 263.906 C 291.829 263.968,298.400 263.862,298.400 263.600 C 298.400 263.380,298.355 263.242,298.300 263.294 C 298.245 263.346,289.650 263.484,279.200 263.600 " stroke="none" fill="#ebac54" fill-rule="evenodd"></path><path id="path3" d="M150.200 98.737 C 144.612 102.153,145.487 109.991,151.742 112.561 C 153.985 113.482,154.000 113.433,154.000 105.376 L 154.000 98.000 152.700 98.001 C 151.985 98.002,150.860 98.333,150.200 98.737 M154.800 105.353 L 154.800 112.706 156.172 112.234 C 162.251 110.144,163.040 101.832,157.441 98.867 C 154.711 97.421,154.800 97.204,154.800 105.353 M90.597 212.400 C 90.597 263.110,90.643 283.855,90.700 258.500 C 90.757 233.145,90.757 191.655,90.700 166.300 C 90.643 140.945,90.597 161.690,90.597 212.400 M309.397 212.400 C 309.397 263.110,309.443 283.855,309.500 258.500 C 309.557 233.145,309.557 191.655,309.500 166.300 C 309.443 140.945,309.397 161.690,309.397 212.400 M188.080 130.080 C 187.322 130.838,187.420 139.845,188.190 140.141 C 188.515 140.265,194.050 140.391,200.490 140.419 L 212.200 140.471 212.314 135.935 C 212.389 132.957,212.263 131.091,211.946 130.500 L 211.465 129.600 200.012 129.600 C 191.638 129.600,188.431 129.729,188.080 130.080 M158.000 183.200 L 158.000 214.000 228.200 214.000 L 298.400 214.000 298.400 183.200 L 298.400 152.400 228.200 152.400 L 158.000 152.400 158.000 183.200 M260.182 241.800 C 260.182 250.600,260.235 254.143,260.300 249.673 C 260.364 245.204,260.364 238.004,260.299 233.673 C 260.235 229.343,260.182 233.000,260.182 241.800 M308.242 306.175 C 307.844 306.914,306.914 307.844,306.175 308.242 C 305.436 308.639,304.905 309.038,304.995 309.128 C 305.357 309.491,307.848 307.574,308.539 306.400 C 308.945 305.710,309.208 305.074,309.121 304.988 C 309.035 304.902,308.639 305.436,308.242 306.175 M184.900 309.500 C 206.845 309.557,242.755 309.557,264.700 309.500 C 286.645 309.443,268.690 309.396,224.800 309.396 C 180.910 309.396,162.955 309.443,184.900 309.500 " stroke="none" fill="#fbd464" fill-rule="evenodd"></path><path id="path4" d="M148.300 90.700 C 176.735 90.757,223.265 90.757,251.700 90.700 C 280.135 90.643,256.870 90.597,200.000 90.597 C 143.130 90.597,119.865 90.643,148.300 90.700 M309.377 107.400 C 309.377 114.000,309.432 116.756,309.499 113.525 C 309.566 110.293,309.566 104.893,309.499 101.525 C 309.432 98.156,309.377 100.800,309.377 107.400 M90.576 108.000 C 90.576 114.270,90.632 116.835,90.699 113.700 C 90.767 110.565,90.767 105.435,90.699 102.300 C 90.632 99.165,90.576 101.730,90.576 108.000 M111.000 97.493 C 107.687 98.323,104.917 102.550,105.341 106.129 C 106.009 111.776,112.065 115.020,117.120 112.441 C 125.762 108.032,120.476 95.121,111.000 97.493 M156.080 130.480 C 155.347 131.213,155.425 139.883,156.171 140.629 C 157.017 141.474,178.983 141.474,179.829 140.629 C 180.607 139.850,180.619 131.722,179.843 130.700 C 179.171 129.815,156.951 129.609,156.080 130.480 M260.400 244.804 L 260.400 263.608 279.300 263.504 L 298.200 263.400 298.304 244.700 L 298.408 226.000 279.404 226.000 L 260.400 226.000 260.400 244.804 " stroke="none" fill="#e06151" fill-rule="evenodd"></path></g></svg>