<svg id="svg" version="1.1" xmlns="http://www.w3.org/2000/svg" xmlns:xlink="http://www.w3.org/1999/xlink" width="400" height="400" viewBox="0, 0, 400,400"><g id="svgg"><path id="path0" d="M111.385 133.700 C 111.280 133.975,111.241 159.490,111.297 190.400 L 111.400 246.600 200.040 246.701 L 288.680 246.802 288.940 243.139 C 289.269 238.509,289.285 134.687,288.957 133.833 C 288.630 132.979,111.709 132.847,111.385 133.700 M282.000 154.592 L 282.000 167.585 281.100 167.802 C 280.605 167.922,259.860 167.970,235.000 167.910 L 189.800 167.800 189.694 155.204 C 189.636 148.276,189.675 142.381,189.782 142.104 C 189.935 141.703,199.367 141.600,235.987 141.600 L 282.000 141.600 282.000 154.592 M155.186 157.974 C 155.414 158.399,155.600 159.465,155.600 160.341 C 155.600 162.763,155.889 163.142,158.710 164.421 L 161.320 165.604 163.397 164.002 C 166.136 161.890,166.174 161.899,169.731 165.554 C 173.239 169.159,173.301 169.392,171.400 171.882 C 169.727 174.072,169.749 173.764,171.043 176.996 C 172.028 179.458,172.157 179.600,173.393 179.600 C 174.112 179.600,175.263 179.713,175.950 179.850 L 177.200 180.100 177.200 184.807 C 177.200 190.119,177.383 189.830,173.736 190.259 C 171.454 190.527,170.401 191.180,170.399 192.329 C 170.398 192.698,170.036 193.593,169.594 194.317 C 168.685 195.808,168.858 196.411,170.859 198.714 C 172.424 200.516,172.401 200.579,168.909 204.091 C 165.328 207.694,165.382 207.680,162.736 205.663 L 160.720 204.125 158.260 205.106 C 155.108 206.362,155.267 206.157,154.908 209.412 L 154.600 212.200 149.600 212.200 L 144.600 212.200 144.198 209.414 C 143.854 207.036,143.649 206.559,142.798 206.156 C 142.249 205.896,141.047 205.320,140.126 204.876 L 138.453 204.068 136.354 205.634 C 133.639 207.660,133.788 207.695,130.241 204.227 C 127.192 201.247,126.657 200.148,127.795 199.204 C 128.123 198.932,128.772 198.093,129.238 197.339 L 130.085 195.967 129.176 193.484 C 128.675 192.118,128.207 190.926,128.134 190.834 C 128.062 190.743,126.697 190.473,125.101 190.234 L 122.200 189.800 122.200 184.800 L 122.200 179.800 125.066 179.466 C 127.798 179.147,127.953 179.073,128.405 177.866 C 128.666 177.170,129.211 175.964,129.617 175.186 L 130.355 173.771 128.782 171.786 C 127.916 170.694,127.207 169.530,127.204 169.199 C 127.199 168.489,133.120 162.400,133.815 162.400 C 134.242 162.400,136.287 163.785,136.800 164.420 C 137.619 165.436,138.616 165.456,140.958 164.506 C 143.746 163.375,143.827 163.284,144.389 160.669 C 145.151 157.129,145.032 157.200,150.200 157.200 C 154.311 157.200,154.814 157.278,155.186 157.974 M145.419 172.061 C 132.244 176.514,132.546 193.781,145.887 198.802 C 148.140 199.650,153.042 199.173,155.755 197.843 C 171.093 190.318,161.585 166.599,145.419 172.061 M90.800 262.800 L 90.800 269.600 200.000 269.600 L 309.200 269.600 309.200 262.800 L 309.200 256.000 200.000 256.000 L 90.800 256.000 90.800 262.800 " stroke="none" fill="#e7edef" fill-rule="evenodd"></path><path id="path1" d="M178.500 0.275 C 176.465 0.360,174.800 0.603,174.800 0.815 C 174.800 1.027,173.540 1.200,172.000 1.200 C 170.400 1.200,169.200 1.371,169.200 1.600 C 169.200 1.820,168.221 2.000,167.024 2.000 C 165.827 2.000,164.736 2.180,164.600 2.400 C 164.464 2.620,163.474 2.800,162.400 2.800 C 161.326 2.800,160.336 2.980,160.200 3.200 C 160.064 3.420,159.254 3.600,158.400 3.600 C 157.546 3.600,156.736 3.780,156.600 4.000 C 156.464 4.220,155.654 4.400,154.800 4.400 C 153.946 4.400,153.136 4.580,153.000 4.800 C 152.864 5.020,152.144 5.200,151.400 5.200 C 150.656 5.200,149.936 5.380,149.800 5.600 C 149.664 5.820,148.933 6.000,148.176 6.000 C 147.419 6.000,146.800 6.180,146.800 6.400 C 146.800 6.620,146.271 6.800,145.624 6.800 C 144.977 6.800,144.336 6.980,144.200 7.200 C 144.064 7.420,143.434 7.600,142.800 7.600 C 142.166 7.600,141.548 7.760,141.427 7.956 C 141.306 8.151,140.621 8.404,139.904 8.517 C 137.788 8.850,135.119 9.628,133.304 10.441 C 132.372 10.858,131.347 11.200,131.028 11.200 C 130.709 11.200,130.336 11.380,130.200 11.600 C 130.064 11.820,129.601 12.000,129.171 12.000 C 128.741 12.000,128.032 12.180,127.595 12.400 C 127.158 12.620,126.442 12.980,126.005 13.200 C 125.568 13.420,124.938 13.600,124.605 13.600 C 124.272 13.600,124.000 13.780,124.000 14.000 C 124.000 14.220,123.728 14.400,123.395 14.400 C 122.807 14.400,122.382 14.567,120.505 15.538 C 120.013 15.792,119.338 16.000,119.005 16.000 C 118.672 16.000,118.400 16.180,118.400 16.400 C 118.400 16.620,118.040 16.800,117.600 16.800 C 117.160 16.800,116.800 16.980,116.800 17.200 C 116.800 17.420,116.451 17.600,116.024 17.600 C 115.597 17.600,115.136 17.780,115.000 18.000 C 114.864 18.220,114.403 18.400,113.976 18.400 C 113.549 18.400,113.200 18.580,113.200 18.800 C 113.200 19.020,112.840 19.200,112.400 19.200 C 111.960 19.200,111.600 19.380,111.600 19.600 C 111.600 19.820,111.366 20.000,111.080 20.000 C 110.344 20.000,108.407 20.941,108.403 21.300 C 108.401 21.465,108.055 21.600,107.633 21.600 C 107.212 21.600,106.807 21.735,106.733 21.900 C 106.566 22.276,104.436 23.575,103.500 23.871 C 103.115 23.993,102.800 24.252,102.800 24.447 C 102.800 24.641,102.440 24.800,102.000 24.800 C 101.560 24.800,101.200 24.980,101.200 25.200 C 101.200 25.420,101.055 25.555,100.878 25.500 C 100.576 25.406,97.635 26.765,97.200 27.200 C 96.597 27.803,94.373 29.200,94.016 29.200 C 93.787 29.200,93.600 29.380,93.600 29.600 C 93.600 29.820,93.306 30.000,92.947 30.000 C 92.588 30.000,92.003 30.316,91.647 30.703 C 91.291 31.089,90.505 31.660,89.900 31.970 C 89.295 32.281,88.800 32.685,88.800 32.868 C 88.800 33.050,88.480 33.200,88.088 33.200 C 87.697 33.200,87.117 33.560,86.800 34.000 C 86.483 34.440,86.020 34.800,85.771 34.800 C 85.522 34.800,84.754 35.340,84.063 36.000 C 83.372 36.660,82.575 37.200,82.292 37.200 C 82.009 37.200,81.517 37.560,81.200 38.000 C 80.883 38.440,80.485 38.800,80.316 38.800 C 79.976 38.800,78.793 39.723,77.368 41.100 C 76.856 41.595,76.248 42.000,76.018 42.000 C 75.788 42.000,75.600 42.210,75.600 42.467 C 75.600 42.723,75.483 42.817,75.341 42.674 C 75.198 42.531,74.793 42.735,74.441 43.126 C 74.088 43.518,73.170 44.274,72.400 44.806 C 71.630 45.339,70.370 46.410,69.600 47.187 C 68.830 47.964,67.480 49.138,66.600 49.795 C 65.720 50.452,63.516 52.522,61.702 54.395 C 57.724 58.502,58.502 57.724,54.395 61.702 C 52.522 63.516,50.452 65.712,49.795 66.583 C 49.138 67.454,47.655 69.147,46.500 70.345 C 45.345 71.544,44.400 72.668,44.400 72.844 C 44.400 73.020,43.961 73.603,43.424 74.139 C 42.888 74.676,42.558 75.224,42.691 75.358 C 42.824 75.491,42.723 75.600,42.467 75.600 C 42.210 75.600,42.000 75.788,42.000 76.018 C 42.000 76.248,41.595 76.856,41.100 77.368 C 39.723 78.793,38.800 79.976,38.800 80.316 C 38.800 80.485,38.440 80.883,38.000 81.200 C 37.560 81.517,37.200 82.107,37.200 82.512 C 37.200 82.916,37.020 83.136,36.800 83.000 C 36.580 82.864,36.400 83.033,36.400 83.376 C 36.400 83.719,36.250 84.000,36.068 84.000 C 35.885 84.000,35.481 84.495,35.170 85.100 C 34.860 85.705,34.289 86.491,33.903 86.847 C 33.516 87.203,33.200 87.788,33.200 88.147 C 33.200 88.506,33.050 88.800,32.868 88.800 C 32.685 88.800,32.281 89.295,31.970 89.900 C 31.660 90.505,31.089 91.291,30.703 91.647 C 30.316 92.003,30.000 92.588,30.000 92.947 C 30.000 93.306,29.820 93.600,29.600 93.600 C 29.380 93.600,29.200 93.787,29.200 94.016 C 29.200 94.390,27.734 96.699,27.178 97.200 C 26.650 97.677,25.276 100.743,25.494 100.960 C 25.626 101.092,25.523 101.200,25.267 101.200 C 25.010 101.200,24.800 101.545,24.800 101.967 C 24.800 102.388,24.665 102.793,24.500 102.867 C 24.124 103.034,22.825 105.164,22.529 106.100 C 22.407 106.485,22.148 106.800,21.953 106.800 C 21.759 106.800,21.600 107.160,21.600 107.600 C 21.600 108.040,21.465 108.401,21.300 108.403 C 20.941 108.407,20.000 110.344,20.000 111.080 C 20.000 111.366,19.820 111.600,19.600 111.600 C 19.380 111.600,19.200 111.960,19.200 112.400 C 19.200 112.840,19.020 113.200,18.800 113.200 C 18.580 113.200,18.400 113.549,18.400 113.976 C 18.400 114.403,18.220 114.864,18.000 115.000 C 17.780 115.136,17.600 115.597,17.600 116.024 C 17.600 116.451,17.420 116.800,17.200 116.800 C 16.980 116.800,16.800 117.160,16.800 117.600 C 16.800 118.040,16.620 118.400,16.400 118.400 C 16.180 118.400,16.000 118.672,16.000 119.005 C 16.000 119.593,15.833 120.018,14.862 121.895 C 14.608 122.387,14.400 123.062,14.400 123.395 C 14.400 123.728,14.220 124.000,14.000 124.000 C 13.780 124.000,13.600 124.272,13.600 124.605 C 13.600 124.938,13.392 125.613,13.138 126.105 C 12.166 127.984,12.000 128.407,12.000 129.000 C 12.000 129.336,11.841 129.923,11.647 130.305 C 11.452 130.687,11.092 131.495,10.847 132.100 C 10.601 132.705,10.235 133.605,10.034 134.100 C 9.556 135.277,8.776 138.259,8.517 139.904 C 8.404 140.621,8.151 141.306,7.956 141.427 C 7.760 141.548,7.600 142.166,7.600 142.800 C 7.600 143.434,7.420 144.064,7.200 144.200 C 6.980 144.336,6.800 144.977,6.800 145.624 C 6.800 146.271,6.620 146.800,6.400 146.800 C 6.180 146.800,6.000 147.419,6.000 148.176 C 6.000 148.933,5.820 149.664,5.600 149.800 C 5.380 149.936,5.200 150.656,5.200 151.400 C 5.200 152.144,5.020 152.864,4.800 153.000 C 4.580 153.136,4.400 153.856,4.400 154.600 C 4.400 155.344,4.220 156.064,4.000 156.200 C 3.780 156.336,3.600 157.236,3.600 158.200 C 3.600 159.164,3.420 160.064,3.200 160.200 C 2.980 160.336,2.800 161.337,2.800 162.424 C 2.800 163.511,2.620 164.400,2.400 164.400 C 2.178 164.400,2.000 165.467,2.000 166.800 C 2.000 168.133,1.822 169.200,1.600 169.200 C 1.372 169.200,1.200 170.389,1.200 171.967 C 1.200 173.824,1.036 174.788,0.700 174.900 C -0.032 175.144,-0.032 224.856,0.700 225.100 C 1.036 225.212,1.200 226.176,1.200 228.033 C 1.200 229.611,1.372 230.800,1.600 230.800 C 1.822 230.800,2.000 231.867,2.000 233.200 C 2.000 234.533,2.178 235.600,2.400 235.600 C 2.620 235.600,2.800 236.489,2.800 237.576 C 2.800 238.663,2.980 239.664,3.200 239.800 C 3.420 239.936,3.600 240.836,3.600 241.800 C 3.600 242.764,3.780 243.664,4.000 243.800 C 4.220 243.936,4.400 244.656,4.400 245.400 C 4.400 246.144,4.580 246.864,4.800 247.000 C 5.020 247.136,5.200 247.856,5.200 248.600 C 5.200 249.344,5.380 250.064,5.600 250.200 C 5.820 250.336,6.000 251.067,6.000 251.824 C 6.000 252.581,6.180 253.200,6.400 253.200 C 6.620 253.200,6.800 253.729,6.800 254.376 C 6.800 255.023,6.980 255.664,7.200 255.800 C 7.420 255.936,7.600 256.566,7.600 257.200 C 7.600 257.834,7.760 258.452,7.956 258.573 C 8.151 258.694,8.404 259.379,8.517 260.096 C 8.850 262.212,9.628 264.881,10.441 266.696 C 10.858 267.628,11.200 268.653,11.200 268.972 C 11.200 269.291,11.380 269.664,11.600 269.800 C 11.820 269.936,12.000 270.487,12.000 271.024 C 12.000 271.561,12.180 272.000,12.400 272.000 C 12.620 272.000,12.800 272.439,12.800 272.976 C 12.800 273.513,12.980 274.064,13.200 274.200 C 13.420 274.336,13.600 274.797,13.600 275.224 C 13.600 275.651,13.780 276.000,14.000 276.000 C 14.220 276.000,14.400 276.272,14.400 276.605 C 14.400 276.938,14.580 277.568,14.800 278.005 C 15.020 278.442,15.380 279.158,15.600 279.595 C 15.820 280.032,16.000 280.662,16.000 280.995 C 16.000 281.328,16.180 281.600,16.400 281.600 C 16.620 281.600,16.800 281.960,16.800 282.400 C 16.800 282.840,16.941 283.200,17.113 283.200 C 17.285 283.200,17.665 284.010,17.957 285.000 C 18.249 285.990,18.648 286.800,18.844 286.800 C 19.040 286.800,19.200 287.160,19.200 287.600 C 19.200 288.040,19.380 288.400,19.600 288.400 C 19.820 288.400,20.000 288.760,20.000 289.200 C 20.000 289.640,20.180 290.000,20.400 290.000 C 20.620 290.000,20.800 290.360,20.800 290.800 C 20.800 291.240,20.980 291.600,21.200 291.600 C 21.420 291.600,21.600 291.945,21.600 292.367 C 21.600 292.788,21.735 293.193,21.900 293.267 C 22.276 293.434,23.575 295.564,23.871 296.500 C 23.993 296.885,24.252 297.200,24.447 297.200 C 24.641 297.200,24.800 297.560,24.800 298.000 C 24.800 298.440,24.960 298.800,25.157 298.800 C 25.353 298.800,25.632 299.272,25.777 299.850 C 25.922 300.427,26.751 301.970,27.620 303.278 C 28.489 304.586,29.200 305.824,29.200 306.028 C 29.200 306.233,29.380 306.400,29.600 306.400 C 29.820 306.400,30.000 306.694,30.000 307.053 C 30.000 307.412,30.316 307.997,30.703 308.353 C 31.089 308.709,31.660 309.495,31.970 310.100 C 32.281 310.705,32.685 311.200,32.868 311.200 C 33.050 311.200,33.200 311.494,33.200 311.853 C 33.200 312.212,33.516 312.797,33.903 313.153 C 34.289 313.509,34.860 314.295,35.170 314.900 C 35.481 315.505,35.885 316.000,36.068 316.000 C 36.250 316.000,36.400 316.281,36.400 316.624 C 36.400 316.967,36.580 317.136,36.800 317.000 C 37.020 316.864,37.200 317.084,37.200 317.488 C 37.200 317.893,37.560 318.483,38.000 318.800 C 38.440 319.117,38.800 319.707,38.800 320.112 C 38.800 320.516,38.953 320.753,39.140 320.637 C 39.327 320.522,39.717 320.871,40.007 321.414 C 40.298 321.956,40.685 322.400,40.868 322.400 C 41.050 322.400,41.200 322.681,41.200 323.024 C 41.200 323.367,41.380 323.536,41.600 323.400 C 41.820 323.264,42.000 323.356,42.000 323.605 C 42.000 323.854,42.225 324.294,42.500 324.584 C 42.775 324.874,43.360 325.615,43.800 326.230 C 45.008 327.919,46.475 329.685,47.597 330.800 C 48.150 331.350,49.140 332.520,49.796 333.400 C 50.747 334.675,53.752 337.744,58.118 341.898 C 58.292 342.064,59.912 343.734,61.718 345.608 C 63.523 347.483,65.720 349.553,66.600 350.208 C 67.480 350.864,68.830 352.036,69.600 352.813 C 70.370 353.590,71.630 354.664,72.400 355.200 C 73.170 355.735,74.019 356.360,74.286 356.587 C 75.697 357.786,75.985 358.000,76.187 358.000 C 76.308 358.000,76.972 358.540,77.663 359.200 C 78.354 359.860,79.083 360.400,79.283 360.400 C 79.483 360.400,79.536 360.580,79.400 360.800 C 79.264 361.020,79.523 361.200,79.976 361.200 C 80.429 361.200,80.800 361.350,80.800 361.532 C 80.800 361.715,81.292 362.120,81.893 362.432 C 82.494 362.745,83.511 363.495,84.152 364.100 C 84.794 364.705,85.522 365.200,85.771 365.200 C 86.020 365.200,86.483 365.560,86.800 366.000 C 87.117 366.440,87.657 366.800,88.000 366.800 C 88.343 366.800,88.883 367.160,89.200 367.600 C 89.517 368.040,90.014 368.400,90.305 368.400 C 90.596 368.400,91.220 368.760,91.692 369.200 C 92.164 369.640,92.787 370.000,93.075 370.000 C 93.364 370.000,93.600 370.180,93.600 370.400 C 93.600 370.620,93.793 370.800,94.028 370.800 C 94.263 370.800,95.241 371.340,96.200 372.000 C 97.159 372.660,98.063 373.200,98.209 373.200 C 98.355 373.200,98.928 373.558,99.484 373.995 C 100.039 374.432,100.653 374.691,100.847 374.571 C 101.041 374.451,101.200 374.543,101.200 374.776 C 101.200 375.009,101.560 375.200,102.000 375.200 C 102.440 375.200,102.801 375.335,102.803 375.500 C 102.805 375.665,103.210 375.998,103.703 376.240 C 106.111 377.422,108.213 378.630,108.333 378.900 C 108.407 379.065,108.812 379.200,109.233 379.200 C 109.655 379.200,110.000 379.380,110.000 379.600 C 110.000 379.820,110.360 380.000,110.800 380.000 C 111.240 380.000,111.600 380.180,111.600 380.400 C 111.600 380.620,111.949 380.800,112.376 380.800 C 112.803 380.800,113.264 380.980,113.400 381.200 C 113.536 381.420,113.997 381.600,114.424 381.600 C 114.851 381.600,115.200 381.780,115.200 382.000 C 115.200 382.220,115.560 382.400,116.000 382.400 C 116.440 382.400,116.800 382.580,116.800 382.800 C 116.800 383.020,117.160 383.200,117.600 383.200 C 118.040 383.200,118.400 383.380,118.400 383.600 C 118.400 383.820,118.672 384.000,119.005 384.000 C 119.338 384.000,119.968 384.180,120.405 384.400 C 120.842 384.620,121.558 384.980,121.995 385.200 C 122.432 385.420,123.062 385.600,123.395 385.600 C 123.728 385.600,124.000 385.741,124.000 385.913 C 124.000 386.085,124.855 386.474,125.900 386.778 C 126.945 387.082,127.890 387.443,128.000 387.581 C 128.367 388.039,139.448 391.600,140.508 391.600 C 141.083 391.600,141.664 391.780,141.800 392.000 C 141.936 392.220,142.476 392.400,143.000 392.400 C 143.524 392.400,144.064 392.580,144.200 392.800 C 144.336 393.020,144.966 393.200,145.600 393.200 C 146.234 393.200,146.864 393.380,147.000 393.600 C 147.136 393.820,147.766 394.000,148.400 394.000 C 149.034 394.000,149.664 394.180,149.800 394.400 C 149.936 394.620,150.656 394.800,151.400 394.800 C 152.144 394.800,152.864 394.980,153.000 395.200 C 153.136 395.420,153.856 395.600,154.600 395.600 C 155.344 395.600,156.064 395.780,156.200 396.000 C 156.336 396.220,157.236 396.400,158.200 396.400 C 159.164 396.400,160.064 396.580,160.200 396.800 C 160.336 397.020,161.326 397.200,162.400 397.200 C 163.474 397.200,164.464 397.380,164.600 397.600 C 164.736 397.820,165.827 398.000,167.024 398.000 C 168.221 398.000,169.200 398.180,169.200 398.400 C 169.200 398.628,170.389 398.800,171.967 398.800 C 173.824 398.800,174.788 398.964,174.900 399.300 C 175.144 400.032,224.856 400.032,225.100 399.300 C 225.212 398.964,226.176 398.800,228.033 398.800 C 229.611 398.800,230.800 398.628,230.800 398.400 C 230.800 398.174,231.933 398.000,233.400 398.000 C 234.867 398.000,236.000 397.826,236.000 397.600 C 236.000 397.380,236.900 397.200,238.000 397.200 C 239.100 397.200,240.000 397.020,240.000 396.800 C 240.000 396.580,240.709 396.400,241.576 396.400 C 242.443 396.400,243.264 396.220,243.400 396.000 C 243.536 395.780,244.346 395.600,245.200 395.600 C 246.054 395.600,246.864 395.420,247.000 395.200 C 247.136 394.980,247.856 394.800,248.600 394.800 C 249.344 394.800,250.064 394.620,250.200 394.400 C 250.336 394.180,250.966 394.000,251.600 394.000 C 252.234 394.000,252.864 393.820,253.000 393.600 C 253.136 393.380,253.766 393.200,254.400 393.200 C 255.034 393.200,255.664 393.020,255.800 392.800 C 255.936 392.580,256.566 392.400,257.200 392.400 C 257.834 392.400,258.464 392.220,258.600 392.000 C 258.736 391.780,259.205 391.600,259.642 391.600 C 260.410 391.600,266.172 389.905,267.800 389.199 C 268.240 389.009,269.320 388.617,270.200 388.329 C 271.080 388.040,271.900 387.669,272.022 387.504 C 272.145 387.339,272.730 387.164,273.322 387.115 C 273.915 387.066,274.400 386.885,274.400 386.713 C 274.400 386.541,274.745 386.400,275.167 386.400 C 275.588 386.400,275.993 386.237,276.067 386.038 C 276.140 385.839,276.650 385.614,277.200 385.538 C 277.750 385.462,278.290 385.310,278.400 385.200 C 278.878 384.722,280.439 384.000,280.995 384.000 C 281.328 384.000,281.600 383.820,281.600 383.600 C 281.600 383.380,281.960 383.200,282.400 383.200 C 282.840 383.200,283.200 383.020,283.200 382.800 C 283.200 382.580,283.549 382.400,283.976 382.400 C 284.403 382.400,284.864 382.220,285.000 382.000 C 285.136 381.780,285.597 381.600,286.024 381.600 C 286.451 381.600,286.800 381.420,286.800 381.200 C 286.800 380.980,287.160 380.800,287.600 380.800 C 288.040 380.800,288.400 380.620,288.400 380.400 C 288.400 380.180,288.760 380.000,289.200 380.000 C 289.640 380.000,290.000 379.820,290.000 379.600 C 290.000 379.380,290.360 379.200,290.800 379.200 C 291.240 379.200,291.600 379.020,291.600 378.800 C 291.600 378.580,291.945 378.400,292.367 378.400 C 292.788 378.400,293.193 378.265,293.267 378.100 C 293.340 377.935,294.255 377.367,295.300 376.837 C 296.345 376.308,297.200 375.723,297.200 375.537 C 297.200 375.352,297.560 375.200,298.000 375.200 C 298.440 375.200,298.800 375.056,298.800 374.880 C 298.800 374.705,299.385 374.348,300.100 374.089 C 300.815 373.829,302.361 372.983,303.535 372.208 C 304.709 371.434,305.834 370.800,306.035 370.800 C 306.236 370.800,306.400 370.642,306.400 370.449 C 306.400 370.255,306.940 369.873,307.600 369.600 C 308.260 369.327,308.800 368.945,308.800 368.751 C 308.800 368.558,309.036 368.400,309.325 368.400 C 309.613 368.400,310.236 368.040,310.708 367.600 C 311.180 367.160,311.778 366.800,312.036 366.800 C 312.295 366.800,312.797 366.484,313.153 366.097 C 313.509 365.711,314.295 365.140,314.900 364.830 C 315.505 364.519,316.000 364.115,316.000 363.932 C 316.000 363.750,316.281 363.600,316.624 363.600 C 316.967 363.600,317.136 363.420,317.000 363.200 C 316.864 362.980,317.084 362.800,317.488 362.800 C 317.893 362.800,318.483 362.440,318.800 362.000 C 319.117 361.560,319.607 361.200,319.888 361.200 C 320.170 361.200,320.400 361.020,320.400 360.800 C 320.400 360.580,320.630 360.400,320.912 360.400 C 321.193 360.400,321.683 360.040,322.000 359.600 C 322.317 359.160,322.817 358.800,323.112 358.800 C 323.406 358.800,323.536 358.620,323.400 358.400 C 323.264 358.180,323.433 358.000,323.776 358.000 C 324.119 358.000,324.400 357.790,324.400 357.533 C 324.400 357.277,324.517 357.183,324.659 357.326 C 324.802 357.469,325.207 357.272,325.559 356.888 C 325.912 356.505,326.888 355.679,327.730 355.053 C 328.571 354.426,329.833 353.348,330.535 352.657 C 331.237 351.966,332.529 350.862,333.406 350.205 C 334.282 349.548,336.484 347.478,338.298 345.605 C 342.276 341.498,341.498 342.276,345.605 338.298 C 347.478 336.484,349.548 334.280,350.205 333.400 C 350.862 332.520,352.036 331.170,352.813 330.400 C 353.590 329.630,354.661 328.370,355.194 327.600 C 355.726 326.830,356.482 325.912,356.874 325.559 C 357.265 325.207,357.469 324.802,357.326 324.659 C 357.183 324.517,357.277 324.400,357.533 324.400 C 357.790 324.400,358.000 324.212,358.000 323.982 C 358.000 323.752,358.405 323.144,358.900 322.632 C 360.277 321.207,361.200 320.024,361.200 319.684 C 361.200 319.515,361.560 319.117,362.000 318.800 C 362.440 318.483,362.800 317.893,362.800 317.488 C 362.800 317.084,362.980 316.864,363.200 317.000 C 363.420 317.136,363.600 316.967,363.600 316.624 C 363.600 316.281,363.750 316.000,363.932 316.000 C 364.115 316.000,364.519 315.505,364.830 314.900 C 365.140 314.295,365.711 313.509,366.097 313.153 C 366.484 312.797,366.800 312.295,366.800 312.036 C 366.800 311.778,367.160 311.180,367.600 310.708 C 368.040 310.236,368.400 309.613,368.400 309.325 C 368.400 309.036,368.558 308.800,368.751 308.800 C 368.945 308.800,369.327 308.260,369.600 307.600 C 369.873 306.940,370.255 306.400,370.449 306.400 C 370.642 306.400,370.800 306.207,370.800 305.972 C 370.800 305.737,371.340 304.759,372.000 303.800 C 372.660 302.841,373.200 301.863,373.200 301.628 C 373.200 301.393,373.366 301.200,373.568 301.200 C 373.771 301.200,374.055 300.660,374.200 300.000 C 374.345 299.340,374.629 298.800,374.832 298.800 C 375.034 298.800,375.200 298.455,375.200 298.033 C 375.200 297.612,375.335 297.207,375.500 297.133 C 375.876 296.966,377.175 294.836,377.471 293.900 C 377.593 293.515,377.852 293.200,378.047 293.200 C 378.241 293.200,378.400 292.840,378.400 292.400 C 378.400 291.960,378.580 291.600,378.800 291.600 C 379.020 291.600,379.200 291.240,379.200 290.800 C 379.200 290.360,379.380 290.000,379.600 290.000 C 379.820 290.000,380.000 289.640,380.000 289.200 C 380.000 288.760,380.180 288.400,380.400 288.400 C 380.620 288.400,380.800 288.040,380.800 287.600 C 380.800 287.160,380.980 286.800,381.200 286.800 C 381.420 286.800,381.600 286.451,381.600 286.024 C 381.600 285.597,381.780 285.136,382.000 285.000 C 382.220 284.864,382.400 284.403,382.400 283.976 C 382.400 283.549,382.580 283.200,382.800 283.200 C 383.020 283.200,383.200 282.840,383.200 282.400 C 383.200 281.960,383.380 281.600,383.600 281.600 C 383.820 281.600,384.000 281.328,384.000 280.995 C 384.000 280.662,384.180 280.032,384.400 279.595 C 384.620 279.158,384.980 278.442,385.200 278.005 C 385.420 277.568,385.600 276.938,385.600 276.605 C 385.600 276.272,385.780 276.000,386.000 276.000 C 386.220 276.000,386.400 275.640,386.400 275.200 C 386.400 274.760,386.541 274.400,386.713 274.400 C 386.885 274.400,387.066 273.905,387.116 273.300 C 387.166 272.695,387.385 272.140,387.603 272.067 C 387.822 271.993,388.000 271.586,388.000 271.161 C 388.000 270.737,388.179 270.077,388.397 269.695 C 389.070 268.519,391.594 260.653,391.597 259.724 C 391.599 259.242,391.780 258.736,392.000 258.600 C 392.220 258.464,392.400 257.834,392.400 257.200 C 392.400 256.566,392.580 255.936,392.800 255.800 C 393.020 255.664,393.200 255.034,393.200 254.400 C 393.200 253.766,393.380 253.136,393.600 253.000 C 393.820 252.864,394.000 252.234,394.000 251.600 C 394.000 250.966,394.180 250.336,394.400 250.200 C 394.620 250.064,394.800 249.344,394.800 248.600 C 394.800 247.856,394.980 247.136,395.200 247.000 C 395.420 246.864,395.600 246.144,395.600 245.400 C 395.600 244.656,395.780 243.936,396.000 243.800 C 396.220 243.664,396.400 242.764,396.400 241.800 C 396.400 240.836,396.580 239.936,396.800 239.800 C 397.020 239.664,397.200 238.663,397.200 237.576 C 397.200 236.489,397.380 235.600,397.600 235.600 C 397.822 235.600,398.000 234.533,398.000 233.200 C 398.000 231.867,398.178 230.800,398.400 230.800 C 398.627 230.800,398.800 229.627,398.800 228.080 C 398.800 226.437,398.998 225.162,399.300 224.860 C 400.031 224.129,400.031 175.144,399.300 174.900 C 398.964 174.788,398.800 173.824,398.800 171.967 C 398.800 170.389,398.628 169.200,398.400 169.200 C 398.178 169.200,398.000 168.133,398.000 166.800 C 398.000 165.467,397.822 164.400,397.600 164.400 C 397.380 164.400,397.200 163.511,397.200 162.424 C 397.200 161.337,397.020 160.336,396.800 160.200 C 396.580 160.064,396.400 159.164,396.400 158.200 C 396.400 157.236,396.220 156.336,396.000 156.200 C 395.780 156.064,395.600 155.344,395.600 154.600 C 395.600 153.856,395.420 153.136,395.200 153.000 C 394.980 152.864,394.800 152.144,394.800 151.400 C 394.800 150.656,394.620 149.936,394.400 149.800 C 394.180 149.664,394.000 149.034,394.000 148.400 C 394.000 147.766,393.820 147.136,393.600 147.000 C 393.380 146.864,393.200 146.234,393.200 145.600 C 393.200 144.966,393.020 144.336,392.800 144.200 C 392.580 144.064,392.400 143.434,392.400 142.800 C 392.400 142.166,392.220 141.536,392.000 141.400 C 391.780 141.264,391.599 140.758,391.597 140.276 C 391.594 139.347,389.070 131.481,388.397 130.305 C 388.179 129.923,388.000 129.248,388.000 128.805 C 388.000 128.362,387.853 128.000,387.672 128.000 C 387.492 128.000,387.100 127.100,386.800 126.000 C 386.500 124.900,386.108 124.000,385.928 124.000 C 385.747 124.000,385.600 123.728,385.600 123.395 C 385.600 123.062,385.420 122.432,385.200 121.995 C 384.980 121.558,384.620 120.842,384.400 120.405 C 384.180 119.968,384.000 119.338,384.000 119.005 C 384.000 118.672,383.820 118.400,383.600 118.400 C 383.380 118.400,383.200 118.040,383.200 117.600 C 383.200 117.160,383.020 116.800,382.800 116.800 C 382.580 116.800,382.400 116.350,382.400 115.800 C 382.400 115.250,382.220 114.800,382.000 114.800 C 381.780 114.800,381.600 114.440,381.600 114.000 C 381.600 113.560,381.420 113.200,381.200 113.200 C 380.980 113.200,380.800 112.840,380.800 112.400 C 380.800 111.960,380.620 111.600,380.400 111.600 C 380.180 111.600,380.000 111.240,380.000 110.800 C 380.000 110.360,379.820 110.000,379.600 110.000 C 379.380 110.000,379.200 109.640,379.200 109.200 C 379.200 108.760,379.020 108.400,378.800 108.400 C 378.580 108.400,378.400 108.055,378.400 107.633 C 378.400 107.212,378.265 106.807,378.100 106.733 C 377.724 106.566,376.425 104.436,376.129 103.500 C 376.007 103.115,375.748 102.800,375.553 102.800 C 375.359 102.800,375.200 102.440,375.200 102.000 C 375.200 101.560,375.020 101.200,374.800 101.200 C 374.580 101.200,374.445 101.055,374.500 100.878 C 374.594 100.576,373.235 97.635,372.800 97.200 C 372.197 96.597,370.800 94.373,370.800 94.016 C 370.800 93.787,370.620 93.600,370.400 93.600 C 370.180 93.600,370.000 93.364,370.000 93.075 C 370.000 92.787,369.640 92.164,369.200 91.692 C 368.760 91.220,368.400 90.596,368.400 90.305 C 368.400 90.014,368.040 89.517,367.600 89.200 C 367.160 88.883,366.800 88.343,366.800 88.000 C 366.800 87.657,366.440 87.117,366.000 86.800 C 365.560 86.483,365.200 86.020,365.200 85.771 C 365.200 85.522,364.660 84.754,364.000 84.063 C 363.340 83.372,362.800 82.575,362.800 82.292 C 362.800 82.009,362.440 81.517,362.000 81.200 C 361.560 80.883,361.200 80.293,361.200 79.888 C 361.200 79.484,361.020 79.264,360.800 79.400 C 360.580 79.536,360.400 79.439,360.400 79.184 C 360.400 78.929,359.860 78.217,359.200 77.600 C 358.540 76.983,358.000 76.281,358.000 76.040 C 358.000 75.798,357.790 75.600,357.533 75.600 C 357.277 75.600,357.183 75.483,357.326 75.341 C 357.469 75.198,357.265 74.793,356.874 74.441 C 356.482 74.088,355.726 73.170,355.194 72.400 C 354.661 71.630,353.584 70.370,352.800 69.600 C 352.016 68.830,350.936 67.570,350.400 66.800 C 349.864 66.030,347.800 63.828,345.813 61.906 C 341.458 57.695,342.305 58.542,338.094 54.187 C 336.172 52.200,333.983 50.140,333.229 49.609 C 332.474 49.078,330.871 47.689,329.666 46.522 C 328.461 45.355,327.332 44.400,327.156 44.400 C 326.980 44.400,326.378 43.942,325.818 43.382 C 325.258 42.822,324.800 42.460,324.800 42.578 C 324.800 42.822,323.547 41.832,322.168 40.500 C 321.656 40.005,321.038 39.600,320.795 39.600 C 320.552 39.600,320.464 39.420,320.600 39.200 C 320.736 38.980,320.516 38.800,320.112 38.800 C 319.707 38.800,319.117 38.440,318.800 38.000 C 318.483 37.560,317.991 37.200,317.708 37.200 C 317.425 37.200,316.628 36.660,315.937 36.000 C 315.246 35.340,314.478 34.800,314.229 34.800 C 313.980 34.800,313.517 34.440,313.200 34.000 C 312.883 33.560,312.303 33.200,311.912 33.200 C 311.520 33.200,311.200 33.050,311.200 32.868 C 311.200 32.685,310.705 32.280,310.100 31.968 C 309.495 31.655,308.651 31.085,308.225 30.700 C 307.798 30.315,307.213 30.000,306.925 30.000 C 306.636 30.000,306.400 29.820,306.400 29.600 C 306.400 29.380,306.229 29.200,306.020 29.200 C 305.811 29.200,304.866 28.696,303.920 28.080 C 302.974 27.465,301.480 26.610,300.600 26.180 C 299.720 25.751,298.940 25.265,298.867 25.100 C 298.793 24.935,298.403 24.800,298.000 24.800 C 297.597 24.800,297.207 24.665,297.133 24.500 C 296.966 24.124,294.836 22.825,293.900 22.529 C 293.515 22.407,293.200 22.148,293.200 21.953 C 293.200 21.759,292.840 21.600,292.400 21.600 C 291.960 21.600,291.599 21.465,291.597 21.300 C 291.593 20.941,289.656 20.000,288.920 20.000 C 288.634 20.000,288.400 19.820,288.400 19.600 C 288.400 19.380,288.029 19.200,287.576 19.200 C 287.123 19.200,286.864 19.020,287.000 18.800 C 287.140 18.574,286.812 18.400,286.247 18.400 C 285.697 18.400,285.136 18.220,285.000 18.000 C 284.864 17.780,284.403 17.600,283.976 17.600 C 283.549 17.600,283.200 17.420,283.200 17.200 C 283.200 16.980,282.840 16.800,282.400 16.800 C 281.960 16.800,281.600 16.620,281.600 16.400 C 281.600 16.180,281.328 16.000,280.995 16.000 C 280.439 16.000,278.878 15.278,278.400 14.800 C 278.290 14.690,277.750 14.538,277.200 14.462 C 276.650 14.386,276.140 14.161,276.067 13.962 C 275.993 13.763,275.676 13.600,275.361 13.600 C 275.047 13.600,274.432 13.420,273.995 13.200 C 273.558 12.980,272.842 12.620,272.405 12.400 C 271.968 12.180,271.336 12.000,271.000 12.000 C 270.664 12.000,270.077 11.841,269.695 11.647 C 269.313 11.452,268.550 11.116,268.000 10.900 C 267.450 10.684,266.550 10.318,266.000 10.088 C 264.767 9.570,261.840 8.792,260.096 8.517 C 259.379 8.404,258.694 8.151,258.573 7.956 C 258.452 7.760,257.834 7.600,257.200 7.600 C 256.566 7.600,255.936 7.420,255.800 7.200 C 255.664 6.980,255.023 6.800,254.376 6.800 C 253.729 6.800,253.200 6.620,253.200 6.400 C 253.200 6.180,252.581 6.000,251.824 6.000 C 251.067 6.000,250.336 5.820,250.200 5.600 C 250.064 5.380,249.344 5.200,248.600 5.200 C 247.856 5.200,247.136 5.020,247.000 4.800 C 246.864 4.580,246.144 4.400,245.400 4.400 C 244.656 4.400,243.936 4.220,243.800 4.000 C 243.664 3.780,242.753 3.600,241.776 3.600 C 240.799 3.600,240.000 3.420,240.000 3.200 C 240.000 2.980,239.010 2.800,237.800 2.800 C 236.590 2.800,235.600 2.620,235.600 2.400 C 235.600 2.178,234.533 2.000,233.200 2.000 C 231.867 2.000,230.800 1.822,230.800 1.600 C 230.800 1.372,229.611 1.200,228.033 1.200 C 226.201 1.200,225.211 1.034,225.103 0.708 C 224.941 0.223,187.959 -0.121,178.500 0.275 M295.641 124.508 C 298.629 126.504,298.399 121.083,298.399 189.323 C 298.400 254.186,298.426 253.292,296.496 254.810 C 295.503 255.592,294.467 255.600,199.707 255.600 L 103.921 255.600 102.760 254.358 L 101.600 253.115 101.600 190.119 L 101.600 127.123 102.459 125.918 C 104.201 123.471,97.343 123.633,200.041 123.616 L 294.282 123.600 295.641 124.508 M111.043 133.432 C 110.688 134.356,110.745 246.319,111.100 246.538 C 111.265 246.640,111.400 221.226,111.400 190.062 L 111.400 133.400 199.976 133.299 C 270.557 133.219,288.624 133.300,288.906 133.699 C 289.169 134.071,289.219 134.045,289.097 133.600 C 288.840 132.657,111.405 132.489,111.043 133.432 M281.511 154.400 L 281.622 167.200 235.816 167.200 L 190.011 167.200 189.897 154.500 L 189.783 141.800 189.791 154.800 L 189.800 167.800 235.000 167.910 C 259.860 167.970,280.605 167.922,281.100 167.802 L 282.000 167.585 282.000 154.592 C 282.000 147.447,281.865 141.600,281.700 141.600 C 281.535 141.600,281.450 147.360,281.511 154.400 M288.928 244.400 C 288.928 245.830,289.001 246.415,289.089 245.700 C 289.178 244.985,289.178 243.815,289.089 243.100 C 289.001 242.385,288.928 242.970,288.928 244.400 M309.200 262.800 C 309.200 267.319,309.058 269.600,308.776 269.600 C 308.543 269.600,308.458 269.771,308.588 269.980 C 308.717 270.189,307.511 271.719,305.908 273.380 L 302.994 276.400 199.965 276.400 L 96.935 276.400 94.037 273.411 C 92.443 271.767,91.253 270.237,91.393 270.011 C 91.533 269.785,91.457 269.600,91.224 269.600 C 90.942 269.600,90.800 267.319,90.800 262.800 L 90.800 256.000 200.000 256.000 L 309.200 256.000 309.200 262.800 " stroke="none" fill="#44c29b" fill-rule="evenodd"></path><path id="path2" d="M104.559 124.172 C 103.876 124.469,102.931 125.255,102.459 125.918 L 101.600 127.123 101.600 190.119 L 101.600 253.115 102.760 254.358 L 103.921 255.600 199.707 255.600 C 294.467 255.600,295.503 255.592,296.496 254.810 C 298.426 253.292,298.400 254.186,298.399 189.323 C 298.399 121.083,298.629 126.504,295.641 124.508 L 294.282 123.600 200.041 123.616 C 121.793 123.629,105.589 123.723,104.559 124.172 M289.101 189.901 L 289.203 246.802 200.101 246.701 L 111.000 246.600 110.890 190.600 C 110.830 159.800,110.879 134.195,110.998 133.699 L 111.216 132.798 200.108 132.899 L 289.000 133.000 289.101 189.901 M190.400 165.200 L 190.400 166.800 235.800 166.800 L 281.200 166.800 281.200 165.200 L 281.200 163.600 235.800 163.600 L 190.400 163.600 190.400 165.200 M91.393 270.011 C 91.253 270.237,92.443 271.767,94.037 273.411 L 96.935 276.400 199.965 276.400 L 302.994 276.400 305.908 273.380 C 307.511 271.719,308.717 270.189,308.588 269.980 C 308.250 269.434,91.731 269.465,91.393 270.011 " stroke="none" fill="#3a576f" fill-rule="evenodd"></path><path id="path3" d="M190.000 154.398 L 190.000 167.200 235.806 167.200 L 281.611 167.200 281.506 154.500 L 281.400 141.800 235.700 141.698 L 190.000 141.597 190.000 154.398 M281.200 165.200 L 281.200 166.800 235.800 166.800 L 190.400 166.800 190.400 165.200 L 190.400 163.600 235.800 163.600 L 281.200 163.600 281.200 165.200 " stroke="none" fill="#28a4db" fill-rule="evenodd"></path><path id="path4" d="M145.216 157.969 C 144.990 158.392,144.618 159.607,144.389 160.669 C 143.827 163.284,143.746 163.375,140.958 164.506 C 138.616 165.456,137.619 165.436,136.800 164.420 C 136.287 163.785,134.242 162.400,133.815 162.400 C 133.120 162.400,127.199 168.489,127.204 169.199 C 127.207 169.530,127.916 170.694,128.782 171.786 L 130.355 173.771 129.617 175.186 C 129.211 175.964,128.666 177.170,128.405 177.866 C 127.953 179.073,127.798 179.147,125.066 179.466 L 122.200 179.800 122.200 184.800 L 122.200 189.800 125.101 190.234 C 126.697 190.473,128.062 190.743,128.134 190.834 C 128.207 190.926,128.675 192.118,129.176 193.484 L 130.085 195.967 129.238 197.339 C 128.772 198.093,128.123 198.932,127.795 199.204 C 126.657 200.148,127.192 201.247,130.241 204.227 C 133.788 207.695,133.639 207.660,136.354 205.634 L 138.453 204.068 140.126 204.876 C 141.047 205.320,142.249 205.896,142.798 206.156 C 143.649 206.559,143.854 207.036,144.198 209.414 L 144.600 212.200 149.600 212.200 L 154.600 212.200 154.908 209.412 C 155.267 206.157,155.108 206.362,158.260 205.106 L 160.720 204.125 162.736 205.663 C 165.382 207.680,165.328 207.694,168.909 204.091 C 172.401 200.579,172.424 200.516,170.859 198.714 C 168.858 196.411,168.685 195.808,169.594 194.317 C 170.036 193.593,170.398 192.698,170.399 192.329 C 170.401 191.180,171.454 190.527,173.736 190.259 C 177.383 189.830,177.200 190.119,177.200 184.807 L 177.200 180.100 175.950 179.850 C 175.263 179.713,174.112 179.600,173.393 179.600 C 172.157 179.600,172.028 179.458,171.043 176.996 C 169.749 173.764,169.727 174.072,171.400 171.882 C 173.301 169.392,173.239 169.159,169.731 165.554 C 166.174 161.899,166.136 161.890,163.397 164.002 L 161.320 165.604 158.710 164.421 C 155.889 163.142,155.600 162.763,155.600 160.341 C 155.600 157.335,155.367 157.200,150.200 157.200 C 146.098 157.200,145.586 157.279,145.216 157.969 M153.106 171.770 C 168.525 175.875,166.205 198.406,150.287 199.142 C 136.734 199.769,130.353 181.976,141.308 174.109 C 144.841 171.572,149.151 170.717,153.106 171.770 " stroke="none" fill="#e06454" fill-rule="evenodd"></path></g></svg>