<svg id="svg" version="1.1" xmlns="http://www.w3.org/2000/svg" xmlns:xlink="http://www.w3.org/1999/xlink" width="400" height="400" viewBox="0, 0, 400,400"><g id="svgg"><path id="path0" d="M131.200 117.233 C 126.143 117.768,121.013 121.278,118.951 125.614 C 117.348 128.983,117.200 129.646,117.200 133.445 C 117.200 140.690,115.496 138.609,148.144 171.251 C 163.685 186.789,176.400 199.726,176.400 200.000 C 176.400 200.274,163.685 213.211,148.144 228.749 C 115.496 261.391,117.200 259.310,117.200 266.555 C 117.200 268.649,117.403 270.866,117.651 271.481 C 119.988 277.285,122.710 280.003,128.555 282.366 C 130.189 283.027,136.261 282.960,138.239 282.259 C 142.230 280.846,143.449 279.727,171.422 251.796 C 186.954 236.288,199.853 223.600,200.087 223.600 C 200.320 223.600,213.205 236.301,228.719 251.824 C 256.506 279.628,257.864 280.879,261.761 282.259 C 263.739 282.960,269.811 283.027,271.445 282.366 C 277.329 279.987,280.246 277.045,282.397 271.325 C 282.692 270.540,282.823 268.540,282.738 266.125 C 282.484 258.908,284.268 261.075,251.840 228.611 C 236.308 213.061,223.600 200.186,223.600 200.000 C 223.600 199.814,236.308 186.939,251.840 171.389 C 284.268 138.925,282.484 141.092,282.738 133.875 C 282.823 131.460,282.692 129.460,282.397 128.675 C 280.246 122.953,277.331 120.015,271.441 117.632 C 270.804 117.375,268.605 117.164,266.554 117.164 C 259.329 117.164,261.366 115.495,228.756 148.132 C 213.221 163.679,200.320 176.400,200.087 176.400 C 199.853 176.400,186.929 163.687,171.368 148.149 C 138.259 115.092,139.851 116.317,131.200 117.233 " stroke="none" fill="#fcfafa" fill-rule="evenodd"></path><path id="path1" d="M185.800 16.400 C 185.664 16.621,183.870 16.800,181.800 16.800 C 179.730 16.800,177.936 16.979,177.800 17.200 C 177.664 17.420,176.314 17.600,174.800 17.600 C 173.286 17.600,171.936 17.780,171.800 18.000 C 171.664 18.220,170.584 18.400,169.400 18.400 C 168.216 18.400,167.136 18.580,167.000 18.800 C 166.864 19.020,165.863 19.200,164.776 19.200 C 163.689 19.200,162.800 19.380,162.800 19.600 C 162.800 19.820,162.080 20.000,161.200 20.000 C 160.320 20.000,159.600 20.180,159.600 20.400 C 159.600 20.620,158.790 20.800,157.800 20.800 C 156.810 20.800,156.000 20.980,156.000 21.200 C 156.000 21.420,155.280 21.600,154.400 21.600 C 153.520 21.600,152.800 21.780,152.800 22.000 C 152.800 22.220,152.260 22.400,151.600 22.400 C 150.940 22.400,150.400 22.580,150.400 22.800 C 150.400 23.020,149.680 23.200,148.800 23.200 C 147.920 23.200,147.200 23.380,147.200 23.600 C 147.200 23.820,146.660 24.000,146.000 24.000 C 145.340 24.000,144.800 24.180,144.800 24.400 C 144.800 24.620,144.461 24.800,144.046 24.800 C 143.182 24.800,139.342 25.895,138.305 26.437 C 137.923 26.637,137.336 26.800,137.000 26.800 C 136.664 26.800,136.032 26.980,135.595 27.200 C 135.158 27.420,134.442 27.780,134.005 28.000 C 133.568 28.220,132.848 28.400,132.405 28.400 C 131.962 28.400,131.600 28.580,131.600 28.800 C 131.600 29.020,131.328 29.200,130.995 29.200 C 130.662 29.200,130.077 29.360,129.695 29.556 C 129.313 29.752,128.100 30.337,127.000 30.856 C 125.900 31.375,124.940 31.935,124.867 32.100 C 124.793 32.265,124.208 32.400,123.567 32.400 C 122.925 32.400,122.400 32.580,122.400 32.800 C 122.400 33.020,122.040 33.200,121.600 33.200 C 121.160 33.200,120.800 33.380,120.800 33.600 C 120.800 33.820,120.440 34.000,120.000 34.000 C 119.560 34.000,119.200 34.180,119.200 34.400 C 119.200 34.620,118.840 34.800,118.400 34.800 C 117.960 34.800,117.600 34.980,117.600 35.200 C 117.600 35.420,117.240 35.600,116.800 35.600 C 116.360 35.600,116.000 35.780,116.000 36.000 C 116.000 36.220,115.640 36.400,115.200 36.400 C 114.760 36.400,114.400 36.580,114.400 36.800 C 114.400 37.020,114.040 37.200,113.600 37.200 C 113.160 37.200,112.800 37.380,112.800 37.600 C 112.800 37.820,112.564 38.000,112.275 38.000 C 111.987 38.000,111.402 38.325,110.975 38.722 C 110.549 39.120,109.615 39.703,108.900 40.020 C 108.185 40.336,107.600 40.731,107.600 40.898 C 107.600 41.064,107.322 41.200,106.983 41.200 C 106.644 41.200,105.987 41.554,105.523 41.986 C 105.059 42.419,104.553 42.695,104.400 42.600 C 104.247 42.505,103.741 42.781,103.277 43.214 C 102.813 43.646,102.156 44.000,101.817 44.000 C 101.478 44.000,101.200 44.158,101.200 44.351 C 101.200 44.545,100.660 44.927,100.000 45.200 C 99.340 45.473,98.800 45.855,98.800 46.049 C 98.800 46.242,98.564 46.400,98.275 46.400 C 97.987 46.400,97.364 46.760,96.892 47.200 C 96.420 47.640,95.873 48.000,95.676 48.000 C 95.479 48.000,94.754 48.540,94.063 49.200 C 93.372 49.860,92.692 50.400,92.551 50.400 C 92.409 50.400,91.991 50.749,91.622 51.175 C 91.252 51.601,90.705 52.006,90.407 52.075 C 90.108 52.144,89.153 52.875,88.284 53.700 C 87.415 54.525,86.527 55.200,86.312 55.200 C 86.097 55.200,85.417 55.740,84.800 56.400 C 84.183 57.060,83.526 57.602,83.340 57.605 C 82.893 57.612,80.239 59.804,78.325 61.748 C 77.486 62.600,76.800 63.181,76.800 63.040 C 76.800 62.681,62.947 76.679,61.000 79.006 C 60.120 80.058,58.995 81.333,58.500 81.841 C 58.005 82.348,57.600 82.951,57.600 83.181 C 57.600 83.411,56.880 84.363,56.000 85.297 C 55.120 86.231,54.400 87.149,54.400 87.337 C 54.400 87.525,53.860 88.183,53.200 88.800 C 52.540 89.417,52.000 90.169,52.000 90.472 C 52.000 90.775,51.640 91.283,51.200 91.600 C 50.760 91.917,50.400 92.319,50.400 92.492 C 50.400 92.665,49.860 93.372,49.200 94.063 C 48.540 94.754,48.000 95.479,48.000 95.676 C 48.000 95.873,47.640 96.420,47.200 96.892 C 46.760 97.364,46.400 97.987,46.400 98.275 C 46.400 98.564,46.242 98.800,46.049 98.800 C 45.855 98.800,45.473 99.340,45.200 100.000 C 44.927 100.660,44.545 101.200,44.351 101.200 C 44.158 101.200,44.000 101.397,44.000 101.638 C 44.000 101.879,43.660 102.554,43.244 103.138 C 42.828 103.722,42.463 104.290,42.433 104.400 C 42.402 104.510,42.272 105.003,42.143 105.496 C 42.014 105.988,41.750 106.292,41.555 106.172 C 41.360 106.051,41.200 106.323,41.200 106.776 C 41.200 107.229,41.064 107.600,40.898 107.600 C 40.731 107.600,40.336 108.185,40.020 108.900 C 39.703 109.615,39.120 110.549,38.722 110.975 C 38.325 111.402,38.000 111.987,38.000 112.275 C 38.000 112.564,37.820 112.800,37.600 112.800 C 37.380 112.800,37.200 113.160,37.200 113.600 C 37.200 114.040,37.020 114.400,36.800 114.400 C 36.580 114.400,36.400 114.760,36.400 115.200 C 36.400 115.640,36.220 116.000,36.000 116.000 C 35.780 116.000,35.600 116.360,35.600 116.800 C 35.600 117.240,35.420 117.600,35.200 117.600 C 34.980 117.600,34.800 117.960,34.800 118.400 C 34.800 118.840,34.620 119.200,34.400 119.200 C 34.180 119.200,34.000 119.560,34.000 120.000 C 34.000 120.440,33.820 120.800,33.600 120.800 C 33.380 120.800,33.200 121.160,33.200 121.600 C 33.200 122.040,33.020 122.400,32.800 122.400 C 32.580 122.400,32.400 122.925,32.400 123.567 C 32.400 124.208,32.265 124.793,32.100 124.867 C 31.935 124.940,31.375 125.900,30.856 127.000 C 30.337 128.100,29.752 129.313,29.556 129.695 C 29.360 130.077,29.200 130.662,29.200 130.995 C 29.200 131.328,29.020 131.600,28.800 131.600 C 28.580 131.600,28.400 132.140,28.400 132.800 C 28.400 133.460,28.220 134.000,28.000 134.000 C 27.780 134.000,27.600 134.349,27.600 134.776 C 27.600 135.203,27.420 135.664,27.200 135.800 C 26.980 135.936,26.800 136.451,26.800 136.944 C 26.800 137.437,26.584 138.056,26.320 138.320 C 26.056 138.584,25.963 138.800,26.114 138.800 C 26.265 138.800,26.031 139.707,25.594 140.815 C 25.157 141.923,24.800 143.273,24.800 143.815 C 24.800 144.357,24.620 144.800,24.400 144.800 C 24.180 144.800,24.000 145.340,24.000 146.000 C 24.000 146.660,23.820 147.200,23.600 147.200 C 23.380 147.200,23.200 147.920,23.200 148.800 C 23.200 149.680,23.020 150.400,22.800 150.400 C 22.580 150.400,22.400 150.940,22.400 151.600 C 22.400 152.260,22.220 152.800,22.000 152.800 C 21.780 152.800,21.600 153.520,21.600 154.400 C 21.600 155.280,21.420 156.000,21.200 156.000 C 20.980 156.000,20.800 156.810,20.800 157.800 C 20.800 158.790,20.620 159.600,20.400 159.600 C 20.180 159.600,20.000 160.320,20.000 161.200 C 20.000 162.080,19.820 162.800,19.600 162.800 C 19.380 162.800,19.200 163.689,19.200 164.776 C 19.200 165.863,19.020 166.864,18.800 167.000 C 18.580 167.136,18.400 168.216,18.400 169.400 C 18.400 170.584,18.220 171.664,18.000 171.800 C 17.780 171.936,17.600 173.286,17.600 174.800 C 17.600 176.314,17.420 177.664,17.200 177.800 C 16.979 177.936,16.800 179.730,16.800 181.800 C 16.800 183.870,16.621 185.664,16.400 185.800 C 15.853 186.138,15.853 213.862,16.400 214.200 C 16.621 214.336,16.800 216.130,16.800 218.200 C 16.800 220.270,16.979 222.064,17.200 222.200 C 17.420 222.336,17.600 223.686,17.600 225.200 C 17.600 226.714,17.780 228.064,18.000 228.200 C 18.220 228.336,18.400 229.416,18.400 230.600 C 18.400 231.784,18.580 232.864,18.800 233.000 C 19.020 233.136,19.200 234.137,19.200 235.224 C 19.200 236.311,19.380 237.200,19.600 237.200 C 19.820 237.200,20.000 237.920,20.000 238.800 C 20.000 239.680,20.180 240.400,20.400 240.400 C 20.620 240.400,20.800 241.210,20.800 242.200 C 20.800 243.190,20.980 244.000,21.200 244.000 C 21.420 244.000,21.600 244.720,21.600 245.600 C 21.600 246.480,21.780 247.200,22.000 247.200 C 22.220 247.200,22.400 247.740,22.400 248.400 C 22.400 249.060,22.580 249.600,22.800 249.600 C 23.020 249.600,23.200 250.320,23.200 251.200 C 23.200 252.080,23.380 252.800,23.600 252.800 C 23.820 252.800,24.000 253.340,24.000 254.000 C 24.000 254.660,24.180 255.200,24.400 255.200 C 24.620 255.200,24.799 255.605,24.798 256.100 C 24.796 257.010,25.801 260.415,26.448 261.695 C 26.642 262.077,26.800 262.741,26.800 263.171 C 26.800 263.601,26.980 264.064,27.200 264.200 C 27.420 264.336,27.600 264.797,27.600 265.224 C 27.600 265.651,27.780 266.000,28.000 266.000 C 28.220 266.000,28.400 266.540,28.400 267.200 C 28.400 267.860,28.580 268.400,28.800 268.400 C 29.020 268.400,29.200 268.672,29.200 269.005 C 29.200 269.338,29.360 269.923,29.556 270.305 C 29.752 270.687,30.337 271.900,30.856 273.000 C 31.375 274.100,31.935 275.060,32.100 275.133 C 32.265 275.207,32.400 275.691,32.400 276.210 C 32.400 276.728,32.580 277.264,32.800 277.400 C 33.020 277.536,33.200 277.997,33.200 278.424 C 33.200 278.851,33.380 279.200,33.600 279.200 C 33.820 279.200,34.000 279.560,34.000 280.000 C 34.000 280.440,34.180 280.800,34.400 280.800 C 34.620 280.800,34.800 281.160,34.800 281.600 C 34.800 282.040,34.980 282.400,35.200 282.400 C 35.420 282.400,35.600 282.760,35.600 283.200 C 35.600 283.640,35.780 284.000,36.000 284.000 C 36.220 284.000,36.400 284.360,36.400 284.800 C 36.400 285.240,36.580 285.600,36.800 285.600 C 37.020 285.600,37.200 285.960,37.200 286.400 C 37.200 286.840,37.380 287.200,37.600 287.200 C 37.820 287.200,38.000 287.436,38.000 287.725 C 38.000 288.013,38.325 288.598,38.722 289.025 C 39.120 289.451,39.703 290.385,40.020 291.100 C 40.336 291.815,40.731 292.400,40.898 292.400 C 41.064 292.400,41.200 292.771,41.200 293.224 C 41.200 293.677,41.361 293.948,41.557 293.826 C 41.754 293.705,42.036 294.088,42.184 294.678 C 42.332 295.268,42.801 296.240,43.227 296.837 C 43.652 297.435,44.000 298.121,44.000 298.362 C 44.000 298.603,44.158 298.800,44.351 298.800 C 44.545 298.800,44.927 299.340,45.200 300.000 C 45.473 300.660,45.855 301.200,46.049 301.200 C 46.242 301.200,46.400 301.436,46.400 301.725 C 46.400 302.013,46.760 302.636,47.200 303.108 C 47.640 303.580,48.000 304.127,48.000 304.324 C 48.000 304.521,48.540 305.246,49.200 305.937 C 49.860 306.628,50.400 307.308,50.400 307.449 C 50.400 307.591,50.749 308.009,51.175 308.378 C 51.601 308.748,52.006 309.295,52.075 309.593 C 52.144 309.892,52.875 310.847,53.700 311.716 C 54.525 312.585,55.200 313.473,55.200 313.688 C 55.200 313.903,55.740 314.583,56.400 315.200 C 57.060 315.817,57.600 316.479,57.600 316.671 C 57.600 317.018,58.725 318.385,61.413 321.307 C 62.176 322.135,62.800 322.897,62.800 322.998 C 62.800 323.240,76.760 337.200,77.002 337.200 C 77.103 337.200,77.865 337.824,78.693 338.587 C 81.615 341.275,82.982 342.400,83.329 342.400 C 83.521 342.400,84.183 342.940,84.800 343.600 C 85.417 344.260,86.097 344.800,86.312 344.800 C 86.527 344.800,87.445 345.520,88.352 346.400 C 89.259 347.280,90.231 348.000,90.512 348.000 C 90.793 348.000,91.283 348.360,91.600 348.800 C 91.917 349.240,92.367 349.600,92.600 349.600 C 92.833 349.600,93.283 349.960,93.600 350.400 C 93.917 350.840,94.407 351.200,94.688 351.200 C 94.970 351.200,95.200 351.380,95.200 351.600 C 95.200 351.820,95.388 352.000,95.617 352.000 C 95.846 352.000,96.420 352.360,96.892 352.800 C 97.364 353.240,97.987 353.600,98.275 353.600 C 98.564 353.600,98.800 353.758,98.800 353.951 C 98.800 354.145,99.340 354.527,100.000 354.800 C 100.660 355.073,101.200 355.455,101.200 355.649 C 101.200 355.842,101.478 356.000,101.817 356.000 C 102.156 356.000,102.810 356.351,103.271 356.780 C 103.731 357.209,104.625 357.674,105.258 357.813 C 105.890 357.951,106.305 358.230,106.180 358.433 C 106.055 358.635,106.323 358.800,106.776 358.800 C 107.229 358.800,107.600 358.936,107.600 359.102 C 107.600 359.269,108.185 359.664,108.900 359.980 C 109.615 360.297,110.549 360.880,110.975 361.278 C 111.402 361.675,111.987 362.000,112.275 362.000 C 112.564 362.000,112.800 362.180,112.800 362.400 C 112.800 362.620,113.160 362.800,113.600 362.800 C 114.040 362.800,114.400 362.980,114.400 363.200 C 114.400 363.420,114.760 363.600,115.200 363.600 C 115.640 363.600,116.000 363.780,116.000 364.000 C 116.000 364.220,116.360 364.400,116.800 364.400 C 117.240 364.400,117.600 364.580,117.600 364.800 C 117.600 365.020,117.960 365.200,118.400 365.200 C 118.840 365.200,119.200 365.380,119.200 365.600 C 119.200 365.820,119.560 366.000,120.000 366.000 C 120.440 366.000,120.800 366.180,120.800 366.400 C 120.800 366.620,121.149 366.800,121.576 366.800 C 122.003 366.800,122.464 366.980,122.600 367.200 C 122.736 367.420,123.272 367.600,123.790 367.600 C 124.309 367.600,124.793 367.735,124.867 367.900 C 124.940 368.065,125.900 368.625,127.000 369.144 C 128.100 369.663,129.313 370.248,129.695 370.444 C 130.077 370.640,130.662 370.800,130.995 370.800 C 131.328 370.800,131.600 370.980,131.600 371.200 C 131.600 371.420,132.140 371.600,132.800 371.600 C 133.460 371.600,134.000 371.780,134.000 372.000 C 134.000 372.220,134.349 372.400,134.776 372.400 C 135.203 372.400,135.664 372.580,135.800 372.800 C 135.936 373.020,136.399 373.200,136.829 373.200 C 137.259 373.200,137.923 373.363,138.305 373.563 C 139.342 374.105,143.182 375.200,144.046 375.200 C 144.461 375.200,144.800 375.380,144.800 375.600 C 144.800 375.820,145.340 376.000,146.000 376.000 C 146.660 376.000,147.200 376.180,147.200 376.400 C 147.200 376.620,147.920 376.800,148.800 376.800 C 149.680 376.800,150.400 376.980,150.400 377.200 C 150.400 377.420,150.940 377.600,151.600 377.600 C 152.260 377.600,152.800 377.780,152.800 378.000 C 152.800 378.220,153.509 378.400,154.376 378.400 C 155.243 378.400,156.064 378.580,156.200 378.800 C 156.336 379.020,157.157 379.200,158.024 379.200 C 158.891 379.200,159.600 379.380,159.600 379.600 C 159.600 379.820,160.309 380.000,161.176 380.000 C 162.043 380.000,162.864 380.180,163.000 380.400 C 163.136 380.620,164.227 380.800,165.424 380.800 C 166.621 380.800,167.600 380.980,167.600 381.200 C 167.600 381.422,168.667 381.600,170.000 381.600 C 171.333 381.600,172.400 381.778,172.400 382.000 C 172.400 382.229,173.600 382.400,175.200 382.400 C 176.800 382.400,178.000 382.571,178.000 382.800 C 178.000 383.038,179.525 383.200,181.776 383.200 C 183.863 383.200,185.663 383.379,185.800 383.600 C 186.139 384.148,213.600 384.148,213.600 383.600 C 213.600 383.359,215.267 383.200,217.800 383.200 C 220.333 383.200,222.000 383.041,222.000 382.800 C 222.000 382.569,223.259 382.400,224.976 382.400 C 226.613 382.400,228.064 382.220,228.200 382.000 C 228.336 381.780,229.337 381.600,230.424 381.600 C 231.511 381.600,232.400 381.420,232.400 381.200 C 232.400 380.980,233.379 380.800,234.576 380.800 C 235.773 380.800,236.864 380.620,237.000 380.400 C 237.136 380.180,237.957 380.000,238.824 380.000 C 239.691 380.000,240.400 379.820,240.400 379.600 C 240.400 379.380,241.210 379.200,242.200 379.200 C 243.190 379.200,244.000 379.020,244.000 378.800 C 244.000 378.580,244.731 378.400,245.624 378.400 C 246.604 378.400,247.149 378.242,247.000 378.000 C 246.853 377.762,247.329 377.600,248.176 377.600 C 248.959 377.600,249.600 377.420,249.600 377.200 C 249.600 376.980,250.320 376.800,251.200 376.800 C 252.080 376.800,252.800 376.620,252.800 376.400 C 252.800 376.180,253.340 376.000,254.000 376.000 C 254.660 376.000,255.200 375.820,255.200 375.600 C 255.200 375.380,255.605 375.201,256.100 375.202 C 257.010 375.204,260.415 374.199,261.695 373.552 C 262.077 373.358,262.741 373.200,263.171 373.200 C 263.601 373.200,264.064 373.020,264.200 372.800 C 264.336 372.580,264.797 372.400,265.224 372.400 C 265.651 372.400,266.000 372.220,266.000 372.000 C 266.000 371.780,266.540 371.600,267.200 371.600 C 267.860 371.600,268.400 371.420,268.400 371.200 C 268.400 370.980,268.636 370.800,268.925 370.800 C 269.447 370.800,271.604 369.870,274.538 368.381 C 275.384 367.951,276.419 367.600,276.838 367.600 C 277.257 367.600,277.600 367.420,277.600 367.200 C 277.600 366.980,277.960 366.800,278.400 366.800 C 278.840 366.800,279.200 366.620,279.200 366.400 C 279.200 366.180,279.560 366.000,280.000 366.000 C 280.440 366.000,280.800 365.820,280.800 365.600 C 280.800 365.380,281.160 365.200,281.600 365.200 C 282.040 365.200,282.400 365.020,282.400 364.800 C 282.400 364.580,282.760 364.400,283.200 364.400 C 283.640 364.400,284.000 364.220,284.000 364.000 C 284.000 363.780,284.360 363.600,284.800 363.600 C 285.240 363.600,285.600 363.420,285.600 363.200 C 285.600 362.980,285.960 362.800,286.400 362.800 C 286.840 362.800,287.200 362.620,287.200 362.400 C 287.200 362.180,287.470 362.000,287.800 362.000 C 288.130 362.000,288.400 361.848,288.400 361.663 C 288.400 361.477,289.255 360.892,290.300 360.363 C 291.345 359.833,292.260 359.265,292.333 359.100 C 292.407 358.935,292.822 358.800,293.257 358.800 C 293.692 358.800,293.948 358.639,293.826 358.443 C 293.705 358.246,294.099 357.962,294.703 357.812 C 295.306 357.661,296.363 357.110,297.051 356.586 C 297.738 356.063,298.413 355.747,298.551 355.884 C 298.688 356.021,298.800 355.945,298.800 355.715 C 298.800 355.485,299.340 355.073,300.000 354.800 C 300.660 354.527,301.200 354.145,301.200 353.951 C 301.200 353.758,301.436 353.600,301.725 353.600 C 302.013 353.600,302.636 353.240,303.108 352.800 C 303.580 352.360,304.154 352.000,304.383 352.000 C 304.612 352.000,304.800 351.820,304.800 351.600 C 304.800 351.380,305.030 351.200,305.312 351.200 C 305.593 351.200,306.083 350.840,306.400 350.400 C 306.717 349.960,307.167 349.600,307.400 349.600 C 307.633 349.600,308.083 349.240,308.400 348.800 C 308.717 348.360,309.225 348.000,309.528 348.000 C 309.831 348.000,310.583 347.460,311.200 346.800 C 311.817 346.140,312.497 345.600,312.712 345.600 C 312.927 345.600,313.845 344.880,314.752 344.000 C 315.659 343.120,316.589 342.400,316.819 342.400 C 317.048 342.400,317.652 341.995,318.159 341.500 C 318.667 341.005,319.943 339.880,320.997 339.000 C 323.368 337.018,336.864 323.549,338.876 321.156 C 339.688 320.190,340.813 318.860,341.376 318.200 C 341.938 317.540,342.399 316.847,342.400 316.660 C 342.400 316.474,342.940 315.817,343.600 315.200 C 344.260 314.583,344.800 313.903,344.800 313.688 C 344.800 313.473,345.520 312.555,346.400 311.648 C 347.280 310.741,348.000 309.769,348.000 309.488 C 348.000 309.207,348.360 308.717,348.800 308.400 C 349.240 308.083,349.600 307.633,349.600 307.400 C 349.600 307.167,349.960 306.717,350.400 306.400 C 350.840 306.083,351.200 305.593,351.200 305.312 C 351.200 305.030,351.380 304.800,351.600 304.800 C 351.820 304.800,352.000 304.612,352.000 304.383 C 352.000 304.154,352.360 303.580,352.800 303.108 C 353.240 302.636,353.600 302.013,353.600 301.725 C 353.600 301.436,353.758 301.200,353.951 301.200 C 354.145 301.200,354.527 300.660,354.800 300.000 C 355.073 299.340,355.455 298.800,355.649 298.800 C 355.842 298.800,356.000 298.603,356.000 298.362 C 356.000 298.121,356.348 297.435,356.773 296.837 C 357.199 296.240,357.668 295.268,357.816 294.678 C 357.964 294.088,358.246 293.705,358.443 293.826 C 358.639 293.948,358.800 293.677,358.800 293.224 C 358.800 292.771,358.936 292.400,359.102 292.400 C 359.269 292.400,359.664 291.815,359.980 291.100 C 360.297 290.385,360.880 289.451,361.278 289.025 C 361.675 288.598,362.000 288.013,362.000 287.725 C 362.000 287.436,362.180 287.200,362.400 287.200 C 362.620 287.200,362.800 286.840,362.800 286.400 C 362.800 285.960,362.980 285.600,363.200 285.600 C 363.420 285.600,363.600 285.240,363.600 284.800 C 363.600 284.360,363.780 284.000,364.000 284.000 C 364.220 284.000,364.400 283.640,364.400 283.200 C 364.400 282.760,364.580 282.400,364.800 282.400 C 365.020 282.400,365.200 282.040,365.200 281.600 C 365.200 281.160,365.380 280.800,365.600 280.800 C 365.820 280.800,366.000 280.440,366.000 280.000 C 366.000 279.560,366.180 279.200,366.400 279.200 C 366.620 279.200,366.800 278.840,366.800 278.400 C 366.800 277.960,366.980 277.600,367.200 277.600 C 367.420 277.600,367.600 277.257,367.600 276.838 C 367.600 276.419,367.951 275.384,368.381 274.538 C 369.870 271.604,370.800 269.447,370.800 268.925 C 370.800 268.636,370.980 268.400,371.200 268.400 C 371.420 268.400,371.600 267.860,371.600 267.200 C 371.600 266.540,371.780 266.000,372.000 266.000 C 372.220 266.000,372.400 265.651,372.400 265.224 C 372.400 264.797,372.580 264.336,372.800 264.200 C 373.020 264.064,373.200 263.601,373.200 263.171 C 373.200 262.741,373.358 262.077,373.552 261.695 C 374.199 260.415,375.204 257.010,375.202 256.100 C 375.201 255.605,375.380 255.200,375.600 255.200 C 375.820 255.200,376.000 254.660,376.000 254.000 C 376.000 253.340,376.180 252.800,376.400 252.800 C 376.620 252.800,376.800 252.080,376.800 251.200 C 376.800 250.320,376.980 249.600,377.200 249.600 C 377.420 249.600,377.600 249.060,377.600 248.400 C 377.600 247.740,377.780 247.200,378.000 247.200 C 378.220 247.200,378.400 246.480,378.400 245.600 C 378.400 244.720,378.580 244.000,378.800 244.000 C 379.020 244.000,379.200 243.201,379.200 242.224 C 379.200 241.247,379.380 240.336,379.600 240.200 C 379.820 240.064,380.000 239.344,380.000 238.600 C 380.000 237.856,380.180 237.136,380.400 237.000 C 380.620 236.864,380.800 235.773,380.800 234.576 C 380.800 233.379,380.980 232.400,381.200 232.400 C 381.420 232.400,381.600 231.511,381.600 230.424 C 381.600 229.337,381.780 228.336,382.000 228.200 C 382.220 228.064,382.400 226.613,382.400 224.976 C 382.400 223.259,382.569 222.000,382.800 222.000 C 383.038 222.000,383.200 220.475,383.200 218.224 C 383.200 216.137,383.379 214.337,383.600 214.200 C 383.854 214.043,384.000 208.870,384.000 200.000 C 384.000 191.130,383.854 185.957,383.600 185.800 C 383.379 185.663,383.200 183.863,383.200 181.776 C 383.200 179.525,383.038 178.000,382.800 178.000 C 382.569 178.000,382.400 176.741,382.400 175.024 C 382.400 173.387,382.220 171.936,382.000 171.800 C 381.780 171.664,381.600 170.663,381.600 169.576 C 381.600 168.489,381.420 167.600,381.200 167.600 C 380.980 167.600,380.800 166.621,380.800 165.424 C 380.800 164.227,380.620 163.136,380.400 163.000 C 380.180 162.864,380.000 162.043,380.000 161.176 C 380.000 160.309,379.820 159.600,379.600 159.600 C 379.380 159.600,379.200 158.790,379.200 157.800 C 379.200 156.810,379.020 156.000,378.800 156.000 C 378.580 156.000,378.400 155.280,378.400 154.400 C 378.400 153.520,378.220 152.800,378.000 152.800 C 377.780 152.800,377.600 152.260,377.600 151.600 C 377.600 150.940,377.420 150.400,377.200 150.400 C 376.980 150.400,376.800 149.680,376.800 148.800 C 376.800 147.920,376.620 147.200,376.400 147.200 C 376.180 147.200,376.000 146.660,376.000 146.000 C 376.000 145.340,375.820 144.800,375.600 144.800 C 375.380 144.800,375.200 144.357,375.200 143.815 C 375.200 143.273,374.843 141.923,374.406 140.815 C 373.969 139.707,373.735 138.800,373.886 138.800 C 374.037 138.800,373.944 138.584,373.680 138.320 C 373.416 138.056,373.200 137.437,373.200 136.944 C 373.200 136.451,373.020 135.936,372.800 135.800 C 372.580 135.664,372.400 135.203,372.400 134.776 C 372.400 134.349,372.220 134.000,372.000 134.000 C 371.780 134.000,371.600 133.460,371.600 132.800 C 371.600 132.140,371.420 131.600,371.200 131.600 C 370.980 131.600,370.800 131.328,370.800 130.995 C 370.800 130.662,370.641 130.077,370.446 129.695 C 368.624 126.122,367.600 123.764,367.600 123.144 C 367.600 122.735,367.420 122.400,367.200 122.400 C 366.980 122.400,366.800 122.040,366.800 121.600 C 366.800 121.160,366.665 120.799,366.500 120.797 C 366.141 120.793,365.200 118.856,365.200 118.120 C 365.200 117.834,365.020 117.600,364.800 117.600 C 364.580 117.600,364.400 117.240,364.400 116.800 C 364.400 116.360,364.220 116.000,364.000 116.000 C 363.780 116.000,363.600 115.640,363.600 115.200 C 363.600 114.760,363.420 114.400,363.200 114.400 C 362.980 114.400,362.800 114.040,362.800 113.600 C 362.800 113.160,362.620 112.800,362.400 112.800 C 362.180 112.800,362.000 112.564,362.000 112.275 C 362.000 111.987,361.675 111.402,361.278 110.975 C 360.880 110.549,360.297 109.615,359.980 108.900 C 359.664 108.185,359.269 107.600,359.102 107.600 C 358.936 107.600,358.800 107.240,358.800 106.800 C 358.800 106.360,358.638 106.000,358.439 106.000 C 358.241 106.000,357.889 105.505,357.658 104.900 C 357.254 103.841,356.015 101.614,355.599 101.200 C 355.489 101.090,355.144 100.505,354.832 99.900 C 354.520 99.295,354.115 98.800,353.932 98.800 C 353.750 98.800,353.600 98.564,353.600 98.275 C 353.600 97.987,353.285 97.402,352.900 96.975 C 352.515 96.549,351.948 95.711,351.640 95.114 C 351.332 94.516,350.927 94.122,350.740 94.237 C 350.553 94.353,350.400 94.167,350.400 93.824 C 350.400 93.481,350.220 93.200,350.000 93.200 C 349.780 93.200,349.600 92.996,349.600 92.747 C 349.600 92.498,349.251 91.991,348.825 91.622 C 348.399 91.252,347.994 90.705,347.925 90.407 C 347.856 90.108,347.125 89.153,346.300 88.284 C 345.475 87.415,344.800 86.527,344.800 86.312 C 344.800 86.097,344.260 85.417,343.600 84.800 C 342.940 84.183,342.400 83.526,342.400 83.340 C 342.399 83.153,341.938 82.460,341.376 81.800 C 340.813 81.140,339.688 79.810,338.876 78.844 C 336.864 76.451,323.368 62.982,320.997 61.000 C 319.943 60.120,318.667 58.995,318.159 58.500 C 317.652 58.005,317.049 57.600,316.819 57.600 C 316.589 57.600,315.637 56.880,314.703 56.000 C 313.769 55.120,312.851 54.400,312.663 54.400 C 312.475 54.400,311.817 53.860,311.200 53.200 C 310.583 52.540,309.831 52.000,309.528 52.000 C 309.225 52.000,308.717 51.640,308.400 51.200 C 308.083 50.760,307.593 50.400,307.312 50.400 C 307.030 50.400,306.800 50.220,306.800 50.000 C 306.800 49.780,306.519 49.600,306.176 49.600 C 305.833 49.600,305.647 49.447,305.763 49.260 C 305.878 49.073,305.484 48.668,304.886 48.360 C 304.289 48.052,303.451 47.485,303.025 47.100 C 302.598 46.715,302.096 46.400,301.908 46.400 C 301.720 46.400,301.180 46.040,300.708 45.600 C 300.236 45.160,299.613 44.800,299.325 44.800 C 299.036 44.800,298.800 44.651,298.800 44.470 C 298.800 44.288,297.720 43.613,296.401 42.970 C 295.081 42.326,294.001 41.665,294.001 41.500 C 294.000 41.335,293.640 41.200,293.200 41.200 C 292.760 41.200,292.400 41.054,292.400 40.875 C 292.400 40.696,291.766 40.301,290.991 39.997 C 290.217 39.693,289.289 39.119,288.929 38.722 C 288.570 38.325,288.034 38.000,287.738 38.000 C 287.442 38.000,287.200 37.820,287.200 37.600 C 287.200 37.380,286.840 37.200,286.400 37.200 C 285.960 37.200,285.600 37.020,285.600 36.800 C 285.600 36.580,285.240 36.400,284.800 36.400 C 284.360 36.400,284.000 36.220,284.000 36.000 C 284.000 35.780,283.640 35.600,283.200 35.600 C 282.760 35.600,282.400 35.420,282.400 35.200 C 282.400 34.980,282.040 34.800,281.600 34.800 C 281.160 34.800,280.800 34.620,280.800 34.400 C 280.800 34.180,280.440 34.000,280.000 34.000 C 279.560 34.000,279.200 33.820,279.200 33.600 C 279.200 33.380,278.840 33.200,278.400 33.200 C 277.960 33.200,277.600 33.020,277.600 32.800 C 277.600 32.580,277.265 32.400,276.856 32.400 C 276.236 32.400,273.878 31.376,270.305 29.554 C 269.923 29.359,269.338 29.200,269.005 29.200 C 268.672 29.200,268.400 29.020,268.400 28.800 C 268.400 28.580,267.860 28.400,267.200 28.400 C 266.540 28.400,266.000 28.220,266.000 28.000 C 266.000 27.780,265.651 27.600,265.224 27.600 C 264.797 27.600,264.336 27.420,264.200 27.200 C 264.064 26.980,263.601 26.800,263.171 26.800 C 262.741 26.800,262.077 26.642,261.695 26.448 C 260.415 25.801,257.010 24.796,256.100 24.798 C 255.605 24.799,255.200 24.620,255.200 24.400 C 255.200 24.180,254.660 24.000,254.000 24.000 C 253.340 24.000,252.800 23.820,252.800 23.600 C 252.800 23.380,252.080 23.200,251.200 23.200 C 250.320 23.200,249.600 23.020,249.600 22.800 C 249.600 22.580,249.060 22.400,248.400 22.400 C 247.740 22.400,247.200 22.220,247.200 22.000 C 247.200 21.780,246.480 21.600,245.600 21.600 C 244.720 21.600,244.000 21.420,244.000 21.200 C 244.000 20.980,243.190 20.800,242.200 20.800 C 241.210 20.800,240.400 20.620,240.400 20.400 C 240.400 20.180,239.680 20.000,238.800 20.000 C 237.920 20.000,237.200 19.820,237.200 19.600 C 237.200 19.380,236.311 19.200,235.224 19.200 C 234.137 19.200,233.136 19.020,233.000 18.800 C 232.864 18.580,231.784 18.400,230.600 18.400 C 229.416 18.400,228.336 18.220,228.200 18.000 C 228.064 17.780,226.714 17.600,225.200 17.600 C 223.686 17.600,222.336 17.420,222.200 17.200 C 222.064 16.979,220.270 16.800,218.200 16.800 C 216.130 16.800,214.336 16.621,214.200 16.400 C 213.862 15.853,186.138 15.853,185.800 16.400 M140.600 117.967 C 143.243 119.219,144.990 120.881,171.700 147.540 L 200.000 175.787 228.300 147.540 C 260.559 115.342,258.785 116.818,265.639 116.478 C 276.236 115.953,284.047 123.764,283.522 134.361 C 283.182 141.215,284.658 139.441,252.460 171.700 L 224.213 200.000 252.460 228.300 C 279.154 255.045,280.779 256.754,282.029 259.400 C 287.570 271.133,278.713 284.170,265.639 283.522 C 258.785 283.182,260.559 284.658,228.300 252.460 L 200.000 224.213 171.700 252.460 C 139.441 284.658,141.215 283.182,134.361 283.522 C 121.287 284.170,112.430 271.133,117.971 259.400 C 119.221 256.754,120.846 255.045,147.540 228.300 L 175.787 200.000 147.540 171.700 C 115.342 139.441,116.818 141.215,116.478 134.361 C 115.831 121.303,128.899 112.422,140.600 117.967 " stroke="none" fill="#f44434" fill-rule="evenodd"></path><path id="path2" d="M129.200 116.800 C 128.408 117.054,128.367 117.120,129.000 117.120 C 129.440 117.120,130.250 116.976,130.800 116.800 C 131.592 116.546,131.633 116.480,131.000 116.480 C 130.560 116.480,129.750 116.624,129.200 116.800 M136.000 116.800 C 136.550 116.976,137.360 117.120,137.800 117.120 C 138.433 117.120,138.392 117.054,137.600 116.800 C 137.050 116.624,136.240 116.480,135.800 116.480 C 135.167 116.480,135.208 116.546,136.000 116.800 M262.400 116.800 C 261.608 117.054,261.567 117.120,262.200 117.120 C 262.640 117.120,263.450 116.976,264.000 116.800 C 264.792 116.546,264.833 116.480,264.200 116.480 C 263.760 116.480,262.950 116.624,262.400 116.800 M269.200 116.800 C 269.750 116.976,270.560 117.120,271.000 117.120 C 271.633 117.120,271.592 117.054,270.800 116.800 C 270.250 116.624,269.440 116.480,269.000 116.480 C 268.367 116.480,268.408 116.546,269.200 116.800 M126.089 117.865 C 125.368 118.220,124.842 118.575,124.921 118.654 C 124.999 118.733,125.769 118.445,126.632 118.014 C 127.494 117.584,128.020 117.229,127.800 117.225 C 127.580 117.221,126.810 117.509,126.089 117.865 M273.371 117.986 C 274.236 118.434,275.041 118.800,275.160 118.800 C 275.654 118.800,273.724 117.687,272.800 117.440 C 272.225 117.285,272.468 117.518,273.371 117.986 M140.800 118.145 C 140.800 118.249,141.475 118.736,142.300 119.226 C 143.125 119.716,156.445 132.734,171.900 148.155 L 200.000 176.192 228.100 148.155 C 243.555 132.734,256.875 119.716,257.700 119.226 C 258.525 118.736,259.200 118.249,259.200 118.145 C 259.200 117.086,252.491 123.478,228.300 147.585 L 200.000 175.787 171.700 147.585 C 147.509 123.478,140.800 117.086,140.800 118.145 M121.178 121.500 L 119.800 123.000 121.300 121.622 C 122.125 120.863,122.800 120.188,122.800 120.122 C 122.800 119.816,122.462 120.104,121.178 121.500 M278.400 121.400 C 279.146 122.170,279.847 122.800,279.957 122.800 C 280.067 122.800,279.546 122.170,278.800 121.400 C 278.054 120.630,277.353 120.000,277.243 120.000 C 277.133 120.000,277.654 120.630,278.400 121.400 M280.315 123.700 C 280.543 123.975,281.204 125.100,281.785 126.200 C 282.366 127.300,282.715 127.750,282.562 127.200 C 282.245 126.064,280.515 123.200,280.146 123.200 C 280.012 123.200,280.088 123.425,280.315 123.700 M117.852 126.146 C 116.927 128.095,117.070 128.524,118.014 126.632 C 118.445 125.769,118.731 124.998,118.651 124.917 C 118.570 124.837,118.211 125.390,117.852 126.146 M116.622 129.822 C 116.472 130.625,116.428 131.362,116.526 131.460 C 116.624 131.557,116.827 130.981,116.978 130.178 C 117.128 129.375,117.172 128.638,117.074 128.540 C 116.976 128.443,116.773 129.019,116.622 129.822 M282.880 129.000 C 282.880 129.440,283.024 130.250,283.200 130.800 C 283.454 131.592,283.520 131.633,283.520 131.000 C 283.520 130.560,283.376 129.750,283.200 129.200 C 282.946 128.408,282.880 128.367,282.880 129.000 M116.480 135.800 C 116.480 136.240,116.624 137.050,116.800 137.600 C 117.054 138.392,117.120 138.433,117.120 137.800 C 117.120 137.360,116.976 136.550,116.800 136.000 C 116.546 135.208,116.480 135.167,116.480 135.800 M283.022 136.622 C 282.872 137.425,282.828 138.162,282.926 138.260 C 283.024 138.357,283.227 137.781,283.378 136.978 C 283.528 136.175,283.572 135.438,283.474 135.340 C 283.376 135.243,283.173 135.819,283.022 136.622 M281.217 141.521 C 280.525 142.877,272.405 151.274,252.034 171.701 L 223.810 200.003 251.847 228.101 C 267.267 243.556,280.284 256.875,280.774 257.700 C 281.264 258.525,281.751 259.200,281.855 259.200 C 282.914 259.200,276.522 252.491,252.414 228.299 L 224.210 199.997 252.257 171.899 C 277.789 146.320,283.142 140.608,282.337 139.803 C 282.248 139.715,281.744 140.488,281.217 141.521 M118.669 142.100 C 119.062 142.815,132.074 156.135,147.585 171.700 L 175.787 200.000 147.585 228.300 C 123.478 252.491,117.086 259.200,118.145 259.200 C 118.249 259.200,118.736 258.525,119.226 257.700 C 119.716 256.875,132.734 243.555,148.155 228.100 L 176.192 200.000 148.155 171.900 C 132.734 156.445,119.716 143.125,119.226 142.300 C 118.134 140.462,117.679 140.299,118.669 142.100 M172.199 251.614 C 157.020 266.801,143.745 279.780,142.700 280.455 C 141.655 281.131,140.800 281.765,140.800 281.864 C 140.800 282.913,147.574 276.458,171.700 252.415 L 200.000 224.213 228.300 252.415 C 252.426 276.458,259.200 282.913,259.200 281.864 C 259.200 281.765,258.345 281.131,257.300 280.455 C 256.255 279.780,242.980 266.801,227.801 251.614 C 212.622 236.426,200.111 224.000,200.000 224.000 C 199.889 224.000,187.378 236.426,172.199 251.614 M116.622 263.022 C 116.472 263.825,116.428 264.562,116.526 264.660 C 116.624 264.757,116.827 264.181,116.978 263.378 C 117.128 262.575,117.172 261.838,117.074 261.740 C 116.976 261.643,116.773 262.219,116.622 263.022 M282.880 262.200 C 282.880 262.640,283.024 263.450,283.200 264.000 C 283.454 264.792,283.520 264.833,283.520 264.200 C 283.520 263.760,283.376 262.950,283.200 262.400 C 282.946 261.608,282.880 261.567,282.880 262.200 M116.480 269.000 C 116.480 269.440,116.624 270.250,116.800 270.800 C 117.054 271.592,117.120 271.633,117.120 271.000 C 117.120 270.560,116.976 269.750,116.800 269.200 C 116.546 268.408,116.480 268.367,116.480 269.000 M283.022 269.822 C 282.872 270.625,282.828 271.362,282.926 271.460 C 283.024 271.557,283.227 270.981,283.378 270.178 C 283.528 269.375,283.572 268.638,283.474 268.540 C 283.376 268.443,283.173 269.019,283.022 269.822 M117.440 272.800 C 117.687 273.724,118.800 275.654,118.800 275.160 C 118.800 275.041,118.434 274.236,117.986 273.371 C 117.518 272.468,117.285 272.225,117.440 272.800 M282.178 272.870 C 282.016 273.381,281.430 274.520,280.876 275.400 C 280.322 276.280,280.132 276.783,280.455 276.517 C 281.181 275.919,282.957 272.424,282.677 272.144 C 282.565 272.032,282.340 272.358,282.178 272.870 M121.200 278.600 C 121.946 279.370,122.647 280.000,122.757 280.000 C 122.867 280.000,122.346 279.370,121.600 278.600 C 120.854 277.830,120.153 277.200,120.043 277.200 C 119.933 277.200,120.454 277.830,121.200 278.600 M278.378 278.700 L 277.000 280.200 278.500 278.822 C 279.325 278.063,280.000 277.388,280.000 277.322 C 280.000 277.016,279.662 277.304,278.378 278.700 M123.200 280.146 C 123.200 280.515,126.064 282.245,127.200 282.562 C 127.750 282.715,127.300 282.366,126.200 281.785 C 125.100 281.204,123.975 280.543,123.700 280.315 C 123.425 280.088,123.200 280.012,123.200 280.146 M276.180 280.370 C 275.971 280.573,274.900 281.212,273.800 281.790 C 272.700 282.368,272.250 282.715,272.800 282.562 C 273.857 282.267,276.800 280.526,276.800 280.195 C 276.800 279.903,276.603 279.958,276.180 280.370 M129.200 283.200 C 129.750 283.376,130.560 283.520,131.000 283.520 C 131.633 283.520,131.592 283.454,130.800 283.200 C 130.250 283.024,129.440 282.880,129.000 282.880 C 128.367 282.880,128.408 282.946,129.200 283.200 M136.000 283.200 C 135.208 283.454,135.167 283.520,135.800 283.520 C 136.240 283.520,137.050 283.376,137.600 283.200 C 138.392 282.946,138.433 282.880,137.800 282.880 C 137.360 282.880,136.550 283.024,136.000 283.200 M262.400 283.200 C 262.950 283.376,263.760 283.520,264.200 283.520 C 264.833 283.520,264.792 283.454,264.000 283.200 C 263.450 283.024,262.640 282.880,262.200 282.880 C 261.567 282.880,261.608 282.946,262.400 283.200 M269.200 283.200 C 268.408 283.454,268.367 283.520,269.000 283.520 C 269.440 283.520,270.250 283.376,270.800 283.200 C 271.592 282.946,271.633 282.880,271.000 282.880 C 270.560 282.880,269.750 283.024,269.200 283.200 " stroke="none" fill="#f77f77" fill-rule="evenodd"></path><path id="path3" d="M131.105 117.083 C 131.602 117.179,132.322 117.175,132.705 117.075 C 133.087 116.975,132.680 116.896,131.800 116.901 C 130.920 116.905,130.607 116.987,131.105 117.083 M134.305 117.083 C 134.802 117.179,135.522 117.175,135.905 117.075 C 136.287 116.975,135.880 116.896,135.000 116.901 C 134.120 116.905,133.807 116.987,134.305 117.083 M264.305 117.083 C 264.802 117.179,265.522 117.175,265.905 117.075 C 266.287 116.975,265.880 116.896,265.000 116.901 C 264.120 116.905,263.807 116.987,264.305 117.083 M267.505 117.083 C 268.002 117.179,268.722 117.175,269.105 117.075 C 269.487 116.975,269.080 116.896,268.200 116.901 C 267.320 116.905,267.007 116.987,267.505 117.083 M139.633 118.149 C 140.045 118.517,142.400 119.600,142.400 119.421 C 142.400 119.190,140.182 118.000,139.753 118.000 C 139.596 118.000,139.542 118.067,139.633 118.149 M258.700 118.629 C 257.149 119.470,257.325 119.761,258.900 118.959 C 260.408 118.193,260.675 117.994,260.167 118.016 C 259.965 118.025,259.305 118.301,258.700 118.629 M143.771 120.697 C 144.415 121.409,145.030 121.904,145.138 121.796 C 145.245 121.688,145.258 121.555,145.167 121.500 C 145.075 121.445,144.460 120.951,143.800 120.401 L 142.600 119.403 143.771 120.697 M255.444 121.020 C 254.588 121.791,253.970 122.503,254.070 122.603 C 254.170 122.703,254.952 122.069,255.807 121.193 C 257.724 119.229,257.533 119.138,255.444 121.020 M121.396 121.604 C 120.766 122.262,120.366 122.800,120.507 122.800 C 120.872 122.800,122.880 120.747,122.695 120.562 C 122.611 120.477,122.026 120.946,121.396 121.604 M277.200 120.507 C 277.200 120.872,279.253 122.880,279.438 122.695 C 279.523 122.611,279.054 122.026,278.396 121.396 C 277.738 120.766,277.200 120.366,277.200 120.507 M152.000 128.567 C 152.000 128.988,153.205 130.128,153.421 129.912 C 153.522 129.811,153.244 129.402,152.802 129.002 C 152.361 128.603,152.000 128.407,152.000 128.567 M116.937 133.400 C 116.939 135.160,117.009 135.830,117.093 134.889 C 117.178 133.949,117.177 132.509,117.091 131.689 C 117.005 130.870,116.936 131.640,116.937 133.400 M282.937 133.400 C 282.939 135.160,283.009 135.830,283.093 134.889 C 283.178 133.949,283.177 132.509,283.091 131.689 C 283.005 130.870,282.936 131.640,282.937 133.400 M238.460 137.851 C 237.943 138.402,237.596 138.929,237.689 139.022 C 237.782 139.115,238.374 138.654,239.004 137.996 C 239.634 137.338,239.981 136.811,239.775 136.824 C 239.569 136.838,238.977 137.300,238.460 137.851 M118.000 139.753 C 118.000 140.182,119.190 142.400,119.421 142.400 C 119.531 142.400,119.323 141.815,118.959 141.100 C 118.217 139.640,118.000 139.336,118.000 139.753 M120.408 143.777 C 122.075 145.754,123.240 146.893,123.415 146.718 C 123.507 146.627,122.644 145.663,121.499 144.576 C 120.353 143.489,119.862 143.129,120.408 143.777 M279.000 144.000 C 278.368 144.660,278.019 145.190,278.225 145.178 C 278.578 145.157,280.639 142.800,280.305 142.800 C 280.220 142.800,279.632 143.340,279.000 144.000 M168.400 144.926 C 168.400 145.330,172.016 148.918,172.219 148.714 C 172.308 148.625,171.486 147.669,170.391 146.591 C 169.296 145.512,168.400 144.763,168.400 144.926 M228.697 147.700 C 227.210 149.185,226.135 150.400,226.308 150.400 C 226.702 150.400,231.820 145.263,231.578 145.111 C 231.480 145.050,230.184 146.215,228.697 147.700 M129.511 153.100 C 131.430 155.025,133.081 156.549,133.179 156.488 C 133.416 156.339,126.705 149.600,126.320 149.600 C 126.157 149.600,127.593 151.175,129.511 153.100 M269.663 153.459 C 268.487 154.669,267.598 155.731,267.686 155.819 C 267.774 155.907,268.910 154.904,270.210 153.590 C 271.511 152.275,272.401 151.213,272.187 151.230 C 271.974 151.246,270.838 152.250,269.663 153.459 M221.262 155.058 C 220.306 156.048,219.597 156.930,219.686 157.019 C 219.775 157.109,220.731 156.286,221.809 155.191 C 222.888 154.096,223.597 153.213,223.385 153.229 C 223.173 153.245,222.218 154.068,221.262 155.058 M136.000 159.321 C 136.000 159.724,140.417 164.117,140.619 163.915 C 140.707 163.827,139.704 162.690,138.390 161.390 C 137.075 160.089,136.000 159.158,136.000 159.321 M213.151 163.297 C 211.254 165.224,209.818 166.800,209.960 166.800 C 210.320 166.800,216.999 160.051,216.779 159.909 C 216.681 159.845,215.048 161.370,213.151 163.297 M184.800 161.326 C 184.800 161.730,188.416 165.318,188.619 165.114 C 188.708 165.025,187.886 164.069,186.791 162.991 C 185.696 161.912,184.800 161.163,184.800 161.326 M146.784 170.309 C 148.663 172.239,150.281 173.764,150.379 173.697 C 150.584 173.558,143.935 166.800,143.593 166.800 C 143.470 166.800,144.906 168.379,146.784 170.309 M253.263 169.859 C 252.087 171.069,251.198 172.131,251.286 172.219 C 251.374 172.307,252.510 171.304,253.810 169.990 C 255.111 168.675,256.001 167.613,255.787 167.630 C 255.574 167.646,254.438 168.650,253.263 169.859 M204.862 171.458 C 203.906 172.448,203.197 173.330,203.286 173.419 C 203.375 173.509,204.331 172.686,205.409 171.591 C 206.488 170.496,207.197 169.613,206.985 169.629 C 206.773 169.645,205.818 170.468,204.862 171.458 M153.200 176.526 C 153.200 176.930,156.816 180.518,157.019 180.314 C 157.108 180.225,156.286 179.269,155.191 178.191 C 154.096 177.112,153.200 176.363,153.200 176.526 M163.151 186.703 C 165.048 188.630,166.681 190.155,166.779 190.091 C 166.999 189.949,160.320 183.200,159.960 183.200 C 159.818 183.200,161.254 184.776,163.151 186.703 M236.462 186.658 C 235.506 187.648,234.797 188.530,234.886 188.619 C 234.975 188.709,235.931 187.886,237.009 186.791 C 238.088 185.696,238.797 184.813,238.585 184.829 C 238.373 184.845,237.418 185.668,236.462 186.658 M169.600 192.926 C 169.600 193.330,173.216 196.918,173.419 196.714 C 173.508 196.625,172.686 195.669,171.591 194.591 C 170.496 193.512,169.600 192.763,169.600 192.926 M171.262 205.058 C 170.306 206.048,169.597 206.930,169.686 207.019 C 169.775 207.109,170.731 206.286,171.809 205.191 C 172.888 204.096,173.597 203.213,173.385 203.229 C 173.173 203.245,172.218 204.068,171.262 205.058 M163.151 213.297 C 161.254 215.224,159.818 216.800,159.960 216.800 C 160.320 216.800,166.999 210.051,166.779 209.909 C 166.681 209.845,165.048 211.370,163.151 213.297 M234.800 211.326 C 234.800 211.730,238.416 215.318,238.619 215.114 C 238.708 215.025,237.886 214.069,236.791 212.991 C 235.696 211.912,234.800 211.163,234.800 211.326 M154.862 221.458 C 153.906 222.448,153.197 223.330,153.286 223.419 C 153.375 223.509,154.331 222.686,155.409 221.591 C 156.488 220.496,157.197 219.613,156.985 219.629 C 156.773 219.645,155.818 220.468,154.862 221.458 M146.790 229.676 C 144.914 231.614,143.478 233.200,143.599 233.200 C 143.946 233.200,150.578 226.440,150.379 226.289 C 150.281 226.214,148.665 227.739,146.790 229.676 M203.200 226.526 C 203.200 226.930,206.816 230.518,207.019 230.314 C 207.108 230.225,206.286 229.269,205.191 228.191 C 204.096 227.112,203.200 226.363,203.200 226.526 M251.200 227.721 C 251.200 228.124,255.617 232.517,255.819 232.315 C 255.907 232.227,254.904 231.090,253.590 229.790 C 252.275 228.489,251.200 227.558,251.200 227.721 M213.151 236.703 C 215.048 238.630,216.681 240.155,216.779 240.091 C 216.999 239.949,210.320 233.200,209.960 233.200 C 209.818 233.200,211.254 234.776,213.151 236.703 M186.462 236.658 C 185.506 237.648,184.797 238.530,184.886 238.619 C 184.975 238.709,185.931 237.886,187.009 236.791 C 188.088 235.696,188.797 234.813,188.585 234.829 C 188.373 234.845,187.418 235.668,186.462 236.658 M138.063 238.259 C 136.887 239.469,135.998 240.531,136.086 240.619 C 136.174 240.707,137.310 239.704,138.610 238.390 C 139.911 237.075,140.801 236.013,140.587 236.030 C 140.374 236.046,139.238 237.050,138.063 238.259 M219.600 242.926 C 219.600 243.330,223.216 246.918,223.419 246.714 C 223.508 246.625,222.686 245.669,221.591 244.591 C 220.496 243.512,219.600 242.763,219.600 242.926 M129.511 246.900 C 127.593 248.825,126.157 250.400,126.320 250.400 C 126.705 250.400,133.416 243.661,133.179 243.512 C 133.081 243.451,131.430 244.975,129.511 246.900 M267.600 244.121 C 267.600 244.524,272.017 248.917,272.219 248.715 C 272.307 248.627,271.304 247.490,269.990 246.190 C 268.675 244.889,267.600 243.958,267.600 244.121 M228.697 252.300 C 230.184 253.785,231.480 254.950,231.578 254.889 C 231.820 254.737,226.702 249.600,226.308 249.600 C 226.135 249.600,227.210 250.815,228.697 252.300 M170.062 253.058 C 169.106 254.048,168.397 254.930,168.486 255.019 C 168.575 255.109,169.531 254.286,170.609 253.191 C 171.688 252.096,172.397 251.213,172.185 251.229 C 171.973 251.245,171.018 252.068,170.062 253.058 M122.200 254.149 C 119.853 256.792,119.633 257.194,121.508 255.415 C 122.658 254.323,123.600 253.378,123.600 253.315 C 123.600 252.949,122.892 253.371,122.200 254.149 M278.000 254.925 C 278.000 254.994,278.573 255.579,279.274 256.225 L 280.549 257.400 279.574 256.122 C 278.747 255.037,278.000 254.469,278.000 254.925 M118.581 258.837 C 118.229 259.518,118.012 260.145,118.099 260.232 C 118.186 260.319,118.556 259.762,118.922 258.995 C 119.744 257.270,119.459 257.138,118.581 258.837 M237.600 260.943 C 237.600 261.356,239.612 263.322,239.820 263.113 C 239.914 263.019,239.454 262.426,238.796 261.796 C 238.138 261.166,237.600 260.782,237.600 260.943 M116.937 266.600 C 116.939 268.360,117.009 269.030,117.093 268.089 C 117.178 267.149,117.177 265.709,117.091 264.889 C 117.005 264.070,116.936 264.840,116.937 266.600 M282.937 266.600 C 282.939 268.360,283.009 269.030,283.093 268.089 C 283.178 267.149,283.177 265.709,283.091 264.889 C 283.005 264.070,282.936 264.840,282.937 266.600 M152.460 270.642 C 152.162 270.978,151.999 271.332,152.095 271.429 C 152.192 271.526,152.598 271.244,152.998 270.802 C 153.397 270.361,153.561 270.007,153.362 270.015 C 153.163 270.024,152.757 270.305,152.460 270.642 M120.800 277.548 C 120.800 277.720,121.250 278.283,121.800 278.800 C 122.350 279.317,122.800 279.626,122.800 279.488 C 122.800 279.350,122.350 278.786,121.800 278.236 C 121.250 277.686,120.800 277.377,120.800 277.548 M254.000 277.429 C 254.000 277.676,254.390 278.056,256.218 279.595 C 256.989 280.243,256.850 280.000,255.819 278.895 C 254.230 277.192,254.000 277.007,254.000 277.429 M278.114 278.242 C 277.627 278.769,277.371 279.200,277.545 279.200 C 277.718 279.200,278.283 278.750,278.800 278.200 C 279.317 277.650,279.573 277.219,279.370 277.242 C 279.166 277.265,278.601 277.715,278.114 278.242 M143.771 279.303 L 142.600 280.597 143.800 279.599 C 144.460 279.049,145.075 278.555,145.167 278.500 C 145.258 278.445,145.245 278.312,145.138 278.204 C 145.030 278.096,144.415 278.591,143.771 279.303 M131.105 283.083 C 131.602 283.179,132.322 283.175,132.705 283.075 C 133.087 282.975,132.680 282.896,131.800 282.901 C 130.920 282.905,130.607 282.987,131.105 283.083 M134.305 283.083 C 134.802 283.179,135.522 283.175,135.905 283.075 C 136.287 282.975,135.880 282.896,135.000 282.901 C 134.120 282.905,133.807 282.987,134.305 283.083 M264.305 283.083 C 264.802 283.179,265.522 283.175,265.905 283.075 C 266.287 282.975,265.880 282.896,265.000 282.901 C 264.120 282.905,263.807 282.987,264.305 283.083 M267.505 283.083 C 268.002 283.179,268.722 283.175,269.105 283.075 C 269.487 282.975,269.080 282.896,268.200 282.901 C 267.320 282.905,267.007 282.987,267.505 283.083 " stroke="none" fill="#fca49c" fill-rule="evenodd"></path><path id="path4" d="M132.505 116.687 C 133.114 116.779,134.014 116.777,134.505 116.682 C 134.997 116.587,134.500 116.511,133.400 116.514 C 132.300 116.517,131.897 116.595,132.505 116.687 M265.705 116.687 C 266.314 116.779,267.214 116.777,267.705 116.682 C 268.197 116.587,267.700 116.511,266.600 116.514 C 265.500 116.517,265.097 116.595,265.705 116.687 M246.175 130.100 L 245.000 131.400 246.300 130.225 C 247.015 129.579,247.600 128.994,247.600 128.925 C 247.600 128.616,247.270 128.888,246.175 130.100 M116.514 133.400 C 116.517 134.500,116.595 134.903,116.687 134.295 C 116.779 133.686,116.777 132.786,116.682 132.295 C 116.587 131.803,116.511 132.300,116.514 133.400 M283.314 133.400 C 283.317 134.500,283.395 134.903,283.487 134.295 C 283.579 133.686,283.577 132.786,283.482 132.295 C 283.387 131.803,283.311 132.300,283.314 133.400 M229.381 146.900 L 227.800 148.600 229.500 147.019 C 231.081 145.548,231.384 145.200,231.081 145.200 C 231.016 145.200,230.251 145.965,229.381 146.900 M130.200 154.000 C 131.506 155.320,132.665 156.400,132.775 156.400 C 132.885 156.400,131.906 155.320,130.600 154.000 C 129.294 152.680,128.135 151.600,128.025 151.600 C 127.915 151.600,128.894 152.680,130.200 154.000 M212.987 163.300 L 210.600 165.800 213.100 163.413 C 214.475 162.099,215.600 160.974,215.600 160.913 C 215.600 160.617,215.205 160.978,212.987 163.300 M146.200 170.000 C 147.728 171.540,149.069 172.800,149.179 172.800 C 149.289 172.800,148.128 171.540,146.600 170.000 C 145.072 168.460,143.731 167.200,143.621 167.200 C 143.511 167.200,144.672 168.460,146.200 170.000 M163.000 186.800 C 164.306 188.120,165.465 189.200,165.575 189.200 C 165.685 189.200,164.706 188.120,163.400 186.800 C 162.094 185.480,160.935 184.400,160.825 184.400 C 160.715 184.400,161.694 185.480,163.000 186.800 M162.987 213.300 L 160.600 215.800 163.100 213.413 C 165.422 211.195,165.783 210.800,165.487 210.800 C 165.426 210.800,164.301 211.925,162.987 213.300 M145.787 230.500 L 143.400 233.000 145.900 230.613 C 147.275 229.299,148.400 228.174,148.400 228.113 C 148.400 227.817,148.005 228.178,145.787 230.500 M213.000 236.800 C 214.306 238.120,215.465 239.200,215.575 239.200 C 215.685 239.200,214.706 238.120,213.400 236.800 C 212.094 235.480,210.935 234.400,210.825 234.400 C 210.715 234.400,211.694 235.480,213.000 236.800 M130.187 246.100 L 127.800 248.600 130.300 246.213 C 132.622 243.995,132.983 243.600,132.687 243.600 C 132.626 243.600,131.501 244.725,130.187 246.100 M229.400 253.200 C 230.259 254.080,231.052 254.800,231.162 254.800 C 231.272 254.800,230.659 254.080,229.800 253.200 C 228.941 252.320,228.148 251.600,228.038 251.600 C 227.928 251.600,228.541 252.320,229.400 253.200 M116.514 266.600 C 116.517 267.700,116.595 268.103,116.687 267.495 C 116.779 266.886,116.777 265.986,116.682 265.495 C 116.587 265.003,116.511 265.500,116.514 266.600 M283.314 266.600 C 283.317 267.700,283.395 268.103,283.487 267.495 C 283.579 266.886,283.577 265.986,283.482 265.495 C 283.387 265.003,283.311 265.500,283.314 266.600 M245.200 268.925 C 245.200 268.994,245.785 269.579,246.500 270.225 L 247.800 271.400 246.625 270.100 C 245.530 268.888,245.200 268.616,245.200 268.925 M132.505 283.487 C 133.114 283.579,134.014 283.577,134.505 283.482 C 134.997 283.387,134.500 283.311,133.400 283.314 C 132.300 283.317,131.897 283.395,132.505 283.487 M265.705 283.487 C 266.314 283.579,267.214 283.577,267.705 283.482 C 268.197 283.387,267.700 283.311,266.600 283.314 C 265.500 283.317,265.097 283.395,265.705 283.487 " stroke="none" fill="#fc9c94" fill-rule="evenodd"></path></g></svg>