<svg id="svg" version="1.1" xmlns="http://www.w3.org/2000/svg" xmlns:xlink="http://www.w3.org/1999/xlink" width="400" height="400" viewBox="0, 0, 400,400"><g id="svgg"><path id="path0" d="M134.592 101.700 C 134.470 102.195,134.421 105.030,134.485 108.000 L 134.600 113.400 200.000 113.400 L 265.400 113.400 265.515 108.000 C 265.579 105.030,265.530 102.195,265.408 101.700 L 265.185 100.800 200.000 100.800 L 134.815 100.800 134.592 101.700 M265.685 146.284 C 265.267 146.440,265.178 158.127,265.217 207.938 L 265.264 269.400 200.000 269.400 L 134.736 269.400 134.783 207.900 L 134.831 146.400 120.715 146.402 C 105.197 146.405,104.153 146.529,102.608 148.554 L 101.600 149.876 101.600 212.909 L 101.600 275.943 102.947 277.372 L 104.294 278.800 199.717 278.800 L 295.139 278.800 296.320 277.806 C 297.060 277.184,297.670 276.143,297.951 275.028 C 298.683 272.122,298.580 151.605,297.844 149.844 C 297.041 147.922,295.716 146.860,293.841 146.634 C 291.571 146.360,266.320 146.046,265.685 146.284 M91.047 292.900 C 91.209 293.175,92.603 294.705,94.144 296.300 L 96.946 299.200 200.022 299.200 L 303.098 299.200 305.949 296.199 C 307.517 294.548,308.800 293.018,308.800 292.799 C 308.800 292.535,271.972 292.400,199.776 292.400 C 112.667 292.400,90.812 292.501,91.047 292.900 " stroke="none" fill="#4a6779" fill-rule="evenodd"></path><path id="path1" d="M135.036 114.342 C 134.920 114.529,134.808 149.494,134.787 192.042 L 134.749 269.400 200.000 269.400 L 265.251 269.400 265.213 192.042 C 265.192 149.494,265.080 114.529,264.964 114.342 C 264.688 113.895,135.312 113.895,135.036 114.342 M256.072 142.300 C 256.148 152.805,256.148 161.490,256.072 161.600 C 255.996 161.710,230.763 161.800,200.000 161.800 C 169.237 161.800,144.004 161.710,143.928 161.600 C 143.852 161.490,143.852 152.805,143.928 142.300 L 144.067 123.200 200.000 123.200 L 255.933 123.200 256.072 142.300 M172.066 188.300 C 172.160 197.391,172.070 202.302,171.805 202.494 C 171.051 203.041,145.019 202.857,144.376 202.300 C 143.891 201.879,143.820 199.645,143.928 188.100 L 144.057 174.400 157.989 174.400 L 171.921 174.400 172.066 188.300 M214.000 188.400 L 214.000 202.400 200.000 202.400 L 186.000 202.400 186.000 188.400 L 186.000 174.400 200.000 174.400 L 214.000 174.400 214.000 188.400 M255.745 174.711 C 255.850 174.882,255.982 181.137,256.038 188.611 L 256.138 202.200 241.811 202.305 L 227.483 202.410 227.739 199.705 C 227.879 198.217,227.996 191.915,227.997 185.700 L 228.000 174.400 241.776 174.400 C 249.353 174.400,255.639 174.540,255.745 174.711 M90.800 285.600 L 90.800 292.400 200.000 292.400 L 309.200 292.400 309.200 285.600 L 309.200 278.800 200.000 278.800 L 90.800 278.800 90.800 285.600 " stroke="none" fill="#e9f0f1" fill-rule="evenodd"></path><path id="path2" d="M178.300 0.275 C 176.375 0.361,174.800 0.604,174.800 0.816 C 174.800 1.027,173.461 1.200,171.824 1.200 C 170.187 1.200,168.736 1.380,168.600 1.600 C 168.464 1.820,167.564 2.000,166.600 2.000 C 165.636 2.000,164.736 2.180,164.600 2.400 C 164.464 2.620,163.373 2.800,162.176 2.800 C 160.979 2.800,160.000 2.980,160.000 3.200 C 160.000 3.420,159.201 3.600,158.224 3.600 C 157.247 3.600,156.336 3.780,156.200 4.000 C 156.064 4.220,155.243 4.400,154.376 4.400 C 153.509 4.400,152.800 4.580,152.800 4.800 C 152.800 5.020,152.080 5.200,151.200 5.200 C 150.320 5.200,149.600 5.380,149.600 5.600 C 149.600 5.820,148.880 6.000,148.000 6.000 C 147.120 6.000,146.400 6.180,146.400 6.400 C 146.400 6.620,145.860 6.800,145.200 6.800 C 144.540 6.800,144.000 6.980,144.000 7.200 C 144.000 7.420,143.370 7.600,142.600 7.600 C 141.830 7.600,141.200 7.780,141.200 8.000 C 141.200 8.220,140.771 8.400,140.246 8.400 C 139.355 8.400,136.018 9.285,134.200 10.003 C 133.760 10.177,132.770 10.536,132.000 10.800 C 130.307 11.382,128.840 11.971,127.905 12.447 C 127.523 12.641,126.848 12.800,126.405 12.800 C 125.962 12.800,125.600 12.980,125.600 13.200 C 125.600 13.420,125.240 13.600,124.800 13.600 C 124.360 13.600,124.000 13.780,124.000 14.000 C 124.000 14.220,123.561 14.400,123.024 14.400 C 122.487 14.400,121.936 14.580,121.800 14.800 C 121.664 15.020,121.203 15.200,120.776 15.200 C 120.349 15.200,120.000 15.380,120.000 15.600 C 120.000 15.820,119.640 16.000,119.200 16.000 C 118.760 16.000,118.400 16.180,118.400 16.400 C 118.400 16.620,118.040 16.800,117.600 16.800 C 117.160 16.800,116.800 16.980,116.800 17.200 C 116.800 17.420,116.361 17.600,115.824 17.600 C 115.287 17.600,114.736 17.780,114.600 18.000 C 114.464 18.220,113.993 18.400,113.553 18.400 C 113.113 18.400,112.864 18.580,113.000 18.800 C 113.141 19.028,112.796 19.200,112.200 19.200 C 111.604 19.200,111.259 19.372,111.400 19.600 C 111.536 19.820,111.402 20.000,111.103 20.000 C 110.349 20.000,108.407 20.935,108.403 21.300 C 108.401 21.465,108.040 21.600,107.600 21.600 C 107.160 21.600,106.800 21.780,106.800 22.000 C 106.800 22.220,106.440 22.400,106.000 22.400 C 105.560 22.400,105.200 22.580,105.200 22.800 C 105.200 23.020,104.880 23.200,104.488 23.200 C 104.097 23.200,103.517 23.560,103.200 24.000 C 102.883 24.440,102.303 24.800,101.912 24.800 C 101.520 24.800,101.200 25.010,101.200 25.267 C 101.200 25.523,101.088 25.621,100.950 25.484 C 100.715 25.249,97.631 26.622,97.200 27.154 C 97.090 27.290,96.508 27.655,95.907 27.965 C 95.305 28.274,94.458 28.859,94.023 29.264 C 93.589 29.669,93.022 30.000,92.764 30.000 C 92.505 30.000,92.003 30.316,91.647 30.703 C 91.291 31.089,90.505 31.660,89.900 31.970 C 89.295 32.281,88.800 32.685,88.800 32.868 C 88.800 33.050,88.480 33.200,88.088 33.200 C 87.697 33.200,87.117 33.560,86.800 34.000 C 86.483 34.440,85.991 34.800,85.708 34.800 C 85.425 34.800,84.628 35.340,83.937 36.000 C 83.246 36.660,82.478 37.200,82.229 37.200 C 81.980 37.200,81.517 37.560,81.200 38.000 C 80.883 38.440,80.375 38.800,80.072 38.800 C 79.769 38.800,79.017 39.340,78.400 40.000 C 77.783 40.660,77.164 41.200,77.023 41.200 C 76.752 41.200,76.352 41.514,74.349 43.300 C 73.671 43.905,72.974 44.400,72.800 44.400 C 72.627 44.400,71.257 45.570,69.754 47.000 C 68.252 48.430,66.877 49.600,66.698 49.600 C 66.519 49.600,64.573 51.445,62.373 53.700 C 57.577 58.617,58.623 57.571,53.793 62.287 C 51.590 64.439,49.342 66.828,48.799 67.595 C 48.255 68.362,46.953 69.865,45.905 70.935 C 44.857 72.005,44.000 73.051,44.000 73.259 C 44.000 73.466,43.595 74.070,43.100 74.599 C 41.731 76.063,41.200 76.740,41.200 77.023 C 41.200 77.164,40.660 77.783,40.000 78.400 C 39.340 79.017,38.800 79.769,38.800 80.072 C 38.800 80.375,38.440 80.883,38.000 81.200 C 37.560 81.517,37.200 82.107,37.200 82.512 C 37.200 82.916,37.020 83.136,36.800 83.000 C 36.580 82.864,36.400 82.994,36.400 83.288 C 36.400 83.583,36.040 84.083,35.600 84.400 C 35.160 84.717,34.800 85.257,34.800 85.600 C 34.800 85.943,34.440 86.483,34.000 86.800 C 33.560 87.117,33.200 87.657,33.200 88.000 C 33.200 88.343,32.840 88.883,32.400 89.200 C 31.960 89.517,31.600 90.057,31.600 90.400 C 31.600 90.743,31.240 91.283,30.800 91.600 C 30.360 91.917,30.000 92.329,30.000 92.516 C 30.000 92.703,29.460 93.641,28.800 94.600 C 28.140 95.559,27.600 96.537,27.600 96.772 C 27.600 97.007,27.447 97.200,27.261 97.200 C 26.879 97.200,25.345 100.415,25.500 100.892 C 25.555 101.061,25.420 101.200,25.200 101.200 C 24.980 101.200,24.800 101.520,24.800 101.912 C 24.800 102.303,24.440 102.883,24.000 103.200 C 23.560 103.517,23.200 103.971,23.200 104.209 C 23.200 104.875,22.237 106.793,21.900 106.797 C 21.735 106.799,21.600 107.160,21.600 107.600 C 21.600 108.040,21.465 108.401,21.300 108.403 C 20.935 108.407,20.000 110.349,20.000 111.103 C 20.000 111.402,19.820 111.536,19.600 111.400 C 19.372 111.259,19.200 111.604,19.200 112.200 C 19.200 112.796,19.028 113.141,18.800 113.000 C 18.580 112.864,18.399 113.078,18.399 113.476 C 18.398 113.874,18.038 114.789,17.599 115.510 C 17.159 116.230,16.800 117.175,16.800 117.610 C 16.800 118.044,16.620 118.400,16.400 118.400 C 16.180 118.400,16.000 118.760,16.000 119.200 C 16.000 119.640,15.820 120.000,15.600 120.000 C 15.380 120.000,15.200 120.360,15.200 120.800 C 15.200 121.240,15.059 121.600,14.887 121.600 C 14.715 121.600,14.534 122.095,14.484 122.700 C 14.434 123.305,14.215 123.860,13.997 123.933 C 13.778 124.007,13.600 124.412,13.600 124.833 C 13.600 125.255,13.420 125.600,13.200 125.600 C 12.980 125.600,12.800 126.039,12.800 126.576 C 12.800 127.113,12.656 127.642,12.479 127.751 C 12.303 127.860,11.910 128.861,11.607 129.975 C 11.304 131.089,10.908 132.000,10.728 132.000 C 10.547 132.000,10.400 132.362,10.400 132.805 C 10.400 133.248,10.237 133.923,10.037 134.305 C 9.440 135.447,8.400 139.222,8.400 140.246 C 8.400 140.771,8.220 141.200,8.000 141.200 C 7.780 141.200,7.600 141.819,7.600 142.576 C 7.600 143.333,7.420 144.064,7.200 144.200 C 6.980 144.336,6.800 144.887,6.800 145.424 C 6.800 145.961,6.620 146.400,6.400 146.400 C 6.180 146.400,6.000 147.120,6.000 148.000 C 6.000 148.880,5.820 149.600,5.600 149.600 C 5.380 149.600,5.200 150.320,5.200 151.200 C 5.200 152.080,5.020 152.800,4.800 152.800 C 4.580 152.800,4.400 153.509,4.400 154.376 C 4.400 155.243,4.220 156.064,4.000 156.200 C 3.780 156.336,3.600 157.247,3.600 158.224 C 3.600 159.201,3.420 160.000,3.200 160.000 C 2.980 160.000,2.800 160.900,2.800 162.000 C 2.800 163.100,2.620 164.000,2.400 164.000 C 2.174 164.000,2.000 165.133,2.000 166.600 C 2.000 168.067,1.826 169.200,1.600 169.200 C 1.376 169.200,1.200 170.307,1.200 171.720 C 1.200 173.203,0.994 174.446,0.700 174.740 C 0.311 175.129,0.200 180.743,0.200 200.087 C 0.200 219.608,0.307 224.969,0.700 225.100 C 1.036 225.212,1.200 226.176,1.200 228.033 C 1.200 229.611,1.372 230.800,1.600 230.800 C 1.826 230.800,2.000 231.933,2.000 233.400 C 2.000 234.867,2.174 236.000,2.400 236.000 C 2.620 236.000,2.800 236.799,2.800 237.776 C 2.800 238.753,2.980 239.664,3.200 239.800 C 3.420 239.936,3.600 240.836,3.600 241.800 C 3.600 242.764,3.780 243.664,4.000 243.800 C 4.220 243.936,4.400 244.757,4.400 245.624 C 4.400 246.491,4.580 247.200,4.800 247.200 C 5.020 247.200,5.200 247.920,5.200 248.800 C 5.200 249.680,5.380 250.400,5.600 250.400 C 5.820 250.400,6.000 251.120,6.000 252.000 C 6.000 252.880,6.180 253.600,6.400 253.600 C 6.620 253.600,6.800 254.039,6.800 254.576 C 6.800 255.113,6.980 255.664,7.200 255.800 C 7.420 255.936,7.600 256.667,7.600 257.424 C 7.600 258.181,7.780 258.800,8.000 258.800 C 8.220 258.800,8.400 259.229,8.400 259.754 C 8.400 260.645,9.285 263.982,10.003 265.800 C 10.177 266.240,10.536 267.230,10.800 268.000 C 11.382 269.693,11.971 271.160,12.447 272.095 C 12.641 272.477,12.800 273.152,12.800 273.595 C 12.800 274.038,12.980 274.400,13.200 274.400 C 13.420 274.400,13.600 274.745,13.600 275.167 C 13.600 275.588,13.778 275.993,13.997 276.067 C 14.215 276.140,14.434 276.695,14.484 277.300 C 14.534 277.905,14.715 278.400,14.887 278.400 C 15.059 278.400,15.200 278.760,15.200 279.200 C 15.200 279.640,15.380 280.000,15.600 280.000 C 15.820 280.000,16.000 280.360,16.000 280.800 C 16.000 281.240,16.180 281.600,16.400 281.600 C 16.620 281.600,16.800 281.960,16.800 282.400 C 16.800 282.840,16.980 283.200,17.200 283.200 C 17.420 283.200,17.600 283.639,17.600 284.176 C 17.600 284.713,17.780 285.264,18.000 285.400 C 18.220 285.536,18.400 286.007,18.400 286.447 C 18.400 286.887,18.580 287.136,18.800 287.000 C 19.020 286.864,19.200 287.016,19.200 287.339 C 19.200 288.022,20.860 291.338,21.300 291.533 C 21.465 291.607,21.600 292.012,21.600 292.433 C 21.600 292.855,21.780 293.200,22.000 293.200 C 22.220 293.200,22.400 293.560,22.400 294.000 C 22.400 294.440,22.580 294.800,22.800 294.800 C 23.020 294.800,23.200 295.036,23.200 295.325 C 23.200 295.613,23.560 296.236,24.000 296.708 C 24.440 297.180,24.800 297.775,24.800 298.029 C 24.800 298.467,26.763 302.373,27.198 302.800 C 27.310 302.910,27.655 303.492,27.965 304.093 C 28.274 304.695,28.859 305.542,29.264 305.977 C 29.669 306.411,30.000 306.978,30.000 307.236 C 30.000 307.495,30.316 307.997,30.703 308.353 C 31.089 308.709,31.660 309.495,31.970 310.100 C 32.281 310.705,32.685 311.200,32.868 311.200 C 33.050 311.200,33.200 311.520,33.200 311.912 C 33.200 312.303,33.560 312.883,34.000 313.200 C 34.440 313.517,34.800 314.057,34.800 314.400 C 34.800 314.743,35.160 315.283,35.600 315.600 C 36.040 315.917,36.400 316.417,36.400 316.712 C 36.400 317.006,36.580 317.136,36.800 317.000 C 37.020 316.864,37.200 317.084,37.200 317.488 C 37.200 317.893,37.560 318.483,38.000 318.800 C 38.440 319.117,38.800 319.625,38.800 319.928 C 38.800 320.231,39.340 320.983,40.000 321.600 C 40.660 322.217,41.200 322.929,41.200 323.184 C 41.200 323.439,41.380 323.536,41.600 323.400 C 41.820 323.264,42.000 323.433,42.000 323.776 C 42.000 324.119,42.210 324.400,42.467 324.400 C 42.723 324.400,42.824 324.509,42.691 324.642 C 42.558 324.776,42.888 325.324,43.424 325.861 C 43.961 326.397,44.400 327.003,44.400 327.208 C 44.400 327.412,45.167 328.349,46.105 329.289 C 47.043 330.230,48.255 331.630,48.799 332.400 C 49.342 333.170,51.590 335.561,53.793 337.713 C 58.611 342.418,57.582 341.389,62.287 346.207 C 64.439 348.410,66.830 350.658,67.600 351.201 C 68.370 351.745,69.770 352.957,70.711 353.895 C 71.651 354.833,72.588 355.600,72.792 355.600 C 72.997 355.600,73.622 356.058,74.182 356.618 C 74.742 357.178,75.200 357.540,75.200 357.422 C 75.200 357.149,76.527 358.231,78.240 359.900 C 78.973 360.615,79.810 361.200,80.098 361.200 C 80.387 361.200,80.883 361.560,81.200 362.000 C 81.517 362.440,81.980 362.800,82.229 362.800 C 82.478 362.800,83.246 363.340,83.937 364.000 C 84.628 364.660,85.425 365.200,85.708 365.200 C 85.991 365.200,86.483 365.560,86.800 366.000 C 87.117 366.440,87.657 366.800,88.000 366.800 C 88.343 366.800,88.883 367.160,89.200 367.600 C 89.517 368.040,90.057 368.400,90.400 368.400 C 90.743 368.400,91.283 368.760,91.600 369.200 C 91.917 369.640,92.305 370.000,92.462 370.000 C 92.740 370.000,96.804 372.400,97.200 372.799 C 97.793 373.396,100.720 374.747,100.941 374.526 C 101.083 374.383,101.200 374.477,101.200 374.733 C 101.200 374.990,101.478 375.200,101.817 375.200 C 102.156 375.200,102.820 375.560,103.292 376.000 C 103.764 376.440,104.387 376.800,104.675 376.800 C 104.964 376.800,105.200 376.980,105.200 377.200 C 105.200 377.420,105.560 377.600,106.000 377.600 C 106.440 377.600,106.800 377.780,106.800 378.000 C 106.800 378.220,107.160 378.400,107.600 378.400 C 108.040 378.400,108.400 378.580,108.400 378.800 C 108.400 379.020,108.745 379.200,109.167 379.200 C 109.588 379.200,109.993 379.335,110.067 379.500 C 110.288 379.999,113.622 381.600,114.438 381.600 C 114.857 381.600,115.200 381.780,115.200 382.000 C 115.200 382.220,115.560 382.400,116.000 382.400 C 116.440 382.400,116.800 382.580,116.800 382.800 C 116.800 383.020,117.160 383.200,117.600 383.200 C 118.040 383.200,118.400 383.380,118.400 383.600 C 118.400 383.820,118.665 384.000,118.988 384.000 C 119.311 384.000,120.217 384.360,121.000 384.800 C 121.783 385.240,122.779 385.600,123.212 385.600 C 123.645 385.600,124.000 385.780,124.000 386.000 C 124.000 386.220,124.360 386.400,124.800 386.400 C 125.240 386.400,125.600 386.580,125.600 386.800 C 125.600 387.020,126.140 387.200,126.800 387.200 C 127.460 387.200,128.000 387.380,128.000 387.600 C 128.000 387.820,128.324 388.000,128.720 388.000 C 129.116 388.000,129.611 388.143,129.820 388.318 C 130.029 388.493,130.920 388.865,131.800 389.145 C 132.680 389.424,133.760 389.801,134.200 389.983 C 135.884 390.678,139.333 391.600,140.246 391.600 C 140.771 391.600,141.200 391.780,141.200 392.000 C 141.200 392.220,141.819 392.400,142.576 392.400 C 143.333 392.400,144.064 392.580,144.200 392.800 C 144.336 393.020,144.876 393.200,145.400 393.200 C 145.924 393.200,146.464 393.380,146.600 393.600 C 146.736 393.820,147.467 394.000,148.224 394.000 C 148.981 394.000,149.600 394.180,149.600 394.400 C 149.600 394.620,150.309 394.800,151.176 394.800 C 152.043 394.800,152.864 394.980,153.000 395.200 C 153.136 395.420,153.856 395.600,154.600 395.600 C 155.344 395.600,156.064 395.780,156.200 396.000 C 156.336 396.220,157.247 396.400,158.224 396.400 C 159.201 396.400,160.000 396.580,160.000 396.800 C 160.000 397.020,160.979 397.200,162.176 397.200 C 163.373 397.200,164.464 397.380,164.600 397.600 C 164.736 397.820,165.726 398.000,166.800 398.000 C 167.874 398.000,168.864 398.180,169.000 398.400 C 169.136 398.620,170.482 398.800,171.990 398.800 C 173.829 398.800,174.788 398.965,174.900 399.300 C 175.144 400.032,224.856 400.032,225.100 399.300 C 225.212 398.965,226.171 398.800,228.010 398.800 C 229.518 398.800,230.864 398.620,231.000 398.400 C 231.136 398.180,232.227 398.000,233.424 398.000 C 234.621 398.000,235.600 397.820,235.600 397.600 C 235.600 397.380,236.590 397.200,237.800 397.200 C 239.010 397.200,240.000 397.020,240.000 396.800 C 240.000 396.580,240.709 396.400,241.576 396.400 C 242.443 396.400,243.264 396.220,243.400 396.000 C 243.536 395.780,244.346 395.600,245.200 395.600 C 246.054 395.600,246.864 395.420,247.000 395.200 C 247.136 394.980,247.957 394.800,248.824 394.800 C 249.691 394.800,250.400 394.620,250.400 394.400 C 250.400 394.180,251.019 394.000,251.776 394.000 C 252.533 394.000,253.264 393.820,253.400 393.600 C 253.536 393.380,254.177 393.200,254.824 393.200 C 255.471 393.200,256.000 393.020,256.000 392.800 C 256.000 392.580,256.630 392.400,257.400 392.400 C 258.170 392.400,258.800 392.220,258.800 392.000 C 258.800 391.780,259.229 391.600,259.754 391.600 C 260.778 391.600,264.553 390.560,265.695 389.963 C 266.077 389.763,266.664 389.600,267.000 389.600 C 267.336 389.600,267.923 389.441,268.305 389.247 C 268.687 389.052,269.540 388.671,270.200 388.400 C 270.860 388.129,271.713 387.748,272.095 387.553 C 272.477 387.359,273.152 387.200,273.595 387.200 C 274.038 387.200,274.400 387.020,274.400 386.800 C 274.400 386.580,274.760 386.400,275.200 386.400 C 275.640 386.400,276.000 386.220,276.000 386.000 C 276.000 385.780,276.540 385.600,277.200 385.600 C 277.860 385.600,278.400 385.420,278.400 385.200 C 278.400 384.980,278.760 384.800,279.200 384.800 C 279.640 384.800,280.000 384.620,280.000 384.400 C 280.000 384.180,280.360 384.000,280.800 384.000 C 281.240 384.000,281.600 383.820,281.600 383.600 C 281.600 383.380,281.836 383.200,282.125 383.200 C 282.414 383.200,283.395 382.840,284.306 382.400 C 285.216 381.960,286.240 381.600,286.581 381.600 C 286.921 381.600,287.201 381.465,287.201 381.300 C 287.202 381.135,288.192 380.550,289.400 380.000 C 290.608 379.450,291.598 378.865,291.599 378.700 C 291.599 378.535,291.945 378.400,292.367 378.400 C 292.788 378.400,293.193 378.265,293.267 378.100 C 293.340 377.935,294.255 377.367,295.300 376.837 C 296.345 376.308,297.200 375.723,297.200 375.537 C 297.200 375.352,297.422 375.200,297.694 375.200 C 298.323 375.200,302.556 373.100,302.733 372.700 C 302.807 372.535,303.023 372.400,303.213 372.400 C 303.404 372.400,304.360 371.860,305.338 371.200 C 306.316 370.540,307.275 370.000,307.470 370.000 C 307.664 370.000,308.083 369.640,308.400 369.200 C 308.717 368.760,309.257 368.400,309.600 368.400 C 309.943 368.400,310.483 368.040,310.800 367.600 C 311.117 367.160,311.657 366.800,312.000 366.800 C 312.343 366.800,312.883 366.440,313.200 366.000 C 313.517 365.560,314.057 365.200,314.400 365.200 C 314.743 365.200,315.283 364.840,315.600 364.400 C 315.917 363.960,316.417 363.600,316.712 363.600 C 317.006 363.600,317.136 363.420,317.000 363.200 C 316.864 362.980,317.084 362.800,317.488 362.800 C 317.893 362.800,318.483 362.440,318.800 362.000 C 319.117 361.560,319.625 361.200,319.928 361.200 C 320.231 361.200,320.983 360.660,321.600 360.000 C 322.217 359.340,322.929 358.800,323.184 358.800 C 323.439 358.800,323.536 358.620,323.400 358.400 C 323.264 358.180,323.414 358.000,323.734 358.000 C 324.054 358.000,324.893 357.460,325.600 356.800 C 326.307 356.140,327.041 355.600,327.232 355.600 C 327.423 355.600,328.349 354.833,329.289 353.895 C 330.230 352.957,331.630 351.745,332.400 351.201 C 333.170 350.658,335.561 348.410,337.713 346.207 C 342.429 341.377,341.383 342.423,346.300 337.627 C 348.555 335.427,350.400 333.481,350.400 333.302 C 350.400 333.123,351.570 331.748,353.000 330.246 C 354.430 328.743,355.600 327.373,355.600 327.200 C 355.600 327.026,356.095 326.329,356.700 325.651 C 358.486 323.648,358.800 323.248,358.800 322.977 C 358.800 322.836,359.340 322.217,360.000 321.600 C 360.660 320.983,361.200 320.231,361.200 319.928 C 361.200 319.625,361.560 319.117,362.000 318.800 C 362.440 318.483,362.800 317.893,362.800 317.488 C 362.800 317.084,362.980 316.864,363.200 317.000 C 363.420 317.136,363.600 317.006,363.600 316.712 C 363.600 316.417,363.960 315.917,364.400 315.600 C 364.840 315.283,365.200 314.743,365.200 314.400 C 365.200 314.057,365.560 313.517,366.000 313.200 C 366.440 312.883,366.800 312.303,366.800 311.912 C 366.800 311.520,366.950 311.200,367.132 311.200 C 367.315 311.200,367.719 310.705,368.030 310.100 C 368.340 309.495,368.911 308.709,369.297 308.353 C 369.684 307.997,370.000 307.595,370.000 307.459 C 370.000 307.057,372.540 303.012,372.884 302.867 C 373.058 302.793,373.200 302.403,373.200 302.000 C 373.200 301.597,373.335 301.207,373.500 301.133 C 373.935 300.940,375.200 298.435,375.200 297.768 C 375.200 297.455,375.352 297.200,375.537 297.200 C 375.723 297.200,376.308 296.345,376.837 295.300 C 377.367 294.255,377.935 293.340,378.100 293.267 C 378.265 293.193,378.400 292.803,378.400 292.400 C 378.400 291.997,378.537 291.607,378.704 291.533 C 379.186 291.322,382.407 284.675,382.403 283.900 C 382.401 283.515,382.580 283.200,382.800 283.200 C 383.020 283.200,383.200 282.840,383.200 282.400 C 383.200 281.960,383.380 281.600,383.600 281.600 C 383.820 281.600,384.000 281.240,384.000 280.800 C 384.000 280.360,384.180 280.000,384.400 280.000 C 384.620 280.000,384.800 279.651,384.800 279.224 C 384.800 278.797,384.980 278.336,385.200 278.200 C 385.420 278.064,385.600 277.513,385.600 276.976 C 385.600 276.439,385.780 276.000,386.000 276.000 C 386.220 276.000,386.400 275.640,386.400 275.200 C 386.400 274.760,386.580 274.400,386.800 274.400 C 387.020 274.400,387.200 274.038,387.200 273.595 C 387.200 273.152,387.359 272.477,387.553 272.095 C 388.029 271.160,388.618 269.693,389.200 268.000 C 389.464 267.230,389.823 266.240,389.997 265.800 C 390.715 263.982,391.600 260.645,391.600 259.754 C 391.600 259.229,391.780 258.800,392.000 258.800 C 392.220 258.800,392.400 258.181,392.400 257.424 C 392.400 256.667,392.580 255.936,392.800 255.800 C 393.020 255.664,393.200 255.124,393.200 254.600 C 393.200 254.076,393.380 253.536,393.600 253.400 C 393.820 253.264,394.000 252.544,394.000 251.800 C 394.000 251.056,394.180 250.336,394.400 250.200 C 394.620 250.064,394.800 249.344,394.800 248.600 C 394.800 247.856,394.980 247.136,395.200 247.000 C 395.420 246.864,395.600 246.144,395.600 245.400 C 395.600 244.656,395.780 243.936,396.000 243.800 C 396.220 243.664,396.400 242.764,396.400 241.800 C 396.400 240.836,396.580 239.936,396.800 239.800 C 397.020 239.664,397.200 238.663,397.200 237.576 C 397.200 236.489,397.380 235.600,397.600 235.600 C 397.820 235.600,398.000 234.621,398.000 233.424 C 398.000 232.227,398.180 231.136,398.400 231.000 C 398.620 230.864,398.800 229.518,398.800 228.010 C 398.800 226.171,398.965 225.212,399.300 225.100 C 399.693 224.969,399.800 219.591,399.800 200.000 C 399.800 180.409,399.693 175.031,399.300 174.900 C 398.965 174.788,398.800 173.829,398.800 171.990 C 398.800 170.482,398.620 169.136,398.400 169.000 C 398.180 168.864,398.000 167.773,398.000 166.576 C 398.000 165.379,397.820 164.400,397.600 164.400 C 397.380 164.400,397.200 163.410,397.200 162.200 C 397.200 160.990,397.020 160.000,396.800 160.000 C 396.580 160.000,396.400 159.201,396.400 158.224 C 396.400 157.247,396.220 156.336,396.000 156.200 C 395.780 156.064,395.600 155.243,395.600 154.376 C 395.600 153.509,395.420 152.800,395.200 152.800 C 394.980 152.800,394.800 152.181,394.800 151.424 C 394.800 150.667,394.620 149.936,394.400 149.800 C 394.180 149.664,394.000 148.944,394.000 148.200 C 394.000 147.456,393.820 146.736,393.600 146.600 C 393.380 146.464,393.200 145.924,393.200 145.400 C 393.200 144.876,393.020 144.336,392.800 144.200 C 392.580 144.064,392.400 143.333,392.400 142.576 C 392.400 141.819,392.220 141.200,392.000 141.200 C 391.780 141.200,391.600 140.771,391.600 140.246 C 391.600 139.222,390.560 135.447,389.963 134.305 C 389.763 133.923,389.600 133.336,389.600 133.000 C 389.600 132.664,389.441 132.077,389.247 131.695 C 389.052 131.313,388.671 130.460,388.400 129.800 C 388.129 129.140,387.748 128.287,387.553 127.905 C 387.359 127.523,387.200 126.848,387.200 126.405 C 387.200 125.962,387.020 125.600,386.800 125.600 C 386.580 125.600,386.400 125.255,386.400 124.833 C 386.400 124.412,386.222 124.007,386.003 123.933 C 385.785 123.860,385.566 123.305,385.516 122.700 C 385.466 122.095,385.285 121.600,385.113 121.600 C 384.941 121.600,384.800 121.240,384.800 120.800 C 384.800 120.360,384.620 120.000,384.400 120.000 C 384.180 120.000,384.000 119.640,384.000 119.200 C 384.000 118.760,383.820 118.400,383.600 118.400 C 383.380 118.400,383.200 118.040,383.200 117.600 C 383.200 117.160,383.020 116.800,382.800 116.800 C 382.580 116.800,382.401 116.485,382.403 116.100 C 382.407 115.325,379.186 108.678,378.704 108.467 C 378.537 108.393,378.400 108.003,378.400 107.600 C 378.400 107.197,378.265 106.807,378.100 106.733 C 377.935 106.660,377.367 105.745,376.837 104.700 C 376.308 103.655,375.723 102.800,375.537 102.800 C 375.352 102.800,375.200 102.440,375.200 102.000 C 375.200 101.560,375.020 101.200,374.800 101.200 C 374.580 101.200,374.445 101.061,374.500 100.892 C 374.655 100.415,373.121 97.200,372.739 97.200 C 372.553 97.200,372.400 97.007,372.400 96.772 C 372.400 96.537,371.860 95.559,371.200 94.600 C 370.540 93.641,370.000 92.703,370.000 92.516 C 370.000 92.329,369.640 91.917,369.200 91.600 C 368.760 91.283,368.400 90.743,368.400 90.400 C 368.400 90.057,368.040 89.517,367.600 89.200 C 367.160 88.883,366.800 88.343,366.800 88.000 C 366.800 87.657,366.440 87.117,366.000 86.800 C 365.560 86.483,365.200 85.943,365.200 85.600 C 365.200 85.257,364.840 84.717,364.400 84.400 C 363.960 84.083,363.600 83.620,363.600 83.371 C 363.600 83.122,363.060 82.354,362.400 81.663 C 361.740 80.972,361.200 80.208,361.200 79.964 C 361.200 79.720,360.660 79.017,360.000 78.400 C 359.340 77.783,358.800 77.164,358.800 77.023 C 358.800 76.752,358.486 76.352,356.700 74.349 C 356.095 73.671,355.600 72.974,355.600 72.800 C 355.600 72.627,354.430 71.257,353.000 69.754 C 351.570 68.252,350.400 66.877,350.400 66.698 C 350.400 66.519,348.555 64.573,346.300 62.373 C 344.045 60.174,342.046 58.218,341.859 58.028 C 341.671 57.838,339.644 55.774,337.354 53.441 C 335.064 51.109,333.049 49.200,332.875 49.200 C 332.702 49.200,331.325 48.030,329.815 46.600 C 328.306 45.170,326.912 44.000,326.717 44.000 C 326.523 44.000,325.930 43.595,325.401 43.100 C 323.937 41.731,323.260 41.200,322.977 41.200 C 322.836 41.200,322.217 40.660,321.600 40.000 C 320.983 39.340,320.280 38.800,320.036 38.800 C 319.792 38.800,319.028 38.260,318.337 37.600 C 317.646 36.940,316.878 36.400,316.629 36.400 C 316.380 36.400,315.917 36.040,315.600 35.600 C 315.283 35.160,314.743 34.800,314.400 34.800 C 314.057 34.800,313.517 34.440,313.200 34.000 C 312.883 33.560,312.343 33.200,312.000 33.200 C 311.657 33.200,311.117 32.840,310.800 32.400 C 310.483 31.960,309.943 31.600,309.600 31.600 C 309.257 31.600,308.717 31.240,308.400 30.800 C 308.083 30.360,307.671 30.000,307.484 30.000 C 307.297 30.000,306.359 29.460,305.400 28.800 C 304.441 28.140,303.478 27.600,303.261 27.600 C 303.044 27.600,302.807 27.465,302.733 27.300 C 302.523 26.826,298.562 24.800,297.846 24.800 C 297.491 24.800,297.200 24.648,297.200 24.463 C 297.200 24.277,296.345 23.692,295.300 23.163 C 294.255 22.633,293.340 22.065,293.267 21.900 C 293.193 21.735,292.788 21.600,292.367 21.600 C 291.945 21.600,291.599 21.465,291.599 21.300 C 291.598 21.135,290.608 20.550,289.400 20.000 C 288.192 19.450,287.202 18.865,287.201 18.700 C 287.201 18.535,286.851 18.400,286.424 18.400 C 285.997 18.400,285.536 18.220,285.400 18.000 C 285.264 17.780,284.713 17.600,284.176 17.600 C 283.639 17.600,283.200 17.420,283.200 17.200 C 283.200 16.980,282.840 16.800,282.400 16.800 C 281.960 16.800,281.600 16.620,281.600 16.400 C 281.600 16.180,281.240 16.000,280.800 16.000 C 280.360 16.000,280.000 15.820,280.000 15.600 C 280.000 15.380,279.640 15.200,279.200 15.200 C 278.760 15.200,278.400 15.020,278.400 14.800 C 278.400 14.580,277.860 14.400,277.200 14.400 C 276.540 14.400,276.000 14.220,276.000 14.000 C 276.000 13.780,275.640 13.600,275.200 13.600 C 274.760 13.600,274.400 13.420,274.400 13.200 C 274.400 12.980,274.038 12.800,273.595 12.800 C 273.152 12.800,272.432 12.620,271.995 12.400 C 271.558 12.180,270.842 11.820,270.405 11.600 C 269.968 11.380,269.248 11.200,268.805 11.200 C 268.362 11.200,268.000 11.020,268.000 10.800 C 268.000 10.580,267.638 10.400,267.195 10.400 C 266.752 10.400,266.077 10.237,265.695 10.037 C 264.553 9.440,260.778 8.400,259.754 8.400 C 259.229 8.400,258.800 8.220,258.800 8.000 C 258.800 7.780,258.181 7.600,257.424 7.600 C 256.667 7.600,255.936 7.420,255.800 7.200 C 255.664 6.980,255.113 6.800,254.576 6.800 C 254.039 6.800,253.600 6.620,253.600 6.400 C 253.600 6.180,252.880 6.000,252.000 6.000 C 251.120 6.000,250.400 5.820,250.400 5.600 C 250.400 5.380,249.680 5.200,248.800 5.200 C 247.920 5.200,247.200 5.020,247.200 4.800 C 247.200 4.580,246.491 4.400,245.624 4.400 C 244.757 4.400,243.936 4.220,243.800 4.000 C 243.664 3.780,242.753 3.600,241.776 3.600 C 240.799 3.600,240.000 3.420,240.000 3.200 C 240.000 2.980,239.100 2.800,238.000 2.800 C 236.900 2.800,236.000 2.620,236.000 2.400 C 236.000 2.174,234.867 2.000,233.400 2.000 C 231.933 2.000,230.800 1.826,230.800 1.600 C 230.800 1.372,229.611 1.200,228.033 1.200 C 226.198 1.200,225.211 1.034,225.103 0.708 C 224.941 0.222,187.291 -0.126,178.300 0.275 M265.357 101.433 C 265.799 102.584,265.630 113.134,265.165 113.422 C 264.852 113.615,264.852 113.812,265.165 114.125 C 265.464 114.424,265.600 119.556,265.600 130.504 C 265.600 139.273,265.744 146.358,265.921 146.249 C 266.768 145.725,295.014 146.632,295.911 147.212 C 298.576 148.933,298.400 144.339,298.400 212.149 C 298.400 277.723,298.454 276.010,296.331 277.796 L 295.161 278.781 302.280 278.891 L 309.400 279.000 309.510 285.324 C 309.637 292.593,309.751 292.272,305.451 296.700 L 303.023 299.200 199.969 299.200 L 96.915 299.200 93.871 296.023 C 90.244 292.238,90.341 292.554,90.485 285.000 L 90.600 279.000 97.439 278.891 L 104.277 278.782 102.939 277.362 L 101.600 275.943 101.600 212.909 L 101.600 149.876 102.608 148.554 C 104.150 146.532,105.210 146.405,120.500 146.402 L 134.400 146.400 134.400 130.480 C 134.400 119.549,134.536 114.424,134.835 114.125 C 135.148 113.812,135.148 113.615,134.835 113.422 C 134.370 113.134,134.201 102.584,134.643 101.433 C 135.015 100.462,264.985 100.462,265.357 101.433 M144.605 123.700 C 144.512 123.975,144.383 132.615,144.318 142.900 L 144.200 161.600 200.000 161.600 L 255.800 161.600 255.682 142.900 C 255.617 132.615,255.488 123.975,255.395 123.700 C 255.146 122.965,144.854 122.965,144.605 123.700 " stroke="none" fill="#f05e53" fill-rule="evenodd"></path><path id="path3" d="M134.880 114.080 C 134.519 114.441,134.423 118.547,134.493 130.580 L 134.586 146.600 134.793 130.400 L 135.000 114.200 200.000 114.200 L 265.000 114.200 265.207 130.400 L 265.414 146.600 265.507 130.580 C 265.577 118.547,265.481 114.441,265.120 114.080 C 264.422 113.382,135.578 113.382,134.880 114.080 M144.000 139.340 C 144.000 148.216,143.885 156.901,143.744 158.640 C 143.595 160.480,143.637 161.661,143.844 161.467 C 144.275 161.064,144.726 123.199,144.300 123.200 C 144.135 123.200,144.000 130.463,144.000 139.340 M255.600 142.167 C 255.710 152.599,255.960 161.284,256.156 161.467 C 256.363 161.661,256.405 160.480,256.256 158.640 C 256.115 156.901,256.000 148.216,256.000 139.340 C 256.000 130.463,255.865 123.200,255.700 123.200 C 255.535 123.199,255.490 131.735,255.600 142.167 M172.300 161.900 C 187.535 161.958,212.465 161.958,227.700 161.900 C 242.935 161.842,230.470 161.794,200.000 161.794 C 169.530 161.794,157.065 161.842,172.300 161.900 M143.928 188.100 C 143.820 199.645,143.891 201.879,144.376 202.300 C 145.019 202.857,171.051 203.041,171.805 202.494 C 172.070 202.302,172.160 197.391,172.066 188.300 L 171.921 174.400 157.989 174.400 L 144.057 174.400 143.928 188.100 M90.563 285.600 C 90.563 289.230,90.623 290.715,90.698 288.900 C 90.772 287.085,90.772 284.115,90.698 282.300 C 90.623 280.485,90.563 281.970,90.563 285.600 M309.363 285.600 C 309.363 289.230,309.423 290.715,309.498 288.900 C 309.572 287.085,309.572 284.115,309.498 282.300 C 309.423 280.485,309.363 281.970,309.363 285.600 " stroke="none" fill="#fad266" fill-rule="evenodd"></path><path id="path4" d="M186.000 188.400 L 186.000 202.400 200.000 202.400 L 214.000 202.400 214.000 188.400 L 214.000 174.400 200.000 174.400 L 186.000 174.400 186.000 188.400 M227.997 185.700 C 227.996 191.915,227.879 198.217,227.739 199.705 L 227.483 202.410 241.811 202.305 L 256.138 202.200 256.038 188.611 C 255.982 181.137,255.850 174.882,255.745 174.711 C 255.639 174.540,249.353 174.400,241.776 174.400 L 228.000 174.400 227.997 185.700 " stroke="none" fill="#26a5da" fill-rule="evenodd"></path></g></svg>