<svg id="svg" version="1.1" xmlns="http://www.w3.org/2000/svg" xmlns:xlink="http://www.w3.org/1999/xlink" width="400" height="400" viewBox="0, 0, 400,400"><g id="svgg"><path id="path0" d="M277.600 139.410 C 276.325 140.066,260.172 155.974,222.201 193.968 C 192.721 223.466,168.382 247.600,168.113 247.600 C 167.845 247.600,166.531 246.115,165.194 244.300 C 163.856 242.485,162.543 240.730,162.275 240.400 C 162.008 240.070,161.350 239.170,160.814 238.400 C 160.277 237.630,159.734 236.910,159.606 236.800 C 159.477 236.690,152.091 226.880,143.191 215.000 C 123.188 188.298,124.098 189.296,118.544 187.964 C 109.833 185.875,101.431 196.894,105.581 204.964 C 106.253 206.269,117.206 221.326,119.721 224.400 C 119.991 224.730,120.650 225.630,121.186 226.400 C 121.723 227.170,122.269 227.890,122.400 228.000 C 122.531 228.110,123.077 228.830,123.614 229.600 C 124.150 230.370,124.814 231.270,125.090 231.600 C 125.366 231.930,128.748 236.430,132.604 241.600 C 136.461 246.770,139.841 251.270,140.114 251.600 C 140.388 251.930,141.050 252.830,141.586 253.600 C 142.123 254.370,142.669 255.090,142.800 255.200 C 142.931 255.310,143.471 256.030,144.000 256.800 C 144.529 257.570,145.063 258.290,145.188 258.400 C 145.312 258.510,148.107 262.200,151.399 266.600 C 160.716 279.054,164.192 280.989,171.489 277.785 C 173.641 276.839,289.758 161.750,292.868 157.479 C 300.180 147.438,288.612 133.747,277.600 139.410 " stroke="none" fill="#f2f3f3" fill-rule="evenodd"></path><path id="path1" d="M190.580 20.377 C 190.371 20.584,188.040 20.849,185.400 20.965 C 177.487 21.314,174.000 21.640,174.000 22.030 C 174.000 22.234,173.046 22.400,171.880 22.400 C 170.714 22.400,169.589 22.563,169.380 22.763 C 169.171 22.963,168.100 23.228,167.000 23.352 C 162.421 23.870,161.200 24.099,161.200 24.440 C 161.200 24.638,160.390 24.800,159.400 24.800 C 158.410 24.800,157.600 24.955,157.600 25.145 C 157.600 25.335,157.116 25.437,156.524 25.372 C 155.932 25.307,155.153 25.411,154.793 25.604 C 154.433 25.797,153.702 26.014,153.169 26.087 C 152.636 26.160,151.991 26.351,151.736 26.512 C 151.480 26.672,150.805 26.842,150.236 26.889 C 149.666 26.936,149.200 27.115,149.200 27.287 C 149.200 27.459,148.581 27.600,147.824 27.600 C 147.067 27.600,146.336 27.780,146.200 28.000 C 146.064 28.220,145.609 28.400,145.189 28.400 C 144.768 28.400,143.783 28.760,143.000 29.200 C 142.217 29.640,141.131 30.000,140.588 30.000 C 140.045 30.000,139.600 30.180,139.600 30.400 C 139.600 30.620,139.060 30.800,138.400 30.800 C 137.740 30.800,137.200 30.980,137.200 31.200 C 137.200 31.420,136.928 31.600,136.596 31.600 C 136.263 31.600,135.205 31.970,134.244 32.421 C 133.283 32.873,132.115 33.271,131.649 33.306 C 131.182 33.341,130.800 33.512,130.800 33.685 C 130.800 33.858,130.440 34.000,130.000 34.000 C 129.560 34.000,129.200 34.180,129.200 34.400 C 129.200 34.620,128.948 34.800,128.641 34.800 C 128.333 34.800,127.055 35.340,125.800 36.000 C 124.545 36.660,123.267 37.200,122.959 37.200 C 122.652 37.200,122.400 37.380,122.400 37.600 C 122.400 37.820,122.040 38.000,121.600 38.000 C 121.160 38.000,120.800 38.180,120.800 38.400 C 120.800 38.620,120.440 38.800,120.000 38.800 C 119.560 38.800,119.200 38.980,119.200 39.200 C 119.200 39.420,118.840 39.600,118.400 39.600 C 117.960 39.600,117.599 39.735,117.597 39.900 C 117.593 40.259,115.656 41.200,114.920 41.200 C 114.634 41.200,114.400 41.344,114.400 41.520 C 114.400 41.695,113.772 42.066,113.004 42.344 C 112.237 42.622,111.378 43.063,111.097 43.324 C 110.305 44.061,108.000 45.279,108.000 44.961 C 108.000 44.805,107.685 45.020,107.300 45.439 C 106.915 45.857,106.330 46.259,106.000 46.330 C 105.670 46.402,105.340 46.627,105.267 46.830 C 105.193 47.034,104.906 47.200,104.629 47.200 C 104.351 47.200,103.798 47.560,103.400 48.000 C 103.002 48.440,102.384 48.800,102.026 48.800 C 101.669 48.800,101.117 49.160,100.800 49.600 C 100.483 50.040,99.993 50.400,99.712 50.400 C 99.430 50.400,99.200 50.580,99.200 50.800 C 99.200 51.020,98.930 51.200,98.600 51.200 C 98.270 51.200,98.000 51.368,98.000 51.573 C 98.000 51.778,97.661 52.054,97.248 52.185 C 96.834 52.316,96.129 52.733,95.681 53.112 C 93.500 54.956,93.163 55.200,92.795 55.200 C 92.578 55.200,92.400 55.380,92.400 55.600 C 92.400 55.820,92.220 56.000,92.000 56.000 C 91.781 56.000,90.859 56.720,89.952 57.600 C 89.045 58.480,88.140 59.200,87.941 59.200 C 87.742 59.200,86.939 59.785,86.157 60.500 C 85.375 61.215,84.003 62.295,83.107 62.900 C 82.212 63.505,81.611 64.000,81.770 64.000 C 81.930 64.000,81.497 64.475,80.807 65.055 C 80.118 65.635,78.872 66.805,78.039 67.655 C 77.206 68.505,76.317 69.200,76.062 69.200 C 75.808 69.200,75.600 69.481,75.600 69.824 C 75.600 70.167,75.465 70.382,75.300 70.303 C 75.135 70.224,74.248 70.933,73.328 71.879 C 72.409 72.826,71.779 73.601,71.928 73.603 C 72.078 73.604,71.660 73.963,71.000 74.400 C 70.340 74.837,69.943 75.196,70.117 75.197 C 70.291 75.199,68.870 76.775,66.958 78.700 C 65.046 80.625,63.468 82.290,63.451 82.400 C 63.416 82.634,62.601 83.671,61.200 85.264 C 59.337 87.383,59.200 87.566,59.200 87.935 C 59.200 88.138,58.480 89.045,57.600 89.952 C 56.720 90.859,56.000 91.781,56.000 92.000 C 56.000 92.220,55.820 92.400,55.600 92.400 C 55.380 92.400,55.200 92.578,55.200 92.795 C 55.200 93.163,54.956 93.500,53.112 95.681 C 52.733 96.129,52.316 96.834,52.185 97.248 C 52.054 97.661,51.778 98.000,51.573 98.000 C 51.368 98.000,51.200 98.270,51.200 98.600 C 51.200 98.930,51.020 99.200,50.800 99.200 C 50.580 99.200,50.400 99.430,50.400 99.712 C 50.400 99.993,50.040 100.483,49.600 100.800 C 49.160 101.117,48.800 101.697,48.800 102.088 C 48.800 102.480,48.650 102.800,48.468 102.800 C 48.285 102.800,47.888 103.295,47.585 103.900 C 47.282 104.505,46.774 105.315,46.455 105.700 C 46.137 106.085,46.021 106.400,46.199 106.400 C 46.377 106.400,46.107 106.760,45.600 107.200 C 45.093 107.640,44.805 108.000,44.961 108.000 C 45.246 108.000,44.022 110.425,43.547 110.800 C 43.408 110.910,42.608 112.440,41.768 114.200 C 40.928 115.960,40.097 117.460,39.921 117.533 C 39.744 117.607,39.600 118.012,39.600 118.433 C 39.600 118.855,39.420 119.200,39.200 119.200 C 38.980 119.200,38.800 119.560,38.800 120.000 C 38.800 120.440,38.620 120.800,38.400 120.800 C 38.180 120.800,38.000 121.160,38.000 121.600 C 38.000 122.040,37.820 122.400,37.600 122.400 C 37.380 122.400,37.200 122.760,37.200 123.200 C 37.200 123.640,37.020 124.000,36.800 124.000 C 36.580 124.000,36.400 124.450,36.400 125.000 C 36.400 125.550,36.220 126.000,36.000 126.000 C 35.780 126.000,35.600 126.360,35.600 126.800 C 35.600 127.240,35.420 127.600,35.200 127.600 C 34.980 127.600,34.800 127.960,34.800 128.400 C 34.800 128.840,34.620 129.200,34.400 129.200 C 34.180 129.200,34.000 129.560,34.000 130.000 C 34.000 130.440,33.859 130.800,33.687 130.800 C 33.515 130.800,33.334 131.295,33.284 131.900 C 33.234 132.505,33.015 133.060,32.797 133.133 C 32.578 133.207,32.400 133.612,32.400 134.033 C 32.400 134.455,32.259 134.800,32.087 134.800 C 31.915 134.800,31.734 135.295,31.684 135.900 C 31.634 136.505,31.415 137.060,31.197 137.133 C 30.978 137.207,30.800 137.666,30.800 138.153 C 30.800 138.641,30.621 139.219,30.402 139.438 C 30.184 139.656,29.964 140.322,29.915 140.918 C 29.866 141.513,29.685 142.000,29.513 142.000 C 29.341 142.000,29.200 142.349,29.200 142.776 C 29.200 143.203,29.020 143.664,28.800 143.800 C 28.580 143.936,28.400 144.457,28.400 144.957 C 28.400 145.457,28.275 145.991,28.123 146.144 C 27.971 146.296,27.789 146.821,27.718 147.310 C 27.648 147.800,27.476 148.470,27.335 148.800 C 27.195 149.130,27.016 149.760,26.939 150.200 C 26.862 150.640,26.632 151.360,26.429 151.800 C 25.942 152.855,25.550 154.691,25.467 156.300 C 25.430 157.015,25.265 157.600,25.100 157.600 C 24.935 157.600,24.800 158.284,24.800 159.120 C 24.800 159.956,24.638 160.811,24.441 161.020 C 24.088 161.394,23.785 163.052,23.348 167.000 C 23.226 168.100,22.963 169.171,22.763 169.380 C 22.563 169.589,22.400 170.714,22.400 171.880 C 22.400 173.046,22.234 174.000,22.030 174.000 C 21.647 174.000,21.330 177.332,20.965 185.200 C 20.848 187.730,20.583 189.971,20.376 190.180 C 19.857 190.704,19.880 209.479,20.400 209.800 C 20.630 209.942,20.800 212.063,20.800 214.800 C 20.800 217.537,20.970 219.658,21.200 219.800 C 21.420 219.936,21.600 221.387,21.600 223.024 C 21.600 224.741,21.769 226.000,22.000 226.000 C 22.222 226.000,22.400 227.067,22.400 228.400 C 22.400 229.733,22.578 230.800,22.800 230.800 C 23.020 230.800,23.200 231.779,23.200 232.976 C 23.200 234.173,23.380 235.264,23.600 235.400 C 23.820 235.536,24.000 236.346,24.000 237.200 C 24.000 238.054,24.180 238.864,24.400 239.000 C 24.620 239.136,24.800 239.957,24.800 240.824 C 24.800 241.691,24.935 242.400,25.100 242.400 C 25.265 242.400,25.430 242.985,25.467 243.700 C 25.550 245.309,25.942 247.145,26.429 248.200 C 26.632 248.640,26.862 249.360,26.939 249.800 C 27.016 250.240,27.195 250.870,27.335 251.200 C 27.476 251.530,27.648 252.200,27.718 252.690 C 27.789 253.179,27.971 253.704,28.123 253.856 C 28.275 254.009,28.400 254.466,28.400 254.872 C 28.400 255.278,28.608 256.013,28.862 256.505 C 29.858 258.431,30.000 258.817,30.000 259.595 C 30.000 260.038,30.180 260.400,30.400 260.400 C 30.620 260.400,30.800 260.925,30.800 261.567 C 30.800 262.208,30.978 262.793,31.197 262.867 C 31.415 262.940,31.634 263.495,31.684 264.100 C 31.734 264.705,31.915 265.200,32.087 265.200 C 32.259 265.200,32.400 265.545,32.400 265.967 C 32.400 266.388,32.578 266.793,32.797 266.867 C 33.015 266.940,33.234 267.495,33.284 268.100 C 33.334 268.705,33.515 269.200,33.687 269.200 C 33.859 269.200,34.000 269.560,34.000 270.000 C 34.000 270.440,34.180 270.800,34.400 270.800 C 34.620 270.800,34.800 271.160,34.800 271.600 C 34.800 272.040,34.960 272.400,35.156 272.400 C 35.352 272.400,35.751 273.210,36.043 274.200 C 36.335 275.190,36.715 276.000,36.887 276.000 C 37.059 276.000,37.200 276.360,37.200 276.800 C 37.200 277.240,37.380 277.600,37.600 277.600 C 37.820 277.600,38.000 277.960,38.000 278.400 C 38.000 278.840,38.180 279.200,38.400 279.200 C 38.620 279.200,38.800 279.560,38.800 280.000 C 38.800 280.440,38.980 280.800,39.200 280.800 C 39.420 280.800,39.600 281.145,39.600 281.567 C 39.600 281.988,39.735 282.393,39.900 282.467 C 40.336 282.661,42.000 285.975,42.000 286.650 C 42.000 286.966,42.269 287.328,42.598 287.454 C 42.926 287.581,43.105 287.830,42.994 288.010 C 42.883 288.189,43.019 288.578,43.296 288.875 C 43.997 289.626,45.297 292.000,45.007 292.000 C 44.876 292.000,45.112 292.368,45.531 292.818 C 45.950 293.267,46.705 294.437,47.209 295.418 C 47.713 296.398,48.277 297.200,48.463 297.200 C 48.648 297.200,48.800 297.520,48.800 297.912 C 48.800 298.303,49.160 298.883,49.600 299.200 C 50.040 299.517,50.400 300.007,50.400 300.288 C 50.400 300.570,50.580 300.800,50.800 300.800 C 51.020 300.800,51.200 301.070,51.200 301.400 C 51.200 301.730,51.358 302.000,51.551 302.000 C 51.745 302.000,52.127 302.540,52.400 303.200 C 52.673 303.860,53.013 304.400,53.154 304.400 C 53.295 304.400,53.856 305.120,54.400 306.000 C 54.944 306.880,55.526 307.600,55.694 307.600 C 55.862 307.600,56.000 307.780,56.000 308.000 C 56.000 308.219,56.720 309.141,57.600 310.048 C 58.480 310.955,59.200 311.868,59.200 312.077 C 59.200 312.286,59.425 312.682,59.700 312.958 C 59.975 313.233,60.740 314.147,61.400 314.989 C 62.060 315.831,62.949 316.853,63.375 317.260 C 63.802 317.667,64.045 318.000,63.915 318.000 C 63.786 318.000,65.200 319.530,67.057 321.400 C 68.914 323.270,70.291 324.801,70.117 324.803 C 69.943 324.804,70.340 325.163,71.000 325.600 C 71.660 326.037,72.078 326.396,71.928 326.397 C 71.779 326.399,72.409 327.178,73.328 328.129 C 74.248 329.080,75.097 329.845,75.216 329.829 C 75.335 329.813,76.923 331.285,78.745 333.100 C 80.567 334.915,82.224 336.400,82.429 336.400 C 82.633 336.400,82.800 336.580,82.800 336.800 C 82.800 337.020,82.979 337.200,83.197 337.200 C 83.543 337.200,84.681 338.051,86.153 339.413 C 86.399 339.640,87.230 340.263,88.000 340.798 C 88.770 341.332,89.877 342.271,90.460 342.885 C 91.044 343.498,91.719 344.000,91.960 344.000 C 92.202 344.000,92.400 344.159,92.400 344.354 C 92.400 344.549,92.985 344.995,93.700 345.344 C 94.415 345.694,95.424 346.434,95.942 346.990 C 96.460 347.545,97.135 348.000,97.442 348.000 C 97.749 348.000,98.000 348.180,98.000 348.400 C 98.000 348.620,98.270 348.800,98.600 348.800 C 98.930 348.800,99.200 348.980,99.200 349.200 C 99.200 349.420,99.430 349.600,99.712 349.600 C 99.993 349.600,100.483 349.960,100.800 350.400 C 101.117 350.840,101.669 351.200,102.026 351.200 C 102.384 351.200,103.002 351.560,103.400 352.000 C 103.798 352.440,104.366 352.800,104.662 352.800 C 104.958 352.800,105.200 352.980,105.200 353.200 C 105.200 353.420,105.372 353.600,105.583 353.600 C 105.794 353.600,107.634 354.590,109.672 355.800 C 111.710 357.010,113.607 358.000,113.888 358.000 C 114.170 358.000,114.400 358.180,114.400 358.400 C 114.400 358.620,114.634 358.800,114.920 358.800 C 115.656 358.800,117.593 359.741,117.597 360.100 C 117.599 360.265,117.960 360.400,118.400 360.400 C 118.840 360.400,119.200 360.580,119.200 360.800 C 119.200 361.020,119.560 361.200,120.000 361.200 C 120.440 361.200,120.800 361.380,120.800 361.600 C 120.800 361.820,121.160 362.000,121.600 362.000 C 122.040 362.000,122.400 362.180,122.400 362.400 C 122.400 362.620,122.665 362.800,122.988 362.800 C 123.311 362.800,124.217 363.160,125.000 363.600 C 125.783 364.040,126.689 364.400,127.012 364.400 C 127.335 364.400,127.600 364.580,127.600 364.800 C 127.600 365.020,127.960 365.200,128.400 365.200 C 128.840 365.200,129.200 365.380,129.200 365.600 C 129.200 365.820,129.560 366.000,130.000 366.000 C 130.440 366.000,130.800 366.141,130.800 366.313 C 130.800 366.485,131.239 366.662,131.776 366.706 C 132.313 366.751,133.399 367.150,134.189 367.594 C 134.978 368.037,135.979 368.400,136.412 368.400 C 136.845 368.400,137.200 368.580,137.200 368.800 C 137.200 369.020,137.740 369.200,138.400 369.200 C 139.060 369.200,139.600 369.380,139.600 369.600 C 139.600 369.820,140.140 370.000,140.800 370.000 C 141.460 370.000,142.000 370.180,142.000 370.400 C 142.000 370.620,142.349 370.800,142.776 370.800 C 143.203 370.800,143.664 370.980,143.800 371.200 C 143.936 371.420,144.476 371.600,145.000 371.600 C 145.524 371.600,146.064 371.780,146.200 372.000 C 146.336 372.220,146.966 372.400,147.600 372.400 C 148.234 372.400,148.864 372.580,149.000 372.800 C 149.136 373.020,149.749 373.200,150.362 373.200 C 150.974 373.200,152.471 373.528,153.687 373.930 C 154.903 374.331,156.281 374.631,156.749 374.596 C 157.217 374.562,157.600 374.684,157.600 374.867 C 157.600 375.050,158.511 375.200,159.624 375.200 C 160.871 375.200,161.552 375.353,161.400 375.600 C 161.248 375.846,161.921 376.000,163.153 376.000 C 164.253 376.000,165.264 376.180,165.400 376.400 C 165.536 376.620,166.447 376.800,167.424 376.800 C 168.401 376.800,169.200 376.980,169.200 377.200 C 169.200 377.428,170.392 377.600,171.976 377.600 C 173.503 377.600,174.864 377.780,175.000 378.000 C 175.136 378.220,176.306 378.400,177.600 378.400 C 178.894 378.400,180.064 378.580,180.200 378.800 C 180.343 379.032,182.537 379.200,185.424 379.200 C 188.475 379.200,190.400 379.355,190.400 379.600 C 190.400 379.856,193.867 380.000,200.000 380.000 C 205.745 380.000,209.600 379.849,209.600 379.623 C 209.600 379.415,211.805 379.151,214.500 379.035 C 222.429 378.695,226.000 378.364,226.000 377.970 C 226.000 377.766,227.080 377.600,228.400 377.600 C 229.733 377.600,230.800 377.422,230.800 377.200 C 230.800 376.980,231.779 376.800,232.976 376.800 C 234.173 376.800,235.264 376.620,235.400 376.400 C 235.536 376.180,236.367 376.000,237.247 376.000 C 238.212 376.000,238.749 375.841,238.600 375.600 C 238.448 375.353,239.129 375.200,240.376 375.200 C 241.489 375.200,242.400 375.050,242.400 374.867 C 242.400 374.684,242.805 374.569,243.300 374.612 C 243.795 374.655,244.506 374.534,244.880 374.342 C 245.254 374.150,246.064 373.936,246.680 373.865 C 247.296 373.795,248.070 373.637,248.400 373.516 C 248.730 373.394,249.810 373.069,250.800 372.793 C 255.483 371.489,256.590 371.119,258.095 370.353 C 258.477 370.159,259.141 370.000,259.571 370.000 C 260.001 370.000,260.464 369.820,260.600 369.600 C 260.736 369.380,261.287 369.200,261.824 369.200 C 262.361 369.200,262.800 369.020,262.800 368.800 C 262.800 368.580,263.351 368.400,264.024 368.400 C 264.737 368.400,265.144 368.233,265.000 368.000 C 264.861 367.774,265.185 367.600,265.743 367.600 C 266.288 367.600,266.793 367.422,266.867 367.203 C 266.940 366.985,267.495 366.766,268.100 366.716 C 268.705 366.666,269.200 366.485,269.200 366.313 C 269.200 366.141,269.560 366.000,270.000 366.000 C 270.440 366.000,270.800 365.820,270.800 365.600 C 270.800 365.380,271.250 365.200,271.800 365.200 C 272.350 365.200,272.800 365.020,272.800 364.800 C 272.800 364.580,273.160 364.400,273.600 364.400 C 274.040 364.400,274.400 364.220,274.400 364.000 C 274.400 363.780,274.760 363.600,275.200 363.600 C 275.640 363.600,276.000 363.420,276.000 363.200 C 276.000 362.980,276.360 362.800,276.800 362.800 C 277.240 362.800,277.600 362.620,277.600 362.400 C 277.600 362.180,277.960 362.000,278.400 362.000 C 278.840 362.000,279.200 361.820,279.200 361.600 C 279.200 361.380,279.560 361.200,280.000 361.200 C 280.440 361.200,280.800 361.020,280.800 360.800 C 280.800 360.580,281.160 360.400,281.600 360.400 C 282.040 360.400,282.400 360.220,282.400 360.000 C 282.400 359.780,282.760 359.600,283.200 359.600 C 283.640 359.600,284.000 359.465,284.001 359.300 C 284.001 359.135,285.171 358.479,286.601 357.843 C 288.030 357.206,289.200 356.575,289.200 356.440 C 289.200 356.158,291.294 355.176,291.609 355.311 C 291.725 355.360,292.244 355.004,292.763 354.520 C 293.283 354.036,294.305 353.356,295.035 353.010 C 295.765 352.664,296.622 352.121,296.938 351.804 C 297.255 351.488,297.759 351.177,298.057 351.114 C 298.356 351.051,298.881 350.696,299.225 350.325 C 299.569 349.954,300.108 349.594,300.422 349.525 C 300.735 349.456,301.446 348.950,302.000 348.400 C 302.554 347.850,303.265 347.344,303.578 347.275 C 303.892 347.206,304.431 346.845,304.775 346.472 C 305.119 346.100,305.895 345.540,306.500 345.230 C 307.105 344.919,307.600 344.515,307.600 344.332 C 307.600 344.150,307.780 344.000,308.000 344.000 C 308.219 344.000,309.141 343.280,310.048 342.400 C 310.955 341.520,311.853 340.800,312.045 340.800 C 312.392 340.800,313.177 340.178,315.950 337.709 C 316.748 336.999,317.636 336.414,317.924 336.409 C 318.212 336.404,318.336 336.220,318.200 336.000 C 318.064 335.780,318.115 335.600,318.314 335.600 C 318.513 335.600,320.054 334.249,321.738 332.597 C 323.422 330.945,324.807 329.730,324.816 329.897 C 324.825 330.064,325.103 329.700,325.435 329.088 C 325.767 328.477,326.164 328.031,326.319 328.098 C 326.474 328.165,327.344 327.451,328.253 326.510 C 329.162 325.570,329.841 324.800,329.761 324.800 C 329.682 324.800,330.963 323.405,332.608 321.700 C 334.253 319.995,335.600 318.454,335.600 318.276 C 335.600 318.098,335.780 318.064,336.000 318.200 C 336.220 318.336,336.400 318.231,336.400 317.967 C 336.400 317.702,337.175 316.567,338.122 315.443 C 339.069 314.319,340.277 312.770,340.807 312.000 C 341.336 311.230,342.271 310.123,342.885 309.540 C 343.498 308.956,344.000 308.281,344.000 308.040 C 344.000 307.798,344.150 307.600,344.332 307.600 C 344.515 307.600,344.919 307.105,345.230 306.500 C 345.540 305.895,346.100 305.119,346.472 304.775 C 346.845 304.431,347.206 303.892,347.275 303.578 C 347.344 303.265,347.850 302.554,348.400 302.000 C 348.950 301.446,349.459 300.724,349.530 300.396 C 349.602 300.068,349.827 299.740,350.030 299.667 C 350.234 299.593,350.400 299.268,350.400 298.943 C 350.400 298.599,350.592 298.472,350.862 298.638 C 351.135 298.807,351.216 298.749,351.059 298.496 C 350.914 298.260,351.246 297.532,351.797 296.876 C 352.349 296.221,352.800 295.485,352.800 295.242 C 352.800 294.999,352.980 294.800,353.200 294.800 C 353.420 294.800,353.600 294.564,353.600 294.275 C 353.600 293.987,353.967 293.357,354.416 292.875 C 354.864 292.394,355.124 292.000,354.993 292.000 C 354.741 292.000,356.023 289.540,356.453 289.200 C 356.592 289.090,357.392 287.560,358.232 285.800 C 359.072 284.040,359.903 282.540,360.079 282.467 C 360.256 282.393,360.400 281.988,360.400 281.567 C 360.400 281.145,360.580 280.800,360.800 280.800 C 361.020 280.800,361.200 280.440,361.200 280.000 C 361.200 279.560,361.380 279.200,361.600 279.200 C 361.820 279.200,362.000 278.840,362.000 278.400 C 362.000 277.960,362.180 277.600,362.400 277.600 C 362.620 277.600,362.800 277.240,362.800 276.800 C 362.800 276.360,362.980 276.000,363.200 276.000 C 363.420 276.000,363.600 275.550,363.600 275.000 C 363.600 274.450,363.735 273.999,363.900 273.997 C 364.259 273.993,365.200 272.056,365.200 271.320 C 365.200 271.034,365.380 270.800,365.600 270.800 C 365.820 270.800,366.000 270.440,366.000 270.000 C 366.000 269.560,366.141 269.200,366.313 269.200 C 366.485 269.200,366.666 268.705,366.716 268.100 C 366.766 267.495,366.985 266.940,367.203 266.867 C 367.422 266.793,367.600 266.388,367.600 265.967 C 367.600 265.545,367.780 265.200,368.000 265.200 C 368.220 265.200,368.400 264.660,368.400 264.000 C 368.400 263.340,368.580 262.800,368.800 262.800 C 369.020 262.800,369.200 262.361,369.200 261.824 C 369.200 261.287,369.380 260.736,369.600 260.600 C 369.820 260.464,370.000 260.001,370.000 259.571 C 370.000 259.141,370.208 258.387,370.462 257.895 C 371.451 255.983,371.600 255.586,371.600 254.872 C 371.600 254.466,371.727 254.007,371.882 253.852 C 372.037 253.697,372.228 253.082,372.306 252.485 C 372.385 251.888,372.618 251.229,372.825 251.020 C 373.031 250.811,373.200 250.166,373.200 249.587 C 373.200 249.007,373.325 248.409,373.477 248.256 C 373.629 248.104,373.808 247.579,373.875 247.090 C 373.941 246.600,374.118 245.750,374.268 245.200 C 374.418 244.650,374.560 243.804,374.584 243.320 C 374.607 242.836,374.756 242.311,374.913 242.153 C 375.071 241.996,375.200 241.076,375.200 240.110 C 375.200 239.040,375.357 238.450,375.600 238.600 C 375.841 238.749,376.000 238.212,376.000 237.247 C 376.000 236.367,376.180 235.536,376.400 235.400 C 376.620 235.264,376.800 234.173,376.800 232.976 C 376.800 231.779,376.980 230.800,377.200 230.800 C 377.422 230.800,377.600 229.733,377.600 228.400 C 377.600 227.080,377.766 226.000,377.970 226.000 C 378.364 226.000,378.695 222.429,379.035 214.500 C 379.151 211.805,379.415 209.600,379.623 209.600 C 380.147 209.600,380.125 190.524,379.600 190.200 C 379.370 190.058,379.200 187.937,379.200 185.200 C 379.200 182.463,379.030 180.342,378.800 180.200 C 378.580 180.064,378.400 178.613,378.400 176.976 C 378.400 175.259,378.231 174.000,378.000 174.000 C 377.778 174.000,377.600 172.933,377.600 171.600 C 377.600 170.267,377.422 169.200,377.200 169.200 C 376.980 169.200,376.800 168.221,376.800 167.024 C 376.800 165.827,376.620 164.736,376.400 164.600 C 376.180 164.464,376.000 163.633,376.000 162.753 C 376.000 161.788,375.841 161.251,375.600 161.400 C 375.357 161.550,375.200 160.960,375.200 159.890 C 375.200 158.924,375.071 158.004,374.913 157.847 C 374.756 157.689,374.607 157.164,374.584 156.680 C 374.560 156.196,374.418 155.350,374.268 154.800 C 374.118 154.250,373.933 153.440,373.858 153.000 C 373.782 152.560,373.605 151.930,373.465 151.600 C 373.324 151.270,373.144 150.640,373.065 150.200 C 372.985 149.760,372.805 149.130,372.665 148.800 C 372.524 148.470,372.352 147.800,372.282 147.310 C 372.211 146.821,372.029 146.296,371.877 146.144 C 371.725 145.991,371.600 145.534,371.600 145.128 C 371.600 144.414,371.451 144.017,370.462 142.105 C 370.208 141.613,370.000 140.859,370.000 140.429 C 370.000 139.999,369.820 139.536,369.600 139.400 C 369.380 139.264,369.200 138.713,369.200 138.176 C 369.200 137.639,369.020 137.200,368.800 137.200 C 368.580 137.200,368.400 136.660,368.400 136.000 C 368.400 135.340,368.220 134.800,368.000 134.800 C 367.780 134.800,367.600 134.455,367.600 134.033 C 367.600 133.612,367.422 133.207,367.203 133.133 C 366.985 133.060,366.766 132.505,366.716 131.900 C 366.666 131.295,366.485 130.800,366.313 130.800 C 366.141 130.800,366.000 130.440,366.000 130.000 C 366.000 129.560,365.820 129.200,365.600 129.200 C 365.380 129.200,365.200 128.851,365.200 128.424 C 365.200 127.997,365.020 127.536,364.800 127.400 C 364.580 127.264,364.400 126.803,364.400 126.376 C 364.400 125.949,364.265 125.599,364.100 125.597 C 363.741 125.593,362.800 123.656,362.800 122.920 C 362.800 122.634,362.620 122.400,362.400 122.400 C 362.180 122.400,362.000 122.040,362.000 121.600 C 362.000 121.160,361.820 120.800,361.600 120.800 C 361.380 120.800,361.200 120.440,361.200 120.000 C 361.200 119.560,361.020 119.200,360.800 119.200 C 360.580 119.200,360.400 118.840,360.400 118.400 C 360.400 117.960,360.220 117.600,360.000 117.600 C 359.780 117.600,359.600 117.240,359.600 116.800 C 359.600 116.360,359.420 116.000,359.200 116.000 C 358.980 116.000,358.800 115.640,358.800 115.200 C 358.800 114.760,358.656 114.400,358.480 114.400 C 358.305 114.400,357.934 113.772,357.656 113.004 C 357.378 112.237,356.937 111.378,356.676 111.097 C 355.995 110.364,354.710 108.000,354.993 108.000 C 355.124 108.000,354.893 107.637,354.480 107.193 C 354.066 106.750,353.479 105.895,353.174 105.293 C 352.869 104.692,352.209 103.690,351.707 103.066 C 351.205 102.443,350.876 101.800,350.976 101.639 C 351.076 101.478,350.807 101.093,350.379 100.785 C 349.950 100.476,349.600 99.993,349.600 99.712 C 349.600 99.430,349.420 99.200,349.200 99.200 C 348.980 99.200,348.800 98.970,348.800 98.688 C 348.800 98.407,348.450 97.924,348.021 97.615 C 347.593 97.307,347.319 96.930,347.413 96.779 C 347.507 96.627,347.272 96.135,346.892 95.685 C 345.044 93.501,344.800 93.163,344.800 92.795 C 344.800 92.578,344.620 92.400,344.400 92.400 C 344.180 92.400,344.000 92.220,344.000 92.000 C 344.000 91.781,343.280 90.859,342.400 89.952 C 341.520 89.045,340.800 88.140,340.800 87.941 C 340.800 87.742,340.215 86.939,339.500 86.157 C 338.785 85.375,337.705 84.003,337.100 83.107 C 336.495 82.212,336.000 81.611,336.000 81.770 C 336.000 81.930,335.525 81.497,334.945 80.807 C 334.365 80.118,333.195 78.872,332.345 78.039 C 331.495 77.206,330.800 76.317,330.800 76.062 C 330.800 75.808,330.519 75.600,330.176 75.600 C 329.833 75.600,329.664 75.420,329.800 75.200 C 329.936 74.980,329.882 74.800,329.681 74.800 C 329.178 74.800,325.200 70.784,325.200 70.276 C 325.200 70.051,325.095 69.971,324.967 70.099 C 324.839 70.228,323.369 68.998,321.700 67.366 C 320.031 65.735,318.505 64.400,318.309 64.400 C 318.113 64.400,318.064 64.220,318.200 64.000 C 318.336 63.780,318.212 63.599,317.924 63.598 C 317.636 63.597,316.500 62.795,315.400 61.816 C 312.447 59.187,312.464 59.200,312.065 59.200 C 311.862 59.200,310.955 58.480,310.048 57.600 C 309.141 56.720,308.219 56.000,308.000 56.000 C 307.780 56.000,307.600 55.820,307.600 55.600 C 307.600 55.380,307.422 55.200,307.205 55.200 C 306.837 55.200,306.500 54.956,304.319 53.112 C 303.871 52.733,303.166 52.316,302.752 52.185 C 302.339 52.054,302.000 51.778,302.000 51.573 C 302.000 51.368,301.730 51.200,301.400 51.200 C 301.070 51.200,300.800 51.020,300.800 50.800 C 300.800 50.580,300.596 50.400,300.347 50.400 C 300.098 50.400,299.603 50.085,299.247 49.700 C 298.891 49.315,298.330 48.941,298.000 48.870 C 297.670 48.798,297.340 48.573,297.267 48.370 C 297.193 48.166,296.878 48.000,296.567 48.000 C 296.255 48.000,296.000 47.864,296.000 47.698 C 296.000 47.531,295.494 47.171,294.875 46.897 C 294.256 46.624,293.394 46.085,292.960 45.700 C 292.525 45.315,291.964 44.959,291.714 44.910 C 291.463 44.860,290.457 44.311,289.477 43.690 C 288.497 43.068,286.864 42.217,285.848 41.798 C 284.832 41.379,284.000 40.893,284.000 40.718 C 284.000 40.543,283.640 40.400,283.200 40.400 C 282.760 40.400,282.400 40.220,282.400 40.000 C 282.400 39.780,282.040 39.600,281.600 39.600 C 281.160 39.600,280.800 39.420,280.800 39.200 C 280.800 38.980,280.440 38.800,280.000 38.800 C 279.560 38.800,279.200 38.620,279.200 38.400 C 279.200 38.180,278.840 38.000,278.400 38.000 C 277.960 38.000,277.600 37.820,277.600 37.600 C 277.600 37.380,277.240 37.200,276.800 37.200 C 276.360 37.200,276.000 37.020,276.000 36.800 C 276.000 36.580,275.640 36.400,275.200 36.400 C 274.760 36.400,274.400 36.220,274.400 36.000 C 274.400 35.780,274.040 35.600,273.600 35.600 C 273.160 35.600,272.800 35.420,272.800 35.200 C 272.800 34.980,272.350 34.800,271.800 34.800 C 271.250 34.800,270.800 34.620,270.800 34.400 C 270.800 34.180,270.339 34.000,269.776 34.000 C 269.213 34.000,268.840 33.858,268.948 33.685 C 269.055 33.512,268.660 33.330,268.071 33.281 C 267.482 33.233,266.940 33.015,266.867 32.797 C 266.793 32.578,266.288 32.400,265.743 32.400 C 265.185 32.400,264.861 32.226,265.000 32.000 C 265.144 31.767,264.737 31.600,264.024 31.600 C 263.351 31.600,262.800 31.420,262.800 31.200 C 262.800 30.980,262.386 30.800,261.880 30.800 C 261.374 30.800,260.781 30.621,260.562 30.402 C 260.344 30.184,259.678 29.964,259.082 29.915 C 258.487 29.866,258.000 29.685,258.000 29.513 C 258.000 29.341,257.580 29.200,257.067 29.200 C 256.553 29.200,256.010 29.077,255.859 28.926 C 255.420 28.487,252.681 27.613,251.724 27.606 C 251.242 27.603,250.750 27.443,250.632 27.252 C 250.421 26.910,248.657 26.394,246.922 26.166 C 246.438 26.103,245.708 25.872,245.298 25.652 C 244.888 25.433,244.068 25.307,243.476 25.372 C 242.884 25.437,242.400 25.335,242.400 25.145 C 242.400 24.955,241.590 24.800,240.600 24.800 C 239.610 24.800,238.800 24.620,238.800 24.400 C 238.800 24.180,237.979 24.000,236.976 24.000 C 235.973 24.000,235.245 23.850,235.358 23.668 C 235.471 23.485,234.537 23.295,233.282 23.245 C 232.027 23.195,230.829 22.984,230.620 22.777 C 230.411 22.570,229.286 22.400,228.120 22.400 C 226.954 22.400,226.000 22.220,226.000 22.000 C 226.000 21.769,224.741 21.600,223.024 21.600 C 221.387 21.600,219.936 21.420,219.800 21.200 C 219.657 20.968,217.470 20.800,214.600 20.800 C 211.730 20.800,209.543 20.632,209.400 20.400 C 209.079 19.880,191.103 19.858,190.580 20.377 M286.112 137.789 C 289.665 138.867,293.096 141.565,294.369 144.282 C 294.658 144.897,295.072 145.744,295.290 146.164 C 295.826 147.195,295.778 153.982,295.232 154.528 C 294.994 154.766,294.800 155.284,294.800 155.680 C 294.800 156.076,294.620 156.400,294.400 156.400 C 294.180 156.400,294.000 156.670,294.000 157.001 C 294.000 157.785,174.184 277.600,173.399 277.600 C 173.070 277.600,172.800 277.780,172.800 278.000 C 172.800 278.220,172.476 278.400,172.080 278.400 C 171.684 278.400,171.143 278.617,170.878 278.882 C 170.579 279.181,169.064 279.370,166.871 279.382 C 160.795 279.413,159.030 278.094,151.367 267.800 C 148.747 264.280,146.504 261.310,146.382 261.200 C 146.261 261.090,145.729 260.370,145.200 259.600 C 144.671 258.830,144.131 258.110,144.000 258.000 C 143.869 257.890,143.329 257.170,142.800 256.400 C 142.271 255.630,141.731 254.910,141.600 254.800 C 141.469 254.690,140.929 253.970,140.400 253.200 C 139.871 252.430,139.331 251.710,139.200 251.600 C 139.069 251.490,138.523 250.770,137.986 250.000 C 137.450 249.230,136.788 248.330,136.515 248.000 C 136.242 247.670,133.278 243.710,129.928 239.200 C 126.579 234.690,123.731 230.910,123.600 230.800 C 123.469 230.690,122.923 229.970,122.386 229.200 C 121.850 228.430,121.194 227.530,120.928 227.200 C 120.662 226.870,118.170 223.540,115.391 219.800 C 112.611 216.060,110.124 212.730,109.863 212.400 C 109.602 212.070,108.946 211.170,108.405 210.400 C 107.864 209.630,107.126 208.677,106.765 208.282 C 101.492 202.523,103.563 192.109,110.668 188.656 C 111.511 188.246,112.513 187.751,112.895 187.556 C 113.277 187.360,114.961 187.200,116.637 187.200 C 121.927 187.200,124.878 189.079,129.200 195.200 C 129.744 195.970,130.411 196.870,130.683 197.200 C 131.158 197.776,138.461 207.572,139.902 209.566 C 140.286 210.097,140.786 210.727,141.013 210.966 C 141.240 211.205,141.862 212.030,142.394 212.800 C 142.926 213.570,143.468 214.290,143.598 214.400 C 143.727 214.510,146.043 217.570,148.743 221.200 C 151.444 224.830,153.869 228.070,154.132 228.400 C 154.396 228.730,155.050 229.630,155.586 230.400 C 156.123 231.170,156.669 231.890,156.800 232.000 C 156.931 232.110,157.471 232.830,158.000 233.600 C 158.529 234.370,159.063 235.090,159.188 235.200 C 159.313 235.310,160.755 237.200,162.394 239.400 C 164.033 241.600,165.996 244.177,166.757 245.127 L 168.140 246.853 221.770 193.299 C 263.369 151.759,275.804 139.561,277.200 138.927 C 281.277 137.073,283.020 136.850,286.112 137.789 " stroke="none" fill="#3cdc7c" fill-rule="evenodd"></path><path id="path2" d="M221.599 193.900 L 168.200 247.400 221.700 194.001 C 271.439 144.355,275.379 140.400,275.099 140.400 C 275.044 140.400,250.969 164.475,221.599 193.900 M290.800 140.525 C 290.800 140.594,291.385 141.179,292.100 141.825 L 293.400 143.000 292.225 141.700 C 291.130 140.488,290.800 140.216,290.800 140.525 M275.381 175.700 L 273.800 177.400 275.500 175.819 C 277.081 174.348,277.384 174.000,277.081 174.000 C 277.016 174.000,276.251 174.765,275.381 175.700 M241.781 209.300 L 240.200 211.000 241.900 209.419 C 243.481 207.948,243.784 207.600,243.481 207.600 C 243.416 207.600,242.651 208.365,241.781 209.300 M225.381 225.700 L 223.800 227.400 225.500 225.819 C 227.081 224.348,227.384 224.000,227.081 224.000 C 227.016 224.000,226.251 224.765,225.381 225.700 M208.981 242.100 L 207.400 243.800 209.100 242.219 C 210.035 241.349,210.800 240.584,210.800 240.519 C 210.800 240.216,210.452 240.519,208.981 242.100 M191.781 259.300 L 190.200 261.000 191.900 259.419 C 193.481 257.948,193.784 257.600,193.481 257.600 C 193.416 257.600,192.651 258.365,191.781 259.300 " stroke="none" fill="#8ce4b4" fill-rule="evenodd"></path><path id="path3" d="M281.600 138.021 C 280.532 138.230,280.903 138.307,283.167 138.347 C 284.798 138.376,286.058 138.335,285.967 138.257 C 285.570 137.915,282.884 137.770,281.600 138.021 M277.500 139.029 C 276.895 139.357,276.400 139.706,276.400 139.804 C 276.400 140.028,278.466 139.163,278.980 138.724 C 279.607 138.190,278.704 138.376,277.500 139.029 M286.800 138.592 C 286.800 138.745,289.192 140.000,289.485 140.000 C 289.574 140.000,289.547 139.838,289.424 139.639 C 289.198 139.274,286.800 138.316,286.800 138.592 M222.200 193.600 C 192.721 223.080,168.434 247.200,168.230 247.200 C 168.025 247.200,167.330 246.615,166.684 245.900 L 165.510 244.600 166.505 246.000 C 167.052 246.770,167.748 247.448,168.050 247.507 C 168.353 247.566,192.810 223.401,222.399 193.807 C 251.989 164.213,276.109 140.000,275.999 140.000 C 275.889 140.000,251.679 164.120,222.200 193.600 M293.400 144.000 C 293.741 144.660,294.111 145.200,294.221 145.200 C 294.331 145.200,294.141 144.660,293.800 144.000 C 293.459 143.340,293.089 142.800,292.979 142.800 C 292.869 142.800,293.059 143.340,293.400 144.000 M294.600 153.600 C 294.450 154.073,294.417 154.550,294.527 154.660 C 294.637 154.770,294.850 154.473,295.000 154.000 C 295.150 153.527,295.183 153.050,295.073 152.940 C 294.963 152.830,294.750 153.127,294.600 153.600 M233.000 217.575 C 200.220 250.340,173.670 276.990,174.000 276.798 C 174.704 276.388,293.094 158.000,292.799 158.001 C 292.690 158.001,265.780 184.810,233.000 217.575 M113.200 188.000 C 112.405 188.514,113.404 188.514,114.600 188.000 L 115.400 187.656 114.600 187.634 C 114.160 187.622,113.530 187.787,113.200 188.000 M118.600 188.000 C 119.040 188.189,119.760 188.338,120.200 188.332 C 120.843 188.323,120.804 188.257,120.000 188.000 C 118.632 187.562,117.581 187.562,118.600 188.000 M124.846 191.170 C 126.005 192.286,127.045 193.200,127.157 193.200 C 127.506 193.200,124.244 189.961,123.470 189.538 C 123.069 189.319,123.688 190.053,124.846 191.170 M107.234 191.856 C 106.335 192.877,105.609 193.912,105.621 194.156 C 105.633 194.400,105.948 194.154,106.321 193.609 C 106.694 193.065,107.514 192.030,108.141 191.309 C 108.769 190.589,109.190 190.000,109.075 190.000 C 108.961 190.000,108.133 190.835,107.234 191.856 M127.991 194.788 C 128.457 195.441,129.042 196.102,129.291 196.256 C 129.541 196.411,129.241 195.876,128.625 195.068 C 127.288 193.315,126.784 193.092,127.991 194.788 M130.391 197.988 C 130.857 198.641,131.442 199.302,131.691 199.456 C 131.941 199.611,131.641 199.076,131.025 198.268 C 129.688 196.515,129.184 196.292,130.391 197.988 M104.256 198.900 C 104.126 199.835,104.168 201.230,104.349 202.000 C 104.618 203.145,104.684 202.835,104.711 200.300 C 104.749 196.824,104.604 196.379,104.256 198.900 M132.289 200.500 C 132.502 200.775,134.330 203.205,136.350 205.900 C 138.371 208.595,140.111 210.800,140.218 210.800 C 140.324 210.800,138.586 208.370,136.356 205.400 C 134.126 202.430,132.212 200.000,132.102 200.000 C 131.992 200.000,132.076 200.225,132.289 200.500 M106.054 206.400 C 106.604 207.553,113.520 216.800,113.833 216.800 C 113.947 216.800,113.602 216.215,113.066 215.500 C 110.001 211.410,106.909 207.253,106.288 206.390 L 105.577 205.400 106.054 206.400 M141.191 212.388 C 141.657 213.041,142.242 213.702,142.491 213.856 C 142.741 214.011,142.441 213.476,141.825 212.668 C 140.488 210.915,139.984 210.692,141.191 212.388 M143.540 215.516 C 144.033 216.209,144.644 216.904,144.897 217.060 C 145.150 217.217,144.954 216.777,144.460 216.084 C 143.967 215.391,143.356 214.696,143.103 214.540 C 142.850 214.383,143.046 214.823,143.540 215.516 M114.791 218.388 C 115.257 219.041,115.842 219.702,116.091 219.856 C 116.341 220.011,116.041 219.476,115.425 218.668 C 114.088 216.915,113.584 216.692,114.791 218.388 M145.940 218.716 C 146.433 219.409,147.044 220.104,147.297 220.260 C 147.550 220.417,147.354 219.977,146.860 219.284 C 146.367 218.591,145.756 217.896,145.503 217.740 C 145.250 217.583,145.446 218.023,145.940 218.716 M117.140 221.516 C 117.633 222.209,118.244 222.904,118.497 223.060 C 118.750 223.217,118.554 222.777,118.060 222.084 C 117.567 221.391,116.956 220.696,116.703 220.540 C 116.450 220.383,116.646 220.823,117.140 221.516 M148.340 221.916 C 148.833 222.609,149.444 223.304,149.697 223.460 C 149.950 223.617,149.754 223.177,149.260 222.484 C 148.767 221.791,148.156 221.096,147.903 220.940 C 147.650 220.783,147.846 221.223,148.340 221.916 M150.465 224.700 C 150.789 225.085,152.087 226.795,153.350 228.500 C 154.612 230.205,155.753 231.600,155.884 231.600 C 156.016 231.600,155.859 231.285,155.535 230.900 C 155.211 230.515,153.913 228.805,152.650 227.100 C 151.388 225.395,150.247 224.000,150.116 224.000 C 149.984 224.000,150.141 224.315,150.465 224.700 M123.027 229.400 C 124.400 231.200,124.668 231.203,123.504 229.405 C 123.007 228.638,122.456 228.008,122.280 228.005 C 122.103 228.002,122.440 228.630,123.027 229.400 M124.800 231.416 C 124.800 231.770,129.177 237.600,129.443 237.600 C 129.552 237.600,129.137 236.926,128.520 236.102 C 125.245 231.722,124.800 231.161,124.800 231.416 M156.791 233.188 C 157.257 233.841,157.842 234.502,158.091 234.656 C 158.341 234.811,158.041 234.276,157.425 233.468 C 156.088 231.715,155.584 231.492,156.791 233.188 M130.391 239.188 C 130.857 239.841,131.442 240.502,131.691 240.656 C 131.941 240.811,131.641 240.276,131.025 239.468 C 129.688 237.715,129.184 237.492,130.391 239.188 M132.791 242.388 C 133.257 243.041,133.842 243.702,134.091 243.856 C 134.341 244.011,134.041 243.476,133.425 242.668 C 132.088 240.915,131.584 240.692,132.791 242.388 M163.940 242.716 C 164.433 243.409,165.044 244.104,165.297 244.260 C 165.550 244.417,165.354 243.977,164.860 243.284 C 164.367 242.591,163.756 241.896,163.503 241.740 C 163.250 241.583,163.446 242.023,163.940 242.716 M135.191 245.588 C 135.657 246.241,136.242 246.902,136.491 247.056 C 136.741 247.211,136.441 246.676,135.825 245.868 C 134.488 244.115,133.984 243.892,135.191 245.588 M137.591 248.788 C 138.057 249.441,138.642 250.102,138.891 250.256 C 139.141 250.411,138.841 249.876,138.225 249.068 C 136.888 247.315,136.384 247.092,137.591 248.788 M141.027 253.400 C 142.400 255.200,142.668 255.203,141.504 253.405 C 141.007 252.638,140.456 252.008,140.280 252.005 C 140.103 252.002,140.440 252.630,141.027 253.400 M143.427 256.600 C 144.800 258.400,145.068 258.403,143.904 256.605 C 143.407 255.838,142.856 255.208,142.680 255.205 C 142.503 255.202,142.840 255.830,143.427 256.600 M145.200 258.648 C 145.200 258.858,145.753 259.653,146.429 260.415 L 147.658 261.800 146.545 260.200 C 145.933 259.320,145.380 258.525,145.316 258.433 C 145.252 258.342,145.200 258.438,145.200 258.648 M148.340 263.116 C 148.833 263.809,149.444 264.504,149.697 264.660 C 149.950 264.817,149.754 264.377,149.260 263.684 C 148.767 262.991,148.156 262.296,147.903 262.140 C 147.650 261.983,147.846 262.423,148.340 263.116 M150.740 266.316 C 151.233 267.009,151.844 267.704,152.097 267.860 C 152.350 268.017,152.154 267.577,151.660 266.884 C 151.167 266.191,150.556 265.496,150.303 265.340 C 150.050 265.183,150.246 265.623,150.740 266.316 M153.140 269.516 C 153.633 270.209,154.244 270.904,154.497 271.060 C 154.750 271.217,154.554 270.777,154.060 270.084 C 153.567 269.391,152.956 268.696,152.703 268.540 C 152.450 268.383,152.646 268.823,153.140 269.516 M155.540 272.716 C 156.033 273.409,156.644 274.104,156.897 274.260 C 157.150 274.417,156.954 273.977,156.460 273.284 C 155.967 272.591,155.356 271.896,155.103 271.740 C 154.850 271.583,155.046 272.023,155.540 272.716 M157.802 275.602 C 158.202 276.044,158.611 276.322,158.712 276.221 C 158.928 276.005,157.788 274.800,157.367 274.800 C 157.207 274.800,157.403 275.161,157.802 275.602 M165.500 279.082 C 165.995 279.178,166.805 279.178,167.300 279.082 C 167.795 278.987,167.390 278.909,166.400 278.909 C 165.410 278.909,165.005 278.987,165.500 279.082 " stroke="none" fill="#a1ecbc" fill-rule="evenodd"></path><path id="path4" d="M280.939 137.506 C 280.685 137.668,281.743 137.810,283.289 137.823 C 284.884 137.836,285.777 137.718,285.351 137.551 C 284.362 137.163,281.523 137.134,280.939 137.506 M286.800 138.286 C 287.130 138.409,287.895 138.760,288.500 139.065 C 289.105 139.371,289.600 139.531,289.600 139.421 C 289.600 139.107,287.298 137.996,286.720 138.032 C 286.371 138.053,286.397 138.136,286.800 138.286 M221.357 193.643 L 168.114 246.886 166.357 244.590 C 163.921 241.408,162.441 239.771,164.195 242.200 C 164.990 243.300,166.036 244.781,166.520 245.491 C 167.004 246.201,167.597 246.860,167.837 246.955 C 168.078 247.049,192.287 223.113,221.637 193.763 C 250.986 164.414,274.909 140.400,274.799 140.400 C 274.689 140.400,250.640 164.359,221.357 193.643 M295.152 153.513 C 295.021 154.307,295.079 154.681,295.301 154.459 C 295.503 154.257,295.601 153.667,295.519 153.146 C 295.393 152.345,295.337 152.402,295.152 153.513 M292.661 158.229 C 292.034 158.983,291.653 159.600,291.814 159.600 C 292.175 159.600,293.999 157.514,294.000 157.100 C 294.000 156.653,293.901 156.736,292.661 158.229 M113.064 187.500 C 112.963 187.665,114.645 187.800,116.803 187.800 C 118.960 187.800,120.517 187.668,120.263 187.506 C 119.653 187.119,113.300 187.113,113.064 187.500 M122.200 188.668 C 122.860 189.017,124.210 189.946,125.200 190.732 C 126.302 191.606,126.690 191.795,126.200 191.220 C 125.298 190.159,122.065 187.992,121.422 188.016 C 121.190 188.025,121.540 188.318,122.200 188.668 M108.800 189.800 C 108.055 190.350,107.615 190.794,107.822 190.786 C 108.224 190.770,110.755 188.805,110.378 188.802 C 110.255 188.801,109.545 189.250,108.800 189.800 M104.986 194.427 C 104.637 195.102,104.407 195.814,104.476 196.009 C 104.544 196.204,104.902 195.651,105.270 194.782 C 106.065 192.906,105.887 192.684,104.986 194.427 M130.400 197.048 C 130.400 197.258,130.953 198.053,131.629 198.815 L 132.858 200.200 131.745 198.600 C 131.133 197.720,130.580 196.925,130.516 196.833 C 130.452 196.742,130.400 196.838,130.400 197.048 M103.843 197.833 C 103.526 198.658,103.580 201.609,103.928 202.485 C 104.078 202.862,104.200 201.828,104.200 200.186 C 104.200 196.930,104.197 196.910,103.843 197.833 M133.591 201.588 C 134.057 202.241,134.642 202.902,134.891 203.056 C 135.141 203.211,134.841 202.676,134.225 201.868 C 132.888 200.115,132.384 199.892,133.591 201.588 M135.991 204.788 C 136.457 205.441,137.042 206.102,137.291 206.256 C 137.541 206.411,137.241 205.876,136.625 205.068 C 135.288 203.315,134.784 203.092,135.991 204.788 M112.575 216.132 C 113.191 216.939,113.776 217.600,113.875 217.600 C 114.153 217.600,112.421 215.260,111.909 214.944 C 111.659 214.789,111.959 215.324,112.575 216.132 M145.775 217.732 C 146.391 218.539,146.976 219.200,147.075 219.200 C 147.353 219.200,145.621 216.860,145.109 216.544 C 144.859 216.389,145.159 216.924,145.775 217.732 M114.975 219.332 C 115.591 220.139,116.176 220.800,116.275 220.800 C 116.553 220.800,114.821 218.460,114.309 218.144 C 114.059 217.989,114.359 218.524,114.975 219.332 M148.770 221.700 C 149.719 222.965,150.576 224.000,150.673 224.000 C 150.946 224.000,148.315 220.425,147.641 219.882 C 147.313 219.617,147.821 220.435,148.770 221.700 M117.600 222.800 C 118.070 223.460,118.544 224.000,118.654 224.000 C 118.764 224.000,118.470 223.460,118.000 222.800 C 117.530 222.140,117.056 221.600,116.946 221.600 C 116.836 221.600,117.130 222.140,117.600 222.800 M151.540 225.516 C 152.033 226.209,152.644 226.904,152.897 227.060 C 153.150 227.217,152.954 226.777,152.460 226.084 C 151.967 225.391,151.356 224.696,151.103 224.540 C 150.850 224.383,151.046 224.823,151.540 225.516 M120.096 226.195 C 120.593 226.962,121.144 227.592,121.320 227.595 C 121.497 227.598,121.160 226.970,120.573 226.200 C 119.200 224.400,118.932 224.397,120.096 226.195 M122.496 229.395 C 122.993 230.162,123.544 230.792,123.720 230.795 C 123.897 230.798,123.560 230.170,122.973 229.400 C 121.600 227.600,121.332 227.597,122.496 229.395 M161.375 238.532 C 161.991 239.339,162.576 240.000,162.675 240.000 C 162.953 240.000,161.221 237.660,160.709 237.344 C 160.459 237.189,160.759 237.724,161.375 238.532 M130.575 240.132 C 131.191 240.939,131.776 241.600,131.875 241.600 C 132.153 241.600,130.421 239.260,129.909 238.944 C 129.659 238.789,129.959 239.324,130.575 240.132 M132.975 243.332 C 133.591 244.139,134.176 244.800,134.275 244.800 C 134.553 244.800,132.821 242.460,132.309 242.144 C 132.059 241.989,132.359 242.524,132.975 243.332 M135.455 246.600 C 136.067 247.480,136.620 248.275,136.684 248.367 C 136.748 248.458,136.800 248.362,136.800 248.152 C 136.800 247.942,136.247 247.147,135.571 246.385 L 134.342 245.000 135.455 246.600 M138.096 250.195 C 138.593 250.962,139.144 251.592,139.320 251.595 C 139.497 251.598,139.160 250.970,138.573 250.200 C 137.200 248.400,136.932 248.397,138.096 250.195 M140.496 253.395 C 140.993 254.162,141.544 254.792,141.720 254.795 C 141.897 254.798,141.560 254.170,140.973 253.400 C 139.600 251.600,139.332 251.597,140.496 253.395 M143.293 257.200 C 143.568 257.640,143.931 258.000,144.100 258.000 C 144.269 258.000,144.182 257.640,143.907 257.200 C 143.632 256.760,143.269 256.400,143.100 256.400 C 142.931 256.400,143.018 256.760,143.293 257.200 M145.693 260.400 C 145.968 260.840,146.331 261.200,146.500 261.200 C 146.669 261.200,146.582 260.840,146.307 260.400 C 146.032 259.960,145.669 259.600,145.500 259.600 C 145.331 259.600,145.418 259.960,145.693 260.400 M151.895 268.553 C 154.263 271.718,156.261 274.252,156.335 274.185 C 156.498 274.038,148.059 262.800,147.785 262.800 C 147.678 262.800,149.528 265.389,151.895 268.553 M174.493 276.433 C 173.775 277.075,173.325 277.600,173.494 277.600 C 173.924 277.599,176.165 275.632,175.964 275.431 C 175.874 275.340,175.212 275.791,174.493 276.433 M165.705 279.487 C 166.314 279.579,167.214 279.577,167.705 279.482 C 168.197 279.387,167.700 279.311,166.600 279.314 C 165.500 279.317,165.097 279.395,165.705 279.487 " stroke="none" fill="#75e4a2" fill-rule="evenodd"></path></g></svg>