<svg id="svg" version="1.1" xmlns="http://www.w3.org/2000/svg" xmlns:xlink="http://www.w3.org/1999/xlink" width="400" height="400" viewBox="0, 0, 400,400"><g id="svgg"><path id="path0" d="M90.800 199.957 C 90.800 286.940,90.902 309.143,91.300 309.257 C 91.575 309.336,140.710 309.350,200.490 309.290 L 309.179 309.179 309.290 200.490 C 309.350 140.710,309.336 91.575,309.257 91.300 C 309.143 90.902,286.940 90.800,199.957 90.800 L 90.800 90.800 90.800 199.957 M293.502 144.700 L 293.400 183.000 200.000 183.000 L 106.600 183.000 106.498 144.700 L 106.396 106.400 200.000 106.400 L 293.604 106.400 293.502 144.700 M155.403 191.700 C 155.523 192.195,155.571 203.220,155.511 216.200 L 155.400 239.800 131.000 239.800 L 106.600 239.800 106.496 215.800 C 106.439 202.600,106.479 191.575,106.584 191.300 C 106.734 190.908,111.985 190.800,130.980 190.800 L 155.185 190.800 155.403 191.700 M224.320 191.280 C 225.148 192.108,224.999 239.438,224.167 239.757 C 223.341 240.074,176.659 240.074,175.833 239.757 C 175.001 239.438,174.852 192.108,175.680 191.280 C 176.373 190.587,223.627 190.587,224.320 191.280 M293.503 214.955 C 293.578 232.316,293.482 239.060,293.154 239.455 C 292.704 239.998,246.114 240.325,244.733 239.796 C 244.220 239.599,244.094 192.753,244.602 191.297 C 244.741 190.899,249.845 190.815,269.089 190.897 L 293.400 191.000 293.503 214.955 M155.006 253.219 C 155.650 255.248,156.086 255.214,130.654 255.103 C 104.994 254.991,106.141 255.094,106.954 252.977 C 107.367 251.898,154.663 252.137,155.006 253.219 M223.806 253.219 C 224.450 255.248,224.886 255.214,199.454 255.103 C 173.794 254.991,174.941 255.094,175.754 252.977 C 176.167 251.898,223.463 252.137,223.806 253.219 M292.725 253.700 L 292.600 255.000 268.952 255.103 C 243.513 255.214,243.950 255.248,244.594 253.219 C 244.852 252.406,245.018 252.400,268.852 252.400 L 292.851 252.400 292.725 253.700 M154.181 265.264 C 155.293 265.771,155.515 266.841,154.655 267.554 C 154.260 267.882,147.620 267.978,130.555 267.903 L 107.000 267.800 106.862 266.822 C 106.575 264.789,106.442 264.800,130.658 264.800 C 146.884 264.800,153.447 264.930,154.181 265.264 M223.256 265.575 C 224.025 266.206,224.118 266.484,223.756 267.075 C 223.336 267.762,222.065 267.800,199.556 267.800 L 175.800 267.800 175.662 266.822 C 175.375 264.788,175.230 264.800,199.632 264.800 C 221.475 264.800,222.346 264.829,223.256 265.575 M292.162 265.322 C 292.601 265.644,292.823 266.221,292.738 266.822 L 292.600 267.800 268.844 267.800 C 246.335 267.800,245.064 267.762,244.644 267.075 C 244.282 266.484,244.375 266.206,245.144 265.575 C 246.355 264.581,290.821 264.342,292.162 265.322 M154.567 278.243 C 155.344 278.541,155.394 279.741,154.655 280.354 C 153.598 281.232,107.043 280.766,106.872 279.877 C 106.496 277.927,105.571 278.000,130.555 278.000 C 143.414 278.000,154.219 278.109,154.567 278.243 M223.628 278.634 C 225.243 280.580,225.104 280.592,199.756 280.704 C 174.207 280.817,174.507 280.842,175.630 278.745 C 176.200 277.680,222.747 277.572,223.628 278.634 M292.600 279.400 L 292.600 280.600 268.952 280.703 C 243.508 280.814,243.950 280.848,244.595 278.816 C 244.855 277.997,244.947 277.994,268.728 278.097 L 292.600 278.200 292.600 279.400 M141.184 291.381 C 141.449 291.700,141.548 292.332,141.405 292.785 C 141.146 293.602,140.999 293.608,124.077 293.504 C 105.634 293.392,106.156 293.456,106.954 291.377 C 107.286 290.509,140.464 290.513,141.184 291.381 M209.800 292.200 L 209.800 293.400 192.805 293.400 C 176.729 293.400,175.803 293.361,175.672 292.677 C 175.298 290.735,174.825 290.784,192.889 290.896 L 209.800 291.000 209.800 292.200 M278.982 291.544 C 279.656 293.667,280.094 293.617,261.899 293.504 C 243.867 293.392,243.212 293.313,244.772 291.434 C 245.650 290.376,278.645 290.482,278.982 291.544 " stroke="none" fill="#617d8c" fill-rule="evenodd"></path><path id="path1" d="M180.400 164.678 C 178.699 165.285,178.279 167.590,179.689 168.577 C 180.872 169.406,182.127 169.364,182.938 168.469 C 184.654 166.573,182.808 163.817,180.400 164.678 M187.289 165.023 C 185.784 166.077,186.124 168.219,187.950 169.181 C 188.761 169.608,189.054 169.567,189.950 168.901 C 192.683 166.870,190.076 163.071,187.289 165.023 M194.416 165.275 C 192.205 167.649,195.563 170.874,197.856 168.580 C 198.648 167.789,198.818 167.317,198.616 166.480 C 198.104 164.355,195.870 163.714,194.416 165.275 M202.298 164.900 C 200.635 166.170,201.675 169.600,203.723 169.600 C 204.563 169.600,206.400 167.744,206.400 166.895 C 206.400 165.041,203.781 163.767,202.298 164.900 M209.576 165.224 C 207.841 166.959,209.930 170.298,212.050 169.181 C 213.278 168.534,213.586 168.042,213.594 166.723 C 213.606 164.678,211.068 163.732,209.576 165.224 M217.289 165.023 C 215.859 166.024,216.058 168.202,217.654 169.028 C 218.834 169.638,218.969 169.631,219.954 168.898 C 222.741 166.827,220.131 163.032,217.289 165.023 M106.584 191.300 C 106.479 191.575,106.439 202.600,106.496 215.800 L 106.600 239.800 131.000 239.800 L 155.400 239.800 155.511 216.200 C 155.571 203.220,155.523 192.195,155.403 191.700 L 155.185 190.800 130.980 190.800 C 111.985 190.800,106.734 190.908,106.584 191.300 M175.680 191.280 C 174.852 192.108,175.001 239.438,175.833 239.757 C 176.659 240.074,223.341 240.074,224.167 239.757 C 224.999 239.438,225.148 192.108,224.320 191.280 C 223.627 190.587,176.373 190.587,175.680 191.280 M106.954 252.977 C 106.141 255.094,104.994 254.991,130.654 255.103 C 156.086 255.214,155.650 255.248,155.006 253.219 C 154.663 252.137,107.367 251.898,106.954 252.977 M175.754 252.977 C 174.941 255.094,173.794 254.991,199.454 255.103 C 224.886 255.214,224.450 255.248,223.806 253.219 C 223.463 252.137,176.167 251.898,175.754 252.977 M244.594 253.219 C 243.950 255.248,243.513 255.214,268.952 255.103 L 292.600 255.000 292.725 253.700 L 292.851 252.400 268.852 252.400 C 245.018 252.400,244.852 252.406,244.594 253.219 M107.438 265.322 C 106.999 265.644,106.777 266.221,106.862 266.822 L 107.000 267.800 130.555 267.903 C 147.620 267.978,154.260 267.882,154.655 267.554 C 155.515 266.841,155.293 265.771,154.181 265.264 C 152.620 264.553,108.416 264.608,107.438 265.322 M176.238 265.322 C 175.799 265.644,175.577 266.221,175.662 266.822 L 175.800 267.800 199.556 267.800 C 222.065 267.800,223.336 267.762,223.756 267.075 C 224.118 266.484,224.025 266.206,223.256 265.575 C 222.045 264.581,177.579 264.342,176.238 265.322 M245.144 265.575 C 244.375 266.206,244.282 266.484,244.644 267.075 C 245.064 267.762,246.335 267.800,268.844 267.800 L 292.600 267.800 292.738 266.822 C 293.025 264.788,293.170 264.800,268.768 264.800 C 246.925 264.800,246.054 264.829,245.144 265.575 M106.954 278.577 C 106.141 280.694,105.003 280.591,130.561 280.703 C 147.621 280.778,154.260 280.682,154.655 280.354 C 155.394 279.741,155.344 278.541,154.567 278.243 C 153.045 277.658,107.183 277.980,106.954 278.577 M175.630 278.745 C 174.507 280.842,174.207 280.817,199.756 280.704 C 225.104 280.592,225.243 280.580,223.628 278.634 C 222.747 277.572,176.200 277.680,175.630 278.745 M244.595 278.816 C 243.950 280.848,243.508 280.814,268.952 280.703 L 292.600 280.600 292.600 279.400 L 292.600 278.200 268.728 278.097 C 244.947 277.994,244.855 277.997,244.595 278.816 M106.954 291.377 C 106.156 293.456,105.634 293.392,124.077 293.504 C 140.999 293.608,141.146 293.602,141.405 292.785 C 142.031 290.813,141.917 290.800,123.938 290.800 C 109.708 290.800,107.141 290.887,106.954 291.377 M175.755 291.372 C 174.953 293.463,174.421 293.400,192.805 293.400 L 209.800 293.400 209.800 292.200 L 209.800 291.000 192.889 290.896 C 178.405 290.806,175.946 290.875,175.755 291.372 M244.772 291.434 C 243.212 293.313,243.867 293.392,261.899 293.504 C 280.094 293.617,279.656 293.667,278.982 291.544 C 278.645 290.482,245.650 290.376,244.772 291.434 " stroke="none" fill="#dae0e4" fill-rule="evenodd"></path><path id="path2" d="M106.498 144.700 L 106.600 183.000 200.000 183.000 L 293.400 183.000 293.502 144.700 L 293.604 106.400 200.000 106.400 L 106.396 106.400 106.498 144.700 M182.711 165.023 C 183.774 165.767,183.883 167.424,182.938 168.469 C 181.045 170.560,177.549 167.730,179.300 165.522 C 180.240 164.337,181.474 164.156,182.711 165.023 M190.424 165.224 C 192.159 166.959,190.070 170.298,187.950 169.181 C 186.722 168.534,186.414 168.042,186.406 166.723 C 186.394 164.678,188.932 163.732,190.424 165.224 M197.702 164.900 C 199.365 166.170,198.325 169.600,196.277 169.600 C 195.437 169.600,193.600 167.744,193.600 166.895 C 193.600 165.041,196.219 163.767,197.702 164.900 M205.584 165.275 C 207.795 167.649,204.437 170.874,202.144 168.580 C 201.352 167.789,201.182 167.317,201.384 166.480 C 201.896 164.355,204.130 163.714,205.584 165.275 M212.711 165.023 C 214.216 166.077,213.876 168.219,212.050 169.181 C 211.239 169.608,210.946 169.567,210.050 168.901 C 207.317 166.870,209.924 163.071,212.711 165.023 M220.333 165.038 C 221.570 165.905,221.380 167.839,219.954 168.898 C 218.387 170.063,216.400 169.008,216.400 167.012 C 216.400 164.783,218.479 163.740,220.333 165.038 " stroke="none" fill="#44c3a3" fill-rule="evenodd"></path><path id="path3" d="M178.300 0.275 C 176.375 0.361,174.800 0.604,174.800 0.816 C 174.800 1.027,173.551 1.200,172.024 1.200 C 170.497 1.200,169.136 1.380,169.000 1.600 C 168.864 1.820,167.874 2.000,166.800 2.000 C 165.726 2.000,164.736 2.180,164.600 2.400 C 164.464 2.620,163.373 2.800,162.176 2.800 C 160.979 2.800,160.000 2.980,160.000 3.200 C 160.000 3.420,159.201 3.600,158.224 3.600 C 157.247 3.600,156.336 3.780,156.200 4.000 C 156.064 4.220,155.243 4.400,154.376 4.400 C 153.509 4.400,152.800 4.580,152.800 4.800 C 152.800 5.020,152.080 5.200,151.200 5.200 C 150.320 5.200,149.600 5.380,149.600 5.600 C 149.600 5.820,148.981 6.000,148.224 6.000 C 147.467 6.000,146.736 6.180,146.600 6.400 C 146.464 6.620,145.838 6.800,145.210 6.800 C 144.581 6.800,144.007 6.974,143.933 7.187 C 143.860 7.400,143.227 7.618,142.528 7.670 C 141.828 7.723,141.344 7.909,141.451 8.083 C 141.559 8.257,141.052 8.408,140.324 8.418 C 139.596 8.427,138.280 8.695,137.400 9.012 C 136.520 9.329,135.485 9.591,135.100 9.594 C 134.715 9.597,134.400 9.780,134.400 10.000 C 134.400 10.220,133.950 10.400,133.400 10.400 C 132.850 10.400,132.400 10.541,132.400 10.713 C 132.400 10.885,131.905 11.066,131.300 11.116 C 130.695 11.166,130.140 11.385,130.067 11.603 C 129.993 11.822,129.509 12.000,128.990 12.000 C 128.472 12.000,127.936 12.180,127.800 12.400 C 127.664 12.620,127.113 12.800,126.576 12.800 C 126.039 12.800,125.600 12.980,125.600 13.200 C 125.600 13.420,125.240 13.600,124.800 13.600 C 124.360 13.600,124.000 13.780,124.000 14.000 C 124.000 14.220,123.561 14.400,123.024 14.400 C 122.487 14.400,121.936 14.580,121.800 14.800 C 121.664 15.020,121.203 15.200,120.776 15.200 C 120.349 15.200,119.999 15.335,119.997 15.500 C 119.993 15.859,118.056 16.800,117.320 16.800 C 117.034 16.800,116.800 16.980,116.800 17.200 C 116.800 17.420,116.485 17.597,116.100 17.594 C 115.330 17.588,110.280 20.020,110.067 20.500 C 109.993 20.665,109.588 20.800,109.167 20.800 C 108.745 20.800,108.400 20.980,108.400 21.200 C 108.400 21.420,108.040 21.600,107.600 21.600 C 107.160 21.600,106.800 21.780,106.800 22.000 C 106.800 22.220,106.440 22.400,106.000 22.400 C 105.560 22.400,105.200 22.558,105.200 22.751 C 105.200 22.945,104.660 23.327,104.000 23.600 C 103.340 23.873,102.800 24.255,102.800 24.449 C 102.800 24.642,102.440 24.800,102.000 24.800 C 101.560 24.800,101.200 24.980,101.200 25.200 C 101.200 25.420,100.882 25.600,100.493 25.600 C 100.104 25.600,99.123 26.050,98.314 26.600 C 97.505 27.150,96.694 27.600,96.512 27.600 C 96.331 27.600,95.556 28.099,94.791 28.708 C 94.026 29.318,92.905 30.068,92.300 30.376 C 91.695 30.684,91.200 31.085,91.200 31.268 C 91.200 31.450,90.880 31.600,90.488 31.600 C 90.097 31.600,89.517 31.960,89.200 32.400 C 88.883 32.840,88.343 33.200,88.000 33.200 C 87.657 33.200,87.117 33.560,86.800 34.000 C 86.483 34.440,85.991 34.800,85.708 34.800 C 85.425 34.800,84.628 35.340,83.937 36.000 C 83.246 36.660,82.478 37.200,82.229 37.200 C 81.980 37.200,81.517 37.560,81.200 38.000 C 80.883 38.440,80.375 38.800,80.072 38.800 C 79.769 38.800,79.017 39.340,78.400 40.000 C 77.783 40.660,77.173 41.200,77.043 41.200 C 76.912 41.200,76.400 41.549,75.903 41.976 C 75.406 42.402,74.567 43.122,74.039 43.576 C 73.510 44.029,72.934 44.400,72.757 44.400 C 72.581 44.400,71.664 45.174,70.719 46.119 C 69.773 47.065,68.370 48.277,67.600 48.813 C 66.830 49.348,64.439 51.590,62.287 53.793 C 57.582 58.611,58.611 57.582,53.793 62.287 C 51.590 64.439,49.342 66.830,48.799 67.600 C 48.255 68.370,47.043 69.770,46.105 70.711 C 45.167 71.651,44.400 72.577,44.400 72.768 C 44.400 72.959,43.905 73.671,43.300 74.349 C 41.514 76.352,41.200 76.752,41.200 77.023 C 41.200 77.164,40.660 77.783,40.000 78.400 C 39.340 79.017,38.800 79.769,38.800 80.072 C 38.800 80.375,38.440 80.883,38.000 81.200 C 37.560 81.517,37.200 82.025,37.200 82.328 C 37.200 82.631,36.660 83.383,36.000 84.000 C 35.340 84.617,34.800 85.369,34.800 85.672 C 34.800 85.975,34.440 86.483,34.000 86.800 C 33.560 87.117,33.200 87.657,33.200 88.000 C 33.200 88.343,32.840 88.883,32.400 89.200 C 31.960 89.517,31.600 90.057,31.600 90.400 C 31.600 90.743,31.240 91.283,30.800 91.600 C 30.360 91.917,30.000 92.329,30.000 92.516 C 30.000 92.703,29.460 93.641,28.800 94.600 C 28.140 95.559,27.600 96.456,27.600 96.593 C 27.600 96.730,27.150 97.505,26.600 98.314 C 26.050 99.123,25.600 100.104,25.600 100.493 C 25.600 100.882,25.420 101.200,25.200 101.200 C 24.980 101.200,24.800 101.560,24.800 102.000 C 24.800 102.440,24.655 102.800,24.479 102.800 C 24.302 102.800,23.717 103.697,23.179 104.794 C 22.640 105.890,22.065 106.790,21.900 106.794 C 21.735 106.797,21.600 107.160,21.600 107.600 C 21.600 108.040,21.420 108.400,21.200 108.400 C 20.980 108.400,20.800 108.760,20.800 109.200 C 20.800 109.640,20.649 110.000,20.464 110.000 C 20.279 110.000,19.890 110.720,19.600 111.600 C 19.310 112.480,18.965 113.200,18.834 113.200 C 18.703 113.200,18.360 113.785,18.071 114.500 C 17.783 115.215,17.379 116.113,17.174 116.495 C 16.968 116.877,16.800 117.462,16.800 117.795 C 16.800 118.128,16.620 118.400,16.400 118.400 C 16.180 118.400,16.000 118.760,16.000 119.200 C 16.000 119.640,15.820 120.000,15.600 120.000 C 15.380 120.000,15.200 120.349,15.200 120.776 C 15.200 121.203,15.020 121.664,14.800 121.800 C 14.580 121.936,14.400 122.361,14.400 122.744 C 14.400 123.619,13.501 125.593,13.100 125.597 C 12.935 125.599,12.800 126.039,12.800 126.576 C 12.800 127.113,12.620 127.664,12.400 127.800 C 12.180 127.936,12.000 128.487,12.000 129.024 C 12.000 129.561,11.820 130.000,11.600 130.000 C 11.380 130.000,11.200 130.362,11.200 130.805 C 11.200 131.248,11.041 131.923,10.847 132.305 C 9.740 134.482,8.699 137.913,8.999 138.398 C 9.135 138.619,9.057 138.800,8.824 138.800 C 8.591 138.800,8.400 139.329,8.400 139.976 C 8.400 140.623,8.220 141.264,8.000 141.400 C 7.780 141.536,7.600 142.166,7.600 142.800 C 7.600 143.434,7.420 144.064,7.200 144.200 C 6.980 144.336,6.800 144.876,6.800 145.400 C 6.800 145.924,6.620 146.464,6.400 146.600 C 6.180 146.736,6.000 147.467,6.000 148.224 C 6.000 148.981,5.820 149.600,5.600 149.600 C 5.380 149.600,5.200 150.320,5.200 151.200 C 5.200 152.080,5.020 152.800,4.800 152.800 C 4.580 152.800,4.400 153.599,4.400 154.576 C 4.400 155.553,4.220 156.464,4.000 156.600 C 3.780 156.736,3.600 157.636,3.600 158.600 C 3.600 159.564,3.420 160.464,3.200 160.600 C 2.980 160.736,2.800 161.546,2.800 162.400 C 2.800 163.254,2.620 164.064,2.400 164.200 C 2.180 164.336,2.000 165.506,2.000 166.800 C 2.000 168.094,1.820 169.264,1.600 169.400 C 1.380 169.536,1.200 170.681,1.200 171.944 C 1.200 173.247,0.984 174.456,0.700 174.740 C 0.311 175.129,0.200 180.743,0.200 200.087 C 0.200 219.608,0.307 224.969,0.700 225.100 C 1.030 225.210,1.200 226.131,1.200 227.810 C 1.200 229.208,1.380 230.464,1.600 230.600 C 1.820 230.736,2.000 231.906,2.000 233.200 C 2.000 234.494,2.180 235.664,2.400 235.800 C 2.620 235.936,2.800 236.937,2.800 238.024 C 2.800 239.111,2.980 240.000,3.200 240.000 C 3.420 240.000,3.600 240.709,3.600 241.576 C 3.600 242.443,3.780 243.264,4.000 243.400 C 4.220 243.536,4.400 244.447,4.400 245.424 C 4.400 246.401,4.580 247.200,4.800 247.200 C 5.020 247.200,5.200 247.920,5.200 248.800 C 5.200 249.680,5.380 250.400,5.600 250.400 C 5.820 250.400,6.000 251.019,6.000 251.776 C 6.000 252.533,6.180 253.264,6.400 253.400 C 6.620 253.536,6.800 254.076,6.800 254.600 C 6.800 255.124,6.980 255.664,7.200 255.800 C 7.420 255.936,7.600 256.566,7.600 257.200 C 7.600 257.834,7.780 258.464,8.000 258.600 C 8.220 258.736,8.400 259.284,8.400 259.818 C 8.400 261.175,11.176 269.596,12.447 272.095 C 12.641 272.477,12.800 273.152,12.800 273.595 C 12.800 274.038,12.980 274.400,13.200 274.400 C 13.420 274.400,13.600 274.760,13.600 275.200 C 13.600 275.640,13.780 276.000,14.000 276.000 C 14.220 276.000,14.400 276.439,14.400 276.976 C 14.400 277.513,14.580 278.064,14.800 278.200 C 15.020 278.336,15.200 278.797,15.200 279.224 C 15.200 279.651,15.335 280.001,15.500 280.003 C 15.859 280.007,16.800 281.944,16.800 282.680 C 16.800 282.966,16.980 283.200,17.200 283.200 C 17.420 283.200,17.600 283.650,17.600 284.200 C 17.600 284.750,17.780 285.200,18.000 285.200 C 18.220 285.200,18.400 285.453,18.400 285.762 C 18.400 286.428,20.068 289.741,20.500 289.933 C 20.665 290.007,20.800 290.412,20.800 290.833 C 20.800 291.255,20.980 291.600,21.200 291.600 C 21.420 291.600,21.600 291.960,21.600 292.400 C 21.600 292.840,21.780 293.200,22.000 293.200 C 22.220 293.200,22.400 293.560,22.400 294.000 C 22.400 294.440,22.580 294.800,22.800 294.800 C 23.020 294.800,23.200 295.036,23.200 295.325 C 23.200 295.613,23.560 296.236,24.000 296.708 C 24.440 297.180,24.800 297.726,24.800 297.922 C 24.800 298.361,26.044 300.926,26.390 301.200 C 26.528 301.310,26.952 302.066,27.330 302.881 C 27.709 303.695,28.424 304.865,28.920 305.481 C 29.415 306.096,30.071 307.095,30.378 307.700 C 30.684 308.305,31.085 308.800,31.268 308.800 C 31.450 308.800,31.600 309.120,31.600 309.512 C 31.600 309.903,31.960 310.483,32.400 310.800 C 32.840 311.117,33.200 311.657,33.200 312.000 C 33.200 312.343,33.560 312.883,34.000 313.200 C 34.440 313.517,34.800 314.025,34.800 314.328 C 34.800 314.631,35.340 315.383,36.000 316.000 C 36.660 316.617,37.200 317.369,37.200 317.672 C 37.200 317.975,37.560 318.483,38.000 318.800 C 38.440 319.117,38.800 319.585,38.800 319.840 C 38.800 320.095,39.520 321.045,40.400 321.952 C 41.280 322.859,42.000 323.698,42.000 323.817 C 42.000 323.936,42.183 324.251,42.407 324.517 C 43.957 326.354,44.400 326.962,44.400 327.251 C 44.400 327.431,45.167 328.349,46.105 329.289 C 47.043 330.230,48.255 331.630,48.799 332.400 C 49.342 333.170,51.590 335.561,53.793 337.713 C 58.611 342.418,57.582 341.389,62.287 346.207 C 64.439 348.410,66.830 350.658,67.600 351.201 C 68.370 351.745,69.770 352.957,70.711 353.895 C 71.651 354.833,72.569 355.600,72.749 355.600 C 72.930 355.600,73.451 355.915,73.906 356.300 C 74.362 356.685,75.226 357.360,75.826 357.800 C 76.426 358.240,77.556 359.185,78.337 359.900 C 79.118 360.615,79.951 361.200,80.190 361.200 C 80.428 361.200,80.883 361.560,81.200 362.000 C 81.517 362.440,81.980 362.800,82.229 362.800 C 82.478 362.800,83.246 363.340,83.937 364.000 C 84.628 364.660,85.425 365.200,85.708 365.200 C 85.991 365.200,86.483 365.560,86.800 366.000 C 87.117 366.440,87.657 366.800,88.000 366.800 C 88.343 366.800,88.883 367.160,89.200 367.600 C 89.517 368.040,90.057 368.400,90.400 368.400 C 90.743 368.400,91.283 368.760,91.600 369.200 C 91.917 369.640,92.329 370.000,92.516 370.000 C 92.703 370.000,93.608 370.501,94.528 371.112 C 95.448 371.724,96.740 372.489,97.400 372.812 C 98.060 373.135,98.690 373.503,98.800 373.631 C 99.092 373.970,101.662 375.200,102.078 375.200 C 102.274 375.200,102.820 375.560,103.292 376.000 C 103.764 376.440,104.387 376.800,104.675 376.800 C 104.964 376.800,105.200 376.980,105.200 377.200 C 105.200 377.420,105.560 377.600,106.000 377.600 C 106.440 377.600,106.800 377.780,106.800 378.000 C 106.800 378.220,107.160 378.400,107.600 378.400 C 108.040 378.400,108.400 378.580,108.400 378.800 C 108.400 379.020,108.745 379.200,109.167 379.200 C 109.588 379.200,109.993 379.343,110.067 379.519 C 110.247 379.949,113.839 381.600,114.596 381.600 C 114.928 381.600,115.200 381.780,115.200 382.000 C 115.200 382.220,115.560 382.400,116.000 382.400 C 116.440 382.400,116.800 382.580,116.800 382.800 C 116.800 383.020,117.160 383.200,117.600 383.200 C 118.040 383.200,118.400 383.380,118.400 383.600 C 118.400 383.820,118.665 384.000,118.988 384.000 C 119.311 384.000,120.217 384.360,121.000 384.800 C 121.783 385.240,122.779 385.600,123.212 385.600 C 123.645 385.600,124.000 385.780,124.000 386.000 C 124.000 386.220,124.360 386.400,124.800 386.400 C 125.240 386.400,125.600 386.580,125.600 386.800 C 125.600 387.020,126.140 387.200,126.800 387.200 C 127.460 387.200,128.000 387.380,128.000 387.600 C 128.000 387.820,128.435 388.000,128.967 388.000 C 129.498 388.000,129.993 388.135,130.067 388.300 C 130.253 388.720,139.209 391.625,140.276 391.611 C 140.758 391.605,141.264 391.780,141.400 392.000 C 141.536 392.220,142.177 392.400,142.824 392.400 C 143.471 392.400,144.000 392.580,144.000 392.800 C 144.000 393.020,144.529 393.200,145.176 393.200 C 145.823 393.200,146.464 393.380,146.600 393.600 C 146.736 393.820,147.467 394.000,148.224 394.000 C 148.981 394.000,149.600 394.145,149.600 394.322 C 149.600 394.499,150.365 394.688,151.300 394.742 C 152.235 394.796,153.060 395.011,153.133 395.220 C 153.207 395.429,153.961 395.600,154.810 395.600 C 155.658 395.600,156.464 395.780,156.600 396.000 C 156.736 396.220,157.557 396.400,158.424 396.400 C 159.291 396.400,160.000 396.580,160.000 396.800 C 160.000 397.020,160.979 397.200,162.176 397.200 C 163.373 397.200,164.464 397.380,164.600 397.600 C 164.736 397.820,165.726 398.000,166.800 398.000 C 167.874 398.000,168.864 398.180,169.000 398.400 C 169.136 398.620,170.482 398.800,171.990 398.800 C 173.829 398.800,174.788 398.965,174.900 399.300 C 175.144 400.032,224.856 400.032,225.100 399.300 C 225.212 398.965,226.171 398.800,228.010 398.800 C 229.518 398.800,230.864 398.620,231.000 398.400 C 231.136 398.180,232.227 398.000,233.424 398.000 C 234.621 398.000,235.600 397.820,235.600 397.600 C 235.600 397.380,236.590 397.200,237.800 397.200 C 239.010 397.200,240.000 397.020,240.000 396.800 C 240.000 396.580,240.709 396.400,241.576 396.400 C 242.443 396.400,243.264 396.220,243.400 396.000 C 243.536 395.780,244.346 395.600,245.200 395.600 C 246.054 395.600,246.864 395.420,247.000 395.200 C 247.136 394.980,247.957 394.800,248.824 394.800 C 249.691 394.800,250.400 394.620,250.400 394.400 C 250.400 394.180,251.019 394.000,251.776 394.000 C 252.533 394.000,253.264 393.820,253.400 393.600 C 253.536 393.380,254.177 393.200,254.824 393.200 C 255.471 393.200,256.000 393.020,256.000 392.800 C 256.000 392.580,256.630 392.400,257.400 392.400 C 258.170 392.400,258.800 392.220,258.800 392.000 C 258.800 391.780,259.241 391.600,259.780 391.600 C 260.960 391.600,269.744 388.755,269.933 388.312 C 270.007 388.140,270.491 388.000,271.010 388.000 C 271.528 388.000,272.064 387.820,272.200 387.600 C 272.336 387.380,272.887 387.200,273.424 387.200 C 273.961 387.200,274.400 387.064,274.400 386.898 C 274.400 386.543,275.915 385.854,278.300 385.125 C 279.235 384.839,280.000 384.469,280.000 384.303 C 280.000 384.136,280.360 384.000,280.800 384.000 C 281.240 384.000,281.600 383.820,281.600 383.600 C 281.600 383.380,281.872 383.200,282.205 383.200 C 282.538 383.200,283.123 383.039,283.505 382.842 C 283.887 382.645,285.460 381.881,287.000 381.144 C 288.540 380.407,289.860 379.668,289.933 379.502 C 290.007 379.336,290.412 379.200,290.833 379.200 C 291.255 379.200,291.600 379.020,291.600 378.800 C 291.600 378.580,291.945 378.400,292.367 378.400 C 292.788 378.400,293.193 378.265,293.267 378.100 C 293.434 377.724,295.564 376.425,296.500 376.129 C 296.885 376.007,297.200 375.748,297.200 375.553 C 297.200 375.359,297.455 375.200,297.768 375.200 C 298.293 375.200,300.742 374.058,301.200 373.599 C 301.310 373.489,301.938 373.129,302.596 372.799 C 304.341 371.925,308.578 369.116,308.733 368.731 C 308.807 368.549,309.172 368.400,309.545 368.400 C 309.918 368.400,310.483 368.040,310.800 367.600 C 311.117 367.160,311.657 366.800,312.000 366.800 C 312.343 366.800,312.883 366.440,313.200 366.000 C 313.517 365.560,314.025 365.200,314.328 365.200 C 314.631 365.200,315.383 364.660,316.000 364.000 C 316.617 363.340,317.369 362.800,317.672 362.800 C 317.975 362.800,318.483 362.440,318.800 362.000 C 319.117 361.560,319.585 361.200,319.840 361.200 C 320.095 361.200,321.045 360.480,321.952 359.600 C 322.859 358.720,323.736 357.997,323.900 357.994 C 324.065 357.990,324.809 357.450,325.554 356.794 C 326.299 356.137,327.059 355.600,327.244 355.600 C 327.428 355.600,328.349 354.833,329.289 353.895 C 330.230 352.957,331.630 351.745,332.400 351.201 C 333.170 350.658,335.561 348.410,337.713 346.207 C 342.418 341.389,341.389 342.418,346.207 337.713 C 348.410 335.561,350.652 333.170,351.187 332.400 C 351.723 331.630,352.935 330.227,353.881 329.281 C 354.826 328.336,355.600 327.419,355.600 327.243 C 355.600 327.066,355.971 326.490,356.424 325.961 C 356.878 325.433,357.598 324.594,358.024 324.097 C 358.451 323.600,358.800 323.104,358.800 322.993 C 358.800 322.883,359.340 322.228,360.000 321.537 C 360.660 320.846,361.200 320.078,361.200 319.829 C 361.200 319.580,361.560 319.117,362.000 318.800 C 362.440 318.483,362.800 317.975,362.800 317.672 C 362.800 317.369,363.340 316.617,364.000 316.000 C 364.660 315.383,365.200 314.631,365.200 314.328 C 365.200 314.025,365.560 313.517,366.000 313.200 C 366.440 312.883,366.800 312.343,366.800 312.000 C 366.800 311.657,367.160 311.117,367.600 310.800 C 368.040 310.483,368.400 309.918,368.400 309.545 C 368.400 309.172,368.550 308.807,368.733 308.733 C 369.123 308.577,371.911 304.344,372.773 302.600 C 373.099 301.940,373.464 301.310,373.583 301.200 C 373.955 300.856,375.200 298.355,375.200 297.951 C 375.200 297.739,375.560 297.180,376.000 296.708 C 376.440 296.236,376.800 295.613,376.800 295.325 C 376.800 295.036,376.980 294.800,377.200 294.800 C 377.420 294.800,377.600 294.440,377.600 294.000 C 377.600 293.560,377.780 293.200,378.000 293.200 C 378.220 293.200,378.400 292.840,378.400 292.400 C 378.400 291.960,378.580 291.600,378.800 291.600 C 379.020 291.600,379.200 291.255,379.200 290.833 C 379.200 290.412,379.335 290.007,379.500 289.933 C 379.995 289.713,382.400 284.746,382.400 283.944 C 382.400 283.535,382.580 283.200,382.800 283.200 C 383.020 283.200,383.200 282.840,383.200 282.400 C 383.200 281.960,383.380 281.600,383.600 281.600 C 383.820 281.600,384.000 281.240,384.000 280.800 C 384.000 280.360,384.180 280.000,384.400 280.000 C 384.620 280.000,384.800 279.651,384.800 279.224 C 384.800 278.797,384.980 278.336,385.200 278.200 C 385.420 278.064,385.600 277.513,385.600 276.976 C 385.600 276.439,385.780 276.000,386.000 276.000 C 386.220 276.000,386.400 275.640,386.400 275.200 C 386.400 274.760,386.580 274.400,386.800 274.400 C 387.020 274.400,387.200 274.038,387.200 273.595 C 387.200 273.152,387.359 272.477,387.553 272.095 C 388.835 269.574,391.600 261.171,391.600 259.794 C 391.600 259.247,391.780 258.800,392.000 258.800 C 392.220 258.800,392.400 258.170,392.400 257.400 C 392.400 256.630,392.580 256.000,392.800 256.000 C 393.020 256.000,393.200 255.471,393.200 254.824 C 393.200 254.177,393.380 253.536,393.600 253.400 C 393.820 253.264,394.000 252.443,394.000 251.576 C 394.000 250.709,394.180 250.000,394.400 250.000 C 394.620 250.000,394.800 249.381,394.800 248.624 C 394.800 247.867,394.980 247.136,395.200 247.000 C 395.420 246.864,395.600 246.054,395.600 245.200 C 395.600 244.346,395.780 243.536,396.000 243.400 C 396.220 243.264,396.400 242.443,396.400 241.576 C 396.400 240.709,396.580 240.000,396.800 240.000 C 397.020 240.000,397.200 239.010,397.200 237.800 C 397.200 236.590,397.380 235.600,397.600 235.600 C 397.820 235.600,398.000 234.621,398.000 233.424 C 398.000 232.227,398.180 231.136,398.400 231.000 C 398.620 230.864,398.800 229.518,398.800 228.010 C 398.800 226.171,398.965 225.212,399.300 225.100 C 400.032 224.856,400.032 175.144,399.300 174.900 C 398.965 174.788,398.800 173.829,398.800 171.990 C 398.800 170.482,398.620 169.136,398.400 169.000 C 398.180 168.864,398.000 167.773,398.000 166.576 C 398.000 165.379,397.820 164.400,397.600 164.400 C 397.380 164.400,397.200 163.601,397.200 162.624 C 397.200 161.647,397.020 160.736,396.800 160.600 C 396.580 160.464,396.400 159.564,396.400 158.600 C 396.400 157.636,396.220 156.736,396.000 156.600 C 395.780 156.464,395.600 155.553,395.600 154.576 C 395.600 153.599,395.420 152.800,395.200 152.800 C 394.980 152.800,394.800 152.170,394.800 151.400 C 394.800 150.630,394.620 150.000,394.400 150.000 C 394.180 150.000,394.000 149.291,394.000 148.424 C 394.000 147.557,393.820 146.736,393.600 146.600 C 393.380 146.464,393.200 145.823,393.200 145.176 C 393.200 144.529,393.040 144.000,392.845 144.000 C 392.650 144.000,392.392 143.505,392.271 142.900 C 391.568 139.375,391.084 137.547,389.983 134.262 C 388.772 130.645,388.243 129.262,387.553 127.905 C 387.359 127.523,387.200 126.848,387.200 126.405 C 387.200 125.962,387.020 125.600,386.800 125.600 C 386.580 125.600,386.400 125.240,386.400 124.800 C 386.400 124.360,386.220 124.000,386.000 124.000 C 385.780 124.000,385.600 123.561,385.600 123.024 C 385.600 122.487,385.420 121.936,385.200 121.800 C 384.980 121.664,384.800 121.203,384.800 120.776 C 384.800 120.349,384.620 120.000,384.400 120.000 C 384.180 120.000,384.000 119.640,384.000 119.200 C 384.000 118.760,383.820 118.400,383.600 118.400 C 383.380 118.400,383.200 118.040,383.200 117.600 C 383.200 117.160,383.020 116.800,382.800 116.800 C 382.580 116.800,382.400 116.350,382.400 115.800 C 382.400 115.250,382.220 114.800,382.000 114.800 C 381.780 114.800,381.600 114.547,381.600 114.238 C 381.600 113.572,379.932 110.259,379.500 110.067 C 379.335 109.993,379.200 109.588,379.200 109.167 C 379.200 108.745,379.020 108.400,378.800 108.400 C 378.580 108.400,378.400 108.040,378.400 107.600 C 378.400 107.160,378.220 106.800,378.000 106.800 C 377.780 106.800,377.600 106.440,377.600 106.000 C 377.600 105.560,377.420 105.200,377.200 105.200 C 376.980 105.200,376.800 104.964,376.800 104.675 C 376.800 104.387,376.440 103.764,376.000 103.292 C 375.560 102.820,375.200 102.255,375.200 102.038 C 375.200 101.454,372.173 95.939,370.753 93.938 C 370.339 93.354,370.000 92.719,370.000 92.527 C 370.000 92.334,369.640 91.917,369.200 91.600 C 368.760 91.283,368.400 90.743,368.400 90.400 C 368.400 90.057,368.040 89.517,367.600 89.200 C 367.160 88.883,366.800 88.343,366.800 88.000 C 366.800 87.657,366.440 87.117,366.000 86.800 C 365.560 86.483,365.200 85.943,365.200 85.600 C 365.200 85.257,364.840 84.717,364.400 84.400 C 363.960 84.083,363.600 83.593,363.600 83.312 C 363.600 83.030,363.420 82.800,363.200 82.800 C 362.980 82.800,362.800 82.570,362.800 82.288 C 362.800 82.007,362.440 81.517,362.000 81.200 C 361.560 80.883,361.200 80.420,361.200 80.171 C 361.200 79.922,360.660 79.154,360.000 78.463 C 359.340 77.772,358.800 77.117,358.800 77.007 C 358.800 76.896,358.451 76.400,358.024 75.903 C 357.598 75.406,356.878 74.567,356.424 74.039 C 355.971 73.510,355.600 72.934,355.600 72.757 C 355.600 72.581,354.826 71.664,353.881 70.719 C 352.935 69.773,351.723 68.370,351.187 67.600 C 350.652 66.830,348.410 64.439,346.207 62.287 C 341.336 57.530,342.311 58.506,338.028 54.100 C 336.049 52.065,334.233 50.400,333.992 50.400 C 333.750 50.400,333.664 50.220,333.800 50.000 C 333.936 49.780,333.806 49.600,333.512 49.600 C 333.218 49.600,331.748 48.430,330.246 47.000 C 328.743 45.570,327.373 44.400,327.200 44.400 C 327.026 44.400,326.281 43.859,325.542 43.199 C 323.650 41.505,323.264 41.200,323.013 41.200 C 322.892 41.200,322.228 40.660,321.537 40.000 C 320.846 39.340,320.078 38.800,319.829 38.800 C 319.580 38.800,319.117 38.440,318.800 38.000 C 318.483 37.560,317.993 37.200,317.712 37.200 C 317.430 37.200,317.200 37.020,317.200 36.800 C 317.200 36.580,316.970 36.400,316.688 36.400 C 316.407 36.400,315.917 36.040,315.600 35.600 C 315.283 35.160,314.743 34.800,314.400 34.800 C 314.057 34.800,313.517 34.440,313.200 34.000 C 312.883 33.560,312.343 33.200,312.000 33.200 C 311.657 33.200,311.117 32.840,310.800 32.400 C 310.483 31.960,309.943 31.600,309.600 31.600 C 309.257 31.600,308.717 31.240,308.400 30.800 C 308.083 30.360,307.666 30.000,307.473 30.000 C 307.281 30.000,306.646 29.661,306.062 29.247 C 303.741 27.600,298.525 24.800,297.779 24.800 C 297.460 24.800,297.200 24.648,297.200 24.463 C 297.200 24.277,296.345 23.692,295.300 23.163 C 294.255 22.633,293.340 22.065,293.267 21.900 C 293.193 21.735,292.788 21.600,292.367 21.600 C 291.945 21.600,291.600 21.420,291.600 21.200 C 291.600 20.980,291.251 20.800,290.824 20.800 C 290.397 20.800,289.948 20.639,289.827 20.443 C 289.515 19.939,284.578 17.600,283.825 17.600 C 283.481 17.600,283.200 17.420,283.200 17.200 C 283.200 16.980,282.840 16.800,282.400 16.800 C 281.960 16.800,281.600 16.620,281.600 16.400 C 281.600 16.180,281.240 16.000,280.800 16.000 C 280.360 16.000,280.000 15.853,280.000 15.672 C 280.000 15.492,279.100 15.100,278.000 14.800 C 276.900 14.500,276.000 14.108,276.000 13.928 C 276.000 13.747,275.640 13.600,275.200 13.600 C 274.760 13.600,274.400 13.420,274.400 13.200 C 274.400 12.980,274.038 12.800,273.595 12.800 C 273.152 12.800,272.432 12.620,271.995 12.400 C 271.558 12.180,270.842 11.820,270.405 11.600 C 269.968 11.380,269.336 11.200,269.000 11.200 C 268.664 11.200,268.077 11.024,267.695 10.809 C 266.355 10.055,260.771 8.400,259.568 8.400 C 258.860 8.400,258.456 8.233,258.600 8.000 C 258.747 7.762,258.279 7.600,257.447 7.600 C 256.677 7.600,255.936 7.420,255.800 7.200 C 255.664 6.980,255.124 6.800,254.600 6.800 C 254.076 6.800,253.536 6.620,253.400 6.400 C 253.264 6.180,252.533 6.000,251.776 6.000 C 251.019 6.000,250.400 5.820,250.400 5.600 C 250.400 5.380,249.680 5.200,248.800 5.200 C 247.920 5.200,247.200 5.020,247.200 4.800 C 247.200 4.580,246.401 4.400,245.424 4.400 C 244.447 4.400,243.536 4.220,243.400 4.000 C 243.264 3.780,242.443 3.600,241.576 3.600 C 240.709 3.600,240.000 3.420,240.000 3.200 C 240.000 2.980,239.111 2.800,238.024 2.800 C 236.937 2.800,235.936 2.620,235.800 2.400 C 235.664 2.180,234.494 2.000,233.200 2.000 C 231.906 2.000,230.736 1.820,230.600 1.600 C 230.464 1.380,229.208 1.200,227.810 1.200 C 226.152 1.200,225.210 1.029,225.103 0.708 C 224.941 0.222,187.291 -0.126,178.300 0.275 M309.146 90.758 C 309.759 91.146,309.679 308.454,309.067 309.067 C 308.454 309.679,91.146 309.759,90.758 309.146 C 90.182 308.237,90.303 91.457,90.880 90.880 C 91.457 90.303,308.237 90.182,309.146 90.758 " stroke="none" fill="#ebab54" fill-rule="evenodd"></path><path id="path4" d="M145.500 90.700 C 175.475 90.757,224.525 90.757,254.500 90.700 C 284.475 90.643,259.950 90.597,200.000 90.597 C 140.050 90.597,115.525 90.643,145.500 90.700 M90.597 200.000 C 90.597 259.950,90.643 284.475,90.700 254.500 C 90.757 224.525,90.757 175.475,90.700 145.500 C 90.643 115.525,90.597 140.050,90.597 200.000 M309.396 180.800 C 309.396 226.670,309.443 245.435,309.500 222.500 C 309.557 199.565,309.557 162.035,309.500 139.100 C 309.443 116.165,309.396 134.930,309.396 180.800 M244.602 191.297 C 244.094 192.753,244.220 239.599,244.733 239.796 C 246.114 240.325,292.704 239.998,293.154 239.455 C 293.482 239.060,293.578 232.316,293.503 214.955 L 293.400 191.000 269.089 190.897 C 249.845 190.815,244.741 190.899,244.602 191.297 M309.350 278.600 C 309.351 281.020,309.416 281.958,309.496 280.685 C 309.576 279.412,309.575 277.432,309.494 276.285 C 309.414 275.138,309.349 276.180,309.350 278.600 M139.100 309.500 C 162.035 309.557,199.565 309.557,222.500 309.500 C 245.435 309.443,226.670 309.396,180.800 309.396 C 134.930 309.396,116.165 309.443,139.100 309.500 M276.515 309.496 C 277.788 309.576,279.768 309.575,280.915 309.494 C 282.062 309.414,281.020 309.349,278.600 309.350 C 276.180 309.351,275.242 309.416,276.515 309.496 " stroke="none" fill="#e06151" fill-rule="evenodd"></path></g></svg>